<svg class="twilight-cutiemark-icon" xmlns="http://www.w3.org/2000/svg" width="714" height="909" viewBox="-6.5 -8.5 714 909"><g class="twilight-cutiemark-stars" fill="#FFF"><path d="M262.377 890.239l7.872-81.345 32.386 14.225-22.857-39.844 26.517-39.36-34.25 10.427-14.018-76.787-8.908 78.997-43.573-24.238 35.908 48.89-27.414 45.368 36.115-18.575 12.222 82.242zM78.305 628.613l10.449-81.543 42.969 14.062-30.273-39.746 35.059-39.258-45.41 10.352-18.652-76.66-11.719 79.102L2.621 470.41l47.656 49.023-35.937 45.215 47.559-18.555 16.406 82.52zM190.769 174.155l7.458-66.587 31.104 11.377-21.924-32.373L232.7 54.297l-32.617 8.594L186.654 0l-8.447 64.648-41.895-19.922 34.326 40.137-25.928 37.109 34.277-15.186 11.782 67.369zM587.338 234.863l9.521-71.68 38.77 12.402-27.344-35.059 31.543-34.863-40.918 9.18-16.797-67.578-10.645 69.922-52.343-21.777 43.066 43.262-32.422 39.941 42.969-16.211 14.6 72.461zM635.824 825.684l11.133-102.051 44.824 17.773-31.738-49.707 36.719-49.414-47.461 13.086-19.434-95.996-12.207 98.926-60.547-30.469 49.414 61.133-37.207 56.543 49.805-23.047 16.699 103.223zM315.825 664.296l32.455-82.174 88.388-17.401 71.677 112.971-40.051-112.281 29.555-82.45 98.194-19.749-98.47-29.141-48.337-78.168 24.307-94.189-36.875 63.253-98.332 20.992-79.688-71.263 46.128 77.616-15.744 93.636-91.289 12.706 90.736 8.424 42.399 87.698-15.053 109.52z"/></g><path fill="#EF5092" d="M397.941 865.851l39.66-307.069L599.6 612.229 485.312 463.086l131.445-148.828-170.801 39.551-69.922-289.16-43.75 297.949-218.945-92.09 179.785 183.887-135.741 170.8 179.199-70.117 61.359 310.773z" class="twilight-cutiemark-star"/></svg>