<svg xmlns="http://www.w3.org/2000/svg" width="640" height="640"><defs><clipPath id="a"><path d="M435.607 369.899h31.242v-64.782h-31.242v64.782z"/></clipPath><clipPath id="b"><path d="M421.796 349.477h39.074v-88.423h-39.074v88.423z"/></clipPath></defs><path d="M292.475 53.282s8.767 18.686-3.687 39.28c-6.224 10.292-163.135 43.686-224.385 128.686-37.5 58.75-95 228.75 88.75 341.25 82.5 42.5 117.5 41.25 117.5 41.25s-55-38.75-20-65 86.25-38.75 100-75c16.25 12.5 42.5 38.75 67.5 36.25-2.5-16.25-8.75-22.5 11.25-25s30-2.5 30-2.5-18.75-15-40-16.25-61.25-42.5-60-60c26.25-15 60-40 80-32.5s40 20 43.75 31.25c0 7.5-3.75 20 12.5 10s12.5-16.25 18.75-30 7.5-16.25-6.25-27.5-46.25-37.5-72.5-30-81.25 28.75-108.75 2.5c11.25-25 28.75-65 20-92.5 16.25-12.5 35-26.25 37.5-48.75 18.75-2.5 58.75-13.75 51.25-33.75S374.91 36.036 293.66 53.536" fill="#fff"/><path d="M551.903 257.498c13.75-36.25 36.25-97.5 15-100s-45 55-51.25 70-31.25 90-17.5 100 53.75-70 53.75-70" fill="#fff"/><path d="M435.653 159.998c3.912-6.149 7.276-.806-9.6.444-16.874 1.25-37.027 6.48-40.485 13.81-6.49 13.753-8.665 47.621-33.04 55.121-1.25 8.75 0 28.75 34.375 32.5s35.625-18.75 55.625-18.125 18.125-6.875 11.25-12.5-30.625-43.75-30.625-56.25 8.125-8.125 12.5-15M128.778 536.872s-10.625-28.125 20.625-43.125 59.375-3.125 65 7.5-9.375 53.125-63.125 53.75c-13.125-10.625-22.5-18.125-22.5-18.125" fill="#da687d"/><g clip-path="url(#a)" opacity=".7" transform="matrix(1.25 0 0 -1.25 -26.846 640)"><path d="M466.258 369.838c.423-1.569.298-3.199.255-4.838-.042-1.614-.193-3.312-.604-4.963.106-.377-.082-.814-.018-1.2-.41-.516-.194-.904-.284-1.355.661-.674 1.522-1.313 1.152-2.162-.259-.596-.874-.706-1.464-.995-.389-1.403-.709-3.099-1.028-4.649-.097-.476-.044-1.05-.187-1.485-.334-1.01-.69-1.978-.97-3.09-.238-.945.033-2.689-1.064-2.81-.423-1.05-.663-1.842-1.165-2.83-.286-.164-.452.105-.692.008-.305-.348-.294-.823-.577-1.114-.222-.229-.503-.163-.665-.385-.363-.5-.266-1.24-.523-1.902a4.701 4.701 0 0 1-1.147-1.478c-.588-1.179-.698-2.68-1.59-3.593-.28-.286-.762-.365-1.012-.647-.238-.269-.455-.665-.689-.98-.338-.452-.669-1.045-.972-1.583-1.004-1.787-2.383-3.71-3.3-5.664-.174-.369-.2-.805-.365-1.165-.38-.827-.943-1.579-1.257-2.333-.516-1.239-1.31-3.339-2.538-4.42-.149-.13-.473-.254-.606-.414-.179-.215-.136-.568-.32-.808-.086-.113-.4-.164-.537-.302-.208-.21-.306-.48-.479-.639-.426-.388-1.015-.555-1.38-.959-.278-.306-.398-.743-.693-1.127-.318-.413-.76-.784-1.09-1.202-.994-1.264-1.38-2.8-2.702-3.396-.393-.178-.88-.12-1.29-.24-.375.343-.079.817-.164 1.163-.055.222-.285.382-.346.583-.143.474-.347 1.336-.34 1.878.007.538.305.971.375 1.612.061.55-.137 1.246-.177 1.856-.02.306.064.624.06.956-.009.533-.067.801.007 1.442.086.743-.074 1.462-.17 2.152.341 1.705.53 3.008 1.09 4.92.257.88.72 2.366 1.18 3.345.885 1.895 1.64 3.964 2.6 5.945.318.656.824 1.196 1.138 1.852.182.381.211.828.395 1.215 1.617 3.398 3.877 6.233 5.565 9.731 1.4 2.86 2.88 5.418 4.745 8.545.842 1.415 1.568 2.917 2.434 4.086.66.891 1.632 2.413 2.334 3.916.278.596.27 1.073 1.005 1.102.758.948 1.326 2.018 2.12 2.824.2.202.51.303.732.498.26.228.383.57.638.778.541.441 1.432.832 2.035 1.66.16.22.23.45.406.681.414.54 1.191 1.866 1.81 2.013.088.052.203.028.33-.033" fill="#da687d" fill-rule="evenodd"/></g><g clip-path="url(#b)" opacity=".7" transform="matrix(1.25 0 0 -1.25 -26.846 640)"><path d="M459.897 349.449c.688-1.936.765-4.106.935-6.266-.02-2.14-.168-4.58-.715-6.943.098-.492-.155-1.108-.11-1.623-.518-.752-.294-1.25-.437-1.876.718-.835 1.666-1.61 1.155-2.836-.37-.846-1.118-1.037-1.845-1.48-.64-1.904-1.226-4.262-1.846-6.304-.187-.635-.212-1.395-.447-1.977-.547-1.362-1.111-2.656-1.597-4.101-.416-1.238-.356-3.498-1.652-3.69-.61-1.354-.978-2.372-1.674-3.65-.35-.217-.512.119-.801-.013-.392-.456-.442-1.063-.795-1.445-.27-.298-.585-.226-.785-.514-.45-.651-.386-1.58-.723-2.425a6.566 6.566 0 0 1-1.121-1.393l-.153-.266-.072-.136-.034-.07-.003-.003v-.001l.05.119-.001-.002-.001-.001-.004-.01-.008-.02-.016-.036c-.697-1.635-.851-3.63-1.895-4.955-.335-.421-.872-.577-1.142-.971-.26-.375-.491-.912-.746-1.347-.366-.625-.722-1.432-1.046-2.164-1.085-2.456-2.571-5.274-3.572-8.03-.188-.523-.205-1.106-.385-1.617-.422-1.173-1.022-2.273-1.394-3.342-.626-1.753-1.474-4.727-3.01-6.377-.182-.2-.567-.415-.732-.65-.22-.315-.191-.786-.42-1.137-.106-.164-.475-.275-.642-.48-.254-.313-.383-.69-.594-.926-.503-.581-1.23-.865-1.714-1.438-.365-.435-.562-1.03-.958-1.568-.426-.578-.991-1.104-1.428-1.683l-1.828-2.608c-.592-.813-1.215-1.514-2.047-1.884-.495-.22-1.042-.12-1.54-.256-.352.473.087 1.07.062 1.524-.018.288-.25.504-.28.766-.07.615-.141 1.712-.035 2.387.099.676.548 1.19.712 2.005.125.708-.034 1.59-.025 2.359.004.387.13.79.153 1.206.038.668-.008.999.13 1.795.163.922-.034 1.854-.121 2.709.426 2.19.686 3.806 1.265 6.362.273 1.176.786 3.104 1.265 4.488.472 1.315.904 2.68 1.347 4.063.445 1.4.906 2.84 1.424 4.249.347.939.896 1.734 1.274 2.728.213.565.249 1.192.465 1.767.475 1.25.99 2.514 1.54 3.656.554 1.123 1.13 2.228 1.712 3.336l.938 1.807c.326.58.653 1.16.98 1.745a75.53 75.53 0 0 1 1.886 3.609 129.605 129.605 0 0 0 3.189 5.725 340.135 340.135 0 0 0 3.629 5.817c1.158 1.853 2.248 3.825 3.357 5.355.827 1.167 2.173 3.163 3.042 5.126.342.78.349 1.38 1.197 1.482.907 1.274 1.649 2.697 2.452 3.773.214.276.563.445.808.722.286.323.408.762.693 1.065.582.653 1.672 1.277 2.21 2.569.15.332.198.653.368 1.006.397.822 1.098 2.779 1.78 3.145.091.093.224.093.375.049" fill="#da687d" fill-rule="evenodd"/></g><path d="M520.86 231.248s-10 38.334-5.833 70l5.834-70M532.736 205.343c-.762-2.684-5.746 74.348-4.29 77.045 1.458 2.699 8.934-60.719 4.29-77.045" fill="#fff"/><path d="M294.061 57.995s5.834 33.275-48.333 50.775-128.826 32.478-183.826 98.312c-55 65.832-65 174.999-27.5 246.666 37.5 71.666 129.166 160.834 294.166 160.834S624.635 487.7 624.635 400.2c0-45.834-25.184-35.615-33.893 7.385-7.861 38.811-80.506 183.663-263.006 183.663-182.5 0-275.834-110.834-287.5-205.834-11.668-95 14.873-176.836 110.707-226.002 95.834-49.168 156.65-29.58 143.317-101.247" fill="#2d2b2c"/><path d="M248.571 314.581s-10.833 50.001-63.333 74.166c-52.5 24.168-75 37.5-82.5 79.168 20-33.333 78.333-40 110.833-72.5s35-80.834 35-80.834M262.738 198.748s45 58.334 98.333 30c53.333-28.334 25.834-94.166 25-98.334-.833-4.166 5.833 73.334-34.167 86.668-40 13.332-89.166-18.334-89.166-18.334M145.236 547.08s28.333 1.668 49.167-21.665c20.833-23.335 9.167-60 43.333-73.335 34.167-13.332 57.5-5 57.5-5s-60.833 8.335-65.833 43.335-13.333 50.833-26.667 61.665c-13.333 10.835-30.833 12.5-30.833 12.5l-26.667-17.5z" fill="#2d2b2c"/><path d="M273.778 365.623s50.653-8.48 73.75-60c18.958-42.292 6.25-78.75 6.25-78.75l-25.625 3.75s10.625 30.625 2.5 58.125-26.875 59.375-56.875 76.875M546.416 248.547c-18.076 45.163-44.716 77.585-47.831 75.843-5.617-3.141-.447-42.545 17.63-87.708 18.075-45.162 40.54-79.543 48.88-76.267 8.34 3.276-.604 42.97-18.679 88.132m26.249-90.632c-20.552-11.168-45.805 30.561-66.595 79.167-20.791 48.607-23.177 87.787-7.199 94.795 21.365 9.37 41.409-27.856 62.199-76.462s30-87.5 11.595-97.5" fill="#2d2b2c"/><path d="M199.402 402.915s12.914 38.796 77.5 30.832c60.834-7.5 86.988-30.93 124.166-54.167 26.668-16.665 25-9.165 28.334-8.333 3.334.833 18.334 10 34.166 8.333.834 8.335-7.498 1.667-10.832 9.167-1.666 5 12.65 28.53 33.332 25 34.168-5.832 24.584-20 31.252-35.832 6.666-15.833 11.25-24.168-22.084-46.668-25.834-23.332-40-17.498-52.5-17.498s-45 17.498-67.5 13.332-36.668-12.5-36.668-12.5l-14.998 16.666s27.498 20.833 59.166 13.333c31.666-7.5 55.001-31.665 82.501-19.165 27.5 12.5 32.853 20.876 41.249 27.082 9.584 7.085 10.416 14.583 3.75 21.25-6.668 6.668.001 11.668-4.165 19.168-4.168 7.5-25 10.832-25 10.832s22.841-29.346-5-31.665c-20-1.667-32.5-28.335-60.834-14.167-40.687 20.346-98.335 55-138.335 59.165-38.991 4.06-53.334-8.333-63.334-31.665-11.666 10-14.166 17.5-14.166 17.5" fill="#2d2b2c"/><path d="M342.736 411.248s28.334 15 20 47.5-45.834 55-70 65.835c-24.166 10.832-42.179 25.158-24.166 34.165 15 7.5 23.333-11.668 45-15 21.666-3.333 40.833 5 42.5 17.5-9.168-5-15.834-5-15.834-5s7.5 5 8.334 13.334c.832 8.333-.834 4.165-5.834 4.165-12.5 0-14.166-10.832-25-9.165-27.5 2.5-29.166 14.168-44.166 15.833-15 1.667-40-6.667-36.668-25.832 3.334-19.168 29.168-32.5 53.334-42.5 24.166-10 60.834-41.668 55.834-70-5-28.336-26.668-22.5-26.668-22.5l23.334-8.336zM413.778 175.31s11.875 5.938 19.375 35.938c5 10.834 11.666 19.584 17.5 22.084 5.833 2.5-2.5 5-6.667 4.166-4.167-.834-12.917-4.584-18.75.416s-20 18.334-40 15c-20-3.332-37.083-16.04-37.083-16.04s7.5 33.124 52.083 31.04c30.902-1.443 24.167-17.5 45-20.832 20.833-3.334 18.617-13.861 14.167-22.5-7.084-13.75-29.167-17.084-31.667-57.293-2.5-4.166-18.125.522-13.958 8.022M485.017 384.412c1.883 1.846-14.781 39.336-14.781 39.336s-3.334 9.167-12.267 5.937c-9.14-3.306-6.767-9.935-6.767-9.935l21.283-38.546s11.691 2.383 12.532 3.208M508.433 331.04l-4.166 12.5-13.614-10.418 3.614-7.915 14.166 5.833z" fill="#2d2b2c"/><path d="M356.07 403.748c-2.5 9.167 29.166 62.502 50.833 59.167 21.667-3.333 24.999 3.335 18.333 7.5-6.666 4.168-18.333 5.835-16.666 11.668 1.666 5.832 6.25 11.667-4.584 10-10.833-1.668-32.916-13.335-46.25-35.835-4.166 13.335-5.833 17.5-5.833 17.5s42.5 44.167 85.833 25.835c-7.5-5.835-28.333-4.168-10.833-14.168s30.833-13.332 39.167 2.5c4.166-.833 4.166-37.5-50.834-35-19.166-2.5-45-40-45-59.168-5 5-11.666.833-14.166 10M525.557 219.373s-10.938 32.858-6.38 60l6.38-60M536.757 199.937c-.555-2.075-5.088 57.201-4.004 59.294 1.085 2.091 7.386-46.674 4.004-59.294M391.069 167.081s47.084-4.166 38.75-22.916c-25.131-56.549-72.916-89.584-161.25-86.25 50-20 92.5-17.5 133.334 17.5 20.416 17.5 29.866 38.8 37.187 55.104 11.675 26 8.236 28.433-4.687 35.729-15.71 8.868-42.74 3.212-43.334.833" fill="#2d2b2c"/><path d="M395.885 174.272s12.956 8.923 23.128 1.658c4.676-4.812 7.792-7.438-5.464-6.89l-16.131-.662c-11.176-2.28-10.956 1.172-1.533 5.894z" fill="#2d2b2c"/></svg>