<svg xmlns="http://www.w3.org/2000/svg" viewBox="0 0 91.585 16.16"><path d="M7.21.63c.02.09-.03.17-.19.25C6.81.76 6.36.71 5.98.74c-.4.04-.75.16-.7.44.06.28.46.43 1.15.37C8.12 1.4 8.12.25 10.61.03c1.94-.17 3.03.43 3.18 1.16.12.57-.35 1.11-1.76 1.24-1.25.11-1.97-.22-2.05-.57-.04-.17.07-.44.67-.51.06.27.41.56 1.21.49.58-.05 1.08-.26 1.01-.58-.07-.34-.69-.53-1.66-.45-1.97.17-2.46 1.27-4.15 1.42-1.2.1-2.17-.33-2.31-.98-.05-.24-.06-.82 1.21-.93.67-.06 1.2.05 1.25.31zM.76 7.44c-.55.7-.8 1.5-.75 2.3.05.8.45 1.45 1.05 1.95.65.5 1.35.65 2.15.5.3-.05.65-.2.95-.3-.65 0-1.2-.2-1.75-.65-.6-.45-1-1.05-1.1-1.8-.15-.7 0-1.35.4-1.9.45-.55 1-.85 1.75-.95.75-.05 1.4.15 2.05.6-.15-.2-.35-.35-.55-.55-.66-.45-1.36-.65-2.21-.45-.8.15-1.45.55-1.99 1.25zM9.44 3.7c-2.1 0-3.94-.2-5.29-.5-1.45-.35-2.2-.75-2.2-1.25 0-.2.1-.4.4-.6-.9.35-1.4.65-1.4 1.1.05.5.85 1 2.5 1.4 1.55.4 3.54.6 5.94.6 2.45 0 4.39-.2 5.94-.6 1.65-.4 2.45-.9 2.45-1.4 0-.35-.35-.7-1-.95.15.1.25.25.25.45 0 .5-.75.9-2.25 1.25-1.4.3-3.19.5-5.34.5zm5.94 1.4c-1.55.35-3.54.6-5.94.6-2.45-.01-4.44-.26-5.99-.6-1.4-.35-2.15-.75-2.4-1.15.25 1.74.85 3.39 1.65 4.84.6.9 1.2 1.7 1.8 2.55.25.5.45 1 .55 1.5.4.55.95.9 1.65 1.1.85.3 1.75.45 2.65.4h.1c.9.05 1.85-.1 2.75-.4.65-.2 1.2-.55 1.6-1.1h.05c.1-.5.25-1 .5-1.5.6-.85 1.2-1.65 1.8-2.55.8-1.45 1.35-3.09 1.65-4.84-.32.45-1.07.85-2.42 1.15zm17.2 4.88c-.78 1.97-2.85 2.74-4.19 2.74-2.18 0-3.22-.97-3.22-3.62 0-2.66 1.28-7.65 5.13-7.65 1.38 0 2.46.54 2.46 1.97 0 .78-.28 1.35-1.03 1.35-.24 0-.56-.06-.84-.38.35-.18.68-.79.68-1.35 0-.47-.24-.9-.9-.9-1.62 0-3.06 3.87-3.06 6.87 0 1.35.35 2.29 1.76 2.29 1.15 0 2.19-.56 2.87-1.47l.34.15zm5.33-2.63c.06.03.12.03.16.03.68 0 1.63-.44 2.26-.88l.13.4c-.56.6-1.53 1.04-2.6 1.22-.24 2.72-1.71 4.43-3.52 4.43-1.37 0-2.35-.65-2.35-2.32 0-1.69 1-5.22 4.03-5.22 1.27-.01 1.89.8 1.89 2.34zm-1.27.81c-.31-.07-.4-.32-.4-.62 0-.41.19-.68.46-.79-.03-.62-.18-.85-.56-.85-1.04 0-1.96 2.69-1.96 4.13 0 .97.19 1.19.75 1.19.73 0 1.48-1.33 1.71-3.06zm-1.06 6.41c0-1.35 1.15-1.78 2.54-2.21l1.76-8.4c.44-2.1 1.71-2.5 2.68-2.5.66 0 1.29.35 1.57.93.59-.75 1.37-.93 2.01-.93.9 0 1.74.63 1.74 1.59 0 .24-.01.43-.04.6h-.69c.01-.15.03-.26.03-.4 0-.34-.26-.5-.56-.5-.32 0-.78.18-1 1.16l-.26 1.21h1.47l-.13.6h-1.46l-1.66 7.94c-.44 2.1-1.71 2.5-2.68 2.5-.84 0-1.35-.37-1.59-.93-.57.75-1.35.93-2 .93-.89 0-1.73-.63-1.73-1.59zm1.49.28c.31 0 .68-.28.87-1.15l.18-.85c-.93.31-1.63.72-1.63 1.52-.01.2.25.48.58.48zm3.5 0c.31 0 .68-.28.87-1.15l.35-1.68-1.51.28-.28 1.35c-.07.34-.18.65-.28.9.13.24.47.3.85.3zm-.22-2.91l1.51-.26 1.25-5.96h-1.46l-1.3 6.22zm2.69-9.18c-.32 0-.78.18-1 1.16l-.26 1.21h1.46l.34-1.54c.03-.12.03-.21.03-.32-.01-.35-.28-.51-.57-.51zm6.13 8.58c1.16 0 1.87-.65 2.6-1.49h.5c-.84 1.35-2.09 2.72-4.04 2.72-1.38 0-2.29-.68-2.29-2.34 0-1.69.96-5.24 3.97-5.24 1.31 0 1.62.68 1.62 1.41 0 1.69-1.62 3-3.38 3.1-.01.21-.03.41-.03.59-.01 1.01.35 1.25 1.05 1.25zm.85-5.56c-.75 0-1.47 1.57-1.76 3.03 1.13-.07 2.13-1.21 2.13-2.43 0-.37-.09-.6-.37-.6zm4.64 5.39c.56 0 1.26-.37 1.74-.78-.31 1.68-1.37 2.18-2.54 2.18-1.37 0-2.28-.68-2.28-2.34 0-1.69.96-5.24 3.97-5.24 1.31 0 1.62.68 1.62 1.41 0 1.71-1.62 3-3.38 3.1-.01.15-.03.31-.03.44-.01.94.38 1.23.9 1.23zm1-5.39c-.74 0-1.47 1.63-1.78 3.03 1.15-.06 2.15-1.19 2.15-2.43-.01-.37-.09-.6-.37-.6zm8.29-1.08c-.26 0-.49-.09-.68-.31.4-.24.66-.78.66-1.26 0-.51-.28-.99-1.09-.99s-1.35.46-1.35 1.34c0 2.16 3.31 2.46 3.31 5.63 0 2.47-2 3.68-4.13 3.68-1.68 0-3.12-.74-3.12-2.53 0-1.59 1.13-2.41 2.16-2.41.51 0 1.25.21 1.29.97-.79 0-1.72.37-1.72 1.38 0 .74.47 1.41 1.41 1.41.99 0 1.71-.72 1.71-1.96 0-2.51-3.01-3.41-3.01-5.57 0-1.53 1.5-2.63 3.4-2.63.69 0 2.37.15 2.37 1.76 0 .86-.47 1.49-1.21 1.49zm5.87 1.68c0-.37-.13-.6-.41-.6-.93 0-1.88 2.69-1.88 4.32 0 1 .35 1.24 1.06 1.24 1.16 0 1.87-.65 2.6-1.49h.5c-.84 1.35-2.09 2.72-4.04 2.72-1.38 0-2.29-.68-2.29-2.34-.01-1.7.96-5.23 3.94-5.23 1.31 0 1.63.68 1.63 1.35 0 .72-.35 1.07-.78 1.07-.16 0-.34-.06-.51-.18.12-.32.18-.61.18-.86zm4.48-1.25l-.19.91c.51-.44 1.07-.91 1.78-.91.66 0 1.01.54 1.01 1.1 0 .51-.34 1.07-1.06 1.07-.82 0-.41-.97-.85-.97s-.71.22-1.07.56l-1.18 5.59h-2.12l1.56-7.35h2.12zm5.53 0l-1.06 5c-.04.19-.06.34-.06.47 0 .41.19.54.6.54.57 0 1.1-.56 1.32-1.29h.62c-.84 2.4-2.29 2.72-3.09 2.72-.88 0-1.57-.53-1.57-1.76 0-.28.04-.6.12-.96l1-4.72h2.12zM79.17 2c.65 0 1.18.53 1.18 1.18s-.53 1.16-1.18 1.16c-.65 0-1.16-.51-1.16-1.16S78.53 2 79.17 2zm4.71 2.59l-.24 1.1c.43-.37.99-.63 1.72-.63 1 0 1.79.57 1.79 2.32 0 1.99-.76 5.19-3.62 5.19-.74 0-1.09-.25-1.25-.53l-.77 3.59-2.22.53 2.46-11.57h2.13zm1.26 2.75c0-1.13-.47-1.22-.74-1.22-.32 0-.74.25-1.01.72l-.87 4.12c.06.16.22.34.56.34 1.55-.01 2.06-2.58 2.06-3.96zm4.5 2.79c-.04.18-.07.35-.07.51 0 .31.12.53.51.53.1 0 .27 0 .38-.04-.41 1.26-1.06 1.44-1.56 1.44-1.03 0-1.47-.72-1.47-1.66 0-.25.03-.51.09-.78l.94-4.41h-.49l.12-.59h.49l.44-2.03 2.18-.29s-.22 1-.5 2.32h.88l-.12.59h-.88l-.94 4.41z"/></svg>