<svg xmlns="http://www.w3.org/2000/svg" width="792" height="612" viewBox="0 0 792 612"><path fill="#E94B4B" d="M404.72 405.739c-22.574 0-40.017-3.392-48.405-5.412-5.736-1.382-10.342-2.812-13.841-4.282l11.187 19.114 4.376 59.719c0 6.695 21.268 12.122 47.503 12.122s47.503-5.427 47.503-12.122l3.465-60.369 10.586-18.518c-3.514 1.489-8.161 2.937-13.969 4.337-8.389 2.02-25.832 5.411-48.405 5.411z"/><path fill="#E94B4B" d="M467.456 211.411C450.888 213.725 428.899 215 405.54 215s-45.348-1.275-61.916-3.589c-8.207-1.146-14.7-2.498-19.299-4.016-1.097-.362-2.956-.982-4.745-1.968l10.265 94.473a81.159 81.159 0 0 1 1.598-4.871 92.145 92.145 0 0 1 4.181-9.731 86.098 86.098 0 0 1 5.169-8.984 69.482 69.482 0 0 1 5.946-7.79c2.102-2.372 4.258-4.413 6.472-6.122 2.213-1.709 4.447-3.044 6.702-4.007 2.256-.962 4.49-1.443 6.703-1.443 2.549 0 5.015.697 7.396 2.09 2.381 1.393 4.607 3.651 6.682 6.77.475.697.777 1.402.902 2.115.127.714.189 1.386.189 2.016 0 1.493-.357 2.672-1.071 3.534-.714.863-1.562 1.294-2.542 1.294-.898 0-1.731-.473-2.501-1.418-.771-.946-1.632-2.297-2.585-4.057-.896-1.593-1.884-2.745-2.962-3.459-1.079-.713-2.248-1.07-3.509-1.07-1.961 0-4.055.814-6.282 2.439-2.228 1.626-4.434 3.775-6.618 6.446-2.185 2.671-4.28 5.724-6.283 9.158a95.676 95.676 0 0 0-5.316 10.552c-1.541 3.602-2.766 7.152-3.676 10.652-.911 3.5-1.366 6.645-1.366 9.432 0 .93.064 1.885.189 2.861.127.98.364 1.867.715 2.664.35.797.826 1.451 1.429 1.965.602.516 1.366.772 2.29.772 1.037 0 2.213-.348 3.53-1.045 1.316-.695 2.683-1.609 4.097-2.736a51.479 51.479 0 0 0 4.266-3.834 68.31 68.31 0 0 0 3.992-4.33 63.03 63.03 0 0 0 3.277-4.205c.953-1.344 1.667-2.514 2.144-3.51l3.908-11.697c.476-1.26 1.099-2.156 1.87-2.688.77-.53 1.561-.796 2.375-.796.391 0 .783.067 1.176.199.393.133.742.34 1.051.622.309.282.553.647.735 1.095.182.448.273.971.273 1.567 0 1.593-.14 3.085-.42 4.48a35.594 35.594 0 0 1-1.071 4.082 71.12 71.12 0 0 1-1.45 4.006 100.328 100.328 0 0 0-1.555 4.207c-.111.166-.314.688-.609 1.566-.294.881-.65 1.984-1.071 3.311-.42 1.328-.876 2.812-1.366 4.455a1177 1177 0 0 1-1.512 5.027 396.43 396.43 0 0 0-1.492 5.027 1033.08 1033.08 0 0 0-2.227 7.789 56.33 56.33 0 0 1-.462 1.594 10.489 10.489 0 0 1-.672 1.766 11.793 11.793 0 0 1-1.094 1.842 6.735 6.735 0 0 1-1.387 1.443c-.504.381-1.023.572-1.555.572-.896 0-1.548-.299-1.953-.895-.407-.598-.609-1.693-.609-3.285v-.697c0-.232.014-.482.041-.746.027-.531.238-1.527.631-2.988.393-1.459.861-3.109 1.408-4.951.546-1.842 1.135-3.75 1.765-5.725.63-1.975 1.197-3.74 1.702-5.301a83.059 83.059 0 0 1-4.833 4.953 52.03 52.03 0 0 1-5.337 4.43c-1.821 1.31-3.656 2.381-5.505 3.211-1.849.828-3.628 1.244-5.337 1.244-1.961 0-3.649-.432-5.065-1.295-.256-.156-.496-.332-.736-.506l5.712 59.888c1.486 3.727 29.48 12.884 66.39 12.884 36.928 0 64.932-9.166 66.394-12.89l8.205-71.203c-.68.623-1.34 1.232-1.973 1.822-2.354 2.189-4.574 4.072-6.662 5.648-2.086 1.576-4.125 2.797-6.113 3.658-1.99.863-4.119 1.295-6.389 1.295-2.129 0-3.775-.465-4.938-1.395-1.162-.928-1.744-2.205-1.744-3.832v-.373c0-.115.014-.258.043-.424.111-.994.547-2.141 1.303-3.434a39.358 39.358 0 0 1 2.73-4.031 109.466 109.466 0 0 1 3.404-4.232 196.27 196.27 0 0 0 3.342-4.057c1.021-1.275 1.869-2.445 2.541-3.508.674-1.062 1.01-1.924 1.01-2.588 0-.398-.141-.713-.42-.947-.281-.23-.744-.348-1.387-.348-1.121 0-2.277.291-3.467.871-1.191.58-2.369 1.361-3.531 2.34a31.97 31.97 0 0 0-3.404 3.359 49.353 49.353 0 0 0-3.109 3.932 52.804 52.804 0 0 0-2.646 4.107 57.302 57.302 0 0 0-2.039 3.807c-.168.365-.406.881-.715 1.543-.309.664-.645 1.412-1.008 2.24-.365.83-.75 1.686-1.156 2.562a111.16 111.16 0 0 0-1.113 2.49l-.902 2.09a51.889 51.889 0 0 1-.568 1.27c-.141.299-.371.861-.693 1.691-.322.83-.693 1.801-1.113 2.912l-1.324 3.51a819.097 819.097 0 0 0-1.303 3.484c-.406 1.094-.764 2.057-1.07 2.887-.309.828-.506 1.393-.59 1.692a18.115 18.115 0 0 1-.986 2.44 10.044 10.044 0 0 1-1.303 2.016 5.968 5.968 0 0 1-1.682 1.393c-.631.35-1.338.523-2.121.523-1.01 0-1.842-.242-2.502-.723-.656-.48-.986-1.402-.986-2.762 0-.664.084-1.344.252-2.04.168-.697.379-1.387.631-2.066.252-.682.512-1.344.777-1.99.266-.648.512-1.27.734-1.867a963.477 963.477 0 0 1 4.623-9.98 460.161 460.161 0 0 0 4.518-9.904c.301-.682.576-1.35.869-2.027-.088.086-.174.176-.26.26-1.822 1.76-3.635 3.311-5.442 4.654-1.808 1.344-3.601 2.414-5.379 3.211-1.779.795-3.51 1.193-5.191 1.193-1.148 0-2.107-.182-2.877-.547-.771-.365-1.387-.863-1.85-1.492-.463-.631-.793-1.377-.988-2.24-.066-.295-.107-.604-.15-.91-.492.383-.988.756-1.488 1.109-1.736 1.226-3.445 2.215-5.127 2.961-1.68.746-3.193 1.119-4.537 1.119-1.346 0-2.438-.447-3.279-1.344-.84-.895-1.26-2.422-1.26-4.578 0-1.527.225-3.303.672-5.326-.728 1.295-1.639 2.605-2.73 3.932a23.953 23.953 0 0 1-3.74 3.635 18.67 18.67 0 0 1-4.707 2.662c-1.738.68-3.629 1.02-5.673 1.02-.925 0-1.814-.115-2.669-.348a5.595 5.595 0 0 1-2.248-1.195c-.645-.562-1.162-1.318-1.555-2.264-.393-.945-.588-2.133-.588-3.559 0-.033.056-.539.168-1.52.111-.978.469-2.521 1.071-4.629.602-2.105 1.534-4.836 2.794-8.188 1.262-3.352 3.04-7.416 5.338-12.193.588-1.262 1.268-2.166 2.037-2.713.772-.548 1.604-.822 2.5-.822.393 0 .799.059 1.219.174.422.117.812.298 1.178.548.363.248.658.565.883.945.223.381.336.82.336 1.318 0 .332-.043.648-.127.945-.141.566-.441 1.303-.902 2.215a262.25 262.25 0 0 1-1.619 3.137 281.628 281.628 0 0 0-1.953 3.809 54.14 54.14 0 0 0-1.912 4.23 42.237 42.237 0 0 0-1.513 4.455 19.138 19.138 0 0 0-.714 4.404c0 .598.139 1.144.42 1.643.279.498.742.746 1.387.746 1.82 0 3.557-.598 5.211-1.791 1.652-1.195 3.178-2.68 4.58-4.455a42.864 42.864 0 0 0 3.803-5.725c1.135-2.041 2.08-3.906 2.836-5.6a28.386 28.386 0 0 0 1.408-3.633 36.134 36.134 0 0 1 1.324-3.584c.477-1.096 1.021-2.008 1.639-2.738.615-.729 1.387-1.094 2.311-1.094 1.01 0 1.807.382 2.397 1.145.588.764.881 1.676.881 2.736 0 .598-.188 1.42-.566 2.465a69.362 69.362 0 0 1-1.43 3.584 421.142 421.142 0 0 1-1.869 4.305 75.516 75.516 0 0 0-1.869 4.654c-.576 1.576-1.051 3.119-1.43 4.629s-.566 2.912-.566 4.205c0 1.195.615 1.793 1.848 1.793.869 0 1.947-.299 3.236-.896 1.289-.598 2.641-1.436 4.055-2.514.353-.27.709-.551 1.062-.846a34.707 34.707 0 0 1 1.396-4.504c.98-2.59 1.975-5.16 2.984-7.715 1.008-2.555 1.932-4.895 2.773-7.02l12.732-32.103c.504-1.294 1.184-2.207 2.037-2.738.855-.53 1.717-.796 2.586-.796.867 0 1.658.282 2.373.846.715.565 1.072 1.477 1.072 2.738 0 .597-.119 1.228-.357 1.891a22.905 22.905 0 0 1-.904 2.141 391.228 391.228 0 0 0-2.5 5.724 857.76 857.76 0 0 0-6.513 15.655 4681.714 4681.714 0 0 1-3.404 8.386 1001.972 1001.972 0 0 0-3.109 7.74c-.967 2.44-1.799 4.555-2.5 6.346a28.04 28.04 0 0 0-.902 2.664c-.295 1.012-.441 1.916-.441 2.713 0 .496.084.895.252 1.193.168.299.49.449.967.449.588 0 1.322-.207 2.205-.623.883-.414 1.834-.963 2.857-1.643a45.926 45.926 0 0 0 3.193-2.34 101.42 101.42 0 0 0 3.299-2.736 90.629 90.629 0 0 0 3.131-2.838c.994-.945 1.885-1.816 2.67-2.613.184-.191.404-.326.647-.428a89.318 89.318 0 0 0 1.285-4.15c.225-.598.533-1.443.926-2.539.391-1.096.84-2.174 1.344-3.236.504-1.061 1.072-1.982 1.701-2.762.631-.779 1.31-1.17 2.039-1.17 1.121 0 1.934.258 2.438.771.504.516.756 1.27.756 2.266 0 .199-.027.514-.084.945-.057.432-.125.889-.209 1.369-.084.48-.176.938-.273 1.369-.1.432-.189.746-.273.945a56.639 56.639 0 0 1 3.361-3.359 34.832 34.832 0 0 1 3.74-3.012 21.572 21.572 0 0 1 3.951-2.192c1.344-.563 2.689-.845 4.033-.845.924 0 1.842.133 2.752.398.91.265 1.725.656 2.438 1.169a6.12 6.12 0 0 1 1.744 1.941c.447.779.672 1.684.672 2.713 0 1.361-.342 2.812-1.029 4.355a31.455 31.455 0 0 1-2.584 4.652 58.26 58.26 0 0 1-3.361 4.555 173.74 173.74 0 0 1-3.383 4.031 326.027 326.027 0 0 0-2.648 3.086c-.713.848-1.086 1.42-1.113 1.719 0 .398.127.721.379.971.252.248.672.373 1.26.373.477 0 1.178-.266 2.102-.797.924-.531 2.221-1.451 3.887-2.762s3.783-3.07 6.346-5.277a605.745 605.745 0 0 0 6.135-5.366l11.115-102.928c-1.791.988-3.652 1.608-4.75 1.971-4.611 1.524-11.104 2.876-19.312 4.022z"/><path fill="#E94B4B" d="M405.54 186.756c-47.927 0-86.78 5.427-86.78 12.122S357.613 211 405.54 211s86.78-5.427 86.78-12.122-38.853-12.122-86.78-12.122zm24.332 18.557c-5.71 0-10.34-1.261-10.34-2.816s4.629-2.816 10.34-2.816c5.71 0 10.34 1.261 10.34 2.816s-4.629 2.816-10.34 2.816z"/><ellipse fill="#E94B4B" cx="429.872" cy="201.502" rx="8.323" ry="1.822"/><path fill="#E94B4B" d="M492.34 111.736c-.928 1.05-4.187-.333-7.268-3.08-3.081-2.747-5.182-5.539-4.197-6.536 1.034-1.046 4.361-.116 7.442 2.631 3.081 2.747 4.938 5.95 4.023 6.985z"/><path fill="#E94B4B" d="M492.34 111.736l-11.465-9.616-46.15 48.562-13.163 50.82h16.633l10.871-44.078z"/></svg>