<svg xmlns="http://www.w3.org/2000/svg" width="250" height="250" viewBox="0 0 250 250"><defs><linearGradient id="a" gradientUnits="userSpaceOnUse" x1="175" y1="111.872" x2="175" y2="-135.081" gradientTransform="matrix(1 0 0 -1 -50 111)"><stop offset="0" stop-color="#002e3b"/><stop offset="1" stop-color="#002639"/></linearGradient><radialGradient id="b" cx="63.304" cy="235.613" r="219.798" gradientUnits="userSpaceOnUse"><stop offset="0" stop-color="#00bc85"/><stop offset="1" stop-color="#149d91"/></radialGradient><radialGradient id="c" cx="186.827" cy="123.781" r="265.557" gradientTransform="matrix(1 0 0 -1 -50 111)" gradientUnits="userSpaceOnUse"><stop offset="0" stop-color="#00bc85"/><stop offset="1" stop-color="#149d91"/></radialGradient><radialGradient id="d" cx="118.056" cy="143.238" r="507.591" gradientTransform="matrix(1 0 0 -1 -50 111)" gradientUnits="userSpaceOnUse"><stop offset="0" stop-color="#004473"/><stop offset="1" stop-color="#00345f"/></radialGradient><linearGradient id="e" gradientUnits="userSpaceOnUse" x1="174.922" y1="110.614" x2="174.922" y2="-135.09" gradientTransform="matrix(1 0 0 -1 -50 111)"><stop offset="0" stop-color="#002e3b"/><stop offset="1" stop-color="#002639"/></linearGradient></defs><path fill="url(#a)" stroke="url(#a)" d="M124.913 210.751l-35.85-17.487.04-.019-.01-.005L51 211.82l73.941 36.064L199 211.9l-38.229-18.938z"/><path fill="url(#b)" stroke="url(#b)" d="M51.091 211.945v-37.164l36.658-17.878 37.706 18.597z"/><path fill="url(#c)" stroke="url(#c)" d="M165.596 58.995v58.763l-40.985 19.979 37.69 18.769 36.695-17.874V38.123z"/><path fill="url(#d)" stroke="url(#d)" d="M199 211.912v-37.166L84.498 117.723V58.96L51.096 38.088v100.509z"/><path fill="url(#e)" stroke="url(#e)" d="M84.396 58.904v-.012l40.543-19.774 40.546 19.774 33.359-20.846-73.932-36.061L51 38.035v.032l33.368 20.851z"/></svg>