<?xml version="1.0" encoding="UTF-8" standalone="no"?>
<svg id="svg2" xmlns:rdf="http://www.w3.org/1999/02/22-rdf-syntax-ns#" xmlns="http://www.w3.org/2000/svg" xmlns:osb="http://www.openswatchbook.org/uri/2009/osb" viewBox="0 0 527 646.46" version="1.1" xmlns:cc="http://creativecommons.org/ns#" xmlns:xlink="http://www.w3.org/1999/xlink" xmlns:dc="http://purl.org/dc/elements/1.1/">
 <defs id="defs4">
  <linearGradient id="linearGradient7466">
   <stop id="stop7468" stop-color="#290a4b" offset="0"/>
   <stop id="stop7470" stop-color="#633183" offset="1"/>
  </linearGradient>
  <g id="group0">
   <linearGradient id="linearGradient18516" osb:paint="solid">
    <stop id="stop18518" offset="0"/>
   </linearGradient>
  </g>
  <g id="page31">
   <linearGradient id="linearGradient19398" osb:paint="solid">
    <stop id="stop19400" stop-color="#d4a4e8" offset="0"/>
   </linearGradient>
   <linearGradient id="linearGradient19402" osb:paint="solid">
    <stop id="stop19404" stop-color="#ae85c1" offset="0"/>
   </linearGradient>
   <linearGradient id="linearGradient19406" osb:paint="solid">
    <stop id="stop19408" stop-color="#a66ebe" offset="0"/>
   </linearGradient>
   <linearGradient id="linearGradient19410" osb:paint="solid">
    <stop id="stop19412" stop-color="#273771" offset="0"/>
   </linearGradient>
   <linearGradient id="linearGradient19414" osb:paint="solid">
    <stop id="stop19416" stop-color="#132042" offset="0"/>
   </linearGradient>
   <linearGradient id="linearGradient19418" osb:paint="solid">
    <stop id="stop19420" stop-color="#622e86" offset="0"/>
   </linearGradient>
   <linearGradient id="linearGradient19422" osb:paint="solid">
    <stop id="stop19424" stop-color="#e6458b" offset="0"/>
   </linearGradient>
   <linearGradient id="linearGradient19434" osb:paint="solid">
    <stop id="stop19436" stop-color="#966bab" offset="0"/>
   </linearGradient>
   <linearGradient id="linearGradient19438" osb:paint="solid">
    <stop id="stop19440" stop-color="#ceb7d7" offset="0"/>
   </linearGradient>
   <linearGradient id="linearGradient19446" osb:paint="solid">
    <stop id="stop19448" stop-color="#fff" offset="0"/>
   </linearGradient>
  </g>
  <linearGradient id="linearGradient3898" gradientTransform="matrix(.0015897 .0011611 -.00048073 -.000075951 5657.8 -6055.5)" osb:paint="solid">
   <stop id="stop3900" stop-color="#fff" offset="0"/>
  </linearGradient>
  <linearGradient id="linearGradient3856" gradientTransform="matrix(.25604 .068555 -.053377 .38010 710.05 212.38)" osb:paint="solid">
   <stop id="stop3858" stop-color="#e6458b" offset="0"/>
  </linearGradient>
  <linearGradient id="linearGradient7543" y2="486.12" xlink:href="#linearGradient19410" gradientUnits="userSpaceOnUse" x2="-1279.3" gradientTransform="matrix(1.0887 -.14585 .14585 1.0887 1502.7 -226.1)" y1="486.12" x1="-1519.2"/>
  <linearGradient id="linearGradient7545" y2="486.33" xlink:href="#linearGradient19422" gradientUnits="userSpaceOnUse" x2="-1281.8" gradientTransform="matrix(1.0887 -.14585 .14585 1.0887 1502.7 -226.1)" y1="486.33" x1="-1487.1"/>
  <linearGradient id="linearGradient7547" y2="494.78" xlink:href="#linearGradient19418" gradientUnits="userSpaceOnUse" x2="-1319.1" gradientTransform="matrix(1.0887 -.14585 .14585 1.0887 1502.7 -226.1)" y1="494.78" x1="-1441.7"/>
  <linearGradient id="linearGradient7549" y2="486.12" xlink:href="#linearGradient19414" gradientUnits="userSpaceOnUse" x2="-1279.3" gradientTransform="matrix(1.0887 -.14585 .14585 1.0887 1502.7 -226.1)" y1="486.12" x1="-1519.2"/>
  <linearGradient id="linearGradient7551" y2="502.33" xlink:href="#linearGradient19414" gradientUnits="userSpaceOnUse" x2="-1312.8" gradientTransform="matrix(1.0887 -.14585 .14585 1.0887 1502.7 -226.1)" y1="502.33" x1="-1407.4"/>
  <linearGradient id="linearGradient7553" y2="484.01" xlink:href="#linearGradient19414" gradientUnits="userSpaceOnUse" x2="-1373.9" gradientTransform="matrix(1.0887 -.14585 .14585 1.0887 1502.7 -226.1)" y1="484.01" x1="-1505.2"/>
  <linearGradient id="linearGradient7555" y2="439.23" xlink:href="#linearGradient19402" gradientUnits="userSpaceOnUse" x2="-355.48" gradientTransform="matrix(1.0887 -.14585 .14585 1.0887 620.48 -78.432)" y1="439.23" x1="-414.92"/>
  <linearGradient id="linearGradient7557" y2="439.23" xlink:href="#linearGradient19406" gradientUnits="userSpaceOnUse" x2="-355.48" gradientTransform="matrix(1.0887 -.14585 .14585 1.0887 620.48 -78.432)" y1="439.23" x1="-414.92"/>
  <linearGradient id="linearGradient7559" y2="436.44" xlink:href="#linearGradient19402" gradientUnits="userSpaceOnUse" x2="-277.4" gradientTransform="matrix(1.0887 -.14585 .14585 1.0887 620.48 -78.432)" y1="436.44" x1="-342.01"/>
  <linearGradient id="linearGradient7561" y2="436.44" xlink:href="#linearGradient19406" gradientUnits="userSpaceOnUse" x2="-277.4" gradientTransform="matrix(1.0887 -.14585 .14585 1.0887 620.48 -78.432)" y1="436.44" x1="-342.01"/>
  <linearGradient id="linearGradient7563" y2="342.95" xlink:href="#linearGradient19398" gradientUnits="userSpaceOnUse" x2="-284.08" gradientTransform="matrix(1.0887 -.14585 .14585 1.0887 620.48 -78.432)" y1="342.95" x1="-486.72"/>
  <linearGradient id="linearGradient7565" y2="346.66" xlink:href="#linearGradient19406" gradientUnits="userSpaceOnUse" x2="-286.58" gradientTransform="matrix(1.0887 -.14585 .14585 1.0887 620.48 -78.432)" y1="346.66" x1="-455.18"/>
  <linearGradient id="linearGradient7567" y2="465.08" xlink:href="#linearGradient19398" gradientUnits="userSpaceOnUse" x2="-369.78" gradientTransform="matrix(1.0887 -.14585 .14585 1.0887 620.48 -78.432)" y1="465.08" x1="-490.75"/>
  <linearGradient id="linearGradient7569" y2="378.77" xlink:href="#linearGradient19406" gradientUnits="userSpaceOnUse" x2="-378.48" gradientTransform="matrix(1.0887 -.14585 .14585 1.0887 620.48 -78.432)" y1="378.77" x1="-487.06"/>
  <linearGradient id="linearGradient7571" y2="465.38" xlink:href="#linearGradient19406" gradientUnits="userSpaceOnUse" x2="-369.82" gradientTransform="matrix(1.0217 -.14347 .14347 1.0217 593.78 -47.548)" y1="465.38" x1="-491.49"/>
  <linearGradient id="linearGradient7573" y2="409.53" xlink:href="#linearGradient19406" gradientUnits="userSpaceOnUse" x2="-407" gradientTransform="matrix(1.0887 -.14585 .14585 1.0887 620.48 -78.432)" y1="409.53" x1="-424.66"/>
  <linearGradient id="linearGradient7575" y2="441.85" xlink:href="#linearGradient19398" gradientUnits="userSpaceOnUse" x2="-272.12" gradientTransform="matrix(1.0412 .019120 -.019120 1.0412 686.9 -11.371)" y1="441.85" x1="-374.77"/>
  <linearGradient id="linearGradient7577" y2="441.85" xlink:href="#linearGradient19406" gradientUnits="userSpaceOnUse" x2="-272.12" gradientTransform="matrix(1.0412 .019120 -.019120 1.0412 686.9 -11.371)" y1="441.85" x1="-374.77"/>
  <linearGradient id="linearGradient7579" y2="359.1" xlink:href="#linearGradient19398" gradientUnits="userSpaceOnUse" x2="-371.05" gradientTransform="matrix(.71417 -.71097 .79858 .61232 235.49 -118.8)" y1="359.1" x1="-474.4"/>
  <linearGradient id="linearGradient7581" y2="359.1" xlink:href="#linearGradient19406" gradientUnits="userSpaceOnUse" x2="-371.05" gradientTransform="matrix(.71417 -.71097 .79858 .61232 235.49 -118.8)" y1="359.1" x1="-474.4"/>
  <linearGradient id="linearGradient7583" y2="355.56" xlink:href="#linearGradient19406" gradientUnits="userSpaceOnUse" x2="-415.59" gradientTransform="matrix(.71417 -.71097 .79858 .61232 235.49 -118.8)" y1="355.56" x1="-471.97"/>
  <linearGradient id="linearGradient7585" y2="340.19" xlink:href="#linearGradient19406" gradientUnits="userSpaceOnUse" x2="-412.62" gradientTransform="matrix(.71417 -.71097 .79858 .61232 235.49 -118.8)" y1="340.19" x1="-469.41"/>
  <linearGradient id="linearGradient7587" y2="328.91" xlink:href="#linearGradient19406" gradientUnits="userSpaceOnUse" x2="-412.05" gradientTransform="matrix(.71417 -.71097 .79858 .61232 235.49 -118.8)" y1="328.91" x1="-454.94"/>
  <linearGradient id="linearGradient7678" y2="359.1" xlink:href="#linearGradient19402" gradientUnits="userSpaceOnUse" x2="-371.05" gradientTransform="matrix(.79226 -.62277 .72167 .70133 321.23 -144.41)" y1="359.1" x1="-474.4"/>
  <linearGradient id="linearGradient7680" y2="359.1" xlink:href="#linearGradient19406" gradientUnits="userSpaceOnUse" x2="-371.05" gradientTransform="matrix(.79226 -.62277 .72167 .70133 321.23 -144.41)" y1="359.1" x1="-474.4"/>
  <linearGradient id="linearGradient7682" y2="355.56" xlink:href="#linearGradient19406" gradientUnits="userSpaceOnUse" x2="-415.59" gradientTransform="matrix(.79226 -.62277 .72167 .70133 321.23 -144.41)" y1="355.56" x1="-471.97"/>
  <linearGradient id="linearGradient7684" y2="340.19" xlink:href="#linearGradient19406" gradientUnits="userSpaceOnUse" x2="-412.62" gradientTransform="matrix(.79226 -.62277 .72167 .70133 321.23 -144.41)" y1="340.19" x1="-469.41"/>
  <linearGradient id="linearGradient7686" y2="328.91" xlink:href="#linearGradient19406" gradientUnits="userSpaceOnUse" x2="-412.05" gradientTransform="matrix(.79226 -.62277 .72167 .70133 321.23 -144.41)" y1="328.91" x1="-454.94"/>
  <linearGradient id="linearGradient7308" y2="168.72" xlink:href="#linearGradient19398" gradientUnits="userSpaceOnUse" x2="398.43" y1="168.72" x1="211.45"/>
  <linearGradient id="linearGradient7316" y2="190.91" xlink:href="#linearGradient19446" gradientUnits="userSpaceOnUse" x2="331.61" y1="190.91" x1="254.46"/>
  <clipPath id="clipPath7320" clipPathUnits="userSpaceOnUse">
   <path id="path7322" style="color:#000000" d="m256.11 173.44c7.6962 5.4568 41.478 18.477 61.018 13.348 1.4264 10.551-2.5714 32.327-7.6014 49.491-4.934 16.837-24.367 23.733-49.195-13.068-24.83-36.8-4.22-49.77-4.22-49.77z" stroke="#000" stroke-width="1.9472" fill="none"/>
  </clipPath>
  <linearGradient id="linearGradient7344" y2="200.58" xlink:href="#linearGradient7466" gradientUnits="userSpaceOnUse" x2="280.11" y1="185.33" x1="281.36"/>
  <linearGradient id="linearGradient7350" y2="179.28" gradientUnits="userSpaceOnUse" x2="298.55" gradientTransform="matrix(.65331 0 0 .67798 89.74 60.137)" y1="179.28" x1="249.93">
   <stop id="stop3894" offset="0"/>
  </linearGradient>
  <linearGradient id="linearGradient7358" y2="194.29" xlink:href="#linearGradient19446" gradientUnits="userSpaceOnUse" x2="295.8" y1="194.29" x1="288.69"/>
  <linearGradient id="linearGradient7364" y2="194.29" xlink:href="#linearGradient19446" gradientUnits="userSpaceOnUse" x2="295.8" gradientTransform="matrix(1.8608 .52162 -.44476 1.9281 -180.05 -343.83)" y1="194.29" x1="288.69"/>
  <linearGradient id="linearGradient7370" y2="196.48" xlink:href="#linearGradient19434" gradientUnits="userSpaceOnUse" x2="273.55" y1="196.48" x1="243.55"/>
  <linearGradient id="linearGradient7372" y2="199.82" xlink:href="#linearGradient19438" gradientUnits="userSpaceOnUse" x2="276.15" y1="199.82" x1="249.49"/>
  <clipPath id="clipPath7400" clipPathUnits="userSpaceOnUse">
   <path id="path7402" style="color:#000000" d="m284.6 208.42c-12.143 4.3184-26.626-5.2246-32.348-21.315-5.7222-16.09-0.51717-32.635 11.626-36.953 12.143-4.3184 26.626 5.2246 32.348 21.315 5.7222 16.09 0.51717 32.635-11.626 36.953" fill="url(#linearGradient7404)"/>
  </clipPath>
  <linearGradient id="linearGradient7404" y2="208.83" xlink:href="#linearGradient7466" gradientUnits="userSpaceOnUse" x2="279.36" y1="184.58" x1="280.74"/>
  <clipPath id="clipPath7408" clipPathUnits="userSpaceOnUse">
   <path id="path7410" style="color:#000000" d="m284.6 208.42c-12.143 4.3184-26.626-5.2246-32.348-21.315-5.7222-16.09-0.51717-32.635 11.626-36.953 12.143-4.3184 26.626 5.2246 32.348 21.315 5.7222 16.09 0.51717 32.635-11.626 36.953" fill="url(#linearGradient7404)"/>
  </clipPath>
  <clipPath id="clipPath7418" clipPathUnits="userSpaceOnUse">
   <path id="path7420" d="m331.61 190.91a38.571 50.089 0 1 1 -0.003 -0.66404" clip-path="url(#clipPath7320)" transform="matrix(.89967 -.64447 .59642 .74533 -82.516 225.8)" fill="url(#linearGradient7316)"/>
  </clipPath>
  <clipPath id="clipPath7424" clipPathUnits="userSpaceOnUse">
   <path id="path7426" d="m331.61 190.91a38.571 50.089 0 1 1 -0.003 -0.66404" clip-path="url(#clipPath7320)" transform="matrix(.89967 -.64447 .59642 .74533 -82.516 225.8)" fill="url(#linearGradient7316)"/>
  </clipPath>
  <clipPath id="clipPath7430" clipPathUnits="userSpaceOnUse">
   <path id="path7432" d="m331.61 190.91a38.571 50.089 0 1 1 -0.003 -0.66404" clip-path="url(#clipPath7320)" transform="matrix(.89967 -.64447 .59642 .74533 -82.516 225.8)" fill="url(#linearGradient7316)"/>
  </clipPath>
  <linearGradient id="linearGradient7458" y2="150.52" xlink:href="#linearGradient19446" gradientUnits="userSpaceOnUse" x2="396.81" y1="150.52" x1="350.55"/>
  <linearGradient id="linearGradient7472" y2="156.21" xlink:href="#linearGradient7466" gradientUnits="userSpaceOnUse" x2="366.95" y1="138.42" x1="367.51"/>
  <linearGradient id="linearGradient7490" y2="140.29" xlink:href="#linearGradient18516" gradientUnits="userSpaceOnUse" x2="386.39" gradientTransform="matrix(.81120 0 0 .81120 59.428 28.788)" y1="140.29" x1="356.53"/>
  <linearGradient id="linearGradient7496" y2="140.62" xlink:href="#linearGradient19446" gradientUnits="userSpaceOnUse" x2="363.09" y1="140.62" x1="356.77"/>
  <clipPath id="clipPath7504" clipPathUnits="userSpaceOnUse">
   <path id="path7506" style="color:#000000" d="m381.07 122.43s-24.551 20.658-29.223 21.605c11.301 33.019 37.754 35.86 42.995 34.85 3.6-14.33-3.36-41.25-13.77-56.45z" fill="url(#linearGradient7458)"/>
  </clipPath>
  <clipPath id="clipPath7510" clipPathUnits="userSpaceOnUse">
   <path id="path7512" style="color:#000000" d="m381.07 122.43s-24.551 20.658-29.223 21.605c11.301 33.019 37.754 35.86 42.995 34.85 3.6-14.33-3.36-41.25-13.77-56.45z" fill="url(#linearGradient7458)"/>
  </clipPath>
  <linearGradient id="linearGradient7530" y2="123.12" xlink:href="#linearGradient18516" gradientUnits="userSpaceOnUse" x2="397.98" y1="123.12" x1="380.28"/>
  <linearGradient id="linearGradient7534" y2="131.78" xlink:href="#linearGradient18516" gradientUnits="userSpaceOnUse" x2="402.1" y1="131.78" x1="383.89"/>
  <linearGradient id="linearGradient7540" y2="168.71" xlink:href="#linearGradient19406" gradientUnits="userSpaceOnUse" x2="395.91" y1="168.71" x1="213.95"/>
  <linearGradient id="linearGradient7560" y2="214.29" xlink:href="#linearGradient19406" gradientUnits="userSpaceOnUse" x2="406.44" y1="214.29" x1="294.75"/>
  <linearGradient id="linearGradient7564" y2="209.94" xlink:href="#linearGradient19406" gradientUnits="userSpaceOnUse" x2="403.9" y1="209.94" x1="378.96"/>
  <linearGradient id="linearGradient7572" y2="195.93" xlink:href="#linearGradient19406" gradientUnits="userSpaceOnUse" x2="384.02" y1="195.93" x1="374.4"/>
  <linearGradient id="linearGradient7576" y2="279.76" xlink:href="#linearGradient19410" gradientUnits="userSpaceOnUse" x2="309.59" y1="279.76" x1="203.99"/>
  <linearGradient id="linearGradient7578" y2="279.76" xlink:href="#linearGradient19414" gradientUnits="userSpaceOnUse" x2="309.59" y1="279.76" x1="203.99"/>
  <linearGradient id="linearGradient7582" y2="308.29" xlink:href="#linearGradient19418" gradientUnits="userSpaceOnUse" x2="301.3" y1="308.29" x1="218.74"/>
  <linearGradient id="linearGradient7586" y2="314.45" gradientUnits="userSpaceOnUse" x2="292.73" y1="314.45" x1="218.69">
   <stop id="stop19444" stop-color="#e6458b" offset="0"/>
  </linearGradient>
  <linearGradient id="linearGradient7590" y2="290.05" xlink:href="#linearGradient19414" gradientUnits="userSpaceOnUse" x2="303.45" y1="290.05" x1="219.24"/>
  <linearGradient id="linearGradient7594" y2="249.25" xlink:href="#linearGradient19414" gradientUnits="userSpaceOnUse" x2="299.6" y1="249.25" x1="215.95"/>
  <linearGradient id="linearGradient7602" y2="88.755" xlink:href="#linearGradient19410" gradientUnits="userSpaceOnUse" x2="421.69" y1="88.755" x1="205.63"/>
  <linearGradient id="linearGradient7604" y2="88.755" xlink:href="#linearGradient19414" gradientUnits="userSpaceOnUse" x2="421.69" y1="88.755" x1="205.63"/>
  <linearGradient id="linearGradient7608" y2="72.212" xlink:href="#linearGradient19418" gradientUnits="userSpaceOnUse" x2="354.2" y1="72.212" x1="240.27"/>
  <linearGradient id="linearGradient7612" y2="68.704" xlink:href="#linearGradient19422" gradientUnits="userSpaceOnUse" x2="362.51" y1="68.704" x1="251.64"/>
  <linearGradient id="linearGradient7618" y2="101.64" xlink:href="#linearGradient19414" gradientUnits="userSpaceOnUse" x2="304.3" y1="101.64" x1="222.28"/>
  <linearGradient id="linearGradient7620" y2="94.854" xlink:href="#linearGradient19414" gradientUnits="userSpaceOnUse" x2="312.16" y1="94.854" x1="228.27"/>
  <linearGradient id="linearGradient7624" y2="44.803" xlink:href="#linearGradient19398" gradientUnits="userSpaceOnUse" x2="324.84" y1="44.803" x1="286.01"/>
  <linearGradient id="linearGradient7626" y2="44.803" xlink:href="#linearGradient19406" gradientUnits="userSpaceOnUse" x2="324.84" y1="44.803" x1="286.01"/>
  <linearGradient id="linearGradient7632" y2="22.111" xlink:href="#linearGradient19406" gradientUnits="userSpaceOnUse" x2="321.99" y1="22.111" x1="301.07"/>
  <linearGradient id="linearGradient7634" y2="50.938" xlink:href="#linearGradient19406" gradientUnits="userSpaceOnUse" x2="322.32" y1="50.938" x1="293.63"/>
  <clipPath id="clipPath7638" clipPathUnits="userSpaceOnUse">
   <path id="path7640" style="color:#000000" d="m240.86 67.59c0.35355-0.08839 43.943-93.915 43.943-93.915 85.648-25.279 68.399 114.42 68.399 115.04 0 0.61872-22.009 12.463-22.009 12.463-16-39.423-57.1-47.202-90.33-33.59z" fill="url(#linearGradient7608)"/>
  </clipPath>
  <linearGradient id="linearGradient7646" y2="137.47" xlink:href="#linearGradient19398" gradientUnits="userSpaceOnUse" x2="236.16" y1="137.47" x1="174.26"/>
  <linearGradient id="linearGradient7648" y2="137.47" xlink:href="#linearGradient19406" gradientUnits="userSpaceOnUse" x2="236.16" y1="137.47" x1="174.26"/>
  <linearGradient id="linearGradient7654" y2="138.43" xlink:href="#linearGradient19406" gradientUnits="userSpaceOnUse" x2="221.24" y1="138.43" x1="194.14"/>
  <clipPath id="clipPath10839" clipPathUnits="userSpaceOnUse">
   <path id="path10841" style="color:#000000" d="m289.38 101.23c23.476-17.198 41.875-65.689 42.25-78.666 0 0 43.31-13.789 69.65-1.2374 26.34 12.553-104.12 88.213-104.12 88.213" stroke="#ebc67e" stroke-width="2" fill="#fde8a0"/>
  </clipPath>
  <clipPath id="clipPath10843" clipPathUnits="userSpaceOnUse">
   <path id="path10845" style="color:#000000" d="m289.38 101.23c23.476-17.198 41.875-65.689 42.25-78.666 0 0 43.31-13.789 69.65-1.2374 26.34 12.553-104.12 88.213-104.12 88.213" stroke="#ebc67e" stroke-width="2" fill="#fde8a0"/>
  </clipPath>
  <clipPath id="clipPath10857" clipPathUnits="userSpaceOnUse">
   <path id="path10859" style="color:#000000" d="m313.36-23.397 4.171 28.123s-13.552 5.3767-22.523 9.0449c8.4853 1.0607 24.5 1.8432 24.5 1.8432l2.2288 28.208 9.4718-16.926 20.764 13.134-7.7838-22.715 20.15-1.7828c-6.9385-3.182-20.694-8.1397-20.694-8.1397l6.04-18.183-16.03 7.0444z" stroke="#982b60" stroke-miterlimit="8" stroke-width="1.483" fill="#e94a86"/>
  </clipPath>
  <linearGradient id="linearGradient10914" y2="146.62" xlink:href="#linearGradient19434" gradientUnits="userSpaceOnUse" x2="464.78" y1="146.62" x1="446.97"/>
  <linearGradient id="linearGradient10916" y2="148.86" xlink:href="#linearGradient19438" gradientUnits="userSpaceOnUse" x2="468.97" y1="148.86" x1="444.94"/>
  <clipPath id="clipPath10922" clipPathUnits="userSpaceOnUse">
   <path id="path10924" style="color:#000000" d="m365.68 162.38c-8.0473 1.3629-16.023-6.1053-17.814-16.681-1.791-10.575 3.2807-20.253 11.328-21.616 8.0473-1.3629 16.023 6.1053 17.814 16.681 1.791 10.575-3.2807 20.253-11.328 21.616" clip-path="url(#clipPath7510)" transform="translate(79.971 10.523)" fill="url(#linearGradient7472)"/>
  </clipPath>
  <clipPath id="clipPath10928" clipPathUnits="userSpaceOnUse">
   <path id="path10930" style="color:#000000" d="m365.68 162.38c-8.0473 1.3629-16.023-6.1053-17.814-16.681-1.791-10.575 3.2807-20.253 11.328-21.616 8.0473-1.3629 16.023 6.1053 17.814 16.681 1.791 10.575-3.2807 20.253-11.328 21.616" clip-path="url(#clipPath7510)" transform="translate(79.971 10.523)" fill="url(#linearGradient7472)"/>
  </clipPath>
  <clipPath id="clipPath11371" clipPathUnits="userSpaceOnUse">
   <path id="path11373" style="block-progression:tb;text-indent:0;color:#000000;text-transform:none" d="m358.06 86.438-3.4375 3.625c23.794 22.385 40.702 62.067 38.562 87.844l5 0.4375c68.26-50.98 7.21-76.12-40.12-91.912z" fill="url(#linearGradient7540)"/>
  </clipPath>
  <clipPath id="clipPath11377" clipPathUnits="userSpaceOnUse">
   <path id="path11379" style="block-progression:tb;text-indent:0;color:#000000;text-transform:none" d="m358.06 86.438-3.4375 3.625c23.794 22.385 40.702 62.067 38.562 87.844l5 0.4375c68.26-50.98 7.21-76.12-40.12-91.912z" fill="url(#linearGradient7540)"/>
  </clipPath>
 </defs>
 <metadata id="metadata7">
  <rdf:RDF>
   <cc:Work rdf:about="">
    <dc:format>image/svg+xml</dc:format>
    <dc:type rdf:resource="http://purl.org/dc/dcmitype/StillImage"/>
    <dc:title/>
   </cc:Work>
  </rdf:RDF>
 </metadata>
 <g id="layer3" transform="translate(105.31 48.106)">
  <g id="g7725" transform="matrix(1.0647 0 0 1.0647 -20.425 -16.651)">
   <g>
    <g>
     <path id="path7489" style="color:#000000" d="m236.48 478.13c26.576 9.3138 42.257 8.3326 51.823 4.5322 9.5662-3.8004 22.363-74.363-55.235-51.933" stroke="url(#linearGradient7557)" stroke-width="5.4921" fill="url(#linearGradient7555)"/>
     <path id="path7491" style="color:#000000" d="m348.68 374.49c5.0613 39.785 15.958 85.197 34.239 109.36 5.6694 7.4917 5.6123 16.225-2.9456 17.748-11.218 1.9973-39.451 9.483-55.195-31.788-15.75-41.28-15.85-70.23-15.85-70.23" stroke="url(#linearGradient7561)" stroke-width="4.6963" fill="url(#linearGradient7559)"/>
     <path id="path7477" style="color:#000000" d="m175.01 455.13c-72.301-22.151-152.95-13.393-202.05 11.567-60.771 30.894-74.923 83.836 5.9634 108.31 18.886-7.6078 28.279-9.265 44.432-10.865-4.0927-5.3277-9.5126-11.53-18.347-15.168 16.536-2.57 34.006 7.4518 44.07 15.304 7.6961 0.21451 16.447 0.42447 26.999 0.28623 47.514-0.62248 85.434-15.205 98.7-25.492-76.948-1.6656-96.98-28.492-84.815-51.281 12.186-22.83 44.623-34.086 82.52-23.988" fill="url(#linearGradient7543)"/>
     <path id="path7479" style="color:#000000" d="m170.67 459.67c-25.734-7.437-131.16-25.666-196.62 18.58-51.382 34.731 0.37793 88.445 28.353 88.86l21.288-2.8518c-5.248-7.84-17.677-15.25-17.677-15.25l23.845 2.9405s-27.857-24.765-13.029-45.552c14.828-20.79 31.792-48.14 153.07-45.05 5.41-0.35 2.46-0.88 0.77-1.68z" fill="url(#linearGradient7545)"/>
     <path id="path7481" style="color:#000000" d="m145.02 459.59c-60.957-6.69-124.52 3.85-138.89 32.37-14.375 28.51 12.43 56.6 25.991 60.32l16.954 12.702c37.744 1.8005 78.405-7.0051 78.405-7.0051s-104.17-11.019-94.839-54.044c7.9641-36.705 56.042-39.268 97.438-41.46" fill="url(#linearGradient7547)"/>
    </g>
    <path id="path7483" style="color:#000000" d="m175.74 452.74c-72.87-22.33-154.2-13.55-203.92 11.73-15.401 7.8292-27.949 17.104-36.812 27.079-8.8589 9.9706-14.143 20.768-14.692 31.585-0.55308 10.892 3.715 21.443 13.252 30.758 9.4855 9.2655 24.179 17.321 44.625 23.507 0.28209 0.0854 0.56438 0.17006 0.84685 0.25415 0.27026-0.10975 0.54067-0.21911 0.81124-0.3281 18.642-7.5095 27.768-9.1137 43.745-10.696 1.4374-0.14239 2.8753-0.27906 4.3138-0.41-0.83242-1.1991-1.6818-2.3862-2.5479-3.5612-2.7396-3.7165-6.0862-7.9175-10.862-11.46 4.8238 0.48597 9.6263 1.8767 14.203 3.7939 7.3239 3.0682 13.919 7.4228 18.832 11.257 0.21448 0.16736 0.42822 0.33565 0.64123 0.50487 0.27568 0.008 0.55136 0.0155 0.82705 0.0232 7.7052 0.21476 16.497 0.42591 27.102 0.28699 23.998-0.3144 45.528-4.1337 62.949-9.24 17.385-5.0957 30.8-11.507 38.52-17.105 1.8738-1.3586 3.6527-2.8435 5.3242-4.4444-2.2461-0.004-4.492-0.0303-6.7375-0.0789-38.304-0.8291-62.261-7.8336-75.086-17.061-6.3685-4.5819-9.8775-9.6255-11.191-14.644-1.3096-5.0032-0.51753-10.285 2.2789-15.524 5.7273-10.73 16.285-18.876 30.143-23.125 13.864-4.2513 30.962-4.5715 49.528 0.3753l1.2873-4.8314c-19.331-5.1505-37.399-4.8914-52.274-0.33166-14.881 4.5616-26.635 13.458-33.094 25.558-3.286 6.156-4.3849 12.727-2.7051 19.144 1.676 6.4028 6.0369 12.349 13.108 17.436 13.036 9.3789 35.662 16.127 69.711 17.722-7.3793 4.0876-17.658 8.4281-30.218 12.109-17.014 4.9868-38.093 8.7304-61.609 9.0385-10.13 0.13272-18.595-0.057-26.082-0.2629-5.0793-3.8954-11.79-8.2608-19.318-11.415-7.8441-3.2864-16.725-5.3196-25.608-3.939-3.0281 0.47063-5.9835 1.3271-8.7941 2.5484 2.8248 0.39708 5.5885 1.1475 8.2261 2.2336 6.4023 2.6363 10.708 6.6919 14.164 10.891-11.62 1.1271-21.234 2.8114-39.823 10.238-19.548-6.0119-33.152-13.653-41.742-22.043-8.6602-8.4594-12.222-17.663-11.752-26.928 0.47427-9.3396 5.0675-19.099 13.426-28.509 8.3548-9.4052 20.365-18.333 35.35-25.951 48.47-24.64 128.45-33.38 200.18-11.4l1.4647-4.7807z" fill="url(#linearGradient7549)"/>
    <path id="path7485" style="color:#000000" d="m151.78 550.92c-45.64 10.17-110.92-15.9-108.84-44.3 1.603-22.05 37.721-27.59 49.775-24.31" stroke="url(#linearGradient7551)" stroke-width="1.8785" fill="none"/>
    <path id="path7487" style="color:#000000" d="m-12.282 571.81c-23.141-7.8629-57.761-32.144-50.786-60.505 6.9756-28.362 56.118-57.087 132.86-67.475" stroke="url(#linearGradient7553)" stroke-width="1.8785" fill="none"/>
    <path id="path7668" style="color:#000000" d="m260.43 337.61c46.491 2.2474 66.019 48.964 13.819 57.217-36.069 5.7029-94.039-8.72-95.644-23.027-1.4248-12.7 42.812-25.984 60.012-29.538-1.1216 2.2262-0.41695 6.6253 5.9519 7.0151-11.843 12.569 2.1847 13.047 17.408 11.466-11.636 11.342-8.7744 16.528 11.759 14.945-10.139 8.6111-3.6111 18.979 7.7844 17.589" fill="url(#linearGradient7678)"/>
    <path id="path7670" style="color:#000000" d="m260.51 338.68c6.6164 0.51086 11.514 2.1952 14.02 3.14 2.595 0.97827 5.3406 2.2408 7.3416 3.2409 2.0708 1.035 5.3193 2.7568 8.5658 5.3334 3.1643 2.5114 7.9684 7.1618 10.162 13.653 0.19707 0.58328 0.37276 1.1829 0.52195 1.7969 1.2836 5.2825 0.43673 10.502-3.0451 14.97-3.9287 5.0409-11.523 9.4956-24.219 11.527-3.6414 0.58564-7.5328 0.9598-11.59 1.1368-14.87 0.64891-32.474-1.2672-48.169-5.0964-9.3689-2.2856-17.724-5.1835-23.774-8.366-2.9699-1.5622-5.3069-3.1539-6.888-4.6824-1.5971-1.544-2.2336-2.8368-2.3459-3.8124-0.0934-0.80888 0.14886-1.7923 1.0262-3.0595 0.8991-1.2986 2.3213-2.678 4.3078-4.1406 4.0126-2.9544 9.7702-5.8479 16.123-8.4823 10.672-4.4255 22.698-7.9961 30.85-10.078 1.2421-0.31725 2.4152-0.60717 3.5064-0.86783 0.22495 0.69971 0.55216 1.4165 1.018 2.1026 0.38741 0.57063 0.86328 1.1103 1.4458 1.6086 0.73783 0.63112 1.6489 1.1528 2.7566 1.543-1.7387 2.5049-2.6769 4.6794-2.7111 6.5514-0.0222 1.215 0.3356 2.287 1.0536 3.1723 0.70224 0.86584 1.673 1.4622 2.7504 1.8818 2.1203 0.82572 5.0001 1.098 8.1792 1.0942 2.124-0.002 4.4551-0.12962 6.8922-0.3286-1.582 1.7712-2.7833 3.4117-3.5525 4.9142-0.58132 1.1355-0.95998 2.2763-1.015 3.375-0.0565 1.1274 0.23044 2.193 0.89402 3.1119 1.2761 1.7671 3.7204 2.6984 6.77 3.1557 2.4152 0.36216 5.4384 0.45927 9.0711 0.30345-2.2716 3.2571-3.1977 6.4607-2.8051 9.3248 0.13565 0.9896 0.42801 1.9241 0.86738 2.7836 1.034 2.0227 2.8341 3.5443 5.1125 4.4492 2.2693 0.90127 5.0282 1.201 8.0726 0.8296l-0.36326-2.9779c-2.6534 0.32367-4.8839 0.0391-6.6018-0.64365-1.7088-0.67915-2.8938-1.7413-3.5488-3.0228-0.28229-0.55219-0.47502-1.1608-0.56501-1.824-0.3298-2.4308 0.71061-5.795 4.2082-9.5998 0.97119-1.0565 2.0268-2.0321 3.1564-2.9172-1.4527 0.16808-2.9084 0.30894-4.3663 0.42253-5.0868 0.39631-8.9894 0.36563-11.805-0.0462-2.8984-0.42381-4.292-1.2018-4.8436-1.9506-0.25005-0.33953-0.37453-0.73351-0.35177-1.2661 0.024-0.56103 0.21483-1.2795 0.68061-2.2004 0.93462-1.8479 2.8-4.1717 5.6704-6.9757 1.0363-1.0124 2.1049-1.9911 3.2042-2.9348-1.4472 0.17873-2.896 0.34427-4.3463 0.49661-3.794 0.39854-7.3605 0.68147-10.431 0.68954-3.1096 0.008-5.5487-0.26899-7.1555-0.89667-0.78638-0.30719-1.2816-0.66358-1.5704-1.0195-0.27307-0.3366-0.4308-0.75488-0.41642-1.3425 0.032-1.3054 0.90883-3.402 3.4448-6.5807 0.58404-0.73207 1.1936-1.4434 1.8276-2.1326-0.90839 0.0362-1.818-0.0272-2.7126-0.18908-1.7596-0.31836-2.822-0.90067-3.464-1.4988-0.32178-0.29975-0.5344-0.62862-0.66987-0.95977-0.40646-0.99355-0.15411-2.0868 0.095-2.8803 0.33831-1.0777 0.82117-2.1045 1.4354-3.0524-1.3496 0.19426-2.6949 0.41776-4.0348 0.67037-1.7205 0.32435-3.6957 0.74635-5.8567 1.2576-8.3501 1.9756-20.606 5.4929-31.613 9.9729-6.496 2.6439-12.698 5.6836-17.206 8.9686-2.2072 1.6084-4.1448 3.3731-5.465 5.248-1.3429 1.9072-2.1786 4.1228-1.915 6.4984 0.29009 2.6109 1.8268 4.9056 3.8568 6.8695 2.0459 1.9793 4.7839 3.8104 8.008 5.5074 6.5454 3.4452 15.331 6.4604 24.923 8.7973 16.102 3.9229 34.177 5.8935 49.575 5.2211 4.2147-0.18402 8.2982-0.56063 12.158-1.161 13.405-2.0958 22.468-6.8667 27.514-13.307 4.589-5.8575 5.5998-12.792 3.8041-19.412-0.20482-0.75511-0.43925-1.4859-0.69589-2.1899-2.7985-7.6775-8.4419-12.983-11.918-15.702-3.72-2.9098-7.2196-4.6777-9.6457-5.6778-2.5216-1.0395-5.1966-1.8021-8.3764-2.2866-2.9264-0.44586-8.1512-0.9361-14.816-0.0562z" fill="url(#linearGradient7680)"/>
    <g stroke-width="2.0051" fill="none">
     <path id="path7672" style="color:#000000" d="m183.8 378.14c22.099 6.1764 59.958 7.9732 84.887 5.9975" stroke="url(#linearGradient7682)"/>
     <path id="path7674" style="color:#000000" d="m178.77 369.92c26.016 1.0146 56.326 0.57556 77.186-2.3658" stroke="url(#linearGradient7684)"/>
     <path id="path7676" style="color:#000000" d="m188.72 359.54c16.72-0.80896 41.467-2.9618 52.986-6.8908" stroke="url(#linearGradient7686)"/>
    </g>
    <path id="path7493" style="color:#000000" d="m270.29 232.4s10.504 82.551-18.958 110.33c-25.667 24.204-101.31 23.736-99.888 77.957 1.394 53.246 30.764 50.894 38.438 52.043 7.674 1.1488 61.591-0.27955 94.918-17.41s95.403-30.21 80.873-101.59c-7.5544-37.113-27.878-46.683-30.599-119.32" fill="url(#linearGradient7563)"/>
    <path id="path7495" style="color:#000000" d="m192.24 470.6c13.025-1.745 74.006-3.0903 93.636-14.625 32.307-18.984 93.037-31.226 79.797-102.24-6.9419-37.233-29.167-45.209-30.599-119.32" stroke="url(#linearGradient7565)" stroke-width="4.6963" fill="none"/>
    <path id="path7497" style="color:#000000" d="m172.1 468.71c-4.9182 1.667-25.394 20.404-12.964 22.307 0 0 48.268 6.1979 50.087 12.461 1.8186 6.2633 4.1717 10.56 14.025 11.205 11.576 0.75813 55.56 7.4953 61.108-0.75314 4.8066-7.1465-0.94211-29.877-15.255-45.87-13.433-15.009-34.234-19.462-50.783-6.2263-0.93583 0.74846-12.971-6.1935-13.878-5.3306" fill="url(#linearGradient7567)"/>
    <path id="path7499" style="color:#000000" d="m259.15 327.26c-4.4335 7.4874-9.8532 13.293-15.917 18.016-9.124 7.1075-19.712 11.777-30.709 15.994-14.778 5.6669-30.545 10.571-43.219 19.66-2.8832 2.0677-5.6237 4.3588-8.1761 6.936-13.188 13.316-15.931 34.451-10.892 52.345 0.15868 0.56357 0.32448 1.1246 0.49747 1.6826 3.2936 10.625 9.2943 20.416 18.165 26.201 6.5019 4.2401 14.136 5.5706 22.075 4.6896-8.0294-0.56972-14.327-4.0855-19.531-8.2389-7.2281-5.7685-12.91-14.258-15.939-24.124-0.15776-0.5138-0.30807-1.0308-0.45074-1.5506-4.5907-16.726-1.8997-35.796 9.637-47.483 2.3302-2.3602 4.8493-4.4737 7.528-6.3947 11.994-8.6014 26.842-13.206 42.096-19.055 11.085-4.2508 22.263-9.1344 31.994-16.717 6.5067-5.0702 12.363-11.341 17.143-19.414l-4.3023-2.5475z" fill="url(#linearGradient7569)"/>
    <path id="path7503" style="color:#000000" d="m171.72 466.65c-2.2997 1.2426-4.7153 2.7922-7.0059 4.4824-3.4172 2.5217-6.6777 5.4479-8.9184 8.2649-0.94059 1.1825-1.7375 2.3905-2.2978 3.6114-0.54996 1.1984-0.93972 2.556-0.80726 3.9553 0.14186 1.4986 0.86759 2.8209 2.1243 3.78 1.1713 0.89392 2.6858 1.3899 4.3661 1.6382 0.36604 0.0579 11.985 1.9026 23.8 4.4508 6.016 1.2976 12.014 2.7631 16.585 4.2506 2.2961 0.74722 4.1407 1.4711 5.4231 2.1423 0.6434 0.3368 1.0653 0.61937 1.3142 0.83123 0.28341 0.24118 0.15419 0.22928 0.0641-0.0739 1.0076 3.3899 2.8463 6.2873 5.8675 8.4069 2.9946 2.101 6.901 3.2647 11.836 3.5565 1.3547 0.0801 3.2802 0.27611 5.5564 0.53233 2.249 0.25318 4.8848 0.57051 7.5986 0.89117 6.3052 0.74498 12.779 1.475 19.138 1.9714 7.1226 0.55605 13.397 0.75892 18.356 0.41336 2.7285-0.19011 5.112-0.54939 7.0526-1.1366 2.02-0.61123 3.9621-1.589 5.1139-3.2922 0.95247-1.3986 1.4015-3.0691 1.6012-4.6598 0.20352-1.6206 0.17242-3.3564-0.002-5.0966-0.4034-4.0269-1.6134-8.4978-3.1581-12.706-3.4033-9.2725-9.1565-19.318-16.289-26.879-4.6647-4.946-10.805-9.2427-18.106-11.405-7.1776-2.1256-16.365-2.3718-25.42 2.6648-3.2126 1.7869-6.1112 4.3116-8.8209 7.3215 3.1176-2.6063 6.3948-4.4103 9.5828-5.7766 8.9297-3.827 17.262-2.614 23.324-0.24538 6.2593 2.4456 11.442 6.5808 15.378 11.123 6.2336 7.1845 11.583 16.67 14.816 25.254 1.4795 3.9272 2.5965 7.891 3.0133 11.277 0.1787 1.4518 0.22262 2.7593 0.12103 3.8417-0.10414 1.1096-0.34809 1.8354-0.6034 2.2602-0.0865 0.17104-0.57545 0.68709-2.1471 1.197-1.3934 0.45208-3.3309 0.8005-5.8529 1.0066-4.5654 0.37305-10.542 0.24316-17.577-0.26323-6.2442-0.44944-12.648-1.1417-18.939-1.8639-2.5988-0.29839-5.4551-0.63403-7.623-0.87366-2.2681-0.25073-4.3239-0.45829-5.8187-0.54667-4.324-0.25565-7.2723-1.2461-9.2536-2.6302-1.955-1.3658-3.214-3.2844-3.9518-5.7665-0.30828-1.0372-1.0128-1.7957-1.6163-2.3093-0.63798-0.54294-1.4146-1.0234-2.2359-1.4532-1.647-0.86216-3.7962-1.6866-6.1946-2.4671-4.818-1.5679-11.012-3.0753-17.078-4.3837-12.153-2.6212-24.072-4.5016-24.084-4.5036l-0.0269-0.004c-1.2338-0.18093-1.8284-0.47948-2.076-0.66842-0.16634-0.12695-0.17101-0.18193-0.17997-0.27652-0.0183-0.19392 0.0206-0.64557 0.36593-1.3972 0.335-0.72918 0.89979-1.6119 1.6744-2.5857 1.8758-2.3582 4.7677-4.9847 7.9758-7.3535 2.1263-1.57 4.3378-2.9865 6.4123-4.1074l-2.3769-4.3989z" fill="url(#linearGradient7571)"/>
    <path id="path7507" style="color:#000000" d="m237.26 456.12c1.6662-6.6164 1.5751-14.248-0.18364-21.993-1.7622-7.76-5.223-15.698-10.312-22.552-2.8645-3.8577-6.9121-6.4974-10.673-9.0457 2.5821 3.709 4.2895 8.1034 6.5231 11.83 4.073 6.7962 7.3649 14.017 9.2252 21.046 1.864 7.0426 2.2647 13.836 0.59791 19.395l4.8228 1.3192z" fill="url(#linearGradient7573)"/>
    <path id="path7511" style="color:#000000" d="m297.26 352.3c-12.083 59.611-3.4057 127.36 9.6287 156.02 8.7634 19.271 5.1173 21.104 43.248 21.541 38.131 0.43719 49.147-5.7415 35.222-21.429-25.511-28.739-45.964-87.235-55.246-154.74" fill="url(#linearGradient7575)"/>
    <path id="path7513" style="color:#000000" d="m297.26 352.3c-2.5744 9.3917-4.2736 17.62-5.066 21.603-0.88909 4.4695-1.4465 7.7017-1.7506 9.771-0.45489 3.0953-1.1332 9.3623-1.409 22.513-0.2593 12.363 0.1443 24.482 1.0752 35.955 2.2814 28.119 7.7418 52.541 14.507 67.225 1.4205 3.0834 2.8746 6.9904 4.1187 9.5297 1.439 2.9369 3.2324 5.6126 6.2594 7.7635 2.9884 2.1234 6.9683 3.5862 12.536 4.5208 5.5593 0.93315 12.857 1.3645 22.617 1.3121 9.586-0.0514 17.533-0.4462 23.872-1.2728 6.2607-0.81643 11.191-2.0803 14.535-4.0462 1.7065-1.0033 3.1102-2.2532 4.0268-3.8409 0.9315-1.6134 1.251-3.391 1.0273-5.2558-0.42523-3.5446-2.8083-7.3377-6.3611-11.327-19.41-21.791-36.283-62.107-45.871-105.87-1.1702-5.3413-2.1755-10.838-3.3946-16.176-2.2776-9.9705-4.584-19.983-6.2148-29.96 0.12142 10.116 0.49406 20.437 1.7281 30.738 0.66337 5.5373 1.8113 11.024 2.9956 16.467 9.6045 44.137 26.709 85.424 46.979 108.17 3.4247 3.841 4.8932 6.6322 5.1303 8.5666 0.10718 0.87477-0.0398 1.5599-0.38064 2.1505-0.35568 0.61625-1.03 1.3112-2.2154 2.0114-2.4394 1.4409-6.5496 2.6179-12.648 3.4161-6.0212 0.78808-13.754 1.1818-23.235 1.2327-9.6398 0.0517-16.621-0.37843-21.773-1.2449-5.1445-0.86503-8.3101-2.1399-10.456-3.6651-2.1072-1.4977-3.4365-3.3814-4.664-5.8874-1.4229-2.905-2.1778-5.3217-4.0667-9.4224-6.4096-13.914-11.805-37.697-14.065-65.536-0.9181-11.309-1.3169-23.257-1.0623-35.445-0.1587 7.5973 1.53-39.676 1.0116-22.211 0.0401-1.3495 0.12887-6.0043 0.2926-9.7985 0.18011-4.1738 0.61509-12.17 1.9224-21.983z" fill="url(#linearGradient7577)"/>
   </g>
   <path id="path7529" d="m176.4 411.53 1.5433 10.974s-6.1411 0.10545-6.546 0.20311c0.64871 0.25247 4.77 2.9884 4.77 2.9884l-1.1218 10.58 4.214-9.5147 3.1636 10.658c-0.006-3.5461-1.4543-7.0236-1.879-10.022l5.9119-0.51019-4.3685-2.7452 4.1755-11.907-5.32 7.94z" fill="url(#linearGradient3898)"/>
   <path id="path7531" d="m188.16 394.53c-5.8156 6.815-10.307 21.735-10.307 21.735s-3.9712-2.5132-6.4805-6.1371c0.56439 6.0206 3.2032 13.475 3.2032 13.475s-4.135 7.8265-5.6396 12.786c3.2059-3.2282 7.8593-5.0418 7.8593-5.0418s0.99845 19.677 3.5192 29.63c-1.244-10.025 1.1557-27.936 1.1557-27.936s2.9319 4.4221 6.1601 7.6279c-1.8995-3.7337-4.6385-14.644-4.6385-14.644s5.9328-9.8933 8.3372-12.314c-3.1065 0.83598-7.6998 3.1268-7.6998 3.1268s0.52-13.85 4.53-22.31z" fill="url(#linearGradient3856)"/>
   <g fill="url(#linearGradient3898)">
    <path id="path7533" d="m183.19 452.93 2.3499 1.9492 0.22371-5.2482 0.95635 5.386 2.0342-0.16115-1.4296 2.2946 1.2663 3.4476-1.8391-1.5239-0.22236 5.2121-0.86617-5.684-1.9079 1.0052l1.28-3.05z"/>
    <path id="path7535" d="m167.79 446.02 1.1737-2.0603s2.2343 5.7181 2.2313 5.5089c-0.003-0.20919-0.8253-5.9448-0.8253-5.9448l1.9957 0.57963-1.7668-2.2601 0.81082-2.4471-1.7263 1.823-1.8784-4.595 0.6998 5.0824-2.3373-0.0794 2.16 1.5z"/>
    <path id="path7537" d="m192.31 425.47 0.40556 5.49 2.2538-0.1991-1.7688 2.4059 1.3494 3.524-2.1579-1.6163-0.97607 5.592-0.41573-5.8703-2.1951 0.68681 1.7714-2.8773-1.5588-3.3913l2.09 1.51z"/>
    <path id="path7539" d="m191.81 397.98-0.89365 5.2195-2.2736-1.3507 1.5738 3.2833-1.8683 2.6266 2.1061-0.76105 0.45468 5.6601 0.94955-5.3636 1.8041 1.5165-1.1538-3.2238 1.8575-2.55l-2.25 0.37z"/>
    <path id="path7541" d="m179.47 389.47-1.2534 4.4288-1.8847-0.98042 1.0968 2.7888-1.6425 2.2999 1.7656-0.6316-0.49977 5.0516 1.4815-4.7521 1.4399 1.4391-0.59047-3.0587 1.9392-1.745l-2.01-0.27z"/>
   </g>
   <g>
    <path id="path7519" style="color:#000000" d="m231.35 367.01c46.436-3.1932 71.282 40.925 20.401 55.214-35.157 9.873-94.414 2.3133-97.678-11.709-2.8971-12.447 39.487-30.803 56.155-36.339-0.85419 2.3419 0.35903 6.6287 6.7298 6.2726-10.296 13.865 3.6923 12.703 18.627 9.3559-10.233 12.623-6.7858 17.439 13.423 13.47-9.0653 9.7355-1.3718 19.27 9.7837 16.56" fill="url(#linearGradient7579)"/>
    <path id="path7521" style="color:#000000" d="m231.56 368.07c6.6308-0.26473 11.691 0.83665 14.291 1.4825 2.6914 0.66877 5.5656 1.6023 7.6696 2.362 2.1774 0.7863 5.6046 2.1173 9.1297 4.2974 3.4357 2.1249 8.7497 6.183 11.685 12.374 0.26379 0.5563 0.50826 1.1314 0.72806 1.7237 1.8913 5.0966 1.6593 10.379-1.2774 15.223-3.3136 5.4649-10.337 10.775-22.708 14.274-3.5482 1.0066-7.3694 1.8323-11.378 2.4816-14.693 2.3797-32.4 2.5309-48.435 0.55948-9.5716-1.1767-18.208-3.0798-24.588-5.5345-3.132-1.205-5.6387-2.5131-7.3873-3.8466-1.7664-1.3471-2.5494-2.5567-2.7748-3.5127-0.18719-0.79245-0.0613-1.7975 0.66217-3.1584 0.74142-1.3946 1.993-2.9306 3.7952-4.615 3.6404-3.4025 9.0211-6.9481 15.023-10.306 10.083-5.6407 21.61-10.59 29.463-13.609 1.1966-0.46003 2.3278-0.88486 3.3812-1.2711 0.30506 0.66868 0.71368 1.3424 1.2564 1.9694 0.45135 0.52151 0.98695 1.002 1.6237 1.4289 0.80644 0.54072 1.7722 0.95247 2.9179 1.2108-1.4346 2.6906-2.1126 4.9598-1.9281 6.823 0.11976 1.2093 0.60019 2.2322 1.4166 3.0277 0.79848 0.77798 1.8322 1.257 2.9512 1.548 2.2022 0.57265 5.094 0.50699 8.251 0.13232 2.1092-0.25032 4.4095-0.64862 6.8068-1.1306-1.3645 1.9437-2.3662 3.7132-2.9547 5.2951-0.44485 1.1956-0.6878 2.3727-0.61427 3.4704 0.0755 1.1262 0.48477 2.1511 1.251 2.9863 1.4736 1.6061 4.0098 2.2458 7.092 2.3441 2.441 0.0778 5.4549-0.1785 9.0445-0.75716-1.876 3.4999-2.4219 6.7897-1.6978 9.5884 0.2502 0.96701 0.64961 1.861 1.1863 2.6634 1.263 1.8882 3.2283 3.1894 5.5968 3.8222 2.359 0.63029 5.134 0.60601 8.1142-0.11808l-0.70828-2.9152c-2.5975 0.63109-4.8459 0.60878-6.6318 0.13114-1.7764-0.4751-3.0772-1.3918-3.8773-2.588-0.34479-0.51547-0.60723-1.0974-0.774-1.7456-0.61121-2.3757 0.0295-5.8383 3.0592-10.025 0.84126-1.1626 1.7758-2.2547 2.7944-3.2656-1.4231 0.33644-2.8524 0.64622-4.2872 0.92916-5.0058 0.9872-8.8853 1.4121-11.73 1.3318-2.928-0.0827-4.403-0.69269-5.0381-1.3721-0.28796-0.30803-0.45757-0.68479-0.49711-1.2164-0.0417-0.55999 0.0641-1.2958 0.41919-2.2648 0.71259-1.9444 2.2941-4.47 4.8176-7.5898 0.9111-1.1264 1.8582-2.2231 2.8398-3.2886-1.4165 0.34639-2.8361 0.67987-4.2586 1.0004-3.7216 0.83854-7.2307 1.5357-10.28 1.9021-3.0874 0.371-5.5422 0.38035-7.2112-0.0555-0.81686-0.21333-1.3503-0.50949-1.6786-0.82926-0.31049-0.30243-0.51595-0.69945-0.57024-1.2848-0.1206-1.3002 0.50562-3.4848 2.6533-6.9378 0.49463-0.79521 1.017-1.5728 1.5663-2.3313-0.89797 0.14193-1.8088 0.1851-2.7162 0.12875-1.7848-0.11084-2.9078-0.5652-3.6153-1.0843-0.35457-0.26016-0.60412-0.56197-0.77731-0.87505-0.51963-0.93933-0.39657-2.0545-0.24172-2.8717 0.21032-1.1099 0.57025-2.1861 1.07-3.1993-1.3179 0.35047-2.6281 0.72949-3.9296 1.1368-1.6709 0.52291-3.5834 1.1725-5.67 1.9325-8.0625 2.9365-19.824 7.8599-30.233 13.594-6.1431 3.3839-11.948 7.1266-16.042 10.915-2.0044 1.855-3.7229 3.8338-4.8153 5.8499-1.1112 2.0508-1.6826 4.3488-1.1435 6.6775 0.59279 2.5592 2.3868 4.659 4.6321 6.3725 2.2629 1.727 5.1959 3.2261 8.596 4.5353 6.9027 2.6578 15.98 4.6272 25.779 5.8288 16.45 2.0172 34.631 1.865 49.846-0.59962 4.1644-0.67459 8.1761-1.5252 11.939-2.5718 13.069-3.6458 21.514-9.4417 25.773-16.427 3.8741-6.353 4.0688-13.358 1.5129-19.723-0.29153-0.72605-0.60964-1.4245-0.94668-2.0938-3.6753-7.2984-9.8992-11.909-13.669-14.204-4.0342-2.4558-7.7161-3.8033-10.242-4.5134-2.6257-0.7381-5.3714-1.1834-8.586-1.2935-2.9585-0.10132-8.2047 0.0215-14.721 1.6731z" fill="url(#linearGradient7581)"/>
    <g stroke-width="2.0051" fill="none">
     <path id="path7523" style="color:#000000" d="m159.97 416.22c22.668 3.5554 60.478 0.92204 85.007-3.9493" stroke="url(#linearGradient7583)"/>
     <path id="path7525" style="color:#000000" d="m154.02 408.63c25.957-2.0282 56.009-6.0013 76.382-11.357" stroke="url(#linearGradient7585)"/>
     <path id="path7527" style="color:#000000" d="m162.69 397.16c16.512-2.7546 40.838-7.7805 51.82-13.027" stroke="url(#linearGradient7587)"/>
    </g>
   </g>
  </g>
  <g id="g7620">
   <g>
    <g>
     <path id="path10874" style="color:#000000" d="m297.26 15.177c3.0255-2.0914 5.7412-4.7125 7.072-8.1904 1.9395-5.0689 2.0065-10.724 0.37187-15.763-2.7436-8.4582-10.278-15.125-21.488-14.427-6.0383 0.37379-10.508 2.7826-13.484 6.2114-2.9615 3.4123-4.3862 7.7628-4.5036 11.971-0.12345 4.4257 1.1967 8.5296 3.5101 11.43 2.5495 3.1966 6.3106 4.9721 10.872 4.5375 3.845-0.36752 6.5831-2.032 8.256-4.3089 1.6604-2.2599 2.2417-5.0922 1.8149-7.686-0.38058-2.3125-1.62-4.6188-3.7876-5.7242-0.48064-0.24511-1.0028-0.42724-1.5627-0.53113-1.8328-0.3401-3.7456 0.48404-5.7216 1.9749 2.3188-1.1349 4.1231-0.94716 5.3924-0.56737 0.40902 0.12238 0.77658 0.29798 1.1052 0.51148 1.4649 0.95175 2.298 2.7458 2.4916 4.6222 0.21625 2.0967-0.34776 4.2757-1.6404 5.947-1.278 1.6525-3.3807 2.9703-6.582 3.2635-3.6969 0.33975-6.634-1.0601-8.6732-3.6081-1.9009-2.3751-3.0846-5.8768-2.9754-9.7914 0.10357-3.7131 1.3855-7.4666 3.9262-10.344 2.5262-2.8609 6.3545-4.9265 11.718-5.2158 9.8425-0.52753 16.231 5.2716 18.675 12.607 1.479 4.439 1.5151 9.4618-0.0649 14.033-1.0355 2.996-2.2176 6.3078-4.7228 9.0477z" fill="#ebc67e"/>
     <path id="path10878" style="color:#000000" d="m204.8 79.548c1.36-3.1797 0.98052-5.2378 0.46666-6.4071-0.66745-1.5188-2.1438-2.7681-4.3035-2.9331-1.4073-0.10754-5.3856 0.34988-7.1406 4.9893-0.42329 1.119-0.66212 2.4047-0.67164 3.8487-0.0211 3.8413 1.4328 6.8758 3.6907 8.9076 2.2429 2.0183 5.2144 2.9915 8.1396 2.856 2.9384-0.13612 5.8549-1.3915 7.9818-3.8634 2.1311-2.4768 3.3694-6.0551 3.1404-10.711-0.33806-6.8221-3.8951-13.23-7.2188-20.471-3.3689-7.3394-6.7076-15.88-7.0855-27.383-0.16327-4.9702 1.6325-9.1037 4.5108-12.182 2.8902-3.0911 6.8844-5.127 11.121-5.814 4.23-0.68601 8.6421-0.0184 12.374 2.2224 3.7196 2.2332 6.8553 6.0817 8.4761 11.918 1.8664 6.7181 1.4004 11.799-0.20078 15.34-1.5986 3.5348-4.3773 5.6572-7.3724 6.4554-2.9332 0.78173-6.112 0.30608-8.6836-1.4099-2.5582-1.707-4.6044-4.7018-5.1556-9.1062-0.0302-0.24136-0.0557-0.48528-0.0765-0.73169-0.44217-5.159 0.96904-7.4533 1.8519-8.4185 0.97525-1.0661 2.0987-1.395 2.9085-1.4851 1.2883-0.14332 2.5989 0.22109 3.633 0.84069 0.87554 0.52458 2.6635 1.919 2.8015 4.7243 0.48012-2.8536-0.86864-4.8647-1.9106-5.8602-1.1016-1.0525-2.7352-1.8553-4.6521-1.8039-1.2067 0.03234-2.9323 0.43548-4.442 1.9772-1.455 1.4858-3.1019 4.4615-2.6753 10.223 0.0211 0.27921 0.0475 0.55667 0.0794 0.83223 0.58721 5.0686 2.957 8.77 6.1768 10.955 3.2065 2.1758 7.1683 2.7872 10.823 1.8233 3.7712-0.99464 7.176-3.6534 9.1032-7.9181 1.9246-4.2591 2.3268-9.9958 0.32888-17.145-1.7974-6.4292-5.3329-10.84-9.6758-13.431-4.3302-2.5835-9.3716-3.3057-14.124-2.5199-4.7465 0.78482-9.2643 3.0827-12.553 6.6143-3.3006 3.5444-5.3507 8.3227-5.1648 13.981 0.39364 11.983 3.8674 20.88 7.2744 28.357 3.452 7.5754 6.6347 13.362 6.9213 19.54 0.19257 4.1113-0.90835 7.0081-2.5223 8.8757-1.618 1.8724-3.8526 2.8307-6.1162 2.9383-2.2768 0.10826-4.5587-0.64465-6.2656-2.1614-1.6916-1.5032-2.8844-3.8125-2.8933-6.9631-0.005-1.1729 0.17407-2.1651 0.46817-2.9896 0.61118-1.7133 1.6753-2.5926 2.4667-3.0264 0.83184-0.45605 1.6312-0.57842 2.2246-0.57835 1.2943 0.000151 2.4223 0.56191 3.1435 1.4291 0.5157 0.62003 1.5748 2.2905 0.79799 5.6631z" fill="#ebc67e"/>
     <path id="path10831" style="color:#000000" d="m209.41 90.709c23.476-17.198 41.875-65.689 42.25-78.666 0 0 43.31-13.789 69.65-1.2374 26.34 12.551-104.12 88.212-104.12 88.212" fill="#fde8a0"/>
     <path id="path10833" style="color:#000000" d="m313.34 59.248 8.6621 25.898s8.8388-13.789 9.0156-15.203c0.17-1.415-15.39-29.699-15.39-29.699z" clip-path="url(#clipPath10843)" transform="translate(-79.971 -10.523)" fill="#fbfcf4"/>
     <path id="path10835" style="color:#000000" d="m378.04 27.87-9.55-25.721s-7.955 13.612-8.1317 15.026c-0.18 1.414 15.47 27.577 15.47 27.577z" clip-path="url(#clipPath10839)" transform="translate(-79.971 -10.523)" fill="#fbfcf4"/>
    </g>
    <path id="path10847" style="color:#000000" d="m209.41 90.709c23.476-17.198 41.875-65.689 42.25-78.666 0 0 43.31-13.789 69.65-1.2374 26.34 12.551-104.12 88.212-104.12 88.212" stroke="#ebc67e" stroke-width="2" fill="none"/>
    <g>
     <path id="path10849" style="color:#000000" d="m227.4-45.326 5.625 37-30.375 13.125 33.125 3.75 2.5 38.125 14.375-23.5 27.75 17.375-10.75-29.875 26.5-3.5-28.75-13 9-22.5l-21.61 9.5z" stroke="#c1a735" stroke-width="2" fill="#e5c34b"/>
     <path id="path10851" style="color:#000000" d="m233.39-33.92 4.171 28.123s-13.552 5.3767-22.523 9.0449c8.4853 1.0607 24.5 1.8432 24.5 1.8432l2.2288 28.208 9.4718-16.926 20.764 13.134-7.7838-22.715 20.15-1.7828c-6.94-3.1813-20.7-8.139-20.7-8.139l6.05-18.184-16.03 7.045z" fill="#e94a86"/>
     <path id="path10853" style="color:#000000" d="m283.81 10.884 42.312-0.1875-3.375 36.5 29-5.5625-14.246-22.062 0.0586-10.938-10.438-7.375l-13.55-23.75z" clip-path="url(#clipPath10857)" transform="translate(-79.971 -10.523)" fill="#fecae7"/>
    </g>
    <path id="path10861" style="color:#000000" d="m247.29-9.1697-1.2 9.5017s5.7233 4.066 11.049 7.8225l-0.35-11.811z" stroke="#982b60" stroke-width="2" fill="none"/>
    <path id="path7306" style="color:#000000" d="m284.61 259.06s-61.619 7.3236-69.448-63.387c-7.8287-70.711 23.486-105.06 57.831-108.59 34.345-3.5355 60.388-19.97 85.105 3.283 24.341 22.899 39.738 60.623 37.612 87.522-0.154 1.948 8.1267 3.6874 8.259 5.5391 2.3403 32.748-26.212 52.39-67.662 67.382-12.974 4.6925-33.202 4.535-52.23 5.0086-1.31 0.04 1.87 3.25 0.53 3.25z" fill="url(#linearGradient7308)"/>
    <g>
     <path id="path7442" style="color:#000000" d="m274.3 212.85c-3.5282 0.13272-5.819 1.425-6.9434 2.2415-1.0439 0.75809-3.8429 3.1342-4.6296 7.5234-0.25875 1.4437-0.0808 2.896 0.26773 4.2787 0.0931-1.4304 0.53828-2.7281 1.0155-3.9185 0.77293-1.928 1.9348-3.191 2.7144-3.9016 0.80702-0.73554 1.612-1.2473 2.2022-1.5841 0.84649-0.4831 2.7987-1.5404 5.4859-1.6415l-0.11278-2.9979z"/>
     <path id="path7444" style="color:#000000" d="m279.22 216.67c-2.5381 1.3829-3.8726 2.9569-4.5689 4.0661-0.73271 1.1671-1.252 2.6067-1.2347 4.2707 0.0133 1.2852 0.36776 3.0404 1.6388 4.6904 0.72731 0.94412 1.7743 1.5072 2.8066 1.9284-0.76503-0.83398-1.1705-1.8199-1.5456-2.691-0.66148-1.5361-0.57038-2.8984-0.40405-3.7427 0.21571-1.095 0.70306-2.0702 1.2278-2.8333 0.49009-0.71276 1.4823-1.9464 3.5154-3.0542l-1.4354-2.6343z"/>
     <path id="path7440" style="color:#000000" d="m266.2 206.98c-3.721 0.0736-5.761 1.0034-6.6231 1.4763-0.61749 0.33874-1.3954 0.86079-2.1657 1.634-0.76904 0.772-1.7157 1.9871-2.2355 3.6482-0.34178 1.0922-0.31217 2.1584-0.15146 3.0671 0.26307-0.89217 0.74946-1.7281 1.2982-2.5248 0.83247-1.2087 1.8408-1.933 2.5567-2.3543 0.7116-0.4187 1.4173-0.6996 1.908-0.88199 0.48356-0.17974 2.5146-1.0066 5.4721-1.0651l-0.0593-2.9994z"/>
     <path id="path7438" style="color:#000000" d="m255.99 197.49c-1.1576 1.9206-2.5701 3.3187-3.3373 4.0576-0.75481 0.72701-2.1301 2-3.6783 3.0337-0.77023 0.51425-1.7939 1.1159-2.986 1.5826-1.7136 0.67093-3.5153 1.1787-5.2715 0.90694 1.5235 0.9799 3.5304 1.5224 5.7856 1.2682 1.5045-0.16953 2.8489-0.57114 3.8805-0.9655 2.2191-0.84832 3.8267-1.9619 4.9154-2.8908 1.0252-0.87462 2.6549-2.5016 4.1174-4.928l-3.4258-2.0649z"/>
     <path id="path7436" style="color:#000000" d="m253.87 191.24c-0.71242 0.90834-1.637 1.6007-2.307 2.0504-0.65339 0.43857-1.4343 0.88859-2.1165 1.2516-0.66769 0.35536-1.7616 0.90889-3.1263 1.3764-1.2884 0.44139-3.7045 1.1179-6.7188 0.97513-1.6893-0.08-3.4864-0.22248-5.2739-0.80327 1.5452 1.0665 3.2098 1.9594 5.0308 2.4146 3.2217 0.80536 6.0462 0.64189 7.6533 0.44163 1.7191-0.2142 3.0507-0.59326 3.9724-0.93029 0.94841-0.3468 1.8632-0.79369 2.7798-1.3866 0.85163-0.55087 2.1588-1.5254 3.2535-2.9211l-3.1474-2.4686z"/>
    </g>
   </g>
   <path id="path7314" d="m331.61 190.91a38.571 50.089 0 0 1 -38.444 50.089 38.571 50.089 0 0 1 -38.698 -49.757 38.571 50.089 0 0 1 38.187 -50.419 38.571 50.089 0 0 1 38.952 49.423" clip-path="url(#clipPath7320)" transform="matrix(.89967 -.64447 .59642 .74533 -82.516 225.8)" fill="url(#linearGradient7316)"/>
   <g>
    <path id="path7328" style="color:#000000" d="m313.35 161.83c2.2388 2.2241 4.1018 4.6976 5.3393 6.4412 1.267 1.7852 2.5166 3.7159 3.6249 5.5064 1.1193 1.8083 2.5654 4.2339 4.1991 7.2364 1.6876 3.1017 3.7997 7.2258 6.2836 12.703 1.4008 3.0892 2.8302 5.9584 4.0753 8.7129-0.81652-2.8858-1.6776-6.0308-2.8363-9.2182-2.0528-5.6467-3.9156-10.041-5.3966-13.265-1.47-3.2004-2.7619-5.6821-3.8615-7.6285-1.0938-1.9362-2.2898-3.8604-3.6377-5.7785-1.2757-1.8153-3.2553-4.4335-5.6757-6.838l-2.1143 2.1283z"/>
    <g>
     <path id="path7332" style="color:#000000" d="m284.6 208.42c-12.143 4.3184-26.626-5.2246-32.348-21.315-5.7222-16.09-0.51717-32.635 11.626-36.953 12.143-4.3184 26.626 5.2246 32.348 21.315 5.7222 16.09 0.51717 32.635-11.626 36.953" clip-path="url(#clipPath7430)" fill="url(#linearGradient7344)"/>
     <path id="path7366" style="color:#000000" d="m273.3 192.56-13.48 14.6-8.48-10.09z" clip-path="url(#clipPath7408)" fill="url(#linearGradient7372)"/>
     <path id="path7368" style="color:#000000" d="m273.26 193.1-25.98 7.86-2.41-9.16z" clip-path="url(#clipPath7400)" fill="url(#linearGradient7370)"/>
     <path id="path7346" style="color:#000000" d="m275.14 201.62c-8.0662 2.5216-17.395-4.3595-20.837-15.369-3.4419-11.01 0.30677-21.98 8.373-24.501 8.0662-2.5216 17.395 4.3595 20.837 15.369 3.4419 11.01-0.30678 21.98-8.373 24.501" clip-path="url(#clipPath7424)" fill="url(#linearGradient7350)"/>
     <path id="path7352" style="color:#000000" d="m295.59 194.82c-0.55907 2.8956-2.6733 4.9222-4.7223 4.5266-2.049-0.39562-3.2568-3.0637-2.6978-5.9592 0.55908-2.8956 2.6733-4.9222 4.7224-4.5266 2.049 0.39562 3.2568 3.0636 2.6978 5.9592" fill="url(#linearGradient7358)"/>
     <path id="path7360" style="color:#000000" d="m283.64 185.29c-2.0597 5.4098-6.8062 8.6238-10.602 7.1788-3.7954-1.445-5.2025-7.002-3.1428-12.412 2.0597-5.4098 6.8062-8.6238 10.602-7.1788 3.7954 1.4451 5.2025 7.002 3.1428 12.412" clip-path="url(#clipPath7418)" fill="url(#linearGradient7364)"/>
    </g>
    <path id="path7324" style="color:#000000" d="m231.2 183.93c0.60336 1.7808 1.7505 3.4975 3.6585 4.6813 1.7756 1.1016 3.8624 1.8394 5.9807 2.3068 4.7718 1.0529 10.182 0.85422 14.834-0.0256 13.109-2.7315 25.399-6.6495 36.867-12.472 13.34-6.7724 22.825-14.714 29.329-21.046 1.7549-1.7357 2.6814-3.8891 2.9223-6.1261 0.23953-2.2241-0.17576-4.7709-1.3654-7.402-0.90216-1.9952-2.3514-4.2335-4.3955-6.1843-1.526-1.4563-3.3802-2.32-5.1007-2.828 1.3743 1.1391 2.431 2.7279 3.4665 4.2362 1.4301 2.083 2.2686 4.2189 2.6922 5.9605 1.085 4.4619-0.15426 7.2491-1.7333 8.6915-6.297 5.9851-15.423 13.71-28.093 20.247-10.943 5.6463-22.789 9.5864-35.554 12.511-4.1536 1.0456-9.0508 1.6372-13.387 1.2924-1.9253-0.15307-3.8165-0.4977-5.4826-1.1222-1.6893-0.63323-3.4114-1.3227-4.6393-2.7213z"/>
    <g>
     <path id="path7456" style="color:#000000" d="m381.07 122.43s-24.551 20.658-29.223 21.605c11.301 33.019 37.754 35.86 42.995 34.85 3.6-14.33-3.36-41.25-13.77-56.45z" fill="url(#linearGradient7458)"/>
     <path id="path7310" style="block-progression:tb;text-indent:0;color:#000000;text-transform:none" d="m358.06 86.438-3.4375 3.625c23.794 22.385 40.702 62.067 38.562 87.844l5 0.4375c2.34-28.06-15.09-68.37-40.12-91.912z" fill="url(#linearGradient7540)"/>
     <path id="path7460" style="color:#000000" d="m365.68 162.38c-8.0473 1.3629-16.023-6.1053-17.814-16.681-1.791-10.575 3.2807-20.253 11.328-21.616 8.0473-1.3629 16.023 6.1053 17.814 16.681 1.791 10.575-3.2807 20.253-11.328 21.616" clip-path="url(#clipPath7510)" fill="url(#linearGradient7472)"/>
     <path id="path10910" style="color:#000000" d="m444.28 158.95 20.73-9.63-6.05-7.3z" clip-path="url(#clipPath10928)" transform="translate(-79.971 -10.523)" fill="url(#linearGradient10916)"/>
     <path id="path10912" style="color:#000000" d="m441.42 158.19 21.988-13.719-4.2983-1.7168s-14.6 11.02-17.69 15.44z" clip-path="url(#clipPath10922)" transform="translate(-79.971 -10.523)" fill="url(#linearGradient10914)"/>
     <path id="path7482" style="color:#000000" d="m363.39 158.12c-6.528 1.1056-12.998-4.9526-14.451-13.531-1.4529-8.5787 2.6613-16.429 9.1893-17.535 6.528-1.1056 12.998 4.9526 14.451 13.531 1.4529 8.5787-2.6613 16.429-9.1893 17.535" clip-path="url(#clipPath7504)" fill="url(#linearGradient7490)"/>
    </g>
   </g>
   <path id="path7492" transform="matrix(1.2025 .32773 -.32773 1.2025 -19.143 -148.71)" fill="url(#linearGradient7496)" d="m363.09 140.62a3.1567 5.3664 0 0 1 -3.1463 5.3664 3.1567 5.3664 0 0 1 -3.1671 -5.3308 3.1567 5.3664 0 0 1 3.1253 -5.4018 3.1567 5.3664 0 0 1 3.1878 5.295"/>
   <path id="path7498" d="m363.09 140.62a3.1567 5.3664 0 0 1 -3.1463 5.3664 3.1567 5.3664 0 0 1 -3.1671 -5.3308 3.1567 5.3664 0 0 1 3.1253 -5.4018 3.1567 5.3664 0 0 1 3.1878 5.295" transform="matrix(.62480 -.046010 -.074413 .45017 158.88 101.86)" fill="url(#linearGradient7496)"/>
   <g>
    <path id="path7516" style="color:#000000" d="m344.87 135.91c-0.19141 3.169 1.259 6.3162 3.5586 8.2311 1.7064 1.4209 4.6127 2.6937 7.9229 1.4611 0.61297-0.22824 1.2109-0.53308 1.7862-0.91501 4.1869-2.8029 9.3209-6.9359 13.83-10.793 4.5219-3.8678 8.437-7.4762 10.229-9.2828 0.18409-0.18622 0.37392-0.38127 0.56815-0.58449 1.6713-1.7487 2.971-3.3644 3.9568-4.7999 0.95433-1.3897 1.6041-2.5938 2.0549-3.6548 0.6826-1.6064 1.6451-4.7487 0.91553-8.1895-0.34866 1.8213-1.141 3.2936-1.6624 4.1726-0.53558 0.90307-1.2094 1.8636-1.7568 2.6189-0.56512 0.77983-1.3555 1.8364-2.3043 2.9486-0.99461 1.1659-2.3334 2.5928-3.9709 4.0155-0.19278 0.16749-0.38072 0.32714-0.56283 0.47864-1.923 1.6145-5.85 4.9762-10.428 8.7524-4.5525 3.755-9.5521 7.7552-13.472 10.541-0.2905 0.2148-0.57856 0.38417-0.86179 0.51598-1.4192 0.66043-2.9959 0.55666-4.5067-0.0363-1.8601-0.73004-4.2591-2.5264-5.2962-5.4805z"/>
    <path id="path7520" style="color:#000000" d="m351.04 145.06c0.12256 0.36391 0.23949 0.72868 0.37535 1.0852 4.7804 12.546 11.728 19.25 12.015 19.545 1.0329 1.0656 4.0032 4.012 9.6242 7.0195-2.8386-2.158-4.8206-4.21-5.7101-5.1442-0.83504-0.87699-2.0504-2.2145-2.7249-2.9773-0.29655-0.33537-6.7884-6.9255-10.848-19.28-0.11482-0.34943-0.24373-0.69546-0.36201-1.0467l-2.3692 0.79794z"/>
    <g>
     <path id="path7524" style="color:#000000" d="m381.24 131.77c2.8612-0.79102 5.1137-1.8939 6.4346-2.6525 1.3479-0.774 3.1519-1.9995 4.9837-3.8825 1.1362-1.168 2.7927-3.1194 3.8549-5.6282 0.77404-1.8283 0.92959-3.7309 0.70076-5.566-0.31133 1.8191-1.1804 3.3748-2.1325 4.8046-1.3365 2.007-3.0929 3.4629-4.2499 4.3195-1.7566 1.3004-3.7138 2.3527-4.8138 2.92-1.1639 0.6003-3.2509 1.6317-5.7104 2.3117l0.93266 3.3734z" clip-path="url(#clipPath11377)" fill="url(#linearGradient7530)"/>
     <path id="path7526" style="color:#000000" d="m383.95 137.66c3.1388-0.0604 5.348-0.44743 7.0655-1.0033 1.4177-0.45884 4.7331-1.741 7.4375-5.0778 1.0909-1.346 1.7499-3.0006 2.3014-4.7726-1.0877 1.5221-2.3856 2.5789-3.563 3.5219-2.7659 2.2152-6.0288 2.8609-7.0685 3.0852-1.3669 0.29491-3.5088 0.6947-6.2401 0.74723l0.0673 3.4994z" clip-path="url(#clipPath11371)" fill="url(#linearGradient7534)"/>
     <path id="path7556" style="color:#000000" d="m373.06 172.71c1.16 1.6473 2.4402 3.2504 4.2094 4.2632 6.1456 3.5182 14.226 3.5865 18.139 3.656 1.4393 0.0387 2.3537 0.24422 2.9601 0.49682 0.55921 0.23295 0.95048 0.54055 1.277 1.0186 0.66103 0.96777 1.1154 2.5461 1.541 6.6169 0.15641 1.4962 0.20022 4.704-0.23246 8.0691-0.42276 3.288-1.223 6.0941-2.4069 7.7382-5.4236 7.5793-13.51 17.758-25.795 26.967-12.338 9.2489-28.447 17.171-49.715 21.004-8.5282 1.5371-17.917 2.6587-28.282 2.7276 10.329 0.79797 19.86 0.83784 28.657-0.14216 21.955-2.4457 39.181-9.7658 52.592-19.089 13.333-9.2689 22.028-19.904 27.667-27.804 2.2341-3.1367 2.8222-7.5413 2.9444-10.956 0.13646-3.8127-0.28495-7.3859-0.45728-9.0344-0.41198-3.9411-0.8642-6.754-2.2726-8.9064-0.90848-1.3884-2.1369-2.3572-3.6294-2.9355-1.4464-0.56044-3.0968-0.73871-4.9091-0.6617-2.2665 0.0961-5.2328 0.26702-7.8688 0.24795-2.6669-0.0193-6.0357-0.21353-9.1816-1.2697-1.6461-0.55266-3.5012-0.95639-5.2375-2.0062z" fill="url(#linearGradient7560)"/>
     <path id="path7562" style="color:#000000" d="m396.25 211.94c-2.5625-3.0625-13.5 2.6875-16.625 6 5.8125-9.625 14.125-15.188 22.5-15.188 3.63 0-5.87 9.19-5.87 9.19z" fill="url(#linearGradient7564)"/>
     <path id="path7566" style="color:#000000" d="m374.56 192.97c-1.566 7.2693 8.9112 8.2175 9.4574 0.70706-2.14 3.1-8.28 3.3-9.46-0.71z" fill="url(#linearGradient7572)"/>
     <path id="path7574" style="color:#000000" d="m206.11 178.25c13.87 43.39 17.14 82.25 10.77 122.87-3.8203 24.345 17.875 55.875 59.5 76.25 12.25-16.125 33.009-40.664 30.509-78.914-16.75-0.35-36.14-5.34-48.27-20.21 14 7.375 33.25 12.875 44.5 10-2.375-10.5-7.375-23.25-12.625-32.375-29.125 6.75-59.75-5.5-72-66.75" fill="url(#linearGradient7576)"/>
     <path id="path7580" style="color:#000000" d="m220.62 255.62c11 41.875 54.875 73.75 79.25 83.25l-11.37 20.88s-56.62-39.75-68.75-83.5z" fill="url(#linearGradient7582)"/>
     <path id="path7584" style="color:#000000" d="m219.82 261.44c11.5 49 51.677 85.305 71.677 91.93l-5 9.375c-20.12-5.36-56.75-45.8-66.81-86.68-1.89-7.64 0.13-14.62 0.13-14.62z" fill="url(#linearGradient7586)"/>
    </g>
    <path id="path7588" style="color:#000000" d="m220.12 250c16.875 31.375 46.25 67 83 79.625" stroke="url(#linearGradient7590)" stroke-width="2" fill="none"/>
    <path id="path7592" style="color:#000000" d="m216.88 220.75c7.875 18.75 44 60.125 82.625 56.125" stroke="url(#linearGradient7594)" stroke-width="2" fill="none"/>
    <g>
     <path id="path7596" style="color:#000000" d="m203.73 179.01c2.7548 8.6173 5.0864 17.048 7.0037 25.343 7.664 33.157 8.7255 64.206 3.679 96.387-2.0465 13.055 2.7813 27.69 13.185 41.497 10.426 13.836 26.588 27.042 47.688 37.369 0.61348 0.30025 1.2287 0.59688 1.8457 0.88989 0.40562-0.54034 0.81275-1.0796 1.2214-1.6176 6.0616-7.9813 14.502-18.374 21.035-31.556 6.5638-13.244 11.259-29.385 9.9784-49.021-0.05-0.76614-0.10861-1.5317-0.17597-2.2965-0.75071-0.001-1.5014-0.0101-2.2519-0.0261-8.2052-0.1748-17.346-1.2433-26.521-4.8056-4.0184-1.5602-8.0573-3.6045-12.037-6.2771 3.0371 1.3263 6.0873 2.4901 9.1136 3.4605 9.1676 2.9396 18.3 4.1628 26.191 2.4762 0.85404-0.18255 1.7001-0.40062 2.536-0.65362-0.16071-0.83876-0.33384-1.6751-0.51933-2.5087-2.3963-10.769-7.4565-23.782-12.824-33.159-0.34291-0.59909-0.69314-1.194-1.0506-1.7845-0.64525 0.17077-1.2932 0.33126-1.9436 0.4814-13.927 3.2154-28.061 1.4978-40.201-8.1341-4.3125-3.4215-8.4202-7.8761-12.2-13.542-2.6475-3.9682-5.3458-8.4309-7.6688-13.661-3.7561-8.4572-6.858-18.651-9.2793-30.758l-4.9029 0.98058c2.4786 12.393 5.7805 22.902 9.6 31.779 2.3605 5.4865 4.793 10.453 7.6469 14.73 4.0664 6.0947 8.5573 10.99 13.368 14.804 13.121 10.4 28.274 12.499 42.859 9.577 3.7087 6.3631 8.234 17.48 10.777 27.14-6.0941 0.72958-13.247-0.28038-20.825-2.679-8.6795-2.7471-17.737-7.2586-26.042-12.685-4.1374-2.7032-8.1114-5.6486-11.901-8.8207 2.4709 4.4291 5.3342 8.6277 8.5554 12.545 9.0099 10.957 19.005 17.509 28.937 21.35 9.0294 3.4924 17.946 4.72 25.921 5.0434 1.0988 16.362-3.336 31.615-9.5894 44.234-5.8702 11.846-13.294 21.299-19.291 29.131-19.623-9.9032-34.497-22.281-44.076-34.999-9.8949-13.138-14.005-26.441-12.231-37.731 5.1535-32.819 4.0709-64.514-3.735-98.286-1.9502-8.4374-4.319-17.001-7.1127-25.74l-4.7626 1.5225z" fill="url(#linearGradient7578)"/>
     <path id="path7600" style="color:#000000" d="m206.88 94.774c41.625-23.875 60.162-69.518 106.75-83.183 42.126-12.357 93.307 21.504 104.81 59.004-53.141 6.9792-92.193 30.5-125.49 58.211-6.0482-13.686-18.876-22.403-28.498-25.978 7.0815 10.038 13.745 24.511 15.303 37.404-9.2266 8.279-18.066 16.769-26.719 25.171-1-18-7.8728-52.663-29.406-55.917" stroke="url(#linearGradient7604)" stroke-width="5" fill="url(#linearGradient7602)"/>
     <path id="path7606" style="color:#000000" d="m240.86 67.59c0.35355-0.08839 17.943-18.915 17.943-18.915 85.648-25.279 94.399 39.421 94.399 40.04 0 0.61872-22.009 12.463-22.009 12.463-16-39.423-57.1-47.202-90.33-33.59z" fill="url(#linearGradient7608)"/>
     <path id="path7610" style="color:#000000" d="m252.38 56.25 10.875-11.75c63.875-29.75 84 3.25 98.25 39.75 0.4066 1.0415-15 8.625-15 8.625-19.51-38.875-41.76-58.375-94.13-36.625z" fill="url(#linearGradient7612)"/>
    </g>
    <g fill="none">
     <path id="path10828" style="color:#000000" d="m206.88 94.774c41.625-23.875 60.162-69.518 106.75-83.183 42.126-12.357 93.307 21.504 104.81 59.004-53.141 6.9792-92.193 30.5-125.49 58.211-6.0482-13.686-18.876-22.403-28.498-25.978 7.0815 10.038 13.745 24.511 15.303 37.404-9.2266 8.279-18.066 16.769-26.719 25.171-1-18-7.8728-52.663-29.406-55.917" stroke="url(#linearGradient7604)" stroke-width="5"/>
     <path id="path7614" style="color:#000000" d="m222.39 84.561c32.35-3.2704 60.811 1.3258 81.052 35.532" stroke="url(#linearGradient7618)" stroke-width="2"/>
     <path id="path7616" style="color:#000000" d="m228.48 79.523c27.312-6.0988 67.971-8.2201 82.731 34.648" stroke="url(#linearGradient7620)" stroke-width="2"/>
    </g>
    <g>
     <path id="path7622" style="color:#000000" d="m288.5 73.25c3-29.375 17.714-82.487 27.75-81.25 9.125 1.125 6.25 90 2.625 107.62" clip-path="url(#clipPath7638)" stroke="url(#linearGradient7626)" stroke-width="5" fill="url(#linearGradient7624)"/>
     <path id="path7628" style="color:#000000" d="m302.31 14.563c0.875 8.9375 8.9375 16.375 19.312 13.25" stroke="url(#linearGradient7632)" stroke-width="2.5" fill="none"/>
     <path id="path7630" style="color:#000000" d="m294.88 39.938c0.625 15.688 16.5 28.625 26.438 15.188" stroke="url(#linearGradient7634)" stroke-width="2.5" fill="none"/>
    </g>
    <g>
     <path id="path7644" style="color:#000000" d="m226.5 194.5c-28.625-14.625-62.721-60.554-44.741-109.7 3.5335-9.658 28.606 2.5242 54.381 39.295" fill="url(#linearGradient7646)"/>
     <path id="path7650" style="color:#000000" d="m194.28 112.14c-0.3082 5.3614 0.10732 9.9353 0.78947 13.565 0.70067 3.7278 2.0187 8.3094 4.6674 13.759 3.4386 7.0752 8.0256 13.313 13.02 18.445 2.6612 2.7347 5.679 4.8499 8.4819 6.8222-2.2329-2.6138-4.2658-5.6024-6.5446-8.5162-4.2859-5.4803-8.4293-11.626-11.822-18.309-2.5095-4.943-4.2929-9.6037-5.4055-12.833-1.1177-3.2434-2.4999-7.7241-3.186-12.933z" fill="url(#linearGradient7654)"/>
     <path id="path7656" style="color:#000000" d="m226.5 194.5c-3.9443-2.3449-10.969-7.1182-18.84-15.58-8.1302-8.7404-12.939-16.816-15.858-21.866-1.1018-1.9064-2.1518-3.858-3.1414-5.8516-9.4804-19.098-13.513-42.254-4.1955-66.248 0.14139-0.3641 0.3836-0.63468 1.0392-0.81096 0.76522-0.20576 1.9954-0.22664 3.7551 0.1561 3.4962 0.76048 8.2545 2.9311 13.598 6.4547 3.9209 2.5853 8.0874 5.8527 12.213 9.7128 3.8235 3.5777 7.5168 7.7462 11.329 11.999 3.2259 3.5987 6.818 7.1876 9.8624 11.338-1.8111-4.8199-3.7415-9.6318-6.5119-13.896-3.2618-5.0201-7.2709-9.2836-11.245-13.076-4.2854-4.089-8.6654-7.5628-12.842-10.326-5.6126-3.7138-10.984-6.2289-15.348-7.1489-2.17-0.4575-4.3004-0.56567-6.1468-0.05068-1.9561 0.54562-3.575 1.8037-4.3646 3.8371-9.9131 25.527-6.0748 50.287 4.2785 70.374 1.0739 2.0837 2.217 4.1148 3.4207 6.0887 3.06 5.018 9.1797 13.383 18.201 21.324 8.9237 7.8554 16.593 11.749 20.796 13.568z" fill="url(#linearGradient7648)"/>
    </g>
    <path id="path11365" style="color:#000000" d="m233.39-33.92 4.171 28.123s-13.552 5.3767-22.523 9.0449c8.4853 1.0607 24.5 1.8432 24.5 1.8432l2.2288 28.208 9.4718-16.926 20.764 13.134-7.7838-22.715 20.15-1.7828c-6.94-3.1813-20.7-8.139-20.7-8.139l6.05-18.184-16.03 7.045z" stroke="#982b60" stroke-miterlimit="8" stroke-width="1.483" fill="none"/>
   </g>
  </g>
 </g>
</svg>
