<?xml version="1.0" encoding="iso-8859-1"?><!-- Generator: Adobe Illustrator 16.0.0, SVG Export Plug-In . SVG Version: 6.00 Build 0) --><!DOCTYPE svg PUBLIC "-//W3C//DTD SVG 1.1//EN" "http://www.w3.org/Graphics/SVG/1.1/DTD/svg11.dtd"><svg version="1.1" id="Layer_1" xmlns="http://www.w3.org/2000/svg" xmlns:xlink="http://www.w3.org/1999/xlink" x="0px" y="0px" width="538.584px" height="538.583px" viewBox="0 0 538.584 538.583" style="enable-background:new 0 0 538.584 538.583;" xml:space="preserve"><path style="fill:none;" d="M0,0h538.584v538.583H0V0z"/><path style="fill:#2062AF;" d="M405.5,467.454l-136.21,36.676l-136.212-36.676l-31.432-340.525h335.29L405.5,467.454z"/><path style="fill:#3C9CD7;" d="M269.289,154.511v320.367l0.308,0.084l110.229-29.682l25.443-290.769H269.289z"/><path d="M191.985,76.899V56.631h29.571V34.453h-51.749v62.684h51.749V76.899H191.985z M274.751,56.631h20.674V34.453h-51.754v22.178	c6.924,6.924,10.535,10.238,20.549,20.252c-5.854,0-20.549,0.021-20.549,0.02v20.234h51.754V76.899L274.751,56.631z M348.103,56.631	h20.673V34.453H317.02v22.178c6.924,6.924,10.537,10.238,20.551,20.252c-5.852,0-20.551,0.021-20.551,0.02v20.234h51.757V76.899	L348.103,56.631z"/><path style="fill:#FFFFFF;" d="M269.168,239.656l-97.49,40.602l3.233,40.199l94.257-40.301l100.265-42.868l4.157-41.122	L269.168,239.656z"/><linearGradient id="SVGID_1_" gradientUnits="userSpaceOnUse" x1="-825.5076" y1="1338.3013" x2="-825.5076" y2="1419.1021" gradientTransform="matrix(1 0 0 -1 1045.9302 1658.7588)"><stop offset="0.387" style="stop-color:#D1D3D4;stop-opacity:0"/><stop offset="1" style="stop-color:#D1D3D4"/></linearGradient><path style="fill:url(#SVGID_1_);" d="M171.677,280.258l3.233,40.199l94.257-40.301v-40.5L171.677,280.258z"/><linearGradient id="SVGID_2_" gradientUnits="userSpaceOnUse" x1="-724.5515" y1="1378.6021" x2="-724.5515" y2="1462.5913" gradientTransform="matrix(1 0 0 -1 1045.9302 1658.7588)"><stop offset="0.387" style="stop-color:#D1D3D4;stop-opacity:0"/><stop offset="1" style="stop-color:#D1D3D4"/></linearGradient><path style="fill:url(#SVGID_2_);" d="M373.59,196.167l-104.422,43.489v40.5l100.265-42.868L373.59,196.167z"/><linearGradient id="SVGID_3_" gradientUnits="userSpaceOnUse" x1="-874.1033" y1="1302.2632" x2="-680.0388" y2="1302.2632" gradientTransform="matrix(1 0 0 -1 1045.9302 1658.7588)"><stop offset="0" style="stop-color:#E8E7E5"/><stop offset="1" style="stop-color:#FFFFFF"/></linearGradient><path style="fill:url(#SVGID_3_);" d="M171.827,280.258l3.234,40.199l144.625,0.461l-3.235,53.598l-47.59,13.398l-45.748-11.551	l-2.772-33.268h-42.508l5.545,64.225l85.945,25.412l85.479-24.951l11.09-127.523H171.827z"/><g style="opacity:0.05;"><path d="M269.168,280.258h-97.49l3.233,40.199l94.257,0.301V280.258z M269.168,387.786l-0.462,0.129l-45.742-11.551l-2.772-33.268	h-42.507l5.544,64.225l85.939,25.412V387.786z"/></g><linearGradient id="SVGID_4_" gradientUnits="userSpaceOnUse" x1="-883.032" y1="1442.0308" x2="-672.3406" y2="1442.0308" gradientTransform="matrix(1 0 0 -1 1045.9302 1658.7588)"><stop offset="0" style="stop-color:#E8E7E5"/><stop offset="1" style="stop-color:#FFFFFF"/></linearGradient><path style="fill:url(#SVGID_4_);" d="M162.898,196.167H373.59l-4.157,41.122H167.98L162.898,196.167z"/><path style="opacity:0.05;enable-background:new ;" d="M269.168,196.167h-106.27l5.082,41.122h101.188V196.167z"/></svg>