<?xml version="1.0" encoding="utf-8"?>
<!-- Generator: Adobe Illustrator 17.0.0, SVG Export Plug-In . SVG Version: 6.00 Build 0)  -->
<!DOCTYPE svg PUBLIC "-//W3C//DTD SVG 1.1//EN" "http://www.w3.org/Graphics/SVG/1.1/DTD/svg11.dtd">
<svg version="1.1" id="gulp-logo" xmlns="http://www.w3.org/2000/svg" xmlns:xlink="http://www.w3.org/1999/xlink" x="0px" y="0px"
	 width="792px" height="612px" viewBox="0 0 792 612" enable-background="new 0 0 792 612" xml:space="preserve">
<path id="cup-end" fill="#E94B4B" d="M404.72,405.739c-22.574,0-40.017-3.392-48.405-5.412c-5.736-1.382-10.342-2.812-13.841-4.282
	l11.187,19.114l4.376,59.719c0,6.695,21.268,12.122,47.503,12.122c26.235,0,47.503-5.427,47.503-12.122l3.465-60.369l10.586-18.518
	c-3.514,1.489-8.161,2.937-13.969,4.337C444.736,402.348,427.293,405.739,404.72,405.739z"/>
<path id="cup-main" fill="#E94B4B" d="M467.456,211.411C450.888,213.725,428.899,215,405.54,215s-45.348-1.275-61.916-3.589
	c-8.207-1.146-14.7-2.498-19.299-4.016c-1.097-0.362-2.956-0.982-4.745-1.968l10.265,94.473c0.478-1.627,1.009-3.252,1.598-4.871
	c1.204-3.318,2.599-6.562,4.181-9.731c1.583-3.168,3.306-6.164,5.169-8.984c1.862-2.82,3.845-5.417,5.946-7.79
	c2.102-2.372,4.258-4.413,6.472-6.122c2.213-1.709,4.447-3.044,6.702-4.007c2.256-0.962,4.49-1.443,6.703-1.443
	c2.549,0,5.015,0.697,7.396,2.09c2.381,1.393,4.607,3.651,6.682,6.77c0.475,0.697,0.777,1.402,0.902,2.115
	c0.127,0.714,0.189,1.386,0.189,2.016c0,1.493-0.357,2.672-1.071,3.534c-0.714,0.863-1.562,1.294-2.542,1.294
	c-0.898,0-1.731-0.473-2.501-1.418c-0.771-0.946-1.632-2.297-2.585-4.057c-0.896-1.593-1.884-2.745-2.962-3.459
	c-1.079-0.713-2.248-1.07-3.509-1.07c-1.961,0-4.055,0.814-6.282,2.439c-2.228,1.626-4.434,3.775-6.618,6.446
	c-2.185,2.671-4.28,5.724-6.283,9.158c-2.003,3.435-3.775,6.952-5.316,10.552c-1.541,3.602-2.766,7.152-3.676,10.652
	c-0.911,3.5-1.366,6.645-1.366,9.432c0,0.93,0.064,1.885,0.189,2.861c0.127,0.98,0.364,1.867,0.715,2.664
	c0.35,0.797,0.826,1.451,1.429,1.965c0.602,0.516,1.366,0.772,2.29,0.772c1.037,0,2.213-0.348,3.53-1.045
	c1.316-0.695,2.683-1.609,4.097-2.736c1.415-1.129,2.837-2.406,4.266-3.834c1.43-1.426,2.76-2.869,3.992-4.33
	c1.232-1.459,2.325-2.861,3.277-4.205c0.953-1.344,1.667-2.514,2.144-3.51l3.908-11.697c0.476-1.26,1.099-2.156,1.87-2.688
	c0.77-0.53,1.561-0.796,2.375-0.796c0.391,0,0.783,0.067,1.176,0.199c0.393,0.133,0.742,0.34,1.051,0.622
	c0.309,0.282,0.553,0.647,0.735,1.095c0.182,0.448,0.273,0.971,0.273,1.567c0,1.593-0.14,3.085-0.42,4.48
	c-0.279,1.395-0.637,2.754-1.071,4.082c-0.435,1.326-0.918,2.662-1.45,4.006c-0.532,1.344-1.051,2.746-1.555,4.207
	c-0.111,0.166-0.314,0.688-0.609,1.566c-0.294,0.881-0.65,1.984-1.071,3.311c-0.42,1.328-0.876,2.812-1.366,4.455
	c-0.49,1.643-0.994,3.318-1.512,5.027c-0.52,1.709-1.016,3.385-1.492,5.027c-0.477,1.643-0.904,3.127-1.281,4.455
	c-0.379,1.326-0.693,2.438-0.946,3.334c-0.252,0.896-0.406,1.426-0.462,1.594c-0.141,0.529-0.365,1.119-0.672,1.766
	c-0.309,0.646-0.673,1.262-1.094,1.842c-0.42,0.58-0.882,1.062-1.387,1.443c-0.504,0.381-1.023,0.572-1.555,0.572
	c-0.896,0-1.548-0.299-1.953-0.895c-0.407-0.598-0.609-1.693-0.609-3.285c0-0.234,0-0.467,0-0.697c0-0.232,0.014-0.482,0.041-0.746
	c0.027-0.531,0.238-1.527,0.631-2.988c0.393-1.459,0.861-3.109,1.408-4.951c0.546-1.842,1.135-3.75,1.765-5.725
	c0.63-1.975,1.197-3.74,1.702-5.301c-1.486,1.66-3.096,3.311-4.833,4.953c-1.737,1.643-3.517,3.119-5.337,4.43
	c-1.821,1.31-3.656,2.381-5.505,3.211c-1.849,0.828-3.628,1.244-5.337,1.244c-1.961,0-3.649-0.432-5.065-1.295
	c-0.256-0.156-0.496-0.332-0.736-0.506l5.712,59.888c1.486,3.727,29.48,12.884,66.39,12.884c36.928,0,64.932-9.166,66.394-12.89
	l8.205-71.203c-0.68,0.623-1.34,1.232-1.973,1.822c-2.354,2.189-4.574,4.072-6.662,5.648c-2.086,1.576-4.125,2.797-6.113,3.658
	c-1.99,0.863-4.119,1.295-6.389,1.295c-2.129,0-3.775-0.465-4.938-1.395c-1.162-0.928-1.744-2.205-1.744-3.832
	c0-0.133,0-0.256,0-0.373c0-0.115,0.014-0.258,0.043-0.424c0.111-0.994,0.547-2.141,1.303-3.434c0.756-1.295,1.666-2.639,2.73-4.031
	c1.064-1.395,2.199-2.805,3.404-4.232c1.205-1.426,2.318-2.777,3.342-4.057c1.021-1.275,1.869-2.445,2.541-3.508
	c0.674-1.062,1.01-1.924,1.01-2.588c0-0.398-0.141-0.713-0.42-0.947c-0.281-0.23-0.744-0.348-1.387-0.348
	c-1.121,0-2.277,0.291-3.467,0.871c-1.191,0.58-2.369,1.361-3.531,2.34c-1.162,0.978-2.297,2.1-3.404,3.359
	c-1.105,1.262-2.143,2.572-3.109,3.932c-0.967,1.361-1.848,2.73-2.646,4.107c-0.799,1.377-1.479,2.647-2.039,3.807
	c-0.168,0.365-0.406,0.881-0.715,1.543c-0.309,0.664-0.645,1.412-1.008,2.24c-0.365,0.83-0.75,1.686-1.156,2.562
	c-0.406,0.881-0.777,1.711-1.113,2.49c-0.336,0.779-0.637,1.475-0.902,2.09c-0.268,0.613-0.457,1.037-0.568,1.27
	c-0.141,0.299-0.371,0.861-0.693,1.691c-0.322,0.83-0.693,1.801-1.113,2.912c-0.42,1.111-0.861,2.281-1.324,3.51
	c-0.461,1.226-0.897,2.389-1.303,3.484c-0.406,1.094-0.764,2.057-1.07,2.887c-0.309,0.828-0.506,1.393-0.59,1.692
	c-0.279,0.863-0.609,1.675-0.986,2.44c-0.379,0.762-0.812,1.434-1.303,2.016c-0.49,0.58-1.051,1.045-1.682,1.393
	c-0.631,0.35-1.338,0.523-2.121,0.523c-1.01,0-1.842-0.242-2.502-0.723c-0.656-0.48-0.986-1.402-0.986-2.762
	c0-0.664,0.084-1.344,0.252-2.04c0.168-0.697,0.379-1.387,0.631-2.066c0.252-0.682,0.512-1.344,0.777-1.99
	c0.266-0.648,0.512-1.27,0.734-1.867c1.514-3.318,3.055-6.645,4.623-9.98c1.568-3.334,3.074-6.635,4.518-9.904
	c0.301-0.682,0.576-1.35,0.869-2.027c-0.088,0.086-0.174,0.176-0.26,0.26c-1.822,1.76-3.635,3.311-5.442,4.654
	c-1.808,1.344-3.601,2.414-5.379,3.211c-1.779,0.795-3.51,1.193-5.191,1.193c-1.148,0-2.107-0.182-2.877-0.547
	c-0.771-0.365-1.387-0.863-1.85-1.492c-0.463-0.631-0.793-1.377-0.988-2.24c-0.066-0.295-0.107-0.604-0.15-0.91
	c-0.492,0.383-0.988,0.756-1.488,1.109c-1.736,1.226-3.445,2.215-5.127,2.961c-1.68,0.746-3.193,1.119-4.537,1.119
	c-1.346,0-2.438-0.447-3.279-1.344c-0.84-0.895-1.26-2.422-1.26-4.578c0-1.527,0.225-3.303,0.672-5.326
	c-0.728,1.295-1.639,2.605-2.73,3.932c-1.094,1.328-2.34,2.539-3.74,3.635c-1.402,1.094-2.971,1.982-4.707,2.662
	c-1.738,0.68-3.629,1.02-5.673,1.02c-0.925,0-1.814-0.115-2.669-0.348c-0.854-0.232-1.603-0.631-2.248-1.195
	c-0.645-0.562-1.162-1.318-1.555-2.264c-0.393-0.945-0.588-2.133-0.588-3.559c0-0.033,0.056-0.539,0.168-1.52
	c0.111-0.978,0.469-2.521,1.071-4.629c0.602-2.105,1.534-4.836,2.794-8.188c1.262-3.352,3.04-7.416,5.338-12.193
	c0.588-1.262,1.268-2.166,2.037-2.713c0.772-0.548,1.604-0.822,2.5-0.822c0.393,0,0.799,0.059,1.219,0.174
	c0.422,0.117,0.812,0.298,1.178,0.548c0.363,0.248,0.658,0.565,0.883,0.945c0.223,0.381,0.336,0.82,0.336,1.318
	c0,0.332-0.043,0.648-0.127,0.945c-0.141,0.566-0.441,1.303-0.902,2.215c-0.463,0.914-1.002,1.959-1.619,3.137
	c-0.615,1.178-1.268,2.447-1.953,3.809c-0.688,1.359-1.324,2.77-1.912,4.23c-0.588,1.461-1.093,2.945-1.513,4.455
	c-0.421,1.51-0.659,2.979-0.714,4.404c0,0.598,0.139,1.144,0.42,1.643c0.279,0.498,0.742,0.746,1.387,0.746
	c1.82,0,3.557-0.598,5.211-1.791c1.652-1.195,3.178-2.68,4.58-4.455c1.4-1.775,2.668-3.684,3.803-5.725
	c1.135-2.041,2.08-3.906,2.836-5.6c0.533-1.127,1.002-2.34,1.408-3.633c0.406-1.295,0.848-2.488,1.324-3.584
	c0.477-1.096,1.021-2.008,1.639-2.738c0.615-0.729,1.387-1.094,2.311-1.094c1.01,0,1.807,0.382,2.397,1.145
	c0.588,0.764,0.881,1.676,0.881,2.736c0,0.598-0.188,1.42-0.566,2.465c-0.379,1.045-0.855,2.24-1.43,3.584
	c-0.574,1.344-1.197,2.779-1.869,4.305c-0.672,1.527-1.297,3.078-1.869,4.654c-0.576,1.576-1.051,3.119-1.43,4.629
	s-0.566,2.912-0.566,4.205c0,1.195,0.615,1.793,1.848,1.793c0.869,0,1.947-0.299,3.236-0.896c1.289-0.598,2.641-1.436,4.055-2.514
	c0.353-0.27,0.709-0.551,1.062-0.846c0.395-1.629,0.858-3.135,1.396-4.504c0.98-2.59,1.975-5.16,2.984-7.715
	c1.008-2.555,1.932-4.895,2.773-7.02l12.732-32.103c0.504-1.294,1.184-2.207,2.037-2.738c0.855-0.53,1.717-0.796,2.586-0.796
	c0.867,0,1.658,0.282,2.373,0.846c0.715,0.565,1.072,1.477,1.072,2.738c0,0.597-0.119,1.228-0.357,1.891
	c-0.238,0.665-0.539,1.377-0.904,2.141c-0.699,1.56-1.533,3.468-2.5,5.724c-0.967,2.257-2.004,4.712-3.109,7.367
	c-1.107,2.655-2.242,5.417-3.404,8.288c-1.162,2.871-2.297,5.666-3.404,8.386c-1.105,2.723-2.143,5.301-3.109,7.74
	c-0.967,2.44-1.799,4.555-2.5,6.346c-0.308,0.764-0.609,1.652-0.902,2.664c-0.295,1.012-0.441,1.916-0.441,2.713
	c0,0.496,0.084,0.895,0.252,1.193c0.168,0.299,0.49,0.449,0.967,0.449c0.588,0,1.322-0.207,2.205-0.623
	c0.883-0.414,1.834-0.963,2.857-1.643c1.023-0.68,2.088-1.459,3.193-2.34c1.107-0.879,2.207-1.791,3.299-2.736
	c1.094-0.947,2.137-1.893,3.131-2.838c0.994-0.945,1.885-1.816,2.67-2.613c0.184-0.191,0.404-0.326,0.647-0.428
	c0.473-1.412,0.904-2.797,1.285-4.15c0.225-0.598,0.533-1.443,0.926-2.539c0.391-1.096,0.84-2.174,1.344-3.236
	c0.504-1.061,1.072-1.982,1.701-2.762c0.631-0.779,1.31-1.17,2.039-1.17c1.121,0,1.934,0.258,2.438,0.771
	c0.504,0.516,0.756,1.27,0.756,2.266c0,0.199-0.027,0.514-0.084,0.945c-0.057,0.432-0.125,0.889-0.209,1.369
	c-0.084,0.48-0.176,0.938-0.273,1.369c-0.1,0.432-0.189,0.746-0.273,0.945c1.035-1.129,2.156-2.248,3.361-3.359
	c1.205-1.111,2.451-2.117,3.74-3.012c1.289-0.897,2.605-1.625,3.951-2.192c1.344-0.563,2.689-0.845,4.033-0.845
	c0.924,0,1.842,0.133,2.752,0.398c0.91,0.265,1.725,0.656,2.438,1.169c0.715,0.516,1.297,1.162,1.744,1.941
	c0.447,0.779,0.672,1.684,0.672,2.713c0,1.361-0.342,2.812-1.029,4.355c-0.685,1.543-1.547,3.094-2.584,4.652
	c-1.037,1.561-2.158,3.078-3.361,4.555c-1.205,1.477-2.332,2.82-3.383,4.031c-1.051,1.213-1.934,2.24-2.648,3.086
	c-0.713,0.848-1.086,1.42-1.113,1.719c0,0.398,0.127,0.721,0.379,0.971c0.252,0.248,0.672,0.373,1.26,0.373
	c0.477,0,1.178-0.266,2.102-0.797c0.924-0.531,2.221-1.451,3.887-2.762c1.666-1.311,3.783-3.07,6.346-5.277
	c1.758-1.512,3.816-3.315,6.135-5.366l11.115-102.928c-1.791,0.988-3.652,1.608-4.75,1.971
	C482.157,208.913,475.664,210.265,467.456,211.411z"/>
<path id="cup-top" fill="#E94B4B" d="M405.54,186.756c-47.927,0-86.78,5.427-86.78,12.122c0,6.695,38.853,12.122,86.78,12.122
	s86.78-5.427,86.78-12.122C492.32,192.183,453.467,186.756,405.54,186.756z M429.872,205.313c-5.71,0-10.34-1.261-10.34-2.816
	c0-1.555,4.629-2.816,10.34-2.816c5.71,0,10.34,1.261,10.34,2.816C440.212,204.052,435.583,205.313,429.872,205.313z"/>
<g id="straw">
	<g id="straw-join">
		<ellipse fill="#E94B4B" cx="429.872" cy="201.502" rx="8.323" ry="1.822"/>
	</g>
	<path id="straw-end" fill="#E94B4B" d="M492.34,111.736c-0.928,1.05-4.187-0.333-7.268-3.08c-3.081-2.747-5.182-5.539-4.197-6.536
		c1.034-1.046,4.361-0.116,7.442,2.631C491.398,107.498,493.255,110.701,492.34,111.736z"/>
	<polygon id="_x0A_straw" fill="#E94B4B" points="492.34,111.736 480.875,102.12 434.725,150.682 421.562,201.502 438.195,201.502 
		449.066,157.424 	"/>
</g>
</svg>
