<?xml version="1.0" encoding="iso-8859-1"?><!-- Generator: Adobe Illustrator 16.0.0, SVG Export Plug-In . SVG Version: 6.00 Build 0) --><!DOCTYPE svg PUBLIC "-//W3C//DTD SVG 1.1//EN" "http://www.w3.org/Graphics/SVG/1.1/DTD/svg11.dtd"><svg version="1.1" id="Layer_1" xmlns="http://www.w3.org/2000/svg" xmlns:xlink="http://www.w3.org/1999/xlink" x="0px" y="0px" width="440px" height="621.061px" viewBox="221.807 89.47 440 621.061" style="enable-background:new 221.807 89.47 440 621.061;" xml:space="preserve"><filter id="drop-shadow" width="150%" height="150%" x="-5%" y="-5%"><feFlood id="dropShadowColor" flood-color="black" result="floodFill" flood-opacity="0.5"></feFlood><feComposite in="floodFill" in2="SourceAlpha" operator="in" result="coloredAlpha"></feComposite><feGaussianBlur in="coloredAlpha" result="blur" stdDeviation="8"></feGaussianBlur><feComposite in="blur" in2="SourceGraphic" operator="out" result="maskedOffsetBlur"></feComposite><feMerge><feMergeNode in="maskedOffsetBlur"></feMergeNode><feMergeNode in="SourceGraphic"></feMergeNode></feMerge></filter><g id="logo" style="filter:url(#drop-shadow);"><polygon style="fill:#E44D26;" points="261.849,660.647 221.807,211.522 661.807,211.522 621.721,660.576 441.537,710.53	"/><polygon style="fill:#F16529;" points="441.807,672.348 587.403,631.981 621.661,248.246 441.807,248.246	"/><polygon style="fill:#EBEBEB;" points="441.807,414.82 368.919,414.82 363.884,358.414 441.807,358.414 441.807,303.33	441.617,303.33 303.683,303.33 305.003,318.108 318.541,469.902 441.807,469.902	"/><polygon style="fill:#EBEBEB;" points="441.807,557.876 441.565,557.942 380.219,541.376 376.297,497.446 346.487,497.446	321.003,497.446 328.721,583.935 441.555,615.258 441.807,615.187	"/><path d="M262.745,89.47h27.992v27.656h25.606V89.47h27.993v83.75h-27.993v-28.044h-25.606v28.044h-27.99L262.745,89.47	L262.745,89.47z"/><path d="M381.149,117.244h-24.642V89.47H433.8v27.774h-24.654v55.976h-27.996V117.244L381.149,117.244z"/><path d="M446.065,89.47h29.19l17.955,29.428l17.938-29.428h29.2v83.75h-27.882v-41.512l-19.259,29.778h-0.481l-19.272-29.778	v41.512h-27.39V89.47z"/><path d="M554.277,89.47h28v56.068h39.368v27.682h-67.368V89.47z"/><polygon style="fill:#FFFFFF;" points="441.617,414.82 441.617,469.902 509.447,469.902 503.052,541.342 441.617,557.922	441.617,615.229 554.541,583.935 555.367,574.626 568.313,429.612 569.657,414.82 554.815,414.82	"/><polygon style="fill:#FFFFFF;" points="441.617,303.33 441.617,337.54 441.617,358.278 441.617,358.414 574.493,358.414	574.493,358.414 574.67,358.414 575.773,346.032 578.283,318.108 579.601,303.33	"/></g></svg>