<?xml version="1.0" encoding="utf-8"?>
<!-- Generator: Adobe Illustrator 17.0.0, SVG Export Plug-In . SVG Version: 6.00 Build 0)  -->
<!DOCTYPE svg PUBLIC "-//W3C//DTD SVG 1.1//EN" "http://www.w3.org/Graphics/SVG/1.1/DTD/svg11.dtd">
<svg version="1.1" id="Layer_1" xmlns="http://www.w3.org/2000/svg" xmlns:xlink="http://www.w3.org/1999/xlink" x="0px" y="0px"
	 width="600px" height="600px" viewBox="0 0 600 600" enable-background="new 0 0 600 600" xml:space="preserve">
<g>
	<path fill="#699F63" d="M296.953,434.944c-1.46,0-2.912-0.381-4.19-1.121l-13.339-7.892c-1.991-1.115-1.018-1.509-0.362-1.738
		c2.657-0.922,3.195-1.135,6.031-2.743c0.295-0.166,0.687-0.103,0.992,0.076l10.247,6.084c0.372,0.206,0.896,0.206,1.237,0
		l39.95-23.058c0.372-0.212,0.61-0.64,0.61-1.081v-46.103c0-0.451-0.239-0.872-0.62-1.101l-39.933-23.038
		c-0.368-0.216-0.859-0.216-1.231,0l-39.923,23.045c-0.388,0.222-0.634,0.657-0.634,1.094v46.103c0,0.441,0.245,0.859,0.63,1.068
		l10.944,6.323c5.938,2.969,9.573-0.528,9.573-4.041v-45.52c0-0.643,0.518-1.151,1.161-1.151h5.066c0.634,0,1.158,0.508,1.158,1.151
		v45.52c0,7.925-4.316,12.47-11.829,12.47c-2.309,0-4.127,0-9.202-2.501l-10.476-6.031c-2.587-1.496-4.19-4.293-4.19-7.288v-46.103
		c0-2.995,1.602-5.792,4.19-7.281l39.95-23.085c2.528-1.43,5.888-1.43,8.396,0l39.947,23.085c2.587,1.496,4.196,4.286,4.196,7.281
		v46.103c0,2.995-1.609,5.782-4.196,7.288l-39.947,23.065C299.882,434.563,298.433,434.944,296.953,434.944z"/>
	<path fill="#699F63" d="M309.293,403.182c-17.482,0-21.144-8.024-21.144-14.755c0-0.64,0.514-1.151,1.155-1.151h5.165
		c0.577,0,1.058,0.415,1.148,0.979c0.78,5.258,3.105,7.912,13.677,7.912c8.416,0,11.999-1.904,11.999-6.369
		c0-2.574-1.015-4.485-14.095-5.766c-10.93-1.081-17.691-3.496-17.691-12.241c0-8.061,6.794-12.868,18.186-12.868
		c12.798,0,19.131,4.442,19.933,13.972c0.03,0.328-0.086,0.644-0.305,0.889c-0.219,0.229-0.524,0.368-0.846,0.368h-5.185
		c-0.537,0-1.012-0.381-1.121-0.902c-1.244-5.533-4.269-7.301-12.476-7.301c-9.189,0-10.257,3.201-10.257,5.599
		c0,2.906,1.261,3.752,13.667,5.394c12.277,1.622,18.109,3.921,18.109,12.549C329.21,398.196,321.952,403.182,309.293,403.182z"/>
</g>
<g>
	<path fill="#699F63" d="M366.899,354.831c0,4.236-3.463,7.699-7.699,7.699c-4.197,0-7.699-3.422-7.699-7.699
		c0-4.359,3.586-7.701,7.699-7.701C363.356,347.13,366.899,350.472,366.899,354.831z M352.744,354.809
		c0,3.586,2.892,6.479,6.435,6.479c3.586,0,6.479-2.954,6.479-6.479c0-3.584-2.932-6.436-6.479-6.436
		C355.676,348.374,352.744,351.183,352.744,354.809z M356.307,350.512h2.976c1.018,0,3.015,0,3.015,2.282
		c0,1.589-1.018,1.914-1.632,2.118c1.184,0.082,1.264,0.856,1.426,1.956c0.083,0.692,0.206,1.874,0.448,2.281h-1.831
		c-0.043-0.406-0.328-2.607-0.328-2.728c-0.119-0.49-0.285-0.733-0.895-0.733h-1.506v3.461h-1.672V350.512z M357.939,354.3h1.343
		c1.098,0,1.304-0.773,1.304-1.221c0-1.183-0.816-1.183-1.264-1.183h-1.383V354.3z"/>
</g>
<path fill-rule="evenodd" clip-rule="evenodd" fill="#333333" d="M173.243,254.567c0-1.841-0.969-3.533-2.558-4.445l-42.355-24.375
	c-0.716-0.421-1.519-0.64-2.332-0.674c-0.073,0-0.378,0-0.438,0c-0.809,0.033-1.612,0.252-2.339,0.674l-42.355,24.375
	c-1.579,0.912-2.561,2.604-2.561,4.445l0.093,65.635c0,0.912,0.474,1.762,1.277,2.209c0.786,0.471,1.758,0.471,2.541,0
	l25.172-14.414c1.592-0.945,2.561-2.614,2.561-4.438v-30.665c0-1.828,0.968-3.52,2.554-4.428l10.718-6.173
	c0.799-0.461,1.672-0.687,2.564-0.687c0.872,0,1.768,0.226,2.544,0.687l10.715,6.173c1.586,0.909,2.558,2.601,2.558,4.428v30.665
	c0,1.824,0.982,3.503,2.564,4.438l25.165,14.414c0.789,0.471,1.775,0.471,2.558,0c0.78-0.448,1.271-1.297,1.271-2.209
	L173.243,254.567z"/>
<path fill-rule="evenodd" clip-rule="evenodd" fill="#333333" d="M377.04,164.341c-0.793-0.441-1.76-0.431-2.543,0.028
	c-0.781,0.46-1.262,1.299-1.262,2.206v65c0,0.639-0.342,1.231-0.894,1.551c-0.554,0.32-1.237,0.32-1.792,0l-10.608-6.112
	c-1.583-0.912-3.53-0.91-5.112,0.002l-42.372,24.453c-1.584,0.914-2.559,2.603-2.559,4.43v48.916c0,1.828,0.975,3.516,2.558,4.432
	l42.37,24.471c1.584,0.914,3.534,0.914,5.118,0l42.376-24.471c1.583-0.915,2.558-2.604,2.558-4.432V182.879
	c0-1.854-1.003-3.565-2.624-4.469L377.04,164.341z M373.109,288.743c0,0.456-0.244,0.879-0.64,1.106l-14.548,8.386
	c-0.395,0.227-0.882,0.227-1.277,0l-14.548-8.386c-0.396-0.227-0.64-0.65-0.64-1.106v-16.799c0-0.456,0.244-0.879,0.639-1.108
	l14.548-8.403c0.396-0.229,0.884-0.229,1.28,0l14.548,8.403c0.395,0.229,0.639,0.652,0.639,1.108V288.743z"/>
<g>
	<path fill-rule="evenodd" clip-rule="evenodd" fill="#333333" d="M518.131,271.505c1.576-0.915,2.546-2.601,2.546-4.424v-11.854
		c0-1.823-0.97-3.51-2.548-4.425l-42.099-24.443c-1.584-0.921-3.54-0.922-5.127-0.007l-42.356,24.453
		c-1.583,0.914-2.558,2.602-2.558,4.43v48.903c0,1.839,0.987,3.536,2.584,4.445l42.093,23.985c1.552,0.886,3.455,0.896,5.017,0.028
		l25.46-14.151c0.808-0.449,1.311-1.297,1.315-2.219c0.007-0.922-0.484-1.776-1.284-2.236l-42.625-24.465
		c-0.796-0.456-1.285-1.304-1.285-2.22v-15.326c0-0.914,0.487-1.76,1.28-2.216l13.266-7.648c0.789-0.456,1.765-0.456,2.554,0
		l13.273,7.648c0.793,0.456,1.28,1.302,1.28,2.216v12.058c0,0.916,0.49,1.762,1.282,2.218c0.793,0.458,1.77,0.454,2.561-0.005
		L518.131,271.505z"/>
	<path fill-rule="evenodd" clip-rule="evenodd" fill="#699F63" d="M472.842,269.214c0.304-0.176,0.678-0.176,0.982,0l8.13,4.69
		c0.304,0.176,0.491,0.499,0.491,0.851v9.388c0,0.352-0.187,0.675-0.491,0.851l-8.13,4.69c-0.304,0.176-0.678,0.176-0.982,0
		l-8.124-4.69c-0.304-0.176-0.491-0.499-0.491-0.851v-9.388c0-0.352,0.187-0.675,0.491-0.851L472.842,269.214z"/>
</g>
<g>
	<defs>
		<path id="XMLID_143_" d="M244.12,226.607c-1.574-0.909-3.514-0.909-5.087,0l-42.134,24.314c-1.576,0.909-2.546,2.588-2.546,4.408
			v48.666c0,1.818,0.97,3.497,2.544,4.408l42.134,24.334c1.575,0.909,3.515,0.909,5.091,0l42.124-24.334
			c1.574-0.91,2.543-2.59,2.543-4.408v-48.668c0-1.818-0.97-3.497-2.545-4.406L244.12,226.607z"/>
	</defs>
	<linearGradient id="XMLID_2_" gradientUnits="userSpaceOnUse" x1="258.7017" y1="244.7146" x2="220.6368" y2="322.3669">
		<stop  offset="0" style="stop-color:#41873F"/>
		<stop  offset="0.3288" style="stop-color:#418B3D"/>
		<stop  offset="0.6352" style="stop-color:#419637"/>
		<stop  offset="0.9319" style="stop-color:#3FA92D"/>
		<stop  offset="1" style="stop-color:#3FAE2A"/>
	</linearGradient>
	<use xlink:href="#XMLID_143_"  overflow="visible" fill-rule="evenodd" clip-rule="evenodd" fill="url(#XMLID_2_)"/>
	<clipPath id="XMLID_3_">
		<use xlink:href="#XMLID_143_"  overflow="visible"/>
	</clipPath>
	<g clip-path="url(#XMLID_3_)">
		<path fill="none" d="M238.944,226.607l-42.222,24.314c-1.576,0.909-2.722,2.588-2.722,4.408v48.666
			c0,1.203,0.514,2.339,1.313,3.238l47.44-81.152C241.479,225.767,240.101,225.939,238.944,226.607z"/>
		<path fill="none" d="M242.988,333.229c0.41-0.113,0.81-0.275,1.186-0.492l42.177-24.334c1.574-0.91,2.649-2.59,2.649-4.408
			v-48.668c0-1.338-0.598-2.598-1.54-3.534L242.988,333.229z"/>
		<linearGradient id="SVGID_1_" gradientUnits="userSpaceOnUse" x1="235.1577" y1="285.3534" x2="341.9649" y2="206.4385">
			<stop  offset="0.1376" style="stop-color:#41873F"/>
			<stop  offset="0.4032" style="stop-color:#54A044"/>
			<stop  offset="0.7136" style="stop-color:#66B848"/>
			<stop  offset="0.9081" style="stop-color:#6CC04A"/>
		</linearGradient>
		<path fill="url(#SVGID_1_)" d="M286.327,250.921l-42.252-24.314c-0.417-0.241-0.863-0.413-1.322-0.526l-47.44,81.152
			c0.409,0.46,0.888,0.861,1.42,1.169l42.323,24.334c1.199,0.692,2.624,0.854,3.931,0.492l44.473-81.436
			C287.122,251.458,286.743,251.161,286.327,250.921z"/>
	</g>
	<g clip-path="url(#XMLID_3_)">
		<path fill="none" d="M289,303.995v-48.668c0-1.818-1.098-3.497-2.673-4.406l-42.252-24.314c-0.485-0.28-1.011-0.463-1.551-0.571
			l46.317,79.128C288.94,304.785,289,304.395,289,303.995z"/>
		<path fill="none" d="M196.722,250.921c-1.576,0.909-2.722,2.588-2.722,4.408v48.666c0,1.818,1.16,3.497,2.733,4.408l42.323,24.334
			c0.995,0.574,2.146,0.784,3.256,0.632l-45.337-82.594L196.722,250.921z"/>
		<linearGradient id="SVGID_2_" gradientUnits="userSpaceOnUse" x1="192.8623" y1="217.8343" x2="290.2793" y2="217.8343">
			<stop  offset="0.0919" style="stop-color:#6CC04A"/>
			<stop  offset="0.2864" style="stop-color:#66B848"/>
			<stop  offset="0.5968" style="stop-color:#54A044"/>
			<stop  offset="0.8624" style="stop-color:#41873F"/>
		</linearGradient>
		<polygon fill="url(#SVGID_2_)" points="237.627,217.669 237.047,218 237.821,218 		"/>
		<linearGradient id="SVGID_3_" gradientUnits="userSpaceOnUse" x1="192.8623" y1="279.6515" x2="290.2793" y2="279.6515">
			<stop  offset="0.0919" style="stop-color:#6CC04A"/>
			<stop  offset="0.2864" style="stop-color:#66B848"/>
			<stop  offset="0.5968" style="stop-color:#54A044"/>
			<stop  offset="0.8624" style="stop-color:#41873F"/>
		</linearGradient>
		<path fill="url(#SVGID_3_)" d="M286.351,308.403c1.228-0.71,2.144-1.891,2.491-3.238l-46.317-79.128
			c-1.209-0.241-2.492-0.058-3.581,0.571l-41.968,24.168l45.337,82.594c0.647-0.088,1.281-0.298,1.861-0.632L286.351,308.403z"/>
		<linearGradient id="SVGID_4_" gradientUnits="userSpaceOnUse" x1="192.8623" y1="307.4621" x2="290.2793" y2="307.4621">
			<stop  offset="0.0919" style="stop-color:#6CC04A"/>
			<stop  offset="0.2864" style="stop-color:#66B848"/>
			<stop  offset="0.5968" style="stop-color:#54A044"/>
			<stop  offset="0.8624" style="stop-color:#41873F"/>
		</linearGradient>
		<polygon fill="url(#SVGID_4_)" points="290.279,307.62 290,307.143 290,307.782 		"/>
		<linearGradient id="SVGID_5_" gradientUnits="userSpaceOnUse" x1="192.8623" y1="320.0318" x2="290.2793" y2="320.0318">
			<stop  offset="0.0919" style="stop-color:#6CC04A"/>
			<stop  offset="0.2864" style="stop-color:#66B848"/>
			<stop  offset="0.5968" style="stop-color:#54A044"/>
			<stop  offset="0.8624" style="stop-color:#41873F"/>
		</linearGradient>
		<path fill="url(#SVGID_5_)" d="M286.351,308.403l-42.177,24.334c-0.58,0.335-1.214,0.544-1.861,0.632l0.84,1.53L290,307.782
			v-0.639l-1.158-1.978C288.495,306.512,287.579,307.692,286.351,308.403z"/>
		<linearGradient id="SVGID_6_" gradientUnits="userSpaceOnUse" x1="304.4718" y1="242.4124" x2="244.3912" y2="364.9768">
			<stop  offset="0" style="stop-color:#41873F"/>
			<stop  offset="0.3288" style="stop-color:#418B3D"/>
			<stop  offset="0.6352" style="stop-color:#419637"/>
			<stop  offset="0.9319" style="stop-color:#3FA92D"/>
			<stop  offset="1" style="stop-color:#3FAE2A"/>
		</linearGradient>
		<path fill="url(#SVGID_6_)" d="M286.351,308.403l-42.177,24.334c-0.58,0.335-1.214,0.544-1.861,0.632l0.84,1.53L290,307.782
			v-0.639l-1.158-1.978C288.495,306.512,287.579,307.692,286.351,308.403z"/>
	</g>
</g>
</svg>
