<?xml version="1.0" encoding="utf-8"?>
<!-- Generator: Adobe Illustrator 17.0.0, SVG Export Plug-In . SVG Version: 6.00 Build 0)  -->
<!DOCTYPE svg PUBLIC "-//W3C//DTD SVG 1.1//EN" "http://www.w3.org/Graphics/SVG/1.1/DTD/svg11.dtd">
<svg version="1.1"
	 class="twilight-cutiemark-icon"
	 id="twilight-cutiemark" xmlns:osb="http://www.openswatchbook.org/uri/2009/osb" xmlns:dc="http://purl.org/dc/elements/1.1/" xmlns:cc="http://creativecommons.org/ns#" xmlns:rdf="http://www.w3.org/1999/02/22-rdf-syntax-ns#" xmlns:svg="http://www.w3.org/2000/svg" xmlns:sodipodi="http://sodipodi.sourceforge.net/DTD/sodipodi-0.dtd" xmlns:inkscape="http://www.inkscape.org/namespaces/inkscape" inkscape:export-filename="/Users/Brandon/Pictures/Misc/Ponies/Resources/cutieMarks/twilightSparkle.png" sodipodi:docname="twilightSparkle.svg" inkscape:version="0.48.2 r9819" inkscape:export-ydpi="1000.0423" inkscape:export-xdpi="1000.0423"
	 xmlns="http://www.w3.org/2000/svg" xmlns:xlink="http://www.w3.org/1999/xlink" x="0px" y="0px" width="714px" height="909px"
	 viewBox="-6.5 -8.5 714 909" enable-background="new -6.5 -8.5 714 909" xml:space="preserve">
<sodipodi:namedview  showgrid="false" inkscape:cy="556.97274" inkscape:cx="225.35498" inkscape:zoom="0.45254834" borderopacity="1.0" bordercolor="#666666" pagecolor="#ffffff" id="base" inkscape:window-maximized="1" inkscape:window-y="0" inkscape:window-x="0" inkscape:window-height="788" inkscape:window-width="1440" inkscape:snap-global="false" inkscape:pageshadow="2" inkscape:current-layer="layer17" inkscape:pageopacity="0.0" inkscape:document-units="px">
	</sodipodi:namedview>
<g id="layer15" inkscape:label="BG" sodipodi:insensitive="true" inkscape:groupmode="layer" display="none">
	<rect id="rect4644" y="14.862" display="inline" fill="#D19FE3" width="750" height="1037.5"/>
</g>
<!-- <g id="layer1" transform="translate(0,-1052.3622)" inkscape:label="PNG" sodipodi:insensitive="true" inkscape:groupmode="layer" display="none">
	
		<image display="inline" overflow="visible" enable-background="new    " width="3000" height="3850" id="image4640" xlink:href="1B9B4474CA79C3F4.png"  transform="matrix(0.2313 0 0 0.2313 36.7858 1127.5854)">
	</image>
</g> -->
<g class="twilight-cutiemark-stars" id="twilight-cutiemark-stars" inkscape:label="white" inkscape:groupmode="layer">
	<path id="path5156" sodipodi:nodetypes="ccccccccccccc" inkscape:connector-curvature="0" fill="#FFFFFF" d="M262.377,890.239
		l7.872-81.345l32.386,14.225l-22.857-39.844l26.517-39.36l-34.25,10.427l-14.018-76.787l-8.908,78.997l-43.573-24.238l35.908,48.89
		l-27.414,45.368l36.115-18.575L262.377,890.239z"/>
	<path id="path5168" inkscape:connector-curvature="0" fill="#FFFFFF" d="M78.305,628.613l10.449-81.543l42.969,14.062
		l-30.273-39.746l35.059-39.258l-45.41,10.352l-18.652-76.66l-11.719,79.102L2.621,470.41l47.656,49.023L14.34,564.648
		l47.559-18.555L78.305,628.613z"/>
	<path id="path5170" sodipodi:nodetypes="ccccccccccccc" inkscape:connector-curvature="0" fill="#FFFFFF" d="M190.769,174.155
		l7.458-66.587l31.104,11.377l-21.924-32.373l25.293-32.275l-32.617,8.594L186.654,0l-8.447,64.648l-41.895-19.922l34.326,40.137
		l-25.928,37.109l34.277-15.186L190.769,174.155z"/>
	<path id="path5172" sodipodi:nodetypes="ccccccccccccc" inkscape:connector-curvature="0" fill="#FFFFFF" d="M587.338,234.863
		l9.521-71.68l38.77,12.402l-27.344-35.059l31.543-34.863l-40.918,9.18l-16.797-67.578l-10.645,69.922L519.125,95.41l43.066,43.262
		l-32.422,39.941l42.969-16.211L587.338,234.863z"/>
	<path id="path5174" inkscape:connector-curvature="0" fill="#FFFFFF" d="M635.824,825.684l11.133-102.051l44.824,17.773
		l-31.738-49.707l36.719-49.414l-47.461,13.086l-19.434-95.996l-12.207,98.926l-60.547-30.469l49.414,61.133l-37.207,56.543
		l49.805-23.047L635.824,825.684z"/>
	<path id="path5176" inkscape:connector-curvature="0" fill="#FFFFFF" d="M315.825,664.296l32.455-82.174l88.388-17.401
		l71.677,112.971l-40.051-112.281l29.555-82.45l98.194-19.749l-98.47-29.141l-48.337-78.168l24.307-94.189l-36.875,63.253
		l-98.332,20.992l-79.688-71.263l46.128,77.616l-15.744,93.636l-91.289,12.706l90.736,8.424l42.399,87.698L315.825,664.296z"/>
</g>
<g class="twilight-cutiemark-star" id="twilight-cutiemark-star" inkscape:label="pink" inkscape:groupmode="layer">
	<path id="path5178" sodipodi:nodetypes="ccccccccccccc" inkscape:connector-curvature="0" fill="#EF5092" d="M397.941,865.851
		l39.66-307.069l161.999,53.447L485.312,463.086l131.445-148.828l-170.801,39.551l-69.922-289.16l-43.75,297.949l-218.945-92.09
		l179.785,183.887L157.383,625.195l179.199-70.117L397.941,865.851z"/>
</g>
</svg>
