<?xml version="1.0" encoding="UTF-8" standalone="no"?>
<!-- Generator: Adobe Illustrator 17.0.0, SVG Export Plug-In . SVG Version: 6.00 Build 0)  -->

<svg
   xmlns:dc="http://purl.org/dc/elements/1.1/"
   xmlns:cc="http://creativecommons.org/ns#"
   xmlns:rdf="http://www.w3.org/1999/02/22-rdf-syntax-ns#"
   xmlns:svg="http://www.w3.org/2000/svg"
   xmlns="http://www.w3.org/2000/svg"
   xmlns:sodipodi="http://sodipodi.sourceforge.net/DTD/sodipodi-0.dtd"
   xmlns:inkscape="http://www.inkscape.org/namespaces/inkscape"
   version="1.1"
   id="svg2"
   inkscape:export-ydpi="1739.6547"
   inkscape:export-xdpi="1739.6547"
   inkscape:export-filename="C:\Users\Aziz\Desktop\derp.png"
   sodipodi:docname="500.svg"
   inkscape:version="0.91 r13725"
   x="0px"
   y="0px"
   width="664.98285"
   height="727.96973"
   viewBox="0 0 203.651 403.11324"
   enable-background="new 0 0 392 443"
   xml:space="preserve"><metadata
     id="metadata3889"><rdf:RDF><cc:Work
         rdf:about=""><dc:format>image/svg+xml</dc:format><dc:type
           rdf:resource="http://purl.org/dc/dcmitype/StillImage" /><dc:title></dc:title></cc:Work></rdf:RDF></metadata><defs
     id="defs3887" /><sodipodi:namedview
     inkscape:cy="349.34954"
     inkscape:cx="410.90304"
     inkscape:zoom="0.70710678"
     showgrid="false"
     guidetolerance="10"
     gridtolerance="10"
     objecttolerance="10"
     borderopacity="1"
     pagecolor="#ffffff"
     bordercolor="#666666"
     id="namedview4"
     inkscape:current-layer="svg2"
     inkscape:window-maximized="1"
     inkscape:window-y="1"
     inkscape:window-x="0"
     inkscape:window-height="928"
     inkscape:window-width="1280"
     inkscape:pageshadow="2"
     inkscape:pageopacity="0"
     fit-margin-top="0"
     fit-margin-left="0"
     fit-margin-right="0"
     fit-margin-bottom="0" /><path
     id="path3921"
     inkscape:connector-curvature="0"
     d="m 120.72958,343.80456 -3.182,6.541 2.475,6.187 8.662,5.48 12.551,5.657 11.137,7.601 9.546,9.016 10.783,13.081 4.95,2.828 9.192,-0.884 12.198,-3.536 10.607,-6.718 6.01,-7.425 2.298,-7.071 -0.884,-6.718 -6.187,-9.016 -10.96,-7.955 -13.258,-8.839 -20.683,-9.899 -45.255,11.67 z"
     style="fill:#cccfe2" /><path
     id="path3919"
     sodipodi:nodetypes="cccccccsccccccccccccccccccccccccccccccccc"
     inkscape:connector-curvature="0"
     d="m 57.443579,274.33156 -9.192,-4.419 -10.783,-1.061 -10.076,3.889 -8.485,9.192 -4.243,11.314 -1.768,11.667 c 0,0 2.121,13.081 3.005,14.319 0.884,1.238 5.834,10.96 5.834,10.96 l 3.712,4.596 -22.2740001,6.894 -19.2689999,9.369 -10.253002,8.839 -3.182,7.425 1.591,8.308 4.419,6.541 9.016002,6.894 12.9049999,4.95 10.96,2.121 8.1320001,-4.596 13.081,-10.43 14.142,-9.016 19.445,-7.601 11.49,-3.712 3.182,-2.121 2.652,-3.182 -2.497,-10.098 27.422001,-1.569 13.612,1.945 34.648,-6.718 10.96,-6.541 10.96,-9.723 0.177,-18.208 -3.359,-13.612 -6.541,-10.607 -9.016,-6.01 -11.137,-4.066 -9.899,0.53 -4.243,2.652 -74.246001,-2.298 -0.882,3.183 z"
     style="fill:#cccfe2" /><path
     id="path3917"
     inkscape:connector-curvature="0"
     d="m 163.33258,203.09056 5.657,-13.258 8.839,-13.435 11.844,-11.314 9.546,-3.536 9.369,0.177 13.612,4.95 6.364,7.248 14.849,0.53 13.435,2.121 10.783,5.48 2.828,6.364 -2.475,3.889 -8.308,3.182 -17.501,2.298 -10.96,-0.354 -7.425,6.187 30.229,12.021 16.97,9.192 7.778,6.187 3.005,5.48 0.177,4.066 -2.828,2.475 -6.894,1.237 -6.718,0.177 -25.633,-3.889 -20.683,-5.127 -18.385,-1.414 16.264,15.026 11.667,12.198 7.425,12.905 0.354,6.894 -3.005,3.359 -6.894,-1.061 -12.551,-6.01 -17.147,-11.844 -18.385,-14.142 -5.48,2.652 -11.844,-46.846 2.121,-4.065 z"
     style="fill:#cccfe2" /><path
     id="path3915"
     inkscape:connector-curvature="0"
     d="m 68.403579,174.45256 -0.53,14.319 -7.248,-0.53 -8.485,4.773 -12.198,10.96 -23.865,-10.783 -14.6720002,-5.657 -8.6619999,-1.414 -8.1319999,-3.712 -10.783002,-0.707 -12.021,2.652 -7.955,6.364 -13.435,4.066 -12.021,7.071 -3.182,6.364 0,4.243 5.303,2.298 15.38,-0.354 1.414,4.95 9.016,3.712 -0.707,2.121 -21.567,16.794 -9.192,10.076 -3.183,3.181 1.591,4.95 7.601,1.768 12.728,-2.298 23.688,-7.601 20.860002,-9.369 7.2479999,5.127 -7.9549999,12.551 -7.425,16.087 -2.475002,11.667 3.889002,4.065 6.01,-1.768 10.7829999,-7.248 13.9650001,-12.728 6.541,-8.309 10.253,2.298 8.132,-1.237 3.182,4.066 8.485,-0.884 10.607,-7.601 -1.237,15.556 73.362001,0.177 -3.712,-27.754 8.662,5.48 10.253,3.359 4.596,5.834 11.137,7.248 8.132,2.298 6.364,-1.591 1.414,-7.425 -2.298,-8.132 -13.258,-50.912 -6.894,5.303 -17.147,-14.496 -26.34,-28.284 -44.017001,9.016 z"
     style="fill:#cccfe2" /><path
     id="path3757"
     sodipodi:nodetypes="sssssssssscsssssssssscss"
     inkscape:connector-curvature="0"
     d="m -22.230423,180.65556 c -14.298,0 -22.737,5.954 -27.375,13.188 -4.638,7.234 -5.594,15.613 -5.594,20.812 0,1.672 0.195,2.99 0.656,4.094 0.461,1.104 1.237,1.946 2.125,2.531 1.775,1.171 3.933,1.516 6.562,2.438 14.781,5.179 27.279002,15.531 39.4060019,24.688 12.127,9.157 23.9280001,17.188 37.4380001,17.188 8.675,0 15.574,-5.384 22.375,-14.531 4.499,-6.051 9.006,-13.445 14.212,-22.964 2.816,-5.149 6.368,-11.013 6.319,-16.38 -9.029,15.989 -15.957,28.96 -22.562,37.844 -6.605,8.884 -12.694,13.531 -20.344,13.531 -12.509,0 -23.8760001,-7.58 -35.9380001,-16.688 -12.0619999,-9.108 -24.7510019,-19.656 -40.0940019,-25.031 -2.805,-0.983 -4.895,-1.428 -6,-2.156 -0.552,-0.364 -0.908,-0.769 -1.188,-1.438 -0.28,-0.669 -0.469,-1.655 -0.469,-3.125 0,-4.886 0.977,-12.852 5.219,-19.469 4.242,-6.617 11.629,-12.031 25.25,-12.031 13.6850019,0 27.4040019,11.983 37.562002,24.188 10.158,12.204 16.75,24.438 16.75,24.438 1.292,-6.239 -14.407,-25.507 -14.844,-26.031 -10.3360001,-12.431 -24.3550001,-25.096 -39.466002,-25.096 z"
     style="fill:#929ab8" /><path
     id="path3759"
     sodipodi:nodetypes="sssccssscs"
     inkscape:connector-curvature="0"
     d="m 63.894579,187.09256 c -4.661,-0.063 -9.239,2.309 -13.5,5.625 -4.261,3.316 -8.25,7.688 -11.688,12.031 -6.875,8.687 -11.594,17.344 -11.594,17.344 l 2.188,1.219 c 0,0 4.656,-8.512 11.375,-17 3.359,-4.244 7.234,-8.469 11.25,-11.594 4.016,-3.125 8.152,-5.125 11.969,-5.125 10.451,0 13.906,8.031 13.906,8.031 0.859,-7.864 -9.942,-10.477 -13.906,-10.531 z"
     style="fill:#929ab8" /><path
     id="path3913"
     inkscape:connector-curvature="0"
     d="m 15.900579,36.213558 -7.5990001,-8.152 -5.75,-3.375 -6.188,7.312 -5.3119998,16.438 -0.688,9.812 1.1879998,19.812 7.312,14.812 4.625,9.000002 12.5620001,10.25 2.438,14.438 8.814,19.519 10.96,14.142 16.352,10.43 18.12,4.419 22.451,-0.354 12.905001,-4.419 11.932,-6.364 11.844,-12.198 6.806,-12.374 5.568,-15.114 1.679,-16.794 -1.061,-13.347002 -1.503,-9.281 -20.179,-16.889 -107.276001,-31.723 z"
     style="fill:#cccfe2" /><path
     id="path3761"
     sodipodi:nodetypes="cc"
     inkscape:connector-curvature="0"
     d="m 68.119579,174.75456 c 0.376,4.06 0.367,9.258 -1.023,13.886"
     style="fill:none;stroke:#929ab8;stroke-width:2.5" /><path
     id="path3763"
     sodipodi:nodetypes="cc"
     inkscape:connector-curvature="0"
     d="m 40.813579,204.50656 c -15.024,-6.784 -31.0250001,-16.011 -47.8930001,-18.325"
     style="fill:none;stroke:#929ab8;stroke-width:2.5" /><path
     id="path3765"
     sodipodi:nodetypes="csc"
     inkscape:connector-curvature="0"
     d="m -45.310423,190.10256 c 0,0 -29.965,7.455 -29.965,20.026 0,7.016 21.049,4.239 21.049,4.239"
     style="fill:none;stroke:#929ab8;stroke-width:2.5" /><path
     id="path3767"
     sodipodi:nodetypes="csc"
     inkscape:connector-curvature="0"
     d="m -42.533423,223.57556 c 0,0 -35.227,26.311 -35.227,32.889 0,17.102 66.216002,-13.448 66.216002,-13.448"
     style="fill:none;stroke:#929ab8;stroke-width:2.5" /><path
     id="path3769"
     sodipodi:nodetypes="csc"
     inkscape:connector-curvature="0"
     d="m -4.8204211,248.27856 c 0,0 -17.2480019,25.434 -17.2480019,38.297 0,20.903 41.367002,-23.68 41.367002,-23.68"
     style="fill:none;stroke:#929ab8;stroke-width:2.5" /><path
     id="path3771"
     sodipodi:nodetypes="csscsccc"
     inkscape:connector-curvature="0"
     d="m 59.738579,236.78056 c 0,0 -0.699,10.537 -1.781,21.031 -0.854,8.285 -1.016,18.668 -1.016,26.98 0,5.711 0.235,10.171 2.766,14.458 0,0 -0.922,-24.97 0.75,-41.188 1.088,-10.553 1.781,-21.094 1.781,-21.094 l -2.5,-0.187 0,0 z"
     style="fill:#929ab8" /><path
     id="path3773"
     sodipodi:nodetypes="sscsssccss"
     inkscape:connector-curvature="0"
     d="m 40.801579,267.84256 c -14.316,0 -28.625,13.371 -28.625,36.719 0,23.708 19.308,39.308 26.938,37.812 0,0 -24.438,-10.022 -24.438,-37.812 0,-22.337 13.361,-34.219 26.125,-34.219 6.566,0 10.645,1.601 13.062,3.125 2.417,1.524 3.125,2.875 3.125,2.875 l 2.188,-1.219 c 0,0 -1.172,-1.998 -4,-3.781 -2.828,-1.783 -7.402,-3.5 -14.375,-3.5 z"
     style="fill:#929ab8" /><path
     id="path3775"
     sodipodi:nodetypes="cc"
     inkscape:connector-curvature="0"
     d="m 59.366579,257.06556 c -4.291,5.515 -15.646,16.384 -23.411,6.253"
     style="fill:none;stroke:#929ab8;stroke-width:2.5" /><path
     id="path3907"
     inkscape:connector-curvature="0"
     d="m 141.23558,133.44056 0.795,10.783 -1.768,15.291 -2.563,14.054 0.884,19.003 5.834,21.655 -11.49,-7.601 -7.955,-9.192 0.972,19.18 3.712,14.496 -10.43,-14.938 -6.541,-14.407 -3.005,-16.971 2.475,-16.087 11.932,-7.601 10.695,-12.993 6.541,-15.114 0.177,1.061 -0.265,-0.619 z"
     style="fill:#feffa5" /><path
     id="path3777"
     sodipodi:nodetypes="cccsc"
     inkscape:connector-curvature="0"
     d="m 124.95758,223.12456 -2.438,0.469 c 4.786,25.793 7.399,48.219 9.437,74.031 1.712,-4.243 1.709,-9.194 1.335,-13.8 -1.658,-20.42 -4.391,-39.448 -8.334,-60.7 z"
     style="fill:#929ab8" /><path
     id="path3909"
     inkscape:connector-curvature="0"
     d="m 176.23758,309.86356 15.026,-2.121 16.617,0.354 15.38,3.359 13.612,5.303 17.678,10.783 5.126,4.596 -10.607,-1.768 11.137,9.016 10.076,9.723 6.269,12.703 1.5,12.875 -2.625,15.5 -4.5,9.875 -3.375,-13.5 -8.25,-13.25 -2.75,-2.25 1.5,13.375 -6.75,-5.875 -9.75,-8.125 -13.5,-5.625 -16.25,-3.75 -9.375,-8.875 -20.75,-12.25 -16.25,-8 6.875,-6.625 4.125,-11.625 -0.189,-3.823 z"
     style="fill:#feffa5" /><path
     id="path3020"
     sodipodi:nodetypes="ccccsccsc"
     inkscape:connector-curvature="0"
     stroke-miterlimit="6.2"
     d="m 212.14258,360.88956 c 16.186,3.155 32.084,7.492 45.539,24.557 0.566,-5.85 0.024,-9.625 -2.071,-15.655 6.889,7.419 13.195,15.726 15.203,30.582 0,0 7.071,-10.96 7.071,-29.522 0,-19.193 -21.361,-35.691 -29.805,-40.534 4.352,0.344 7.819,1.044 13.028,2.813 -11.333,-10.227 -36.052,-25.212 -61.358,-25.212 -14.496,0 -22.981,2.475 -22.981,2.475"
     style="fill:none;stroke:#f0e268;stroke-width:2.5;stroke-miterlimit:6.19999981" /><path
     id="path3779"
     sodipodi:nodetypes="scsccccsssscssss"
     inkscape:connector-curvature="0"
     d="m 144.48858,269.40556 c -5.505,0 -9.022,1.209 -11.188,2.5 -1.083,0.645 -1.836,1.323 -2.312,1.844 -0.476,0.521 -0.75,0.969 -0.75,0.969 l 2.219,1.188 c 0,0 0.054,-0.118 0.375,-0.469 0.321,-0.351 0.882,-0.858 1.75,-1.375 1.736,-1.035 4.765,-2.156 9.906,-2.156 4.862,0 12.805,2.836 19.344,8.625 6.539,5.789 11.75,14.415 11.75,26.188 0,15.424 -8.039,23.802 -16.187,28.531 -8.149,4.729 -16.313,5.625 -16.313,5.625 7.634,1.204 16.989,-3.136 17.563,-3.469 8.662,-5.018 17.437,-14.38 17.437,-30.688 0,-12.517 -5.618,-21.887 -12.594,-28.062 -6.976,-6.175 -15.216,-9.251 -21,-9.251 z"
     style="fill:#929ab8" /><path
     id="path3792"
     sodipodi:nodetypes="acca"
     inkscape:connector-curvature="0"
     d="m 99.61358,342.99856 c -8.842001,0.013 -21.996001,0.952 -26.219001,4.031 17.703,-2.433 34.965001,-2.306 51.906001,-0.156 -6.157,-3.076 -17.028,-3.887 -25.687,-3.875 z"
     style="fill:#929ab8" /><path
     id="path3794"
     sodipodi:nodetypes="csssc"
     inkscape:connector-curvature="0"
     d="m 25.326579,334.40856 c 0,0 -54.704002,14.291 -54.704002,34.17 0,18.418 30.9880018,27.042 36.9820019,27.042 12.1320001,0 14.5180001,-18.798 67.2390001,-34.643 11.316,-3.401 3.654,-15.494 3.654,-15.494"
     style="fill:none;stroke:#929ab8;stroke-width:2.5" /><path
     id="path3796"
     sodipodi:nodetypes="ccsssssscsssccssscssssssc"
     inkscape:connector-curvature="0"
     d="m 166.05158,331.62456 -0.906,2.312 c 0,0 12.956,5.145 25.906,12.719 6.475,3.787 12.942,8.169 17.719,12.781 4.776,4.612 7.781,9.39 7.781,13.812 0,6.874 -5.208,13.287 -12.438,17.969 -7.23,4.682 -16.371,7.531 -23.438,7.531 -3.604,0 -5.809,-1.093 -8.062,-3.156 -2.253,-2.063 -4.461,-5.157 -7.531,-8.906 -6.141,-7.498 -15.807,-17.432 -37.187,-26.75 -3.986,-1.737 -6.288,-3.528 -7.531,-5.125 -1.243,-1.597 -1.506,-2.999 -1.375,-4.25 0.261,-2.502 2.312,-4.438 2.312,-4.438 l -2.461,-1.004 c 0,0 -1.939,1.544 -2.32,5.192 -0.191,1.824 0.245,3.978 1.844,6.031 1.599,2.053 4.294,4.029 8.531,5.875 21.04,9.17 30.234,18.686 36.25,26.031 3.008,3.673 5.217,6.84 7.781,9.188 2.564,2.348 5.597,3.812 9.75,3.812 7.729,0 17.144,-2.992 24.781,-7.938 7.637,-4.946 13.594,-11.947 13.594,-20.062 0,-5.517 -3.519,-10.754 -8.531,-15.594 -5.012,-4.84 -11.61,-9.31 -18.188,-13.156 -13.154,-7.692 -26.281,-12.874 -26.281,-12.874 z"
     style="fill:#929ab8" /><path
     id="path3798"
     sodipodi:nodetypes="ssscsssscccsssssccssssscsssss"
     inkscape:connector-curvature="0"
     d="m 202.67658,160.24856 c -11.565,0 -21.811,9.451 -29.812,21.625 -3.609,5.491 -6.973,11.492 -9.39,17.704 -2.074,5.329 -6.66,15.208 -4.423,22.14 2.378,-11.731 8.122,-26.624 15.906,-38.469 7.785,-11.844 17.539,-20.5 27.719,-20.5 12.709,0 20.298,5.72 24.906,12.219 4.608,6.499 6.094,13.96 6.094,16.719 0,1.493 -0.178,2.453 -0.406,3.062 -0.229,0.609 -0.461,0.887 -0.875,1.188 -0.829,0.6 -2.576,1.081 -4.688,2.531 -14.038,9.637 -23.885,23.958 -33.375,35.75 -4.745,5.896 -9.396,11.167 -14.344,14.906 -4.948,3.739 -10.147,5.969 -16.188,5.969 -2.621,0 -6.304,-1.811 -10.156,-4.719 -3.852,-2.908 -7.902,-6.84 -11.563,-10.781 -7.32,-7.882 -13.094,-15.781 -13.094,-15.781 l -2,1.469 c 0,0 5.84,7.988 13.281,16 3.72,4.006 7.831,8.041 11.875,11.094 4.044,3.052 7.983,5.219 11.656,5.219 6.662,0 12.444,-2.506 17.688,-6.469 5.244,-3.963 9.993,-9.393 14.781,-15.344 9.577,-11.901 19.344,-25.961 32.875,-35.25 1.751,-1.202 3.264,-1.508 4.719,-2.562 0.728,-0.527 1.364,-1.282 1.75,-2.312 0.386,-1.03 0.562,-2.302 0.562,-3.969 0,-3.56 -1.559,-11.175 -6.531,-18.188 -4.972,-7.013 -13.499,-13.251 -26.967,-13.251 l 0,0 z"
     style="fill:#929ab8" /><path
     id="path3800"
     sodipodi:nodetypes="cc"
     inkscape:connector-curvature="0"
     d="m 139.59758,193.61056 c 6.732,6.587 13.495,13.016 20.61,17.687"
     style="fill:none;stroke:#929ab8;stroke-width:2.5" /><path
     id="path3838"
     sodipodi:nodetypes="ccccsc"
     inkscape:connector-curvature="0"
     stroke-miterlimit="6.2"
     d="m 112.80158,167.93656 c -7.757,23.353 2.624,45.627 17.5,64.625 -3.987,-11.39 -4.989,-23.029 -5,-34.75 6.162,7.36 13.21,12.773 19,16.25 0,0 -9.796,-29.789 -5,-51 4.638,-20.509 2.408,-31.709 2.408,-31.709"
     style="fill:none;stroke:#f0e268;stroke-width:2.5;stroke-miterlimit:6.19999981" /><path
     id="path3802"
     sodipodi:nodetypes="cc"
     inkscape:connector-curvature="0"
     d="m 155.96858,207.93556 c 1.925,-1.608 4.218,-3.216 7.309,-4.824"
     style="fill:none;stroke:#929ab8;stroke-width:2.5" /><path
     id="path3804"
     sodipodi:nodetypes="csc"
     inkscape:connector-curvature="0"
     d="m 228.90858,173.73156 c 0,0 40.928,0.146 40.928,14.471 0,10.378 -37.712,9.355 -37.712,9.355"
     style="fill:none;stroke:#929ab8;stroke-width:2.5" /><path
     id="path3806"
     sodipodi:nodetypes="cssc"
     inkscape:connector-curvature="0"
     d="m 222.76958,203.69656 c 0,0 59.113,19.583 59.113,34.129 0,15.131 -50.489,-0.656 -66.13,-2.556 -7.986,-0.97 -14.763,-1.242 -14.763,-1.242"
     style="fill:none;stroke:#929ab8;stroke-width:2.5" /><path
     id="path3808"
     sodipodi:nodetypes="csc"
     inkscape:connector-curvature="0"
     d="m 198.50458,232.05356 c 0,0 38.005,29.381 38.005,47.067 0,20.756 -58.03,-27.627 -58.03,-27.627"
     style="fill:none;stroke:#929ab8;stroke-width:2.5" /><path
     id="path3810"
     sodipodi:nodetypes="cc"
     inkscape:connector-curvature="0"
     d="m 127.26458,246.46756 c 8.348,5.364 16.338,12.199 28.412,7.22"
     style="fill:none;stroke:#929ab8;stroke-width:2.5" /><path
     id="path3812"
     inkscape:connector-curvature="0"
     d="m 174.97058,253.24856 c 0,0 8.77,17.541 -3.801,17.541 -12.571,0 -25.726,-15.202 -25.726,-15.202"
     style="fill:none;stroke:#929ab8;stroke-width:2.5" /><path
     id="path3814"
     sodipodi:nodetypes="cacsc"
     inkscape:connector-curvature="0"
     d="m 201.80158,173.37456 c -2.962,4.312 -0.262,10.118 2.812,13.562 3.352,3.755 10.336,6.213 14.344,4.719 -5.549,-1.276 -9.708,-3.437 -12.531,-6.438 -2.824,-3.001 -4.378,-6.864 -4.625,-11.843 z"
     style="fill:#929ab8" /><path
     id="path3816"
     sodipodi:nodetypes="cscac"
     inkscape:connector-curvature="0"
     d="m -23.761423,192.99856 c 0.504,5.142 -0.233,9.433 -2.375,12.875 -2.142,3.442 -5.712,6.117 -11.219,7.875 6.999,0.851 10.686,-2.353 13.344,-6.531 2.545,-3.999 3.877002,-10.816 0.25,-14.219 z"
     style="fill:#929ab8" /><path
     id="path3911"
     inkscape:connector-curvature="0"
     d="m 109.67658,8.8115578 c 0,-1.125 3.625,-5.625 3.625,-5.625 l 4.125,-1.25 8.375,5.25 10.625,11.5000002 7.625,13.75 4.375,11.875 1.25,12.25 -1.75,12.5 -44,-51.75 5.75,-8.5000002 z"
     style="fill:#cccfe2" /><path
     id="path3905"
     inkscape:connector-curvature="0"
     d="m 25.092579,63.083558 7.601,8.662 11.137,9.369 10.43,7.248 13.965,4.419 13.258,0.53 -10.96,-8.309 -9.546,-9.546 -5.834,-7.955 26.34,-1.945 19.445001,2.475 18.915,5.303 17.147,7.955 14.496,7.601 -1.945,-15.91 -6.364,-17.147 -9.546,-16.617 -10.253,-11.667 -13.789,-10.253 13.612,1.414 -7.601,-6.894 -11.49,-5.4800002 -18.915001,-3.536 -16.263,0.53 -20.86,6.541 -18.031,11.6670002 -14.849,15.733 6.01,10.43 3.89,15.382 z"
     style="fill:#feffa5" /><path
     id="path3822"
     sodipodi:nodetypes="csc"
     inkscape:connector-curvature="0"
     d="m 109.71858,9.3755578 c 0,0 3.456,-10.971 10.165,-6.109 37.93,27.4940002 28.429,66.3640002 28.429,66.3640002"
     style="fill:none;stroke:#929ab8;stroke-width:2.5" /><path
     id="path3824"
     sodipodi:nodetypes="ccc"
     inkscape:connector-curvature="0"
     d="m 11.019579,86.998558 c -7.5960001,-13.217 -10.96100026,-23.512 -9.0620002,-40.688 -5.2739999,8.944 -3.2989999,31.568 9.0620002,40.688 z"
     style="fill:#929ab8" /><path
     id="path3826"
     sodipodi:nodetypes="cccc"
     inkscape:connector-curvature="0"
     d="m 123.08258,19.467558 c 5.156,7.067 9.326,14.46 10.219,21.625 l 2.5,-0.312 c -1.598,-4.862 -2.841,-14.314 -12.719,-21.313 z"
     style="fill:#929ab8" /><path
     id="path3790"
     sodipodi:nodetypes="ccccc"
     inkscape:connector-curvature="0"
     d="m 51.801579,86.436558 c -6.873,10.252 -17.187,16.788002 -29.281,21.625002 7.372,0.104 10.513,-2.067 13.111,-3.578 7.24,-4.245 13.526,-9.605002 18.264,-16.672002 l -2.094,-1.375 z" /><path
     id="path3836"
     sodipodi:nodetypes="sccsscccccccccsccscccccccccccss"
     inkscape:connector-curvature="0"
     d="m 79.676579,1.9055578 c -40.804,0 -64.906,34.2190002 -64.906,34.2190002 l 2.062,1.469 c 0,0 23.441,-33.1880002 62.844,-33.1880002 15.804,0 26.966001,4.091 34.188001,8.1560002 3.145,1.77 5.407,3.464 7.094,4.875 -3.327,-0.742 -6.907,-1.255 -11.781,-1.5 l -5.344,-0.281 4.688,2.594 c 20.784,11.597 40.029,39.421 40.937,68.5 -23.233,-12.897 -48.628,-27.571 -94.156001,-20.125 l -1.812,0.312 0.938,1.562 c 5.417,9.118 14.061,17.424 23.438,23.344 -10.43,0.296 -19.307,-2.55 -27.219,-7.406 -8.919,-5.475 -17.675,-14.374 -25.254,-22.279 l -0.84,2.811 c 7.6,7.928 15.513,15.905 24.781,21.594 9.268,5.689 19.926,9.037 32.75,7.656 l 3.938,-0.406 -3.469,-1.906 c -9.729,-5.367 -18.937,-13.882 -24.844,-23.031 44.772001,-6.744 69.052001,8.18 92.531001,21.156 l 1.875,1.031 0,-2.126 c 0.032,-28.972 -17.677,-56.46 -38.156,-70.062 4.178,0.411 7.679,1.004 10.875,2.125 l 4.188,1.438 -2.781,-3.406 c 0,0 -3.598,-4.37 -11.156,-8.625 -7.558,-4.2550002 -19.172001,-8.5010002 -35.409001,-8.5010002 z"
     style="fill:#f0e268" /><path
     id="path2987"
     sodipodi:nodetypes="cssscssscccccssscccssscssccsc"
     inkscape:connector-curvature="0"
     d="m 2.7075789,24.186558 c -1.1270001,0.076 -2.13300006,0.617 -2.96900014,1.406 -0.83599986,0.789 -1.55499986,1.833 -2.28099986,3.094 -10.4779999,18.202 -10.1899999,37.363 -5.219,52.875 4.848,15.127 14.009,26.795002 22.5310001,31.094002 0.159,1.749 1.681,16.34 10,31.469 8.848,16.091 25.524,32.334 55.906,32.469 26.695001,0.118 44.049001,-11.467 54.156001,-27.125 10.101,-15.649 13.08,-35.262 11.594,-51.469002 -0.001,-0.011 0.001,-0.021 0,-0.031 -0.423,-5.084 -1.356,-9.796 -2.625,-13.969 l -2.406,0.719 c 1.22,4.011 2.156,8.554 2.562,13.469 1.448,15.724002 -1.508,34.863002 -11.219,49.906002 -9.711,15.043 -26.057,26.115 -52.031001,26 -29.504,-0.131 -45.193,-15.626 -53.75,-31.188 -8.557,-15.562 -9.781,-31.094 -9.781,-31.094 l -0.062,-0.75 -0.656,-0.281 c -7.5780001,-3.499 -17.04600024,-14.999002 -21.8440001,-29.969002 -4.7979999,-14.97 -5.0899999,-33.346 4.99999986,-50.875 0.66200008,-1.151 1.29800008,-1.985 1.84400004,-2.5 0.546,-0.515 0.9630001,-0.718 1.4380001,-0.75 0.95,-0.064 2.666,0.776 5.312,3.25 6.4490001,6.028 10.7460001,15.579 13.3440001,23.625 2.598,8.046 3.531,14.531 3.531,14.531 1.383,-5.168 -0.599,-13.559 -1.156,-15.312 -2.664,-8.253 -7.001,-18.145 -14.0000001,-24.688 -2.809,-2.625 -4.965,-4.057 -7.219,-3.906 z"
     style="fill:#929ab8" /><path
     id="path3828"
     sodipodi:nodetypes="cacsc"
     inkscape:connector-curvature="0"
     d="m 104.92658,148.81156 c -0.613,7.023 -4.357,13.769 -10.312001,15.25 -6.159,1.532 -12.624,-3.543 -16.812,-8.938 2.08,8.358 11.803,12.36 17.344,10.875 6.746001,-1.808 12.324001,-10.412 9.780001,-17.187 z"
     style="fill:#929ab8" /><path
     id="path3830"
     sodipodi:nodetypes="ccc"
     inkscape:connector-curvature="0"
     d="m 77.488579,138.24856 c 4.288,-4.287 10.576,-5.398 17.781,-5.312 -2.775,-2.411 -16.35,-1.849 -17.781,5.312 z"
     style="fill:#929ab8" /><path
     id="path3832"
     sodipodi:nodetypes="ccc"
     inkscape:connector-curvature="0"
     d="m 82.863579,150.93656 c -1.816,-0.255 -2.829,-1.386 -2.125,-3.562 -2.723,0.765 -1.55,5.732 2.125,3.562 z"
     style="fill:#929ab8" /><path
     id="path3834"
     sodipodi:nodetypes="ccc"
     inkscape:connector-curvature="0"
     d="m 98.769579,144.15556 c 0.998001,1.857 0.296001,3.273 -1.406,3.625 2.853001,1.956 4.909001,-3.213 1.406,-3.625 z"
     style="fill:#929ab8" /><path
     id="path3854"
     sodipodi:nodetypes="ccccc"
     inkscape:connector-curvature="0"
     d="m 139.51958,81.434558 -1.219,2.033 11.031,6.031 0.878,-2.011 -10.69,-6.053 z"
     style="fill:#f0e268" /><path
     id="path3793"
     sodipodi:nodetypes="sccscsccs"
     inkscape:connector-curvature="0"
     d="m 91.082579,81.405558 c 0.054,0.57 0.128,1.058 0.219,1.5 0.091,0.442 0.08,0.799 0.562,1.344 3.712,4.19 11.818001,6.124 20.312001,7.125 4.102,0.483 20.106,0.412 21.531,-5.344 -4.441,2.584 -13.119,3.564 -21.312,2.844 -8.193,-0.72 -16.021001,-3.151 -18.656001,-6.281 -0.414,-3.501 -0.746,-6.725 -0.406,-10.312 -2.173,2.313 -2.477,6.716 -2.25,9.124 z" /><path
     id="path3799"
     sodipodi:nodetypes="cccc"
     inkscape:connector-curvature="0"
     d="m 139.30158,118.74856 -0.445,2.139 c 3.173,0.976 10.468,1.698 14.664,-1.826 -4.366,0.811 -8.722,1.143 -14.219,-0.313 z" /><path
     id="path3801"
     sodipodi:nodetypes="cccc"
     inkscape:connector-curvature="0"
     d="m 137.01958,127.62456 -1.25,1.719 c 1.798,1.642 5.717,5.066 13.272,3.938 -3.319,-0.814 -9.815,-2.698 -12.022,-5.657 z" /><path
     id="path3803"
     sodipodi:nodetypes="cccc"
     inkscape:connector-curvature="0"
     d="m 29.988579,142.84256 c -1.719,2.488 -7.575,4.704 -13.906,6.219 5.98,0.642 12.541,-1.336 15.745,-4.344 l -1.839,-1.875 z" /><path
     id="path3805"
     sodipodi:nodetypes="cccc"
     inkscape:connector-curvature="0"
     d="m 36.863579,151.99856 c -1.773,3.429 -4.786,6.31 -9.625,9.344 6.865,-0.88 10.203,-5.017 11.75,-7.969 l -2.125,-1.375 z" /><path
     id="path3039"
     sodipodi:nodetypes="cssssccccssssc"
     inkscape:connector-curvature="0"
     d="m 60.613579,110.59256 c 0,0 4.812,14.119 4.812,28.594 0,7.194 -1.55,11.935 -3.719,14.875 -2.169,2.94 -4.952,4.163 -7.75,4.375 -7.514,0.569 -14.788,-5.815 -20.125,-12.625 -5.337,-6.81 -8.656,-13.781 -8.656,-13.781 l -0.625,-1.344 c -3.051,2.482 -5.972,4.954 -10.625,6.531 5.529,0.148 8.097,-1.816 9.688,-2.812 0.825,1.655 3.547,6.929 8.281,12.969 5.538,7.065 13.264,14.243 22.25,13.562 3.434,-0.26 6.977,-1.902 9.562,-5.406 2.585,-3.504 4.219,-8.81 4.219,-16.344 0.001,-4.872 -1.252,-22.675 -7.312,-28.594 z" /><path
     id="path3813"
     sodipodi:nodetypes="cssssccccccssssc"
     inkscape:connector-curvature="0"
     d="m 98.644579,104.15556 c -1.99,5.615 1.531001,18.855 2.031001,20.312 1.728,5.037 4.068,10.104 7.281,14 3.213,3.896 7.409,6.656 12.594,6.656 4.681,0 8.418,-2.521 11.188,-6.062 2.77,-3.541 4.697,-8.137 6.094,-12.688 2.477,-8.069 3.108,-15.13 3.25,-16.844 4.469,0.028 8.047,0.294 10.969,-2.25 -4.391,0.71 -8.598,0.255 -13.188,-0.688 l -0.125,1.469 c 0,0 -0.594,8.84 -3.281,17.594 -1.343,4.377 -3.22,8.721 -5.687,11.875 -2.467,3.154 -5.414,5.094 -9.219,5.094 -4.317,0 -7.746,-2.221 -10.656,-5.75 -2.91,-3.529 -5.197,-8.353 -6.875,-13.219 -3.356,-9.73 -4.376001,-19.499 -4.376001,-19.499 z" /></svg>