<?xml version="1.0" standalone="no"?>
<!DOCTYPE svg PUBLIC "-//W3C//DTD SVG 20010904//EN"
 "http://www.w3.org/TR/2001/REC-SVG-20010904/DTD/svg10.dtd">
<svg version="1.0" xmlns="http://www.w3.org/2000/svg"
 width="500.000000pt" height="500.000000pt" viewBox="0 0 500.000000 500.000000"
 preserveAspectRatio="xMidYMid meet">
<metadata>
Created by potrace 1.11, written by Peter Selinger 2001-2013
</metadata>
<g transform="translate(0.000000,500.000000) scale(0.100000,-0.100000)"
fill="#000000" stroke="none">
<path d="M1599 4923 c0 -5 -2 -15 -3 -23 -3 -13 -7 -44 -21 -160 -11 -92 -16
-124 -21 -132 -3 -4 -27 3 -54 17 -82 42 -160 74 -160 67 0 -4 17 -25 38 -47
55 -59 132 -152 132 -160 0 -3 -26 -43 -58 -88 -32 -45 -61 -87 -65 -94 -8
-12 82 15 93 28 5 6 57 22 74 23 9 1 24 -69 41 -189 3 -22 8 -47 10 -55 2 -8
6 -33 10 -54 7 -52 15 -58 16 -15 1 19 3 43 4 54 4 24 25 201 28 232 4 33 9
34 68 12 114 -45 112 -47 46 51 l-59 88 65 83 c36 46 64 85 63 87 -2 2 -24 -2
-47 -8 -130 -35 -121 -39 -142 60 -10 47 -20 94 -22 105 -3 11 -10 44 -16 73
-9 47 -18 65 -20 45z"/>
<path d="M3773 4662 c0 -9 -3 -33 -6 -52 -3 -19 -8 -52 -11 -72 -3 -21 -9 -55
-12 -75 -3 -21 -7 -54 -10 -74 -9 -85 -4 -84 -149 -23 -71 30 -133 54 -137 54
-4 0 44 -52 107 -116 l115 -115 -86 -105 c-47 -57 -81 -104 -76 -104 5 0 56
18 113 39 l104 39 12 -46 c6 -25 15 -62 18 -81 9 -50 10 -59 23 -121 12 -54
20 -98 21 -112 2 -13 18 -9 18 5 1 28 14 134 18 157 3 14 7 45 10 69 7 81 17
121 28 121 7 0 52 -14 102 -30 49 -17 91 -30 93 -30 5 0 -34 52 -57 77 -12 12
-21 26 -21 31 0 4 -13 21 -30 37 -16 16 -30 34 -30 40 0 10 28 44 132 159 15
16 26 31 25 32 -3 3 -169 -32 -198 -41 -14 -5 -23 23 -59 167 -41 166 -55 208
-57 170z"/>
<path d="M2640 4570 c-1 -14 -3 -34 -5 -45 -2 -11 -7 -42 -10 -70 -3 -27 -8
-57 -11 -66 -2 -9 -6 -36 -8 -60 -2 -24 -9 -71 -15 -104 -6 -33 -13 -80 -16
-105 -3 -25 -7 -56 -10 -70 -9 -49 -14 -86 -20 -138 -2 -30 -7 -57 -9 -60 -2
-4 -7 -36 -11 -72 -3 -36 -8 -72 -10 -80 -3 -8 -7 -31 -9 -50 -3 -19 -9 -64
-15 -100 -5 -36 -13 -85 -16 -110 -3 -25 -8 -56 -11 -70 -2 -14 -6 -43 -9 -65
-2 -22 -6 -53 -9 -70 -3 -16 -10 -59 -15 -94 -6 -35 -12 -65 -13 -67 -2 -1
-23 15 -47 36 -24 22 -63 56 -86 77 -101 91 -193 173 -229 207 -22 19 -42 33
-45 30 -3 -3 -1 -8 5 -12 6 -4 17 -22 25 -39 8 -18 17 -33 21 -33 5 0 8 -4 8
-9 0 -5 38 -73 85 -152 47 -78 84 -144 82 -145 -3 -3 -318 127 -402 165 -23
11 -220 93 -350 146 -49 21 -108 45 -131 56 -41 18 -142 59 -147 59 -2 0 117
-123 264 -272 611 -625 667 -683 656 -689 -7 -4 -39 -10 -72 -14 -33 -3 -69
-8 -80 -10 -11 -3 -40 -7 -65 -10 -25 -3 -54 -7 -65 -9 -11 -2 -51 -7 -88 -11
-70 -8 -81 -16 -25 -21 34 -2 68 -5 318 -29 41 -4 76 -9 78 -10 3 -3 -108
-144 -530 -674 -81 -102 -146 -187 -144 -189 2 -1 84 29 182 68 99 40 184 73
189 74 6 2 24 9 40 16 17 6 57 22 90 35 229 88 352 136 365 144 24 13 83 24
77 14 -3 -4 -13 -62 -22 -128 -21 -151 -23 -169 -30 -230 -3 -27 -8 -59 -10
-70 -3 -11 -7 -37 -10 -59 -3 -21 -8 -42 -11 -47 -3 -5 -1 -9 3 -9 7 0 45 79
49 100 0 3 6 19 13 35 6 17 23 59 38 95 56 140 53 138 69 55 4 -22 8 -42 9
-45 2 -8 18 -115 17 -120 0 -3 4 -12 9 -21 5 -10 11 -37 14 -60 3 -24 10 -66
16 -94 5 -27 12 -61 15 -75 2 -14 7 -36 10 -50 3 -14 8 -36 10 -50 2 -14 7
-36 10 -50 3 -14 8 -36 10 -50 3 -14 21 -104 40 -200 19 -96 37 -191 40 -210
3 -19 8 -38 10 -41 2 -4 6 -28 9 -55 4 -26 8 -51 10 -54 2 -4 7 -20 9 -37 30
-170 45 -222 47 -172 1 13 3 33 5 44 7 35 13 79 18 125 5 50 15 132 22 170 2
14 6 49 10 78 3 29 7 61 9 71 5 29 17 123 21 166 1 22 4 40 5 40 1 0 3 11 4
25 9 82 40 325 50 390 2 14 7 52 11 85 3 33 8 67 9 75 2 9 6 43 10 75 4 33 9
74 12 90 2 17 6 46 8 65 4 41 15 103 18 107 2 1 24 -33 51 -75 26 -42 65 -104
87 -137 22 -33 42 -68 45 -77 4 -10 10 -18 15 -18 5 0 9 -4 9 -9 0 -6 13 -29
28 -53 16 -24 53 -80 82 -126 29 -45 54 -81 56 -79 2 2 -10 42 -27 88 -37 103
-88 245 -99 279 -5 14 -22 62 -38 108 -16 46 -25 81 -18 79 6 -2 43 -14 81
-26 39 -12 79 -26 90 -31 11 -4 67 -23 125 -41 58 -18 112 -36 120 -40 18 -8
207 -70 229 -74 9 -2 25 -7 36 -11 23 -9 40 -33 -205 287 -91 118 -176 230
-190 248 -14 19 -32 42 -41 53 -9 10 -27 34 -40 53 -13 19 -27 35 -31 35 -5 0
-8 9 -8 21 0 11 4 18 8 15 4 -3 26 0 48 5 62 15 67 16 114 25 25 4 47 8 50 9
3 1 21 5 40 9 19 5 46 10 60 12 14 1 40 7 58 13 18 5 33 10 35 9 11 -1 97 15
93 19 -2 2 -26 10 -52 18 -27 7 -105 30 -174 50 -69 20 -129 38 -135 39 -5 1
-14 4 -20 8 -14 8 -78 22 -89 19 -11 -2 61 82 189 225 11 12 47 53 80 90 33
38 67 75 75 84 8 9 30 34 49 55 45 52 162 184 180 202 7 8 11 16 9 18 -5 5
-171 -29 -223 -45 -16 -5 -43 -12 -60 -15 -16 -2 -39 -7 -50 -10 -11 -2 -60
-14 -110 -25 -49 -12 -97 -23 -105 -25 -15 -4 -193 -44 -220 -50 -8 -2 -41
-10 -72 -18 -32 -8 -59 -12 -59 -9 -2 9 0 17 17 81 8 31 17 64 19 74 2 10 18
73 35 140 18 67 33 129 35 137 2 8 6 24 10 35 l7 20 -14 -20 c-9 -11 -24 -36
-34 -55 -11 -19 -27 -46 -36 -60 -8 -14 -36 -61 -61 -105 -27 -46 -48 -73 -50
-65 -13 44 -46 176 -52 205 -2 11 -4 20 -6 20 -1 0 -3 9 -4 20 -1 11 -10 47
-19 80 -9 33 -19 69 -21 80 -2 11 -13 58 -25 105 -11 47 -23 94 -25 105 -7 28
-13 53 -26 105 -12 50 -18 75 -24 105 -3 11 -7 29 -9 40 -5 20 -42 170 -53
210 -2 11 -6 27 -7 35 -2 8 -9 35 -15 60 -7 25 -15 53 -17 63 -2 10 -5 26 -8
35 -3 9 -7 28 -10 42 -3 14 -9 39 -15 55 -9 29 -9 29 -11 5z"/>
<path d="M969 2633 c-1 -23 -5 -41 -8 -45 -1 -2 -4 -21 -6 -43 -2 -22 -7 -56
-10 -75 -3 -19 -7 -51 -10 -70 -2 -19 -7 -51 -10 -70 -4 -19 -8 -48 -10 -63
-1 -15 -4 -30 -6 -31 -2 -2 -53 17 -114 43 -60 26 -130 55 -155 65 l-45 17 56
-58 c31 -32 83 -85 115 -119 33 -33 65 -68 72 -76 11 -14 1 -31 -75 -125 -48
-59 -91 -109 -95 -111 -5 -2 -8 -8 -8 -12 0 -8 105 26 155 50 11 6 39 16 61
24 l42 14 8 -46 c4 -26 8 -51 10 -57 4 -19 53 -260 58 -289 8 -45 21 -49 22
-8 0 20 4 60 8 87 9 57 12 75 22 160 3 33 8 67 10 75 1 8 3 28 3 43 1 27 3 28
34 22 17 -4 37 -10 42 -13 6 -4 15 -7 20 -8 6 -1 29 -9 53 -18 23 -8 42 -12
42 -9 0 4 5 2 12 -5 25 -25 40 -6 15 20 -7 7 -28 33 -47 58 -19 25 -37 47 -40
50 -16 16 -51 72 -48 79 2 5 26 35 55 67 106 120 122 138 120 140 -1 2 -49 -8
-106 -22 -56 -13 -110 -24 -120 -24 -13 0 -23 26 -46 123 -16 67 -30 129 -31
138 0 9 -4 21 -7 26 -4 6 -9 28 -13 49 -8 51 -23 78 -25 47z"/>
<path d="M4040 1855 c-1 -11 -3 -27 -4 -35 -3 -14 -11 -76 -21 -170 -3 -25 -8
-61 -11 -80 -3 -19 -8 -53 -10 -75 -10 -112 -15 -149 -20 -154 -2 -3 -76 31
-163 75 -88 43 -157 75 -154 69 9 -16 195 -247 225 -280 16 -16 28 -34 28 -40
0 -5 -45 -76 -99 -157 -54 -82 -96 -148 -93 -148 5 0 140 60 215 96 53 25 52
25 61 -41 3 -22 8 -51 10 -65 10 -55 30 -176 31 -185 0 -5 4 -28 8 -50 3 -22
9 -58 13 -80 3 -22 7 -47 9 -55 2 -8 4 -24 4 -34 2 -41 13 -4 17 56 3 35 7 79
9 98 3 19 7 60 10 90 3 30 8 71 11 90 7 44 11 86 13 130 2 63 7 63 131 15 62
-25 115 -44 116 -42 2 2 -4 14 -14 28 -77 109 -149 235 -142 249 5 8 47 67 94
130 47 63 86 118 86 122 0 7 -33 -1 -158 -39 -46 -13 -86 -23 -88 -20 -5 5
-27 100 -40 172 -3 17 -10 50 -15 75 -6 25 -13 56 -15 70 -13 77 -42 202 -44
185z"/>
<path d="M1989 1179 c0 -33 -3 -55 -14 -134 -3 -22 -8 -69 -11 -105 -4 -36 -8
-72 -10 -80 -1 -8 -3 -27 -3 -42 l-1 -27 -115 64 c-63 35 -115 61 -115 58 0
-3 41 -60 90 -128 50 -68 90 -126 90 -130 0 -3 -31 -59 -70 -122 -38 -64 -70
-117 -70 -120 0 -2 40 17 88 42 94 48 108 52 109 33 0 -7 3 -29 6 -48 3 -19 9
-57 12 -85 4 -27 9 -63 12 -80 2 -16 7 -46 10 -65 3 -19 7 -44 8 -55 2 -11 4
-31 4 -45 2 -55 19 0 25 80 3 47 7 94 10 105 2 11 7 61 11 110 4 50 8 91 10
93 2 2 40 -13 85 -33 46 -19 84 -34 85 -33 2 2 -23 48 -56 103 -32 55 -59 104
-59 108 0 4 27 48 60 98 85 126 85 122 -7 94 -43 -14 -83 -25 -89 -25 -10 0
-23 54 -49 205 -2 11 -9 47 -14 80 -17 95 -20 107 -26 113 -3 3 -5 -10 -6 -29z"/>
</g>
</svg>
