<?xml version="1.0" encoding="utf-8"?>
<!-- Generator: Adobe Illustrator 17.0.0, SVG Export Plug-In . SVG Version: 6.00 Build 0)  -->
<!DOCTYPE svg PUBLIC "-//W3C//DTD SVG 1.1//EN" "http://www.w3.org/Graphics/SVG/1.1/DTD/svg11.dtd">
<svg version="1.1"
	 id="svg2" xmlns:dc="http://purl.org/dc/elements/1.1/" xmlns:cc="http://creativecommons.org/ns#" xmlns:rdf="http://www.w3.org/1999/02/22-rdf-syntax-ns#" xmlns:svg="http://www.w3.org/2000/svg" xmlns:sodipodi="http://sodipodi.sourceforge.net/DTD/sodipodi-0.dtd" xmlns:inkscape="http://www.inkscape.org/namespaces/inkscape" inkscape:export-ydpi="1739.6547" inkscape:export-xdpi="1739.6547" inkscape:export-filename="C:\Users\Aziz\Desktop\derp.png" sodipodi:docname="derp.svg" inkscape:version="0.48.2 r9819"
	 xmlns="http://www.w3.org/2000/svg" xmlns:xlink="http://www.w3.org/1999/xlink" x="0px" y="0px" width="1280px" height="800px"
	 viewBox="0 0 392 443" enable-background="new 0 0 392 443" xml:space="preserve">
<sodipodi:namedview  inkscape:cy="287.30085" inkscape:cx="1020.6503" inkscape:zoom="0.70710678" showgrid="false" guidetolerance="10" gridtolerance="10" objecttolerance="10" borderopacity="1" pagecolor="#ffffff" bordercolor="#666666" id="namedview4" inkscape:current-layer="svg2" inkscape:window-maximized="1" inkscape:window-y="-8" inkscape:window-x="-8" inkscape:window-height="838" inkscape:window-width="1440" inkscape:pageshadow="2" inkscape:pageopacity="0">
	</sodipodi:namedview>
<path id="path3921" inkscape:connector-curvature="0" fill="#CCCFE2" d="M210.051,354.618l-3.182,6.541l2.475,6.187l8.662,5.48
	l12.551,5.657l11.137,7.601l9.546,9.016l10.783,13.081l4.95,2.828l9.192-0.884l12.198-3.536l10.607-6.718l6.01-7.425l2.298-7.071
	l-0.884-6.718l-6.187-9.016l-10.96-7.955l-13.258-8.839l-20.683-9.899L210.051,354.618z"/>
<path id="path3919" sodipodi:nodetypes="cccccccsccccccccccccccccccccccccccccccccc" inkscape:connector-curvature="0" fill="#CCCFE2" d="
	M146.765,285.145l-9.192-4.419l-10.783-1.061l-10.076,3.889l-8.485,9.192l-4.243,11.314l-1.768,11.667
	c0,0,2.121,13.081,3.005,14.319s5.834,10.96,5.834,10.96l3.712,4.596l-22.274,6.894l-19.269,9.369l-10.253,8.839l-3.182,7.425
	l1.591,8.308l4.419,6.541l9.016,6.894l12.905,4.95l10.96,2.121l8.132-4.596l13.081-10.43l14.142-9.016l19.445-7.601l11.49-3.712
	l3.182-2.121l2.652-3.182l-2.497-10.098l27.422-1.569l13.612,1.945l34.648-6.718l10.96-6.541l10.96-9.723l0.177-18.208
	l-3.359-13.612l-6.541-10.607l-9.016-6.01l-11.137-4.066l-9.899,0.53l-4.243,2.652l-74.246-2.298L146.765,285.145z"/>
<path id="path3917" inkscape:connector-curvature="0" fill="#CCCFE2" d="M252.654,213.904l5.657-13.258l8.839-13.435l11.844-11.314
	l9.546-3.536l9.369,0.177l13.612,4.95l6.364,7.248l14.849,0.53l13.435,2.121l10.783,5.48l2.828,6.364l-2.475,3.889l-8.308,3.182
	l-17.501,2.298l-10.96-0.354l-7.425,6.187l30.229,12.021l16.97,9.192l7.778,6.187l3.005,5.48l0.177,4.066l-2.828,2.475l-6.894,1.237
	l-6.718,0.177l-25.633-3.889l-20.683-5.127l-18.385-1.414l16.264,15.026l11.667,12.198l7.425,12.905l0.354,6.894l-3.005,3.359
	l-6.894-1.061l-12.551-6.01l-17.147-11.844l-18.385-14.142l-5.48,2.652l-11.844-46.846L252.654,213.904z"/>
<path id="path3915" inkscape:connector-curvature="0" fill="#CCCFE2" d="M157.725,185.266l-0.53,14.319l-7.248-0.53l-8.485,4.773
	l-12.198,10.96l-23.865-10.783l-14.672-5.657l-8.662-1.414l-8.132-3.712l-10.783-0.707l-12.021,2.652l-7.955,6.364l-13.435,4.066
	l-12.021,7.071l-3.182,6.364v4.243l5.303,2.298l15.38-0.354l1.414,4.95l9.016,3.712l-0.707,2.121l-21.567,16.794l-9.192,10.076
	L11,266.053l1.591,4.95l7.601,1.768l12.728-2.298l23.688-7.601l20.86-9.369l7.248,5.127l-7.955,12.551l-7.425,16.087l-2.475,11.667
	L70.75,303l6.01-1.768l10.783-7.248l13.965-12.728l6.541-8.309l10.253,2.298l8.132-1.237l3.182,4.066l8.485-0.884l10.607-7.601
	l-1.237,15.556l73.362,0.177l-3.712-27.754l8.662,5.48l10.253,3.359l4.596,5.834l11.137,7.248l8.132,2.298l6.364-1.591l1.414-7.425
	l-2.298-8.132l-13.258-50.912l-6.894,5.303l-17.147-14.496l-26.34-28.284L157.725,185.266z"/>
<path id="path3757" sodipodi:nodetypes="sssssssssscsssssssssscss" inkscape:connector-curvature="0" fill="#929AB8" d="
	M67.091,191.469c-14.298,0-22.737,5.954-27.375,13.188s-5.594,15.613-5.594,20.812c0,1.672,0.195,2.99,0.656,4.094
	s1.237,1.946,2.125,2.531c1.775,1.171,3.933,1.516,6.562,2.438c14.781,5.179,27.279,15.531,39.406,24.688
	s23.928,17.188,37.438,17.188c8.675,0,15.574-5.384,22.375-14.531c4.499-6.051,9.006-13.445,14.212-22.964
	c2.816-5.149,6.368-11.013,6.319-16.38c-9.029,15.989-15.957,28.96-22.562,37.844s-12.694,13.531-20.344,13.531
	c-12.509,0-23.876-7.58-35.938-16.688s-24.751-19.656-40.094-25.031c-2.805-0.983-4.895-1.428-6-2.156
	c-0.552-0.364-0.908-0.769-1.188-1.438s-0.469-1.655-0.469-3.125c0-4.886,0.977-12.852,5.219-19.469s11.629-12.031,25.25-12.031
	c13.685,0,27.404,11.983,37.562,24.188c10.158,12.204,16.75,24.438,16.75,24.438c1.292-6.239-14.407-25.507-14.844-26.031
	C96.221,204.134,82.202,191.469,67.091,191.469z"/>
<path id="path3759" sodipodi:nodetypes="sssccssscs" inkscape:connector-curvature="0" fill="#929AB8" d="M153.216,197.906
	c-4.661-0.063-9.239,2.309-13.5,5.625s-8.25,7.688-11.688,12.031c-6.875,8.687-11.594,17.344-11.594,17.344l2.188,1.219
	c0,0,4.656-8.512,11.375-17c3.359-4.244,7.234-8.469,11.25-11.594s8.152-5.125,11.969-5.125c10.451,0,13.906,8.031,13.906,8.031
	C167.981,200.573,157.18,197.96,153.216,197.906z"/>
<path id="path3913" inkscape:connector-curvature="0" fill="#CCCFE2" d="M105.222,47.027l-7.599-8.152l-5.75-3.375l-6.188,7.312
	L80.373,59.25l-0.688,9.812l1.188,19.812l7.312,14.812l4.625,9l12.562,10.25l2.438,14.438l8.814,19.519l10.96,14.142l16.352,10.43
	l18.12,4.419l22.451-0.354l12.905-4.419l11.932-6.364l11.844-12.198l6.806-12.374l5.568-15.114l1.679-16.794l-1.061-13.347
	l-1.503-9.281L212.498,78.75L105.222,47.027z"/>
<path id="path3761" sodipodi:nodetypes="cc" inkscape:connector-curvature="0" fill="none" stroke="#929AB8" stroke-width="2.5" d="
	M157.441,185.568c0.376,4.06,0.367,9.258-1.023,13.886"/>
<path id="path3763" sodipodi:nodetypes="cc" inkscape:connector-curvature="0" fill="none" stroke="#929AB8" stroke-width="2.5" d="
	M130.135,215.32c-15.024-6.784-31.025-16.011-47.893-18.325"/>
<path id="path3765" sodipodi:nodetypes="csc" inkscape:connector-curvature="0" fill="none" stroke="#929AB8" stroke-width="2.5" d="
	M44.011,200.916c0,0-29.965,7.455-29.965,20.026c0,7.016,21.049,4.239,21.049,4.239"/>
<path id="path3767" sodipodi:nodetypes="csc" inkscape:connector-curvature="0" fill="none" stroke="#929AB8" stroke-width="2.5" d="
	M46.788,234.389c0,0-35.227,26.311-35.227,32.889c0,17.102,66.216-13.448,66.216-13.448"/>
<path id="path3769" sodipodi:nodetypes="csc" inkscape:connector-curvature="0" fill="none" stroke="#929AB8" stroke-width="2.5" d="
	M84.501,259.092c0,0-17.248,25.434-17.248,38.297c0,20.903,41.367-23.68,41.367-23.68"/>
<path id="path3771" sodipodi:nodetypes="csscsccc" inkscape:connector-curvature="0" fill="#929AB8" d="M149.06,247.594
	c0,0-0.699,10.537-1.781,21.031c-0.854,8.285-1.016,18.668-1.016,26.98c0,5.711,0.235,10.171,2.766,14.458
	c0,0-0.922-24.97,0.75-41.188c1.088-10.553,1.781-21.094,1.781-21.094L149.06,247.594L149.06,247.594z"/>
<path id="path3773" sodipodi:nodetypes="sscsssccss" inkscape:connector-curvature="0" fill="#929AB8" d="M130.123,278.656
	c-14.316,0-28.625,13.371-28.625,36.719c0,23.708,19.308,39.308,26.938,37.812c0,0-24.438-10.022-24.438-37.812
	c0-22.337,13.361-34.219,26.125-34.219c6.566,0,10.645,1.601,13.062,3.125s3.125,2.875,3.125,2.875l2.188-1.219
	c0,0-1.172-1.998-4-3.781S137.096,278.656,130.123,278.656z"/>
<path id="path3775" sodipodi:nodetypes="cc" inkscape:connector-curvature="0" fill="none" stroke="#929AB8" stroke-width="2.5" d="
	M148.688,267.879c-4.291,5.515-15.646,16.384-23.411,6.253"/>
<path id="path3907" inkscape:connector-curvature="0" fill="#FEFFA5" d="M230.557,144.254l0.795,10.783l-1.768,15.291l-2.563,14.054
	l0.884,19.003l5.834,21.655l-11.49-7.601l-7.955-9.192l0.972,19.18l3.712,14.496l-10.43-14.938l-6.541-14.407l-3.005-16.971
	l2.475-16.087l11.932-7.601l10.695-12.993l6.541-15.114l0.177,1.061L230.557,144.254z"/>
<path id="path3777" sodipodi:nodetypes="cccsc" inkscape:connector-curvature="0" fill="#929AB8" d="M214.279,233.938l-2.438,0.469
	c4.786,25.793,7.399,48.219,9.437,74.031c1.712-4.243,1.709-9.194,1.335-13.8C220.955,274.218,218.222,255.19,214.279,233.938z"/>
<path id="path3909" inkscape:connector-curvature="0" fill="#FEFFA5" d="M265.559,320.677l15.026-2.121l16.617,0.354l15.38,3.359
	l13.612,5.303l17.678,10.783l5.126,4.596l-10.607-1.768l11.137,9.016l10.076,9.723l6.269,12.703l1.5,12.875l-2.625,15.5l-4.5,9.875
	l-3.375-13.5l-8.25-13.25l-2.75-2.25l1.5,13.375l-6.75-5.875l-9.75-8.125l-13.5-5.625l-16.25-3.75L291.748,363l-20.75-12.25
	l-16.25-8l6.875-6.625l4.125-11.625L265.559,320.677z"/>
<path id="path3020" sodipodi:nodetypes="ccccsccsc" inkscape:connector-curvature="0" fill="none" stroke="#F0E268" stroke-width="2.5" stroke-miterlimit="6.2" d="
	M301.464,371.703c16.186,3.155,32.084,7.492,45.539,24.557c0.566-5.85,0.024-9.625-2.071-15.655
	c6.889,7.419,13.195,15.726,15.203,30.582c0,0,7.071-10.96,7.071-29.522c0-19.193-21.361-35.691-29.805-40.534
	c4.352,0.344,7.819,1.044,13.028,2.813c-11.333-10.227-36.052-25.212-61.358-25.212c-14.496,0-22.981,2.475-22.981,2.475"/>
<path id="path3779" sodipodi:nodetypes="scsccccsssscssss" inkscape:connector-curvature="0" fill="#929AB8" d="M233.81,280.219
	c-5.505,0-9.022,1.209-11.188,2.5c-1.083,0.645-1.836,1.323-2.312,1.844s-0.75,0.969-0.75,0.969l2.219,1.188
	c0,0,0.054-0.118,0.375-0.469c0.321-0.351,0.882-0.858,1.75-1.375c1.736-1.035,4.765-2.156,9.906-2.156
	c4.862,0,12.805,2.836,19.344,8.625s11.75,14.415,11.75,26.188c0,15.424-8.039,23.802-16.187,28.531
	c-8.149,4.729-16.313,5.625-16.313,5.625c7.634,1.204,16.989-3.136,17.563-3.469c8.662-5.018,17.437-14.38,17.437-30.688
	c0-12.517-5.618-21.887-12.594-28.062S239.594,280.219,233.81,280.219z"/>
<path id="path3792" sodipodi:nodetypes="acca" inkscape:connector-curvature="0" fill="#929AB8" d="M188.935,353.812
	c-8.842,0.013-21.996,0.952-26.219,4.031c17.703-2.433,34.965-2.306,51.906-0.156C208.465,354.611,197.594,353.8,188.935,353.812z"
	/>
<path id="path3794" sodipodi:nodetypes="csssc" inkscape:connector-curvature="0" fill="none" stroke="#929AB8" stroke-width="2.5" d="
	M114.648,345.222c0,0-54.704,14.291-54.704,34.17c0,18.418,30.988,27.042,36.982,27.042c12.132,0,14.518-18.798,67.239-34.643
	c11.316-3.401,3.654-15.494,3.654-15.494"/>
<path id="path3796" sodipodi:nodetypes="ccsssssscsssccssscssssssc" inkscape:connector-curvature="0" fill="#929AB8" d="
	M255.373,342.438l-0.906,2.312c0,0,12.956,5.145,25.906,12.719c6.475,3.787,12.942,8.169,17.719,12.781
	c4.776,4.612,7.781,9.39,7.781,13.812c0,6.874-5.208,13.287-12.438,17.969s-16.371,7.531-23.438,7.531
	c-3.604,0-5.809-1.093-8.062-3.156s-4.461-5.157-7.531-8.906c-6.141-7.498-15.807-17.432-37.187-26.75
	c-3.986-1.737-6.288-3.528-7.531-5.125s-1.506-2.999-1.375-4.25c0.261-2.502,2.312-4.438,2.312-4.438l-2.461-1.004
	c0,0-1.939,1.544-2.32,5.192c-0.191,1.824,0.245,3.978,1.844,6.031s4.294,4.029,8.531,5.875c21.04,9.17,30.234,18.686,36.25,26.031
	c3.008,3.673,5.217,6.84,7.781,9.188s5.597,3.812,9.75,3.812c7.729,0,17.144-2.992,24.781-7.938s13.594-11.947,13.594-20.062
	c0-5.517-3.519-10.754-8.531-15.594s-11.61-9.31-18.188-13.156C268.5,347.62,255.373,342.438,255.373,342.438z"/>
<path id="path3798" sodipodi:nodetypes="ssscsssscccsssssccssssscsssss" inkscape:connector-curvature="0" fill="#929AB8" d="
	M291.998,171.062c-11.565,0-21.811,9.451-29.812,21.625c-3.609,5.491-6.973,11.492-9.39,17.704
	c-2.074,5.329-6.66,15.208-4.423,22.14c2.378-11.731,8.122-26.624,15.906-38.469c7.785-11.844,17.539-20.5,27.719-20.5
	c12.709,0,20.298,5.72,24.906,12.219s6.094,13.96,6.094,16.719c0,1.493-0.178,2.453-0.406,3.062
	c-0.229,0.609-0.461,0.887-0.875,1.188c-0.829,0.6-2.576,1.081-4.688,2.531c-14.038,9.637-23.885,23.958-33.375,35.75
	c-4.745,5.896-9.396,11.167-14.344,14.906s-10.147,5.969-16.188,5.969c-2.621,0-6.304-1.811-10.156-4.719
	c-3.852-2.908-7.902-6.84-11.563-10.781c-7.32-7.882-13.094-15.781-13.094-15.781l-2,1.469c0,0,5.84,7.988,13.281,16
	c3.72,4.006,7.831,8.041,11.875,11.094c4.044,3.052,7.983,5.219,11.656,5.219c6.662,0,12.444-2.506,17.688-6.469
	s9.993-9.393,14.781-15.344c9.577-11.901,19.344-25.961,32.875-35.25c1.751-1.202,3.264-1.508,4.719-2.562
	c0.728-0.527,1.364-1.282,1.75-2.312s0.562-2.302,0.562-3.969c0-3.56-1.559-11.175-6.531-18.188S305.466,171.062,291.998,171.062
	L291.998,171.062z"/>
<path id="path3800" sodipodi:nodetypes="cc" inkscape:connector-curvature="0" fill="none" stroke="#929AB8" stroke-width="2.5" d="
	M228.919,204.424c6.732,6.587,13.495,13.016,20.61,17.687"/>
<path id="path3838" sodipodi:nodetypes="ccccsc" inkscape:connector-curvature="0" fill="none" stroke="#F0E268" stroke-width="2.5" stroke-miterlimit="6.2" d="
	M202.123,178.75c-7.757,23.353,2.624,45.627,17.5,64.625c-3.987-11.39-4.989-23.029-5-34.75c6.162,7.36,13.21,12.773,19,16.25
	c0,0-9.796-29.789-5-51c4.638-20.509,2.408-31.709,2.408-31.709"/>
<path id="path3802" sodipodi:nodetypes="cc" inkscape:connector-curvature="0" fill="none" stroke="#929AB8" stroke-width="2.5" d="
	M245.29,218.749c1.925-1.608,4.218-3.216,7.309-4.824"/>
<path id="path3804" sodipodi:nodetypes="csc" inkscape:connector-curvature="0" fill="none" stroke="#929AB8" stroke-width="2.5" d="
	M318.23,184.545c0,0,40.928,0.146,40.928,14.471c0,10.378-37.712,9.355-37.712,9.355"/>
<path id="path3806" sodipodi:nodetypes="cssc" inkscape:connector-curvature="0" fill="none" stroke="#929AB8" stroke-width="2.5" d="
	M312.091,214.51c0,0,59.113,19.583,59.113,34.129c0,15.131-50.489-0.656-66.13-2.556c-7.986-0.97-14.763-1.242-14.763-1.242"/>
<path id="path3808" sodipodi:nodetypes="csc" inkscape:connector-curvature="0" fill="none" stroke="#929AB8" stroke-width="2.5" d="
	M287.826,242.867c0,0,38.005,29.381,38.005,47.067c0,20.756-58.03-27.627-58.03-27.627"/>
<path id="path3810" sodipodi:nodetypes="cc" inkscape:connector-curvature="0" fill="none" stroke="#929AB8" stroke-width="2.5" d="
	M216.586,257.281c8.348,5.364,16.338,12.199,28.412,7.22"/>
<path id="path3812" inkscape:connector-curvature="0" fill="none" stroke="#929AB8" stroke-width="2.5" d="M264.292,264.062
	c0,0,8.77,17.541-3.801,17.541c-12.571,0-25.726-15.202-25.726-15.202"/>
<path id="path3814" sodipodi:nodetypes="cacsc" inkscape:connector-curvature="0" fill="#929AB8" d="M291.123,184.188
	c-2.962,4.312-0.262,10.118,2.812,13.562c3.352,3.755,10.336,6.213,14.344,4.719c-5.549-1.276-9.708-3.437-12.531-6.438
	C292.924,193.03,291.37,189.167,291.123,184.188z"/>
<path id="path3816" sodipodi:nodetypes="cscac" inkscape:connector-curvature="0" fill="#929AB8" d="M65.56,203.812
	c0.504,5.142-0.233,9.433-2.375,12.875c-2.142,3.442-5.712,6.117-11.219,7.875c6.999,0.851,10.686-2.353,13.344-6.531
	C67.855,214.032,69.187,207.215,65.56,203.812z"/>
<path id="path3911" inkscape:connector-curvature="0" fill="#CCCFE2" d="M198.998,19.625c0-1.125,3.625-5.625,3.625-5.625
	l4.125-1.25l8.375,5.25l10.625,11.5l7.625,13.75l4.375,11.875l1.25,12.25l-1.75,12.5l-44-51.75L198.998,19.625z"/>
<path id="path3905" inkscape:connector-curvature="0" fill="#FEFFA5" d="M114.414,73.897l7.601,8.662l11.137,9.369l10.43,7.248
	l13.965,4.419l13.258,0.53l-10.96-8.309l-9.546-9.546l-5.834-7.955l26.34-1.945l19.445,2.475l18.915,5.303l17.147,7.955
	l14.496,7.601l-1.945-15.91l-6.364-17.147l-9.546-16.617l-10.253-11.667l-13.789-10.253l13.612,1.414l-7.601-6.894l-11.49-5.48
	l-18.915-3.536l-16.263,0.53l-20.86,6.541l-18.031,11.667l-14.849,15.733l6.01,10.43L114.414,73.897z"/>
<path id="path3822" sodipodi:nodetypes="csc" inkscape:connector-curvature="0" fill="none" stroke="#929AB8" stroke-width="2.5" d="
	M199.04,20.189c0,0,3.456-10.971,10.165-6.109c37.93,27.494,28.429,66.364,28.429,66.364"/>
<path id="path3824" sodipodi:nodetypes="ccc" inkscape:connector-curvature="0" fill="#929AB8" d="M100.341,97.812
	c-7.596-13.217-10.961-23.512-9.062-40.688C86.005,66.068,87.98,88.692,100.341,97.812z"/>
<path id="path3826" sodipodi:nodetypes="cccc" inkscape:connector-curvature="0" fill="#929AB8" d="M212.404,30.281
	c5.156,7.067,9.326,14.46,10.219,21.625l2.5-0.312C223.525,46.732,222.282,37.28,212.404,30.281z"/>
<path id="path3790" sodipodi:nodetypes="ccccc" inkscape:connector-curvature="0" d="M141.123,97.25
	c-6.873,10.252-17.187,16.788-29.281,21.625c7.372,0.104,10.513-2.067,13.111-3.578c7.24-4.245,13.526-9.605,18.264-16.672
	L141.123,97.25z"/>
<path id="path3836" sodipodi:nodetypes="sccsscccccccccsccscccccccccccss" inkscape:connector-curvature="0" fill="#F0E268" d="
	M168.998,12.719c-40.804,0-64.906,34.219-64.906,34.219l2.062,1.469c0,0,23.441-33.188,62.844-33.188
	c15.804,0,26.966,4.091,34.188,8.156c3.145,1.77,5.407,3.464,7.094,4.875c-3.327-0.742-6.907-1.255-11.781-1.5l-5.344-0.281
	l4.688,2.594c20.784,11.597,40.029,39.421,40.937,68.5c-23.233-12.897-48.628-27.571-94.156-20.125l-1.812,0.312l0.938,1.562
	c5.417,9.118,14.061,17.424,23.438,23.344c-10.43,0.296-19.307-2.55-27.219-7.406c-8.919-5.475-17.675-14.374-25.254-22.279
	l-0.84,2.811c7.6,7.928,15.513,15.905,24.781,21.594s19.926,9.037,32.75,7.656l3.938-0.406l-3.469-1.906
	c-9.729-5.367-18.937-13.882-24.844-23.031c44.772-6.744,69.052,8.18,92.531,21.156l1.875,1.031V99.75
	c0.032-28.972-17.677-56.46-38.156-70.062c4.178,0.411,7.679,1.004,10.875,2.125l4.188,1.438l-2.781-3.406
	c0,0-3.598-4.37-11.156-8.625S185.235,12.719,168.998,12.719z"/>
<path id="path2987" sodipodi:nodetypes="cssscssscccccssscccssscssccsc" inkscape:connector-curvature="0" fill="#929AB8" d="
	M92.029,35c-1.127,0.076-2.133,0.617-2.969,1.406s-1.555,1.833-2.281,3.094c-10.478,18.202-10.19,37.363-5.219,52.875
	c4.848,15.127,14.009,26.795,22.531,31.094c0.159,1.749,1.681,16.34,10,31.469c8.848,16.091,25.524,32.334,55.906,32.469
	c26.695,0.118,44.049-11.467,54.156-27.125c10.101-15.649,13.08-35.262,11.594-51.469c-0.001-0.011,0.001-0.021,0-0.031
	c-0.423-5.084-1.356-9.796-2.625-13.969l-2.406,0.719c1.22,4.011,2.156,8.554,2.562,13.469c1.448,15.724-1.508,34.863-11.219,49.906
	s-26.057,26.115-52.031,26c-29.504-0.131-45.193-15.626-53.75-31.188c-8.557-15.562-9.781-31.094-9.781-31.094l-0.062-0.75
	l-0.656-0.281c-7.578-3.499-17.046-14.999-21.844-29.969s-5.09-33.346,5-50.875c0.662-1.151,1.298-1.985,1.844-2.5
	s0.963-0.718,1.438-0.75c0.95-0.064,2.666,0.776,5.312,3.25c6.449,6.028,10.746,15.579,13.344,23.625s3.531,14.531,3.531,14.531
	c1.383-5.168-0.599-13.559-1.156-15.312c-2.664-8.253-7.001-18.145-14-24.688C96.439,36.281,94.283,34.849,92.029,35z"/>
<path id="path3828" sodipodi:nodetypes="cacsc" inkscape:connector-curvature="0" fill="#929AB8" d="M194.248,159.625
	c-0.613,7.023-4.357,13.769-10.312,15.25c-6.159,1.532-12.624-3.543-16.812-8.938c2.08,8.358,11.803,12.36,17.344,10.875
	C191.214,175.004,196.792,166.4,194.248,159.625z"/>
<path id="path3830" sodipodi:nodetypes="ccc" inkscape:connector-curvature="0" fill="#929AB8" d="M166.81,149.062
	c4.288-4.287,10.576-5.398,17.781-5.312C181.816,141.339,168.241,141.901,166.81,149.062z"/>
<path id="path3832" sodipodi:nodetypes="ccc" inkscape:connector-curvature="0" fill="#929AB8" d="M172.185,161.75
	c-1.816-0.255-2.829-1.386-2.125-3.562C167.337,158.953,168.51,163.92,172.185,161.75z"/>
<path id="path3834" sodipodi:nodetypes="ccc" inkscape:connector-curvature="0" fill="#929AB8" d="M188.091,154.969
	c0.998,1.857,0.296,3.273-1.406,3.625C189.538,160.55,191.594,155.381,188.091,154.969z"/>
<path id="path3854" sodipodi:nodetypes="ccccc" inkscape:connector-curvature="0" fill="#F0E268" d="M228.841,92.248l-1.219,2.033
	l11.031,6.031l0.878-2.011L228.841,92.248z"/>
<path id="path3793" sodipodi:nodetypes="sccscsccs" inkscape:connector-curvature="0" d="M180.404,92.219
	c0.054,0.57,0.128,1.058,0.219,1.5c0.091,0.442,0.08,0.799,0.562,1.344c3.712,4.19,11.818,6.124,20.312,7.125
	c4.102,0.483,20.106,0.412,21.531-5.344c-4.441,2.584-13.119,3.564-21.312,2.844s-16.021-3.151-18.656-6.281
	c-0.414-3.501-0.746-6.725-0.406-10.312C180.481,85.408,180.177,89.811,180.404,92.219z"/>
<path id="path3799" sodipodi:nodetypes="cccc" inkscape:connector-curvature="0" d="M228.623,129.562l-0.445,2.139
	c3.173,0.976,10.468,1.698,14.664-1.826C238.476,130.686,234.12,131.018,228.623,129.562z"/>
<path id="path3801" sodipodi:nodetypes="cccc" inkscape:connector-curvature="0" d="M226.341,138.438l-1.25,1.719
	c1.798,1.642,5.717,5.066,13.272,3.938C235.044,143.281,228.548,141.397,226.341,138.438z"/>
<path id="path3803" sodipodi:nodetypes="cccc" inkscape:connector-curvature="0" d="M119.31,153.656
	c-1.719,2.488-7.575,4.704-13.906,6.219c5.98,0.642,12.541-1.336,15.745-4.344L119.31,153.656z"/>
<path id="path3805" sodipodi:nodetypes="cccc" inkscape:connector-curvature="0" d="M126.185,162.812
	c-1.773,3.429-4.786,6.31-9.625,9.344c6.865-0.88,10.203-5.017,11.75-7.969L126.185,162.812z"/>
<path id="path3039" sodipodi:nodetypes="cssssccccssssc" inkscape:connector-curvature="0" d="M149.935,121.406
	c0,0,4.812,14.119,4.812,28.594c0,7.194-1.55,11.935-3.719,14.875s-4.952,4.163-7.75,4.375c-7.514,0.569-14.788-5.815-20.125-12.625
	s-8.656-13.781-8.656-13.781l-0.625-1.344c-3.051,2.482-5.972,4.954-10.625,6.531c5.529,0.148,8.097-1.816,9.688-2.812
	c0.825,1.655,3.547,6.929,8.281,12.969c5.538,7.065,13.264,14.243,22.25,13.562c3.434-0.26,6.977-1.902,9.562-5.406
	s4.219-8.81,4.219-16.344C157.248,145.128,155.995,127.325,149.935,121.406z"/>
<path id="path3813" sodipodi:nodetypes="cssssccccccssssc" inkscape:connector-curvature="0" d="M187.966,114.969
	c-1.99,5.615,1.531,18.855,2.031,20.312c1.728,5.037,4.068,10.104,7.281,14s7.409,6.656,12.594,6.656
	c4.681,0,8.418-2.521,11.188-6.062s4.697-8.137,6.094-12.688c2.477-8.069,3.108-15.13,3.25-16.844
	c4.469,0.028,8.047,0.294,10.969-2.25c-4.391,0.71-8.598,0.255-13.188-0.688l-0.125,1.469c0,0-0.594,8.84-3.281,17.594
	c-1.343,4.377-3.22,8.721-5.687,11.875c-2.467,3.154-5.414,5.094-9.219,5.094c-4.317,0-7.746-2.221-10.656-5.75
	s-5.197-8.353-6.875-13.219C188.986,124.738,187.966,114.969,187.966,114.969z"/>
</svg>
