<?xml version="1.0" encoding="utf-8"?>
<!-- Generator: Adobe Illustrator 17.0.0, SVG Export Plug-In . SVG Version: 6.00 Build 0)  -->
<!DOCTYPE svg PUBLIC "-//W3C//DTD SVG 1.1//EN" "http://www.w3.org/Graphics/SVG/1.1/DTD/svg11.dtd">
<svg version="1.1" xmlns="http://www.w3.org/2000/svg" xmlns:xlink="http://www.w3.org/1999/xlink" x="0px" y="0px" width="1600px"
	 height="900px" viewBox="0 0 1600 900" enable-background="new 0 0 1600 900" xml:space="preserve">
<g id="Layer_1">
</g>
<g id="Door">
	<path fill="#95D5D8" d="M389.089,574.483l25.643,25.171c0,0,47.829,3.934,60.583,3.459c12.753-0.474,43.421,0.018,46.082-19.673
		c2.662-19.692,9.857-77.104,6.708-115.356c-3.149-38.253-34.487-146.478-41.536-152.747c-7.048-6.269-57.674-16.631-72.732-9.54
		c-15.057,7.09-25.493,23.807-27.797,30.423C383.737,342.835,389.089,574.483,389.089,574.483z"/>
	<path fill="#527895" d="M533.054,480.487l-19.989-50.237l11.521,43.001l-25.865,20.82l0.79-8.458l-28.139-25.255l41.212-31.318
		l-2.816-7.078l-8.374,6.417l0.906-4.096l-35.256-26.649l36.469-31.358l-3.709-8.025l-39.734,34.11l-46.293-34.992l-3.965,4.942
		l44.54,34.96l-27.229,23.375l-24.559-22.042l-1.529,10.261l19.486,17.447l-32.046,27.511l4.641,7.379l33.857-29.111l32.083,28.728
		l-43.746,33.518L392.43,476.84l-1.965,7.115l19.109,14.776l-18.65,14.289l1.553,7.289l22.697-17.248l36.914,28.544l-49.792,40.076
		l7.646,5.225l50.045-39.195l32.216,24.911l4.452-6.085l-30.716-23.488L533.054,480.487z M433.561,426.424l27.646-23.771
		l36.438,28.597l-31.669,24.266L433.561,426.424z M420.967,498.661l43.465-33.03l32.957,29.513l-39.473,31.772L420.967,498.661z"/>
	<path fill="#894437" d="M478.013,570.089c0,0,40.437-180.287-42.129-235.994c-82.566-55.705,49.21-49.588,49.21-49.588
		s42.125,67.007,43.816,77.965c1.692,10.958,12.025,81.597,12.626,97.494c0.601,15.896,0.343,42.846-3.066,53.993
		c-3.41,11.148-9.093,29.729-11.505,33.49c-2.412,3.764-27.317,20.608-27.317,20.608L478.013,570.089z"/>
	
		<linearGradient id="SVGID_1_" gradientUnits="userSpaceOnUse" x1="648.6324" y1="454.837" x2="652.1912" y2="-93.2786" gradientTransform="matrix(0.9993 -0.0375 0.0375 0.9993 -14.3145 24.5018)">
		<stop  offset="0" style="stop-color:#CD7666"/>
		<stop  offset="1" style="stop-color:#7F342A"/>
	</linearGradient>
	<path fill="url(#SVGID_1_)" d="M842.557,112.02c0,0-94.627-36.889-112.665-41.117c-18.041-4.227-164.521,6.121-180.915,11.629
		c-16.395,5.507-97.027,68.51-97.027,68.51S339.732,256.854,335,266.827c-4.731,9.972-7.185,181.499-6.954,187.612
		c0.121,3.191-5.379,65.074,5.833,119.439c10.268,49.788,37.334,92.584,37.334,92.584l478.352,2.462
		c0,0,125.336-79.165,124.55-99.953c-0.192-5.079,2.654-183.046-1.204-208.906C960.977,280.107,842.557,112.02,842.557,112.02z
		 M495.637,563.311l-81.299,11.597c0,0-18.957-96.034-7.286-158.92c11.671-62.885,38.619-93.276,59.024-94.035
		C486.481,321.193,539.634,477.181,495.637,563.311z"/>
	<path fill="#723137" d="M411.566,595.215c0,0,36.085-17.262,59.631-16.301c23.548,0.96,40.492,2.168,45.559,0.142
		c5.066-2.024,4.264-3.832,3.228-11.753c-1.034-7.921-2.779-15.204-7.915-15.013c-5.135,0.191-46.038,6.61-64.311,9.129
		c-18.273,2.516-43.08,7.112-43.08,7.112L411.566,595.215z"/>
	<path fill="#884936" d="M414.273,576.137c-3.586-10.686-10.611-8.588-12.766-7.283c-2.155,1.305-3.888,7.287-1.363,15.766
		c2.526,8.479,3.467,13.953,11.422,10.596C418.942,592.101,417.286,584.596,414.273,576.137z"/>
	<path fill="#954838" d="M618.233,315.475c-1.515,4.954-10.868,5.301-19.622,43.997c-8.754,38.695-15.742,34.056-15.451,64.25
		c0,0,4.143,19.438,0.662,39.979c-3.482,20.538-13.703,42.961-14.878,56.882c-1.177,13.922-2.278,52.332-2.278,52.332
		s5.463-58.165,12.623-71.493c7.158-13.328,11.939-44.529,11.322-60.832c-0.616-16.305,3.702-59.731,7.644-68.042
		c3.942-8.311,12.74-23.333,15.833-31.61C617.18,332.657,618.233,315.475,618.233,315.475z"/>
	<path fill="#954838" d="M632.413,391.017c0,0,41.759-48.914,58.397-52.064C690.81,338.953,663.014,335.164,632.413,391.017z"/>
	<path fill="#954838" d="M708.014,348.054c0,0,75.899,25.749,77.937,192.211C785.95,540.265,794.903,371.76,708.014,348.054z"/>
	<path fill="#7E3C2D" d="M781.435,398.387c0,0-0.18-49.791-18.324-79.323c-18.144-29.529-25.778-51.287-23.938-70.131
		c1.842-18.846,20.152-75.039,21.42-86.516c1.268-11.476,1.799-42.519,1.799-42.519s3.784,32.515-1.244,57.193
		c-5.027,24.677-20.767,58.733-19.085,80.711c1.683,21.979,27.571,53.67,34.417,77.092
		C783.326,358.314,781.435,398.387,781.435,398.387z"/>
	<path fill="#7E3C2D" d="M816.845,186.448c0,0-25.821,37.696-25.036,80.934C791.809,267.382,780.729,222.079,816.845,186.448z"/>
	<path fill="#954838" d="M512.81,274.497c0,0-6.393,78.607,4.716,124.727C517.526,399.224,495.968,346.964,512.81,274.497z"/>
	<path fill="#7E3C2D" d="M455.678,249.683c0,0-6.172,39.415-2.573,67.037C453.104,316.72,443.88,275.429,455.678,249.683z"/>
	<path fill="#7E3C2D" d="M436.043,270.822c0,0-13.129,35.592-10.737,76.321C425.306,347.143,405.88,306.231,436.043,270.822z"/>
	<path fill="#954838" d="M465.326,234.629"/>
	<path fill="#954838" d="M566.018,578.245c0,0-4.655,12.01-0.12,30.619c4.535,18.605-12.59,49.855-35.392,54.786
		c-22.802,4.932-5.782,4.705-5.782,4.705s50.266-10.44,43.678-60.809C566.727,596.995,565.678,591.728,566.018,578.245z"/>
	<path fill="#954838" d="M785.851,548.84c0,0-5.155,9.987,4.086,29.237c9.241,19.248,19.146,56.024,27.363,59.393
		c0,0-6.449,9.627-29.003-57.699C783.422,574.646,780.646,557.605,785.851,548.84z"/>
	<path fill="#954838" d="M799.004,581.413c0,0,3.53,14.564,12.433,24.847C811.436,606.259,801.898,601.714,799.004,581.413z"/>
	<path fill="#7E3C2D" d="M601.027,141.822c0,0,17.643,27.508,13.466,52.154C614.493,193.977,627.458,165.33,601.027,141.822z"/>
	<path fill="#954838" d="M754.221,654.17c0,0,5.588-9.559,7.041-21.065c1.458-11.506,2.575-10.611,4.678-19.339
		c2.101-8.726,4.072-13.708,4.243-23.53c0.171-9.821-0.073-23.368,2.945-29.324c3.019-5.957,3.259-37.225,3.135-40.492
		c-0.123-3.266,0.584-10.171-0.938-29.048c-1.525-18.872-4.263-43.527-7.592-52.984c-3.332-9.459-5.13-12.88-9.295-23.009
		c-4.168-10.128-11.953-17.729-17.849-23.586c-5.899-5.857-21.156-15.848-27.198-18.428c-6.044-2.58-11.603-5.193-16.146-3.857
		c-4.543,1.338-12.709,3.213-20.195,5.362c-7.484,2.148-18.42,9.864-23.136,13.781c-4.716,3.913-12.824,14.678-16.068,21.811
		c-3.246,7.134-9.46,24.948-10.581,31.066c-1.12,6.119-4.458,14.846-6.759,25.449c-1.586,7.306-4.171,32.206-4.727,35.28
		c-1.791,9.883-4.369,41.764-4.322,50.176c0.051,8.412,1.322,27.767,3.418,40.309c2.098,12.544,10.176,47.534,12.141,56.574
		c1.964,9.045,5.743,16.15,6.04,16.84C633.354,666.847,754.221,654.17,754.221,654.17z"/>
	<path fill="#722E37" d="M634.995,660.241c0,0-11.298-30.782-12.047-39.868c-0.751-9.088-7.503-37.585-8.571-55.074
		c-1.067-17.49,5.644-75.936,7.177-88.966c1.534-13.028,12.165-64.26,30.516-82.823c9.384-9.114,25.314-16.718,32.966-18.054
		c7.65-1.337,12.69-7.484,19.325-3.524c0,0,1.148-1.795,11.6,6.581c10.453,8.376,25.736,15.87,29.604,21.687
		c3.869,5.815,17.695,28.438,18.315,34.026c0.616,5.587,5.638,20.475,7.248,52.318c1.608,31.843-0.219,58.555-2.545,82.832
		c-2.324,24.276-14.247,73.452-16.658,84.761C749.513,665.446,635.451,661.626,634.995,660.241z"/>
	<path fill="#551D23" d="M736.677,411.749c0,0-0.992,102.407-0.834,106.61C735.843,518.359,740.391,452.745,736.677,411.749z"/>
	<path fill="#551D23" d="M649.952,419.649l0.226,106.102C650.178,525.751,655.142,456.852,649.952,419.649z"/>
	<path fill="#551D23" d="M696.004,379.605c0,0-2.586,17.392-1.276,23.42C694.727,403.025,699.109,390.24,696.004,379.605z"/>
	<path fill="#551D23" d="M625.734,493.941l1.012,41.099C626.746,535.039,631.016,504.96,625.734,493.941z"/>
	<path fill="#551D23" d="M655.556,553.599l2.745,86.842C658.301,640.441,661.086,571.156,655.556,553.599z"/>
	<path fill="#551D23" d="M693.771,577.888l-4.881,56.741C688.89,634.629,696.115,596.965,693.771,577.888z"/>
	<path fill="#551D23" d="M735.256,559.983l-7.883,77.422C727.373,637.405,737.9,586.996,735.256,559.983z"/>
	<path fill="#D2B17F" d="M648.618,572.401c0.071-3.251-1.405-16.793-13.578-16.649c-12.169,0.144-12.459,18.081-12.459,18.081
		s0.361,5.279,3.437,9.031c2.133,1.431,6.244,3.545,11.316,2.936c1.067-0.127,1.954-0.222,2.723-0.292
		C647.631,582.723,648.56,575.078,648.618,572.401z"/>
	<path fill="#B19160" d="M634.271,586.531c10.298-0.257,13.244-6.994,14.054-11.374c-11.784,11.921-21.693,2.8-25.705-2.153
		c-0.037,0.523-0.04,0.829-0.04,0.829S623.457,586.78,634.271,586.531z"/>
	<polygon fill="#491A22" points="686.104,94.982 687.521,188.81 692.67,189.844 690.338,94.416 	"/>
	<path fill="#E8C45E" d="M733.875,255.046c-1.52-40.182-19.122-72.147-39.312-71.396c-20.193,0.751-35.33,33.935-33.811,74.118
		c1.52,40.184,19.12,72.149,39.312,71.397C720.256,328.414,735.394,295.231,733.875,255.046z"/>
	<path fill="#C78D35" d="M717.264,254.849c-1.256-33.204-12.075-59.757-24.167-59.308c-12.093,0.45-20.877,27.733-19.622,60.937
		c1.256,33.204,12.076,59.757,24.169,59.308C709.735,315.336,718.519,288.053,717.264,254.849z"/>
	<path fill="#491A22" d="M733.917,256.789c-0.015-0.581-0.021-1.158-0.042-1.743c-0.065-1.71-0.171-3.401-0.291-5.08
		c-5.875,0.26-22.611,1.088-40.24,2.799c0.685-22.012,14.724-45.947,22.263-57.278c-1.31-1.644-2.674-3.124-4.076-4.453
		c-8.432,9.851-22.202,30.664-23.021,62.22c-0.67,0.072-1.34,0.144-2.01,0.217c-1.776-28.264-9.976-42.607-16.056-49.485
		c-1.179,2.388-2.268,4.946-3.258,7.66c5.357,8.048,12.648,22.38,14.211,42.416c-7.381,0.895-14.51,1.961-20.657,3.217
		c0.007,0.163,0.007,0.324,0.013,0.487c0.068,1.805,0.182,3.585,0.312,5.354c5.314-0.983,12.373-2.163,20.634-3.242
		c0.651,21.896-3.446,41.61-6.262,52.358c1.358,2.156,2.786,4.136,4.278,5.923c3.172-8.293,8.205-26.785,7.064-58.912
		c0.571-0.068,1.146-0.134,1.725-0.2c0.013,0.523,0.009,1.033,0.028,1.562c1.831,40.592,16.57,56.537,25.346,62.477
		c1.217-1.086,2.393-2.309,3.524-3.655c-7.398-7.548-20.686-25.528-23.785-59.419c-0.058-0.496-0.085-0.999-0.126-1.498
		C705.716,257.29,719.611,256.489,733.917,256.789z"/>
	<path fill="#054044" d="M601.251,255.387c-0.059-1.813-0.734-3.482-2.271-4.887c-7.436-6.795-14.605-15.622-14.758-19.658
		c-0.153-4.036-2.213-4.296-2.213-4.296s-1.642,10.838,15.303,25.026c7.03,5.127-6.091,19.76-11.792,22.666
		c-5.701,2.906-9.122,20.883-0.131,32.672c8.634,11.321,9.354,13.628-2.229,26.45c-8.788-14.022-25.694-5.54-25.694-5.54
		c5.065,12.845,17.312,10.5,23.249,8.46c-8.256,11.561-4.947,21.035-2.103,26.452c0,0-5.021-15.305,6.493-27.184
		c11.515-11.88,11.184-20.623,2.282-30.059c-8.902-9.436-7.375-23.3-0.423-29.284c4.241-3.651,10.542-9.886,13.127-15.735
		c1.222,3.7,4.603,8.286,13.662,10.023C613.751,270.494,616.757,257.524,601.251,255.387z"/>
	<path fill="#035680" d="M569.714,263.038c0,0-6.949,15.078,13.406,20.045C583.12,283.083,591.599,263.235,569.714,263.038z"/>
	<path fill="#035680" d="M592.635,317.755c0,0,0.355,9.416,14.453,11.587C607.088,329.342,607.681,317.869,592.635,317.755z"/>
	<path fill="#035680" d="M577.157,360.429c0,0-2.487,15.584,11.067,21.478C588.224,381.908,593.112,366.572,577.157,360.429z"/>
	<path fill="#692841" d="M502.165,212.339c0,0,58.259,3.895,70.131,1.433c0,0,5.281,40.216-39.425,42.216
		C488.167,257.989,502.165,212.339,502.165,212.339z"/>
	<path fill="#A04062" d="M563.525,171.664c0,0-2.253-14.398,5.61-14.354c7.864,0.043,7.488,17.233,7.488,17.233
		s6.726-2.945,9.04,4.042c2.315,6.986-5.941,5.609-5.941,5.609s7.107,7.145,1.773,10.711c-5.335,3.566-7.574-1.402-7.574-1.402
		s1.913,14.41-3.89,14.626c-5.803,0.216-5.87-10.558-5.87-10.558s-7.608,6.682-10.594,0.058c-2.985-6.625,2.287-11.873,2.287-11.873
		s-12.04-11.003-4.353-15.666C559.188,165.427,563.525,171.664,563.525,171.664z"/>
	<path fill="#C97AAE" d="M587.18,227.701c0,0-1.224,12.843,12.973,8.61c14.197-4.233-0.875-14.112-0.875-14.112
		s11.695,1.922,10.315-7.456c-1.38-9.379-12.177-5.61-12.177-5.61s7.558-17.12-4.454-18.357
		c-12.011-1.237-9.908,18.218-9.908,18.218s-6.525-9.86-14.161-3.851c-7.635,6.009,7.348,13.534,7.348,13.534
		s-14.791,6.613-4.839,16.683C581.354,245.43,587.18,227.701,587.18,227.701z"/>
	<path fill="#D092B4" d="M534.737,233.018c0,0-5.017,11.975-12.072,6.175c-7.056-5.799,1.882-13.542,1.882-13.542
		s-9.585-0.317-6.767-7.157c2.818-6.841,8.736-4.03,8.736-4.03s-8.459-6.758-2.48-11.358c5.979-4.6,9.408,4.702,9.408,4.702
		s5.787-9.645,12.4-6.522c6.614,3.121-3.284,12.582-3.284,12.582s9.355-5.736,12.872,5.921c3.517,11.656-9.961,7.779-9.961,7.779
		s8.169,8.116-1.957,11.523C533.387,242.499,534.737,233.018,534.737,233.018z"/>
	
		<ellipse transform="matrix(0.9993 -0.0372 0.0372 0.9993 -7.8511 20.1106)" fill="#904465" cx="537.2" cy="221.309" rx="3.929" ry="4.543"/>
	
		<ellipse transform="matrix(0.9993 -0.0372 0.0372 0.9993 -7.697 22.0072)" fill="#CA8AB4" cx="588.182" cy="218.065" rx="4.44" ry="4.207"/>
	<path fill="#BE7297" d="M574.932,184.038c0.155,4.086-2.165,7.49-5.182,7.602c-3.016,0.112-5.586-3.11-5.741-7.197
		c-0.155-4.086,2.166-7.489,5.181-7.601C572.206,176.73,574.777,179.951,574.932,184.038z"/>
	<path fill="#2D7C8F" d="M872.501,482.427c0,0,7.633,25.173-15.497,33.182C857.004,515.609,851.915,490.208,872.501,482.427z"/>
	<path fill="#2D7C8F" d="M863.942,451.077c0,0,15.267-4.576,19.198,5.722c3.933,10.297-8.558,18.993-7.633,25.858
		c0.925,6.865,5.552,10.984,3.933,18.307c0,0,9.483-1.602,7.17-12.357c-2.313-10.755-5.551-13.959-5.551-13.959
		s9.483-11.899,3.007-21.053c-6.477-9.153-18.042-6.865-22.437-1.831C860.011,454.281,863.942,451.077,863.942,451.077z"/>
	<path fill="#2D7C8F" d="M813.975,411.347c-6.701,1.629,0.568,8.888-0.919,12.041c-1.243,2.635-3.17,2.715-5.671,4.47
		c6.345-6.262-0.343-11.564-0.343-11.564c-3.258,6.016-0.399,11.224-0.038,11.838c-0.646,0.488-1.327,1.094-2.044,1.892
		c-3.7,4.119-1.388,11.899-3.932,20.596c-0.14,0.472-0.249,0.919-0.349,1.355c-0.562-2.014-2.032-4.494-5.896-3.645
		c-6.246,1.373-13.416-2.975-13.416-2.975c2.022,14.005,15.534,10.344,18.901,9.202c-0.473,5.603,2.379,7.503,2.379,7.503
		l1.388-0.228c0,0-3.007-5.95-1.388-11.442c1.619-5.491,0.925-10.755,2.081-17.62c1.157-6.865,12.78-4.462,9.021-12.414
		c-2.96-5.265-1.582-7.691,1.053-8.729c4.261,1.334,20.263,4.717,23.465-18.446C838.268,393.182,831.213,408.056,813.975,411.347z"
		/>
	<path fill="#823E55" d="M792.007,458.858l76.331-5.95c0,0-9.946,31.351-35.621,33.639
		C807.042,488.835,792.007,458.858,792.007,458.858z"/>
	<path fill="#B54E76" d="M821.846,435.288c0,0-3.701-17.392,1.388-17.621c5.089-0.229,6.938,10.298,6.938,10.298
		s4.627-10.069,8.559-6.636c3.933,3.432-1.851,10.068-1.851,10.755c0,0.686,16.191,0.915,17.116,7.552
		c0.926,6.637-9.714,7.552-9.714,7.552s6.014,8.695,2.081,12.814c-3.932,4.119-12.722-9.84-12.722-9.84s-3.238,17.85-10.871,13.73
		c-7.633-4.119,1.156-16.705,1.156-16.705s-17.116,4.576-16.422-5.034C808.198,432.542,821.846,435.288,821.846,435.288z"/>
	<path fill="#B54E76" d="M851.452,380.824c0,0-13.646,6.865-6.245,12.357c7.401,5.492,12.259-6.636,12.259-6.636
		s1.388,10.297,10.409,6.865c9.021-3.432-2.314-10.526-2.314-10.526s13.416,2.517,13.648-6.178
		c0.231-8.696-13.648-4.577-13.648-4.577s9.022-11.67,3.238-14.417c-5.782-2.746-12.259,11.899-12.259,11.899
		s-4.626-13.959-11.334-8.924c-6.708,5.034,2.775,13.043,2.775,13.043s-12.49-2.517-9.946,3.662
		C840.581,383.57,851.452,380.824,851.452,380.824z"/>
	<path fill="#CE88BB" d="M861.861,430.71c0,0,2.775,12.357,13.878,8.696c11.103-3.662-2.313-14.874-2.313-14.874
		s11.102,1.831,10.871-5.721c-0.23-7.551-15.266-5.263-15.266-5.263s6.94-16.934-3.47-17.163
		c-10.408-0.229-7.864,16.019-7.864,16.019s-11.565-8.925-16.191-1.373c-4.626,7.552,13.647,11.899,13.647,11.899
		s-17.117,9.611-8.559,15.104C855.153,443.526,861.861,430.71,861.861,430.71z"/>
	<path fill="#CE88BB" d="M821.614,380.824c0,0,10.177-1.831,10.177,8.696c0,10.526-14.803,2.975-14.803,2.975
		s3.7,12.586-2.776,13.959c-6.477,1.373-7.17-10.984-7.17-10.984s-4.626,10.527-11.565,5.492
		c-6.939-5.034,3.238-13.272,3.238-13.272s-8.559-8.696-1.619-15.561c6.94-6.865,11.797,4.577,11.797,4.577
		s4.857-12.815,15.034-9.154C834.104,371.213,821.614,380.824,821.614,380.824z"/>
	<ellipse fill="#DD98C6" cx="863.364" cy="421.443" rx="5.204" ry="3.318"/>
	<ellipse fill="#DD98C6" cx="809.933" cy="384.714" rx="4.279" ry="4.119"/>
	<ellipse fill="#D17BB2" cx="858.623" cy="378.307" rx="5.088" ry="3.89"/>
	<ellipse fill="#D17BB2" cx="830.057" cy="440.55" rx="6.592" ry="6.637"/>
	<path fill="#551D23" d="M697.015,418.892l-6.118,126.092C690.896,544.984,700.601,444.871,697.015,418.892z"/>
</g>
<g id="Back_of_Shelves">
	<linearGradient id="SVGID_2_" gradientUnits="userSpaceOnUse" x1="112.4262" y1="226.0213" x2="241.1432" y2="132.8711">
		<stop  offset="0" style="stop-color:#81322C"/>
		<stop  offset="1" style="stop-color:#4F201B"/>
	</linearGradient>
	<path fill="url(#SVGID_2_)" d="M6.879,155.877c0,0-6,46.667,1.334,71.334c7.333,24.666,142.667,63.333,142.667,63.333
		l116.667,29.333c0,0,13.333-42.667,12-64s-38.667-99.333-45.333-110.666c-6.667-11.334-63.333-62.667-75.333-68.667
		s-64-12.667-86.667-11.333c-22.667,1.333-55.334,19.333-59.334,30.666C8.879,107.211,6.879,155.877,6.879,155.877z"/>
	<linearGradient id="SVGID_3_" gradientUnits="userSpaceOnUse" x1="110.543" y1="358.2934" x2="239.9135" y2="264.6702">
		<stop  offset="0" style="stop-color:#81322C"/>
		<stop  offset="1" style="stop-color:#4F201B"/>
	</linearGradient>
	<path fill="url(#SVGID_3_)" d="M281.379,343.877c0,0-62-21.5-85.5-31.5s-64.5-40.5-92.5-45s-65.5-11.5-78.5-11.5s-37,17-37,17
		s-8,26-8,29.5s1,26,5,29s53.5,23.5,59.5,25.5s60,22.5,60,22.5s56,20.5,64,21.5s89,18,89,18s15.5-0.5,19-7.5s8-27,8.5-35.5
		S281.379,343.877,281.379,343.877z"/>
	<linearGradient id="SVGID_4_" gradientUnits="userSpaceOnUse" x1="101.0466" y1="449.7274" x2="241.797" y2="347.8688">
		<stop  offset="0" style="stop-color:#81322C"/>
		<stop  offset="1" style="stop-color:#4F201B"/>
	</linearGradient>
	<path fill="url(#SVGID_4_)" d="M-17.621,352.377l71,17c0,0,80.5,16,85,17.5s62.5,20.5,69.5,23s43,6.5,51.5,9s25,5,28,18
		s-1.5,58.5-5.5,64.5s-22,11.5-33.5,11s-43.5-3.5-51-5.5s-73.5-17-76-18s-96-25.5-100-26.5s-37-14-37-14s-2-13.5-2-21
		S-17.621,352.377-17.621,352.377z"/>
	<linearGradient id="SVGID_5_" gradientUnits="userSpaceOnUse" x1="97.0787" y1="552.736" x2="228.4399" y2="457.6722">
		<stop  offset="0" style="stop-color:#81322C"/>
		<stop  offset="1" style="stop-color:#4F201B"/>
	</linearGradient>
	<path fill="url(#SVGID_5_)" d="M-8.621,555.877l81,19.5l90.5,14l69.5,13l44.5,1.5c0,0,8.5-24,4-36.5s-14-41-25.5-47
		s-81-23-88.5-25.5s-92.5-20.5-94.5-21s-65-11-74-13s-20-3.5-20-3.5s-3,23-3,29S-8.621,555.877-8.621,555.877z"/>
	<linearGradient id="SVGID_6_" gradientUnits="userSpaceOnUse" x1="83.6095" y1="622.8289" x2="209.5739" y2="531.6707">
		<stop  offset="0" style="stop-color:#81322C"/>
		<stop  offset="1" style="stop-color:#4F201B"/>
	</linearGradient>
	<path fill="url(#SVGID_6_)" d="M-12.621,560.377c0,0-9,52-5.5,64s36.5,22,41.5,23s72.5,19.5,72.5,19.5l88-2.5l43.5-13.5
		c0,0,16-35,16-37s-4.5-23-8.5-25.5s-91-2.5-118-5.5s-69-15-69-15L0,560.377H-12.621z"/>
	<linearGradient id="SVGID_7_" gradientUnits="userSpaceOnUse" x1="1096.1823" y1="152.2725" x2="1265.8086" y2="29.5169">
		<stop  offset="0" style="stop-color:#81322C"/>
		<stop  offset="1" style="stop-color:#4F201B"/>
	</linearGradient>
	<path fill="url(#SVGID_7_)" d="M1298.879,122.877c0,0-128.5,50.5-141.5,53.5s-111.5,55-133,56.5s-27.5-39.5-25-58.5
		s41-97.5,47.5-103.5s51.5-34.5,80.5-34.5s94,4,122,11.5S1298.879,122.877,1298.879,122.877z"/>
	<linearGradient id="SVGID_8_" gradientUnits="userSpaceOnUse" x1="1471.8633" y1="47.9812" x2="1608.5537" y2="-50.9392">
		<stop  offset="0" style="stop-color:#81322C"/>
		<stop  offset="1" style="stop-color:#4F201B"/>
	</linearGradient>
	<path fill="url(#SVGID_8_)" d="M1617.879,25.877c0,0-112.5,75-138,81.5s-63.5,1-74.5-4s-23-17.5-18.5-36s17-47.5,26-55
		s21.5-25,35-28s66.5-3.5,70-4.5s95.5-1,95.5-1L1617.879,25.877z"/>
	<linearGradient id="SVGID_9_" gradientUnits="userSpaceOnUse" x1="1463.079" y1="170.2266" x2="1644.9537" y2="38.607">
		<stop  offset="0" style="stop-color:#81322C"/>
		<stop  offset="1" style="stop-color:#4F201B"/>
	</linearGradient>
	<path fill="url(#SVGID_9_)" d="M1618.879,33.377c0,0-44,17-65.5,32.5s-45,31.5-74.5,34.5s-82,0-89.5,21s-12,137-12,137
		s59.5,6,65,2.5s66-28.5,66-28.5s55-36.5,62.5-41s43.5-25,43.5-25l10-8.5L1618.879,33.377z"/>
	<linearGradient id="SVGID_10_" gradientUnits="userSpaceOnUse" x1="1495.7808" y1="295.6584" x2="1638.8335" y2="192.1337">
		<stop  offset="0" style="stop-color:#81322C"/>
		<stop  offset="1" style="stop-color:#4F201B"/>
	</linearGradient>
	<path fill="url(#SVGID_10_)" d="M1613.879,181.877c0,0-28.5,4.5-45,19.5s-34.5,20.5-66,28.5s-89.5,38.5-98,40s-6.5,44-3.5,56.5
		s36,24.5,46,22s94.5-25.5,103-28.5s64.5-18.5,64.5-18.5L1613.879,181.877z"/>
	<linearGradient id="SVGID_11_" gradientUnits="userSpaceOnUse" x1="1130.0972" y1="247.9824" x2="1300.2113" y2="124.8738">
		<stop  offset="0" style="stop-color:#81322C"/>
		<stop  offset="1" style="stop-color:#4F201B"/>
	</linearGradient>
	<path fill="url(#SVGID_11_)" d="M1229.879,153.877c0,0,59-18,69-2s-17,69.5-21,73s-77,24.5-81,26.5s-83.5,25-83.5,25l-87,21.5
		c0,0-8.5-44.5-7.5-51s29.5-20,29.5-20s101-48.5,119.5-51S1229.879,153.877,1229.879,153.877z"/>
	<linearGradient id="SVGID_12_" gradientUnits="userSpaceOnUse" x1="1202.1431" y1="305.1349" x2="1330.1816" y2="212.4757">
		<stop  offset="0" style="stop-color:#81322C"/>
		<stop  offset="1" style="stop-color:#4F201B"/>
	</linearGradient>
	<path fill="url(#SVGID_12_)" d="M1322.379,223.377c0,0-88.5,20.5-96.5,20.5s-89.5,18-101,31.5s-15.5,47-15.5,47s19,23,24,23
		s42,1.5,51,0s124-31,124-31s17-22,17-33S1322.379,223.377,1322.379,223.377z"/>
	<linearGradient id="SVGID_13_" gradientUnits="userSpaceOnUse" x1="1196.4407" y1="414.8797" x2="1350.9087" y2="303.0939">
		<stop  offset="0" style="stop-color:#81322C"/>
		<stop  offset="1" style="stop-color:#4F201B"/>
	</linearGradient>
	<path fill="url(#SVGID_13_)" d="M1332.879,314.877c0,0-67.5,11-70.5,11.5s-104.5,18.5-108.5,22s-62,24.5-64,33.5s-1,63,2.5,64.5
		s63.5,4.5,69,4.5s95-15.5,103.5-19.5s86-16.5,86-16.5s12-15,10-34.5s-7-50-13-55S1332.879,314.877,1332.879,314.877z"/>
	<linearGradient id="SVGID_14_" gradientUnits="userSpaceOnUse" x1="1213.7751" y1="523.8979" x2="1366.5312" y2="413.351">
		<stop  offset="0" style="stop-color:#81322C"/>
		<stop  offset="1" style="stop-color:#4F201B"/>
	</linearGradient>
	<path fill="url(#SVGID_14_)" d="M1129.879,468.877l99.5-29.5c0,0,91.5-18.5,93.5-18.5s52.5,27,53,31.5s1.5,65.5-9.5,76.5
		s-79,40.5-79,40.5l-77.5,20l-75-1c0,0-24-33-22.5-53S1129.879,468.877,1129.879,468.877z"/>
	<linearGradient id="SVGID_15_" gradientUnits="userSpaceOnUse" x1="1549.3353" y1="565.1551" x2="1649.3519" y2="492.7748">
		<stop  offset="0" style="stop-color:#81322C"/>
		<stop  offset="1" style="stop-color:#4F201B"/>
	</linearGradient>
	<path fill="url(#SVGID_15_)" d="M1627.379,591.377c0,0-74-14-92-17s-78-12.5-77-22.5s59-41,69-43s104-24,104-24L1627.379,591.377z"
		/>
	<linearGradient id="SVGID_16_" gradientUnits="userSpaceOnUse" x1="1531.8635" y1="424.7459" x2="1654.8297" y2="335.7575">
		<stop  offset="0" style="stop-color:#81322C"/>
		<stop  offset="1" style="stop-color:#4F201B"/>
	</linearGradient>
	<path fill="url(#SVGID_16_)" d="M1617.879,483.377l-3-182c0,0-39,10-42,11s-55,20-58.5,21s-61.5,30.5-67,32s-13,17-13,36.5
		s20.5,53,24.5,61.5s46,32,46,32s27.5,6,34.5,6s35.5-4.5,37-5S1617.879,483.377,1617.879,483.377z"/>
	<linearGradient id="SVGID_17_" gradientUnits="userSpaceOnUse" x1="345.4651" y1="128.1846" x2="449.3975" y2="52.9705">
		<stop  offset="0" style="stop-color:#81322C"/>
		<stop  offset="1" style="stop-color:#4F201B"/>
	</linearGradient>
	<path fill="url(#SVGID_17_)" d="M465.379,94.377c-7-14.5-38.5-53-54.5-56.5s-70-13-95.5-1s-39,26-40.5,40s-15.5,65,5,76
		s44,17,86.5,21.5s80-1.5,90-10.5s24-22,26-35S465.379,94.377,465.379,94.377z"/>
</g>
<g id="Books">
	<path fill="#915B7E" d="M138.833,623.932c0,0,0.341-0.19,0.951-0.495c3.609-1.806,16.627-7.629,23.987-1.816
		c0,0,17.421,35.214,17.857,37.128c0.435,1.913-30.913,2.208-30.913,2.208L138.833,623.932z"/>
	<path fill="#E17F7F" d="M175.141,658.209l-20.606-51.64c0,0,9.767-8.168,24.429-3.944l16.9,56.04l-18.511-0.464L175.141,658.209z"
		/>
	<path fill="#485971" d="M119.68,617.608c0,0,6.225-7.918,18.23-3.208l19.739,46.615l-22.862-0.729L119.68,617.608z"/>
	<polyline fill="#130502" points="105.241,616.803 69.719,625.745 85.272,662.706 144.287,675.428 105.241,616.803 	"/>
	<path fill="#883126" d="M116.763,609.636l34.243,64.004l-22.594-7.073l-26.69-49.168
		C101.721,617.399,100.607,604.712,116.763,609.636z"/>
	<path fill="#87447A" d="M27.667,605.264c0,0,0.063,12.316-5.121,15.541l78.983,20.628c0,0,7.36-11.354,2.56-20.325L27.667,605.264z
		"/>
	<path fill="#75672F" d="M15.697,615.898c0,0,3.904,12.319-1.408,19.609c0,0,74.119,24.452,78.599,25.651
		c0,0,7.745-12.788,4.993-22.238L15.697,615.898z"/>
	<path fill="#190503" d="M202.72,549.579l8.567-24.697l7.879,16.785l15.284,4.706c0,0,24.546,34.496,25.734,43.871
		c1.188,9.376,2.786,30.808-0.723,31.876c-3.51,1.069-23.501,0.449-37.399-6.047c-13.898-6.499-31.136-15.5-31.136-15.5
		L202.72,549.579z"/>
	<path fill="#4C222D" d="M172.587,530.5l7.922-2.806l16.811,11.094l-9.938,53.091l-24.302-0.76c0,0-8.004-0.116-8.696-4.771
		c-0.692-4.657,1.233-18.558,2.317-24.582c1.085-6.023,5.155-28.336,6.868-30.444C165.282,529.214,172.587,530.5,172.587,530.5z"/>
	<path fill="#E79BA4" d="M170.56,565.862c0,0,2.566,1.48,0.898,5.597c-1.668,4.114-2.365,15.653-0.875,17.336
		c1.49,1.682-49.627-8.59-49.627-8.59s-5.961-13.638,2.237-24.044C131.393,545.751,170.56,565.862,170.56,565.862z"/>
	<path fill="#87447A" d="M115.513,553.908c1.595-5.946,7.858-10.46,14.965-9.023c7.108,1.437,42.949,4.303,42.949,4.303
		s-1.92,8.082-1.828,12.101c0.091,4.017,2.155,6.512-1.254,5.997c-3.411-0.516-15.31-4.861-22.92-5.283
		c-7.609-0.421-16.53-1.404-23.009-2.384C117.936,558.64,113.917,559.855,115.513,553.908"/>
	<path fill="#D8454A" d="M180.51,527.694c0,0-6.066,14.188-3.08,25.011c-4.142-1.442-5.348-1.534-12.457-2.973
		c-7.107-1.438-24.874-1.573-30.564-3.162c-5.69-1.587-7.665-0.064-7.306-4.742c0.357-4.68,0.984-11.135,1.575-15.048
		c0.591-3.914,5.455-6.092,11.252-5.216C145.728,522.44,179.917,524.694,180.51,527.694z"/>
	<path fill="#41827E" d="M216.941,593.614c0,0,14.852-35.972,16.339-41.206c1.488-5.234,3.801-13.621,0.894-15.15
		c-2.907-1.531-14.861-5.52-14.861-5.52s-10.146,48.693-14.704,53.461c0,0,3.047-15.553,4.983-21.446
		c1.938-5.896,6.329-30.344,5.322-35.229c-1.006-4.884-6.388-3.876-12.223-2.21c-5.832,1.666-11.845,2.217-11.845,2.217
		l-8.491,63.136C182.356,591.665,211.63,596.451,216.941,593.614z"/>
	<path fill="#7D71B1" d="M-4.419,559.192l34.752-32.534c0,0,2.402-13.98-5.245-15.135l-42.145,37.363L-4.419,559.192z"/>
	<path fill="#CE7371" d="M118.3,582.394l-23.037-3.48l-14.082-57.636c0,0,12.913-8.776,20.91-2.904L118.3,582.394"/>
	<path fill="#8B3326" d="M83.419,578.058c-1.44-5.815-21.708-53.19-21.708-53.19s4.813-11.401,20.467-7.639l17.823,61
		L83.419,578.058z"/>
	<path fill="#9C4051" d="M51.726,518.196l2.063-5.985c0,0,4.895-5.558,10.195,1.539l-12.85,58.23l-10.454-3.677L51.726,518.196z"/>
	<path fill="#75672F" d="M23.729,565.743l7.031-54.213c0,0,4.486-10.516,21.939,0.516l-10.894,52.93L23.729,565.743"/>
	<path fill="#7D71B1" d="M1120.521,272.068c0,0-6.414-12.728-5.669-15.211l-39.873,14.689c0,0-2.62,5.423,3.634,13.404
		C1084.867,292.933,1120.521,272.068,1120.521,272.068z"/>
	<path fill="#7D71B1" d="M1276.248,216.135l-41.241-18.861c0,0-4.929-11.464,2.675-14.515l49.646,21.062L1276.248,216.135z"/>
	<path fill="#0E252B" d="M1141.932,267.848c-1.435-2.485-33.142-34.789-33.142-34.789s-9.02-0.753-9.895,12.276l34.634,29.818
		L1141.932,267.848z"/>
	<path fill="#CF8B95" d="M1157.244,260.39l-19.032-45.257c0,0-8.356-6.704-20.728,7.005l21.438,44.732L1157.244,260.39z"/>
	<path fill="#2E6B73" d="M1179.967,201.873c0,0-14.738-4.14-21.864,3.088l-5.207,59.797l22.9-9.19L1179.967,201.873z"/>
	<path fill="#8B3326" d="M1187.738,251.652c0.439-5.422,12.74-51.89,12.74-51.89s-6.933-8.585-22.247-1.127l-7.393,57.613
		L1187.738,251.652z"/>
	<path fill="#9C4051" d="M1209.52,192.419l-3.165-4.63c0,0-5.983-3.502-10.138,4.067l23.434,46.99l10.02-5.988L1209.52,192.419z"/>
	<path fill="#75672F" d="M1247.252,231.049l-16.777-45.071c0,0-6.443-7.908-22.307,6.327l20.493,42.925L1247.252,231.049z"/>
	<polygon fill="#130502" points="1580.075,539.75 1553.233,549.771 1569.019,576.497 1616.33,580.841 	"/>
	<path fill="#883126" d="M1603.067,575.532l-25.682-35.012c0,0,2.501-7.31,10.975-7.27l33.038,45.621L1603.067,575.532z"/>
	<path fill="#87447A" d="M1518.395,537.986c0,0,1.265,9.37-2.463,12.294l63.677,8.554c0,0,4.624-9.309-0.008-15.703
		L1518.395,537.986z"/>
	<path fill="#485971" d="M1237.11,108.538c0,0-2.782-7.655-13.336-2.812l-26.567,49.467l14.499,6.474
		C1211.706,161.668,1237.411,115.419,1237.11,108.538"/>
	<path fill="#2C364A" d="M1231.898,151.308l23.031-46.116c0,0-1.937-9.134-12.457-7.773l-29.905,61.028L1231.898,151.308z"/>
	<path fill="#431F23" d="M1103.343,131.272l-4.664-3.788l-34.966,22.609l40.707,49.956c0,0,28.514-12.994,29.533-13.644
		c1.021-0.648,5.258-9.794,3.761-16.854C1136.215,162.49,1103.343,131.272,1103.343,131.272z"/>
	<path fill="#7B3D6F" d="M1098.679,127.484c0,0-2.124,10.001,4.633,16.38l52.458-11.127c0,0-7.27-10.611-1.045-15.839
		L1098.679,127.484z"/>
	<path fill="#153F4A" d="M1090.608,142.217c0,0-1.281,8.518,4.737,15.053l40.392-2.492l34.903-6.533c0,0-12.004-16.549-9.119-19.332
		L1090.608,142.217z"/>
	<path fill="#97481C" d="M1115.912,155.947c0,0-0.015,10.852,3.436,16.197c3.449,5.345,65.949-14.855,65.949-14.855
		s-8.289-9.96-6.126-14.325L1115.912,155.947z"/>
	<path fill="#48130D" d="M1114,172.412c0,0,0.32,14.253,6.637,18.553c6.317,4.305,75.695-21.696,75.695-21.696
		s-8.801-14.191-8.22-16.918L1114,172.412z"/>
	<path fill="#75672F" d="M1040.146,175.489c0,0-0.518-22.458,17.691-18.509c18.21,3.95,51.191,42.958,51.191,42.958l-22.955,10.077
		L1040.146,175.489z"/>
	<path fill="#8B3326" d="M1096.977,197.722l-55.026-46.485c0,0-3.42-17.938,10.603-19.175l68.807,60.488L1096.977,197.722z"/>
	<path fill="#D58A97" d="M1022.258,185.793c0,0,1.488-20.278,13.715-17.231l53.652,36.358l-24.483,15.609L1022.258,185.793z"/>
	<path fill="#75672F" d="M1510.103,547.164c0,0,4.262,9.023,0.836,15.055c0,0,60.258,11.904,63.872,12.412
		c0,0,4.782-10.435,1.702-17.38L1510.103,547.164z"/>
	<polygon fill="#1C0600" points="1495.181,147.224 1501.796,140.374 1533.526,162.03 1528.476,202.983 1500.493,216.219 	"/>
	<polygon fill="#0D262A" points="1460.893,199.502 1471.062,186.645 1489.194,199.018 1491.175,222.336 1455.021,242.59 	"/>
	<polygon fill="#4B1C25" points="1560.349,123.342 1566.196,119.132 1534.053,196.245 1534.419,131.243 1537.263,128.38 
		1544.686,138.835 	"/>
	<path fill="#444C26" d="M1453.771,186.968c0,0,9.373-5.61,17.292-0.323l-7.599,51.457l-17.816,10.099L1453.771,186.968z"/>
	<path fill="#9C4051" d="M1523.696,202.474c-0.683-1.462-1.325-70.959-1.325-70.959s0.634-8.765,14.892-3.135l2.674,49.33
		l3.723-58.202c0,0,15.494-7.29,22.537-0.375l-6.511,61.57L1523.696,202.474z"/>
	<path fill="#8E2D23" d="M1502.299,213.468l-0.503-73.094c0,0-8.74-3.153-18.416,4.537l1.511,77.588l0.988,7.878L1502.299,213.468z"
		/>
	<path fill="#2C364A" d="M1439.767,213.026c0,0-5.757-9.612-16.333-5.406l-29.374,58.911l18.379,9.79
		C1412.438,276.321,1435.325,240.102,1439.767,213.026z"/>
	<path fill="#485971" d="M1447.615,246.966l9.082-66.962c0,0-8.493-5.737-17.377,4.425l-9.571,62.411l-1.703,8.705L1447.615,246.966
		z"/>
	<path fill="#75672F" d="M42.463,344.011l10.152-39.207c0,0-8.97-8.941-16.624-3.957l-10.862,40.049L42.463,344.011z"/>
	<path fill="#D08A98" d="M61.864,357.528c0.487-1.455,15.754-50.813,15.754-50.813s-5.63-9.978-19.491-8.151l-13.182,49.516
		L61.864,357.528z"/>
	<path fill="#7E3D71" d="M1542.215,49.195c0,0,10.523,7.888,7.687,15.281c-2.839,7.394,60.214-37.642,60.214-37.642
		s1.026-13.808-10.6-13.567C1587.891,13.508,1542.215,49.195,1542.215,49.195"/>
	<path fill="#77662B" d="M1535.588,78.893l-19.037-3.789l14.323-43.953c0,0,9.453-9.455,21.394-0.654L1535.588,78.893z"/>
	<path fill="#61333F" d="M1458.582,59.405l-21.066-10.136l-29.968,12.389l4.861,34.032c0,0,12.985,10.086,16.004,10.044
		c3.018-0.047,0.096,0.5,10.125,0.187c10.031-0.313,44.227-3.586,44.918-5.28c0.692-1.695,5.755-1.601-1.068-16.488
		C1475.562,69.261,1458.582,59.405,1458.582,59.405z"/>
	<path fill="#7A3D69" d="M1441.523,62.599c0,0,2.767-6.776-4.008-13.331c0,0,61.582-7.882,63.044-8.156
		c1.462-0.273,7.355,6.967,5.864,12.463C1504.931,59.068,1441.523,62.599,1441.523,62.599z"/>
	<path fill="#C75876" d="M1442.122,76.567c0,0,1.306-6.502-6.241-14.476l73.201-13.188c0,0,4.434,7.515,3.411,15.53L1442.122,76.567
		"/>
	<path fill="#CE7371" d="M1438.13,76.793c0,0,10.281,22.585,5.094,27.207c-5.188,4.624,83.436-15.099,83.436-15.099
		s-0.064-21.896-10.346-28.312L1438.13,76.793z"/>
	<path fill="#417474" d="M78.602,373.252l-5.197-15.091l39.776-46.94c0,0,12.866-0.136,14.163,16.075l-44.741,49.32L78.602,373.252z
		"/>
	<path fill="#471E27" d="M105.986,385.265l20.527-70.789c0,0,13.986-8.256,22.164,12.286l-21.624,63.544L105.986,385.265z"/>
	<path fill="#CF7274" d="M175.446,327.733c0,0-9.841-14.626-27.041-8.256l-22.378,70.573l22.753,4.795L175.446,327.733z"/>
	<path fill="#1D4653" d="M161.464,401.435l34.191-66.611c0,0-3.778-9.761-20.181-9.596l-33.881,72.379L161.464,401.435z"/>
	<path fill="#8D3025" d="M204.331,409.336l23.141-64.249c0,0-4.477-9.592-18.652-7.467l-23.585,66.527L204.331,409.336z"/>
	<path fill="#3F7576" d="M231.072,414.66l21.003-54.044c0,0-6.118-19.04-21.023-14.732l-24.528,67.424L231.072,414.66z"/>
	<path fill="#431F23" d="M1250.529,259.978l-5.226-6.959l-30.797,19.936l-5.928,29.264l12.914,22.869l16.65-2.037l6.887-0.65
		c0,0,0.454,1.114,4.576-5.331c4.124-6.447,14.256-24.441,13.687-30.702C1262.723,280.107,1250.529,259.978,1250.529,259.978z"/>
	<path fill="#2E6B73" d="M1038.409,330.15c0,0-22.023,2.5-27.127,16.274c-5.102,13.773,28.484,54.178,28.484,54.178l45.554-16.875
		L1038.409,330.15z"/>
	<path fill="#8D2F22" d="M1058.463,322.828c0,0,14.108-17.021,31.369-9.782c17.26,7.239,26.852,49.215,26.852,49.215l-26.179,17.621
		L1058.463,322.828z"/>
	<path fill="#9C4051" d="M1079.643,383.448l-49.373-58.632c0,0,1.47-14.887,20.921-15.903l44.646,63.595L1079.643,383.448z"/>
	<path fill="#75672F" d="M1110.592,363.883l-25.721-56.17c0,0,10.402-12.475,24.672-5.745l23.827,57.374L1110.592,363.883z"/>
	<path fill="#444C26" d="M1149.524,345.386l-45.772-44.949c0,0-2.388-10.715,12.746-16.464l26.159,22.222l39.523,34.515
		L1149.524,345.386z"/>
	<path fill="#7B3D6F" d="M1171.416,298.78l-3.857,8.069l32.52,30.013l38.065-13.811c0,0-41.869-30.528-43.875-30.574
		C1192.264,292.43,1171.416,298.78,1171.416,298.78"/>
	<path fill="#441D26" d="M1173.589,338.156l-37.138-35.487c0,0,1.655-15.398,17.021-18.641l43.463,48.057l-22.929,8.065
		L1173.589,338.156z"/>
	<path fill="#48130D" d="M1246.163,315.444l-67.187-33.174c0,0-10.747,4.82-8.734,16.555l59.652,25.429
		C1229.895,324.255,1239.96,323.606,1246.163,315.444z"/>
	<path fill="#C46B67" d="M1294.264,321.346l11.028-50.832c0,0-3.978-8.767-18.962-2.647l-15.832,53.66L1294.264,321.346z"/>
	<path fill="#8D2F22" d="M1264.188,257.428c0,0,17.14-5.701,26.68,2.092l-13.935,64.14c0,0-22.479,1.387-23.273,0.413
		C1252.863,323.099,1264.188,257.428,1264.188,257.428z"/>
	<path fill="#CF8B95" d="M1260.433,322.174l7.613-68.919c0,0-7.988-8.858-22.742-0.236l-3.413,72.396L1260.433,322.174z"/>
	<path fill="#193D4A" d="M366.587,138.468L332.018,89.59c0,0,11.668-9.088,24.04-4.573l33.546,54.866L366.587,138.468z"/>
	<path fill="#417474" d="M312.978,123.727l26.829-34.302c0,0,0.874-10.529-10.274-13.01l-33.771,35.194
		C295.762,111.609,294.373,122.184,312.978,123.727z"/>
	<path fill="#8F3025" d="M394.979,141.811c-0.167-1.86-27.698-65.039-27.698-65.039s14.273-9.054,29.673-2.668
		c0,0,22.538,65.502,23.526,67.825C421.47,144.253,394.979,141.811,394.979,141.811z"/>
	<path fill="#D07273" d="M415.579,142.37l-7.814-57.983c0,0,9.369-8.613,24.75,0.455l2.627,55.234L415.579,142.37z"/>
	<path fill="#230504" d="M1156.925,408.991c0,0-2.062-5.916,2.052-7.448c4.114-1.532,20.649-7.39,23.437-7.631
		c2.786-0.244,11.65-0.232,16.122,2.287c4.474,2.518,8.798,3.595,14.745,6.264c5.947,2.669,11.434,6.665,11.844,8.027
		c0.409,1.362-0.689,4.365-5.147,5.704c-4.458,1.339-7.049,5.087-20.453,6.142c-13.404,1.056-34.263-3.671-36.146-5.184
		c-1.884-1.514-5.864-7.15-5.864-7.15"/>
	<polygon fill="#441A1E" points="1168.618,387.956 1173.093,380.968 1221.821,391.879 1227.927,409.352 1213.229,409.904 
		1175.674,400.984 	"/>
	<path fill="#833547" d="M1173.093,380.968c0,0,8.237,15.05,5.793,20.24l-17.306,5.197l-29.744,5.665c0,0,1.218-9.276-4.252-18.92
		L1173.093,380.968z"/>
	<path fill="#541D12" d="M1160.876,444.042c0,0,3.013,6.223,4.226,6.453c1.213,0.23,40.265-5.854,41.05-6.09
		c0.788-0.236,11.835-10.088,10.935-13.085c-0.899-2.997-4.651-6.92-7.468-9.638c-2.817-2.719-23.379-9.316-25.378-9.309
		c-2,0.006-10.636,1.708-18.305,2.823c-7.669,1.115-15.306,0.438-15.158,1.879c0.148,1.441,2.977,12.769,3.959,16.039
		C1155.718,436.382,1160.876,444.042,1160.876,444.042z"/>
	<polyline fill="#4B1B1F" points="1158.222,404.74 1202.74,413.054 1208.912,426.943 1156.771,426.561 1148.597,422.185 
		1158.222,404.74 	"/>
	<path fill="#9B5410" d="M1155.066,424.697l7.882,1.494c0,0,9.627,19.683-2.975,24.359c-12.603,4.675-71.053,2.327-71.053,2.327
		s6.526-9.682,1.074-20.223c0,0,17.125-4.846,20.879-5.676C1114.625,426.149,1155.066,424.697,1155.066,424.697z"/>
	<path fill="#8E4D55" d="M1105.913,413.32c0,0,5.207,9.724,1.288,14.762l49.569-1.52c0,0,10.214-11.681,1.451-21.821
		L1105.913,413.32z"/>
	<path fill="#1F1830" d="M1202.685,430.001l-10.997,2.412c0,0-1.348,6.938,3.518,11.715c4.864,4.777,55.536-9.252,55.536-9.252
		l-8.038-16.298l-3.473-4.897L1202.685,430.001"/>
	<path fill="#303B74" d="M1222.047,403.098l-26.435,10.018c0,0,1.601,11.995,7.072,16.885l36.332-9.426L1222.047,403.098z"/>
	<path fill="#4C1B25" d="M1228.247,387.573c0,0,0.184-9.857,15.262-12.008l49.45,46.633l-23.059,6.033L1228.247,387.573z"/>
	<path fill="#9C5D6B" d="M1247.187,434.458c-1.424-2.839-34.463-34.798-34.463-34.798s0.089-13.987,15.755-15.127l44.963,40.259
		L1247.187,434.458z"/>
	<path fill="#61190A" d="M1243.234,362.28l0.608-4.639l23.484-5.566c0,0,60.001,54.158,60.328,55.248s-32.271,15.335-32.271,15.335
		L1243.234,362.28z"/>
	<path fill="#8C2E22" d="M1285.21,418.287l-54.562-47.474c0,0,3.02-12.788,13.195-13.171l57.836,58.373L1285.21,418.287z"/>
	<path fill="#130600" d="M208.665,451.799l-5.633-1.883l-10.288,5.11l-70.594-13.301l-33.272-34.093l-27.421,3.761l3.143-8.469
		c0,0-7.786,12.309-19.851,9.572c-12.065-2.734-35.072,18.466-35.072,18.466l-10.371-47.022l-37.433,30.642l4.764,38.828
		c0,0-11.629-3.44,9.605,3.047c5.058,1.548,26.188,7.243,39.946,10.513c18.06,4.294,2.601,0.504,36.127,7.009
		c33.526,6.503,85.813,13.233,98.767,15.479c12.953,2.248,21.888,10.297,21.888,10.297s46.599,10.227,47.755,10.45
		c1.156,0.225,18.276,4.729,18.571,3.208c0.295-1.523-5.729-32.305-5.729-32.305L208.665,451.799z"/>
	<path fill="#431E26" d="M161.456,449.353c-0.208-2.015-5.337-21.962-5.337-21.962l-18.072-1.139l-16.671-8.366l-12.582-0.072
		c0,0-13.533,57.39-13.687,59.729c-0.153,2.339,53.505,19.461,53.505,19.461L161.456,449.353z"/>
	<path fill="#19404C" d="M248.918,457.632c0,0,7.577-14.323,16.524-9.43c0,0,12.475,45.458,13.12,46.769
		c0.646,1.309-20.127,6.36-20.127,6.36L248.918,457.632z"/>
	<path fill="#773C68" d="M223.257,455.419c0,0,8.389-18.51,21.887-12.339l17.712,55.555l-20.989,4.614L223.257,455.419z"/>
	<path fill="#8D3025" d="M227.915,502.517l-24.883-52.601c0,0,5.326-11.996,15.362-8.076l27.023,60.125L227.915,502.517z"/>
	<path fill="#471E27" d="M172.116,496.431l18.564,4.785l10.845-54.356c-3.301-6.168-14.444-4.382-14.444-4.382"/>
	<path fill="#D08A98" d="M159.614,494.402l13.188-61.8c0,0,11.432-1.732,16.246,5.916l-13.41,62.941L159.614,494.402z"/>
	<path fill="#7C3C6F" d="M109.393,485.842l11.983-67.956c0,0,9.212-7.295,22.617,3.992l-14.813,70.171
		c0,0,15.177,2.154,15.399,1.014c0.222-1.143,11.539-65.672,11.539-65.672s14.827-0.678,17.846,3.857l-11.977,66.375
		L109.393,485.842z"/>
	<path fill="#8D3025" d="M-9.038,464.05l8.344-80.109c0,0,13.622-6.835,21.676,4.204L9.527,468.837l49.859,8.882L44.46,412.441
		c0,0,12.268-12.23,20.14-9.516l9.021,77.161l2.534-0.692l12.723-71.761c0,0,18.583,0.053,21.885,6.22l-13.805,71.155L-9.038,464.05
		z"/>
	<path fill="#BB747E" d="M1607.433,421.501c0,0,0.917-17.496,18.778-14.586l44.894,46.329l-14.044,19.071L1607.433,421.501z"/>
	<path fill="#2A2766" d="M1536.806,404.052l8.221,40.317c0,0-17.437,3.031-19.15,3.684c-1.712,0.649-9.86-28.713-9.86-28.713
		L1536.806,404.052"/>
	<path fill="#142829" d="M1540.098,393.22l-6.862-2.7l-22.392,11.32l4.477,25.757l25.999-9.825l1.632,21.653l-7.335-1.911
		l-21.096,8.265l20.723,56.189c0,0,35.175-4.341,35.408-6.506C1570.886,493.3,1540.098,393.22,1540.098,393.22z"/>
	<path fill="#30295F" d="M1507.859,421.464c-0.475-0.98-16.047-15.255-16.047-15.255l-2.813,15.348l-23.811,11.92l-25.803,23.233
		c0,0,34.438,52.746,35.441,53.279c1.007,0.533,32.401-1.031,35.356-1.545s18.915-3.286,18.915-3.286L1507.859,421.464z"/>
	<path fill="#193C40" d="M1542.679,455.392c0,0,12.815,26.43,9.348,39.771l37.853-4.285l25.152-11.614
		c0,0,3.398-20.757-7.032-35.221L1542.679,455.392z"/>
	<path fill="#3A786A" d="M1612.348,427.014c0,0,2.918,13.29,1.037,19.986l-71.232,10.607c0,0-2.748-17.565-6.536-20.092
		C1535.616,437.515,1610.986,426.188,1612.348,427.014z"/>
	<path fill="#73662E" d="M1585.297,408.895c0,0,7.002,14.88,3.877,21.438l-50.543,7.012c0,0,0.175-18.682-2.867-19.138
		L1585.297,408.895z"/>
	<path fill="#3D7572" d="M1533.235,390.52c0,0,5.175,19.27,4.597,28.212l62.6-11.23c0,0,1.036-18.576-5.775-26.236L1533.235,390.52z
		"/>
	<path fill="#7D71B1" d="M1497.769,508.833l-32.58-75.357c0,0,5.173-19.295,25.282-15.714c0,0,17.494,70.9,25.438,83.319l3.194,0.86
		l-27.29-95.734c0,0,10.558-16.34,26.841-1.481l19.366,93.929C1538.02,498.657,1497.944,508.095,1497.769,508.833z"/>
	<path fill="#1B2830" d="M1254.234,482.651l-2.719-0.088l-11.502,14.997l-0.336,50.603c0,0,67.816,1.094,68.726,1.125
		c0.905,0.029,7.556-17.374,7.398-18.501c-0.16-1.127-15.485-37.428-17.104-39.949c-1.62-2.522-23.797-9.42-23.797-9.42
		L1254.234,482.651z"/>
	<path fill="#183E49" d="M1285.893,505.567c0,0,12.817,19.834,12.66,33.408l50.386-22.032c0,0-4.383-18.885-13.537-27.489
		l-10.4,3.027L1285.893,505.567z"/>
	<path fill="#3F7576" d="M1260.084,493.39c0,0,8.886,13.086,7.123,19.76l64.908-20.773c0,0-4.223-17.757-9.531-22.757l-13.588,4.719
		L1260.084,493.39z"/>
	<path fill="#C18B97" d="M1251.516,482.563c0,0,7.522,10.458,6.348,14.909l58.992-24.336c0,0-1.454-10.935-8.894-18.246
		L1251.516,482.563z"/>
	<path fill="#7A3D69" d="M1234.424,540.361l-5.312-58.645c0,0,3.312-11.675,18.148,1.382l3.499,58.582L1234.424,540.361"/>
	<polyline fill="#431D28" points="1205.07,477.565 1195.877,496.792 1179.34,492.773 1167.431,511.913 1146.867,517.075 
		1139.762,546.584 1169.199,573.581 1226.975,552.126 1211.836,483.958 1205.07,477.565 	"/>
	<polygon fill="#160402" points="1077.31,538.147 1071.13,529.528 1053.837,545.685 1063.629,583.039 	"/>
	<path fill="#CE7371" d="M1195.42,557.379l-48.553-40.305c0,0,0.703-17.37,16.857-17.966l42.098,45.705l4.39,9.348l-13.982,4.48
		L1195.42,557.379z"/>
	<path fill="#CE7371" d="M1222.511,544.797l-17.44-67.232c0,0,6.921-7.18,18.817,2.299l10.8,65.555L1222.511,544.797z"/>
	<path fill="#C75876" d="M1203.92,551.147l-24.58-58.374c0,0,0.925-13.886,19.047-3.754l22.566,55.614L1203.92,551.147z"/>
	<path fill="#B02D48" d="M1154.601,574.338l-48.383-34.014c0,0-6.583-14.019,6.493-18.529l64.16,43.508L1154.601,574.338z"/>
	<path fill="#C35970" d="M1101.571,594.266l-22.513-73.12c0,0,6.585-10.223,19.045-3.755l22.44,75.139L1101.571,594.266z"/>
	<path fill="#8B2F20" d="M1083.008,591.867l0.224-59.7c0,0-4.007-4.732-12.101-2.639l-5.388,45.498L1083.008,591.867z"/>
	<path fill="#D07273" d="M1595.518,296.255l-18.557-57.339c0,0,8.273-7.948,19.18-1.089l15.405,51.659L1595.518,296.255z"/>
	<path fill="#7E3D71" d="M1585.977,304.248l5.591-14.157l-38.19-43.038c0,0-12.779,0.102-14.523,15.232l43.055,45.168
		L1585.977,304.248z"/>
	<path fill="#D28995" d="M1558.433,315.928l-18.393-65.603c0,0-13.661-7.445-22.366,11.843l19.689,58.832L1558.433,315.928z"/>
	<path fill="#CF7274" d="M1492.914,267.707c0,0,10.188-13.804,27.096-8.175l20.238,65.368l-22.738,4.874L1492.914,267.707z"/>
	<path fill="#8D2F23" d="M1502.864,331.983l-32.089-61.468c0,0,4.03-9.164,20.32-9.302l31.616,66.85L1502.864,331.983z"/>
	<path fill="#77662B" d="M1460.056,340.106l-21.177-59.462c0,0,4.718-9.017,18.738-7.289l21.554,61.577L1460.056,340.106z"/>
	<path fill="#434E23" d="M1433.339,345.542l-19.341-49.99c0,0,6.614-17.852,21.301-14.103l22.465,62.396L1433.339,345.542z"/>
	<path fill="#9C4051" d="M215.331,226.985c0,0-6.232,2.952-4.727,10.583l48.035,37.995c0,0,5.366-3.597,6.492-10.781
		L215.331,226.985z"/>
	<path fill="#75672F" d="M219.589,233.215c0,0,3.364-17.413,9.262-16.322c0,0,43.672,36.257,44.626,36.556
		c0.954,0.298-4.371,15.967-6.367,15.719C265.115,268.921,219.589,233.215,219.589,233.215z"/>
	<path fill="#7B3D6F" d="M208.083,248.348c0,0,1.831-9.98-5.305-12.963l-69.826,25.278l-9.073,15.881l8.391-3.661l14.16-3.108
		L208.083,248.348z"/>
	<path fill="#48130D" d="M221.987,259.851c0,0,4.443-12.177-6.65-17.148l-91.29,32.175c0,0,21.001,10.291,19.798,13.307
		C141.975,292.874,221.987,259.851,221.987,259.851z"/>
	<path fill="#CF8B95" d="M239.67,274.045c0,0,0.062-16.56-7.392-19.644l-90.678,30.443l26.018,13.784L239.67,274.045"/>
	<path fill="#794426" d="M181.934,213.327l-86.432-1.013c0,0-2.812,32.726-3.012,33.482c-0.122,0.463-2.104,6.934,22.212,8.693
		c15.428,1.116,62.91,0.443,62.91,0.443L181.934,213.327z"/>
	<path fill="#B37133" d="M167.02,229.823c-3.23,12.183,0.463,24.126,8.245,26.678c7.781,2.551,16.707-5.252,19.936-17.435
		c3.229-12.183-0.464-24.126-8.245-26.681C179.173,209.833,170.248,217.641,167.02,229.823z"/>
	<path fill="#9F5A34" d="M172.289,230.729c-2.343,8.839,0.75,17.644,6.909,19.663c6.159,2.019,13.05-3.513,15.393-12.351
		c2.342-8.841-0.752-17.643-6.91-19.663C181.523,216.358,174.631,221.888,172.289,230.729z"/>
	<path fill="#794426" d="M205.179,242.832l-0.803,6.516l-21.05-10.807c0,0-2.045-2.003-1.435-4.55
		c0.613-2.551,5.764-3.942,5.764-3.942l17.712-0.792L205.179,242.832z"/>
	<path fill="#B56C2F" d="M197.628,242.579c1.468,5.365,5.696,8.328,9.443,6.62c3.748-1.712,5.599-7.451,4.13-12.815
		c-1.467-5.364-5.695-8.329-9.443-6.621C198.011,231.475,196.161,237.212,197.628,242.579z"/>
	<path fill="#4C222D" d="M94.889,186.095l-7.53-7.727l-24.343,3.875l-14.887,68.632l27.692,12.562c0,0,9.055,4.299,12.118-0.851
		c3.063-5.151,7.722-22.75,9.46-30.512c1.736-7.764,8.116-36.55,7.225-40.005C103.732,188.615,94.889,186.095,94.889,186.095z"/>
	<path fill="#190503" d="M52.345,158.14l-11.886,3.861l-10.242-0.029l-9.724,1.848l-11.226,4.308c0,0-9.508,55.173-9.262,57.692
		c0.246,2.521,1.801,10.335,10.155,13.921c8.352,3.588,16.608,11.054,24.699,8.697c8.089-2.358,12.038-16.269,12.038-16.269
		s5.219-27.682,5.676-29.495c0.458-1.812,3.556-22.832,4.06-26.582C57.138,172.343,52.345,158.14,52.345,158.14"/>
	<path fill="#E79BA4" d="M79.811,229.266c0,0-3.611,0.335-3.756,6.155c-0.145,5.816-5.026,19.925-7.527,21.099
		c-2.499,1.171,60.004,17.286,60.004,17.286s13.397-12.914,9.288-29.832C133.712,227.054,79.811,229.266,79.811,229.266z"/>
	<path fill="#87447A" d="M84.772,207.851c0,0-1.81,10.672-3.884,15.4c-2.074,4.724-5.62,6.547-1.534,7.824
		c4.088,1.277,19.597,2.706,28.359,6.421c8.761,3.714,19.272,7.491,27.035,9.917c7.764,2.426,11.687,6.096,12.812-1.861
		c1.124-7.954-3.7-16.79-12.395-19.02C126.471,224.303,84.772,207.851,84.772,207.851z"/>
	<path fill="#D8454A" d="M87.359,178.368c0,0-0.144,20.232-8.813,31.445c5.365,0.579,6.766,1.139,15.461,3.368
		c8.696,2.228,28.736,11.913,35.912,13.176c7.175,1.267,8.648,4.171,10.541-1.59c1.895-5.761,4.359-13.783,5.615-18.764
		c1.257-4.983-3.142-10.266-10.089-12.437C129.04,191.394,89.499,175.129,87.359,178.368z"/>
	<path fill="#41827E" d="M14.048,236.559c0,0,0.961-51.001,1.858-58.047c0.896-7.048,2.413-18.302,6.432-18.509
		c4.021-0.213,19.416,1.669,19.416,1.669s-12.495,63.519-9.713,71.717c0,0,4.208-20.183,4.925-28.265
		c0.716-8.083,7.781-39.587,11.31-44.835c3.528-5.249,9.085-1.068,14.825,4.145c5.738,5.214,12.227,9.198,12.227,9.198
		l-21.445,79.775C53.884,253.407,18.626,242.876,14.048,236.559z"/>
	<path fill="#444C26" d="M243.413,271.446l-76.448,24.34l24.992,9.695l21.836-7.142c4.201,0.885,9.616,1.871,9.92,1.871
		c0.5,0,20.5,2.166,22.667-7.167c0.605-2.608,0.421-4.358-0.146-5.543C246.699,285.836,249.06,276.3,243.413,271.446z"/>
</g>
<g id="Shelves">
	<path fill="#EEB798" d="M1617.422,86.841c-1.967,26.243-7.543,56.703-7.543,56.703s-51.001,24.667-75.667,40
		s-22.666,29.666-56.333,42.333c-33.667,12.667-44.666,28-59.333,21s-15.668-4.666-15.334-27.666s-2.333-28.667,1.667-53
		c4-24.334,12.001-36,18.667-37s22.333,34.333,22.333,34.333s24.667-25,42-39.333c17.333-14.334,107.999-74.001,123.666-74.667
		c2.37-0.101,3.981,1.991,5.015,5.596l-2.139-78.649L-18.999-5.509l-3,727.464l486.877-49.41l12-10
		c0,0-130.667-9.333-134.667-126.667c-4-117.333,33.333-297.333,113.333-358.667s208-56.667,250-56s141.333,11.333,205.333,148
		s123.333,302.001-72,377.334s84.667,81.333,84.667,81.333s672.877-55.422,710.375-34.423L1617.422,86.841z M1467.546-7.456
		c33-12.333,143-3.333,143-3.333l0.333,32c0,0-57.999,44-102.333,60s-87.334,28.333-94.667,9.333S1434.546,4.878,1467.546-7.456z
		 M38.212,136.544c14.333-20.333,39.667-35,64.334-24.667c24.666,10.334,68,19.334,91.333,46.667s53.667,56,62,105.667
		c0,0,6.667,30.999-34.333,30.666s-89.667-19.333-110.667-30.333s-96-41-97-58.333C12.878,188.877,23.878,156.878,38.212,136.544z
		 M219.878,609.21c-1.333,11-29.667,40.334-53.333,43.667s-46.667,18.333-99-2.667s-71.333-20.001-78.333-29.667
		c-7-9.666,1.333-50.333,1.333-50.333s4.333-10.334,38.333-1.667s99.667,21.666,123,26
		C175.212,598.877,221.212,598.21,219.878,609.21z M238.545,595.877c-30.667,0.667-81.667-12.667-99.333-16.667
		s-37.333-5.666-66.666-9.666S5.545,560.543-2.122,547.21s-16-82-16-82c1,0,17.333,12.334,61.333,19.334s84.999,9,128.667,22
		s74,19.332,74.333,33.666S269.212,595.21,238.545,595.877z M265.212,467.211c-6.667,13-9.333,32.332-25.667,31.666
		c-16.333-0.666-53.333-2.999-86.333-12.666c-33-9.667-91.333-25.334-109.667-31.667s-47.667-8.334-52-23.667
		s-2.667-65.667-2.667-65.667s9.333,11.667,46,13.667s81.334,12,115.667,21s116.333,34,116.667,36
		C267.545,437.877,271.878,454.211,265.212,467.211z M259.212,410.211c-3.667,1-23-4.333-49.334-10s-71.667-23.667-125.333-43.667
		s-98.667-42.333-99.667-42.333c0,0,11.667-29.667,20.667-39c9-9.333,47.333,2,82.333,9.333c35,7.333,137.333,51.333,150,58.333
		s29.667,21.667,33,31.333C274.211,383.878,262.878,409.211,259.212,410.211z M448.545,123.211c-9.667,6.666-47,13.666-79.667,8
		c-32.666-5.667-46.333-6-68.666-18.667c-22.334-12.666,36.333-54,79.666-55c43.334-1,56.334,20,66.334,38
		S458.212,116.544,448.545,123.211z M1312.545,256.544c3,18.667,3.334,34-31.333,49.667c-34.667,15.666-115,31.999-139,32.666
		s-7.333-63.333-7.333-63.333s119.999-34,147.666-37.333C1310.212,234.877,1309.545,237.878,1312.545,256.544z M1021.879,203.544
		c3.333-30.333,33.333-74.667,47.333-82.333c14-7.667,25.334-13.333,34.667-20.667c9.333-7.333,60.999-30,104.333-23
		s62,26.333,65,46.667c0,0-182.667,75.666-211,90C1033.879,228.544,1018.546,233.878,1021.879,203.544z M1032.879,250.211
		c-1.666-10.667,0.666-15,6.426-15.277c5.76-0.277,84.907-28.723,99.907-38.723s32.667-10.667,46.667-10.334
		c14,0.333,80.333-23,80.333-23c27.667,29.333,1,41.334-20.667,56.334s-65.666,33.666-116.666,46
		C1077.879,277.544,1034.545,260.877,1032.879,250.211z M1253.545,543.211c-92.666,18.666-132.333,16-132.333,16
		s-18.666-53.333-17.333-58c1.333-4.667,45.333-23.334,45.333-23.334s45.333-12.666,70-20.333s36.001-17.334,55.667-21.667
		s41.334-11.333,53,9.667S1346.211,524.545,1253.545,543.211z M1342.879,379.211c-3.667,19.667-12.667,21.333-59,37.333
		s-113.001,23.333-143.667,20c-30.666-3.333-44-5.667-44-5.667l-9.666-20.333c0,0,0.332-37.667,1.666-42s60-8,60-8
		s62.333-9.333,92-16s63-10.333,69.667-12.333s12.001-7,14.667-2.333C1327.212,334.544,1346.546,359.544,1342.879,379.211z
		 M1419.879,310.544c-3.333-27-11.333-33,2-37.333c13.333-4.334,49.333-11,69.333-15.334c20-4.333,58.334-18.999,70.334-36.666
		s46-29.667,46-29.667l3,91.667c0,0-45.666,25-103,40C1450.212,338.211,1423.212,337.544,1419.879,310.544z M1467.545,451.877
		c-11-27-10.666-12.334-13.333-41c-2.667-28.667-10-26,0-35s39.334-18.999,61.667-31.333c22.333-12.333,27.999-15,45.666-20.667
		c17.667-5.666,48.334-11.333,48.334-11.333l4,167c0,0-59.334,20.333-95.667,11S1478.545,478.877,1467.545,451.877z
		 M1547.879,562.21c-21.667-11.333-36.333-10-46-11.333s-18.333,1.334,18-12.333s71.333-44.667,95.333-46.667
		s2.667,84.333,2.667,84.333S1569.546,573.543,1547.879,562.21z"/>
</g>
<g id="Sheleves_Details">
	<path fill="#BA6D54" d="M241.281,172.568c0,0,104.585,76.412,52.018,360.397C293.299,532.965,359.189,272.042,241.281,172.568z"/>
	<path fill="#BA6D54" d="M342.398,236.746c0,0-22.633,74.606-24.824,139.586C317.575,376.332,313.195,293.704,342.398,236.746z"/>
	<path fill="#BA6D54" d="M439.499,155.722c0,0-113.164,44.923-113.893,248.687C325.606,404.409,310.273,219.097,439.499,155.722z"/>
	<path fill="#BA6D54" d="M311.735,465.379c0,0,10.951,159.642,21.902,179.696C333.637,645.076,310.275,566.459,311.735,465.379z"/>
	<path fill="#BA6D54" d="M296.403,554.426c0,0-5.841,65.781-9.491,94.66C286.912,649.086,298.593,593.734,296.403,554.426z"/>
	<path fill="#BA6D54" d="M284.721,288.089c0,0,4.381,92.254-6.571,191.73C278.15,479.819,295.672,357.881,284.721,288.089z"/>
	<path fill="#BA6D54" d="M1419.95,106.872c0,0-27.951,31.196-45.739,72.539c-17.787,41.343-16.248,124.916-16.248,124.916
		s-10.132-73.27,13.708-127.453C1395.512,122.69,1419.95,106.872,1419.95,106.872z"/>
	<path fill="#BA6D54" d="M1229.862,58.345c0,0,77.322,38.089,94.151,141.466C1324.014,199.811,1315.623,97.626,1229.862,58.345z"/>
	<path fill="#BA6D54" d="M1303.47,418.737c0,0,54.942,2.152,86.009,51.701c31.067,49.55-23.781,93.295-66.455,119.968
		c-42.674,26.674-75.936,37.799-75.936,37.799s34.007-6.129,78.737-35.737c44.73-29.61,96.51-67.159,66.758-124.641
		C1360.418,412.576,1303.47,418.737,1303.47,418.737z"/>
	<path fill="#BA6D54" d="M1387.552,194.523c0,0,7.134,108.244,15.016,143.797c7.881,35.554,34.781,120.387,36.233,124.137
		c1.453,3.748-20.348-50.135-39.029-124.058C1399.771,338.399,1383.517,208.346,1387.552,194.523z"/>
	<path fill="#BA6D54" d="M1349.052,257.293c0,0,2.688,109.243,11.403,150.564C1360.455,407.857,1343.37,319.432,1349.052,257.293z"
		/>
	<path fill="#BA6D54" d="M1479.639,344.3c0,0-40.13,9.837-52.208,31.498C1427.431,375.798,1432.946,350.405,1479.639,344.3z"/>
	<path fill="#BA6D54" d="M1455.426,469.903c0,0-5.239,65.522,25.836,54c31.073-11.521,76.634-22.07,76.634-22.07
		s-60.024,18.176-77.277,25.598C1463.365,534.85,1446.988,515.186,1455.426,469.903z"/>
	<path fill="#BA6D54" d="M983.379,422.877c0,0,19.5,170.5-77.5,207C905.879,629.877,1009.379,609.377,983.379,422.877z"/>
	<path fill="#BA6D54" d="M898.879,200.877c0,0,55,102.5,70.5,189C969.379,389.877,964.879,316.877,898.879,200.877z"/>
	<path fill="#BA6D54" d="M1054.379,95.877c0,0-45,60-45.5,110.5s-0.5,94.5-7.5,97.5s-57.5-65-57.5-103s2-44.5,17.5-9.5
		c0,0-21.5-46-13,7.5s19,55,32.5,77s24.5,36,23.5,4s-0.5-52.5,1.5-79.5S1023.379,125.377,1054.379,95.877z"/>
	<path fill="#BA6D54" d="M986.879,137.377c0,0-10.5,66.5,0.5,102.5C987.379,239.877,970.379,200.377,986.879,137.377z"/>
	<path fill="#BA6D54" d="M1117.879,55.877c0,0,155.5-31.5,203.5,17C1321.379,72.877,1282.879,19.377,1117.879,55.877z"/>
	<path fill="#BA6D54" d="M1265.379,151.877c0,0-47,17-80,18C1185.379,169.877,1229.879,171.877,1265.379,151.877z"/>
	<path fill="#BA6D54" d="M1419.879-21.123c0,0-53,53.5-57,119C1362.879,97.877,1361.379,29.877,1419.879-21.123z"/>
	<path fill="#BA6D54" d="M1482.379,111.377c0,0,40.5-22,66-41.5s58-34,58-34S1508.379,99.877,1482.379,111.377z"/>
	<path fill="#BA6D54" d="M1580.879,175.377c0,0-36,14.5-53.5,39s-64.5,32.5-64.5,32.5s43-1,67-31S1580.879,175.377,1580.879,175.377
		z"/>
	<path fill="#BA6D54" d="M1643.879,609.877c0,0-61.5-2.5-104-23s-115-34-115-34s85.5,21,113,35.5S1608.379,611.877,1643.879,609.877
		z"/>
	<path fill="#BA6D54" d="M1340.379,632.877c0,0,53.5-70,81.5-69.5s80.5,55.5,119,68s72,15,72,15s-17.5,1.5-72-12.5
		c-40.5-9.5-90.5-68-118-68.5S1340.379,632.877,1340.379,632.877z"/>
	<path fill="#BA6D54" d="M1425.379,582.877c0,0-25,15-25,36.5C1400.379,619.377,1394.379,596.877,1425.379,582.877z"/>
	<path fill="#BA6D54" d="M1172.379,340.877c0,0,111-15,130-23C1302.379,317.877,1250.379,335.377,1172.379,340.877z"/>
	<path fill="#BA6D54" d="M1123.879,452.377c0,0,76.5,2,100-4.5C1223.879,447.877,1171.879,460.877,1123.879,452.377z"/>
	<path fill="#BA6D54" d="M987.379,326.377c0,0,8,88.5,28.5,113.5C1015.879,439.877,989.379,408.877,987.379,326.377z"/>
	<path fill="#BA6D54" d="M708.379-18.623c0,0-21,43.5-46.5,48.5C661.879,29.877,688.379,34.877,708.379-18.623z"/>
	<path fill="#BA6D54" d="M213.879,50.377c0,0,69.5,84.5,146,95C359.879,145.377,297.379,150.877,213.879,50.377z"/>
	<path fill="#BA6D54" d="M435.379,31.877c0,0-105,18-136.5,32C298.879,63.877,363.879,37.377,435.379,31.877z"/>
	<path fill="#BA6D54" d="M-9.621,194.377c0,0,54.5,56.5,86.5,68.5C76.879,262.877,31.879,246.377-9.621,194.377z"/>
	<path fill="#BA6D54" d="M-14.121,351.377c0,0,16.5,14,78.5,20s112.5,28,112.5,28s-60-27.5-113.5-30S-14.121,351.377-14.121,351.377
		z"/>
	<path fill="#BA6D54" d="M276.379,500.377c0,0-3.5,10.5-43,6s-80.5-13.5-80.5-13.5s52.5,12.5,80.5,16.5
		S276.379,507.877,276.379,500.377z"/>
	<path fill="#BA6D54" d="M-25.121,632.877c-1.908-4.196,11,8.5,65,24s83,15,71,18.5c-52,13.5-115,18.5-124,18.5s141-16.5,118.5-20.5
		s-51-8.5-70-14.5S-22.621,638.377-25.121,632.877z"/>
	<path fill="#BA6D54" d="M204.379,119.877c0,0,88.5,33,107.5,108C311.879,227.877,302.379,155.377,204.379,119.877z"/>
	<path fill="#BA6D54" d="M-17.121,117.377c0,0,97-43,149.5-22C132.379,95.377,91.879,67.877-17.121,117.377z"/>
</g>
<g id="Shelves_Spiral_Details">
	<path fill="#C97136" d="M646.637,58.118c-15.807,0.511-6.273,12.262-2.76,11.751c0,0-3.262-5.365,1.254-5.876
		c4.516-0.511,16.558,8.175,4.266,17.117C637.102,90.051,616.779,76,619.79,56.585c2.283-14.718,0.812-23.412-5.167-27.206
		c3.246-14.677-30.125-21.759-30.125-21.759s22.078-3.407,21.409-10.9c-0.669-7.494-74.599,1.363-74.599,1.363
		s-35.794,8.175-27.097,21.459c7.86,12.005,28.01,1.48,31.819-0.659c-3.907,2.292-24.438,14.997-17.769,25.184
		c2.427,3.707,6.275,3.513,10.341,1.601c-2.87,9.985-11.532,29.505-20.962,32.631c-10.788,3.576-22.581-10.475-17.813-16.095
		c4.767-5.62,13.046-0.255,13.046,1.788c0.251,3.577-4.767,3.832-4.767,3.832s6.774,4.088,7.777-0.766
		c1.004-4.854-6.774-16.095-15.806-9.963c-9.032,6.131-2.258,16.095,7.778,23.758c17.228,12.204,32.358-22.413,38.925-40.758
		c5.166-4.416,9.246-9.313,9.246-9.313s-16.726,33.041,1.338,33.722c18.065,0.681,13.047-36.447,13.047-36.447
		s5.352,29.975,22.079,26.228c16.726-3.747-4.684-28.612-4.684-28.612s22.748,25.887,34.791,8.175
		c0.272-0.4,0.508-0.793,0.728-1.184c2.808,2.72,5.476,8.889,3.705,22.899c-3.262,25.802,17.813,38.064,33.118,32.7
		C665.453,82.898,668.463,58.373,646.637,58.118z M559.576,16.817c-7.298,0-13.214-4.575-13.214-10.219
		c0-5.644,5.916-10.219,13.214-10.219c7.297,0,13.213,4.575,13.213,10.219C572.789,12.242,566.873,16.817,559.576,16.817z"/>
	<path fill="#C97136" d="M601.475,43.556c0,0,2.258,12.518-3.011,18.138c-5.269,5.62-6.523,11.752-6.523,11.752
		S583.662,59.65,601.475,43.556z"/>
	<path fill="#C97136" d="M606.577,60.587c0,0-16.225,11.41-8.363,27.931c0,0-0.167-5.45,4.014-8.345
		C606.409,77.278,606.577,60.587,606.577,60.587z"/>
	<path fill="#C97136" d="M611.762,74.212c0,0-3.847,4.088-1.171,12.092c2.676,8.005,1.004,15.839,1.004,15.839
		S619.958,92.605,611.762,74.212z"/>
	<path fill="#C97136" d="M623.303,85.623c0,0-0.167,6.472,4.516,10.559C627.819,96.182,628.321,90.903,623.303,85.623z"/>
	<path fill="#C97136" d="M630.83,47.132c0,0,1.672,7.664,17.897,8.686C648.727,55.818,644.211,46.111,630.83,47.132z"/>
	<path fill="#C97136" d="M644.211,44.408c0,0-9.032,2.384-15.89-4.599c0,0,6.691-6.982,9.367-1.703
		C640.363,43.386,644.211,44.408,644.211,44.408z"/>
	<path fill="#C97136" d="M629.659,34.87c0,0-7.359-5.45-10.537-4.428C619.122,30.442,625.143,22.948,629.659,34.87z"/>
	<path fill="#C97136" d="M890.001,111.834c0,0,11.541-10.219,1.254-19.16c-15.304-13.029-40.143,15.839-25.089,36.276
		c18.566,24.014,89.82-15.839,49.426-67.443C875.198,9.902,797.17,74.536,784.123,84.499c-13.046,9.963-73.512,27.08-88.314-2.299
		s17.562-31.422,20.322-26.569c2.76,4.854-6.775,12.773-6.775,12.773s4.768-6.131,1.757-10.474
		c-3.011-4.343-21.828,7.153-9.785,22.481c12.043,15.328,50.681,14.817,77.526-1.277C805.7,63.039,872.94,8.88,919.857,55.12
		c46.917,46.24-16.81,114.194-57.204,79.195c-27.85-27.335,18.817-64.122,36.38-46.751
		C914.589,102.126,890.001,111.834,890.001,111.834z"/>
	<path fill="#C97136" d="M801.769,33.065c0,0-14.217,7.834-12.21,18.223c2.007,10.389-15.723,25.888-15.723,25.888
		s11.54-12.433,8.864-23.844C780.025,41.921,796.249,30.51,801.769,33.065z"/>
	<path fill="#C97136" d="M840.24,23.868c0,0-12.377,4.428-14.05,11.922c-1.673,7.494-19.403,16.69-19.403,16.69
		s11.206-9.197,10.036-15.158C815.652,31.362,832.714,20.632,840.24,23.868z"/>
	<path fill="#C97136" d="M872.188,22.846c0,0-5.689,0.681-9.367,6.131c-3.68,5.45-20.406,7.324-20.406,7.324
		s9.701-6.983,11.541-11.581C855.795,20.121,869.679,18.077,872.188,22.846z"/>
	<path fill="#C97136" d="M883.394,33.065c0,0,13.214-2.384,20.573-0.341c7.359,2.044,15.22,2.555,21.241-2.214
		c6.021-4.769,17.898-1.192,17.898-1.192s-5.185-9.877-27.767-9.026C892.761,21.143,883.394,33.065,883.394,33.065z"/>
	<path fill="#C97136" d="M918.017,40.388c0,0,6.524,1.703,8.364,6.812c1.839,5.109,24.588,2.896,24.588,2.896
		S935.244,33.746,918.017,40.388z"/>
	<path fill="#C97136" d="M908.316,61.336c0,0-3.179,6.302-2.509,10.389c0.669,4.087-0.168,10.048-0.168,10.048
		S917.683,70.363,908.316,61.336z"/>
	<path fill="#C97136" d="M882.223,52.14c0,0,13.55,5.791,12.713,19.075c0,0-8.364-1.873-8.865-8.856
		C885.568,55.375,882.223,52.14,882.223,52.14z"/>
	<path fill="#C97136" d="M838.567,58.1c0,0,19.904-8.856,35.961,3.747c0,0-12.878,6.812-21.241,0
		C844.923,55.035,838.567,58.1,838.567,58.1z"/>
	<path fill="#C97136" d="M813.812,72.236c0,0,19.569-13.965,39.641,6.472c0,0-20.74,4.598-25.089-0.341
		C824.016,73.429,813.812,72.236,813.812,72.236z"/>
	<path fill="#C97136" d="M794.076,92.503c0,0,19.736-11.581,45.327,2.214c0,0-18.231,3.066-25.926-1.703
		C805.783,88.246,794.076,92.503,794.076,92.503z"/>
	<path fill="#C97136" d="M807.122,113.281c0,0-11.709-4.087-21.242-11.411c-9.534-7.323-26.595-0.17-26.595-0.17
		s18.399-0.341,23.249,6.471C787.385,114.985,807.122,113.281,807.122,113.281z"/>
	<path fill="#C97136" d="M988.939,55.417c0,0,2.008,6.131-1.84,7.664c-3.848,1.533-15.556-16.18,11.875-30.486
		c27.431-14.306,49.844,6.643,80.119-3.747c30.275-10.389,39.307-35.424,39.307-35.424s-20.239,21.971-34.791,28.953
		c-35.627,12.943-44.992-6.643-80.954,2.384c-32.616,8.516-30.443,48.368-14.218,40.534
		C997.302,60.356,988.939,55.417,988.939,55.417z"/>
	<path fill="#C97136" d="M1028.957,29.231c0,0,6.272,3.704,5.52,12.007c-1.129,15.967,11.792,9.708,11.792,9.708
		s-9.534-1.277-9.534-10.091C1036.734,32.042,1028.957,29.231,1028.957,29.231z"/>
	<path fill="#C97136" d="M1047.899,35.618c0,0,5.896,1.277,8.028,8.047c2.133,6.769,15.305,2.299,15.305,2.299
		s-7.275-1.021-10.036-5.62C1058.437,35.746,1049.028,35.107,1047.899,35.618z"/>
	<path fill="#C97136" d="M1070.856,34.469c0,0,4.265,1.149,8.279,5.748c4.015,4.599,8.781-2.554,8.781-2.554
		S1081.018,30.892,1070.856,34.469z"/>
	<path fill="#C97136" d="M1095.193,26.293c0,0,10.286-4.854,15.555-9.707c5.27-4.854,18.065-2.683,21.577-6.643
		C1132.325,9.943,1122.791,27.315,1095.193,26.293z"/>
	<path fill="#C97136" d="M1122.039-6.917c0,0,0.125,13.156-5.52,16.733c0,0,14.677-5.109,16.559-17.883
		C1134.96-20.84,1122.039-6.917,1122.039-6.917z"/>
	<path fill="#C97136" d="M1096.698-2.702c0,0-0.502,10.602-4.14,14.689c0,0,8.781-8.175,9.91-15.2
		C1103.598-10.238,1096.698-2.702,1096.698-2.702z"/>
	<path fill="#C97136" d="M1088.544,8.028c0,0-6.272,3.576-7.401,7.792s-12.795,5.493-12.795,5.493s7.275-4.343,9.032-7.664
		C1079.136,10.327,1088.544,8.028,1088.544,8.028z"/>
	<path fill="#C97136" d="M1075.372,2.024c0,0-5.896,18.01-23.96,18.138c0,0,6.021-2.427,9.534-9.324
		C1064.458,3.94,1075.372,2.024,1075.372,2.024z"/>
	<path fill="#C97136" d="M1062.827-1.68c0,0-12.419,14.178-24.713,14.051c0,0,18.566-11.241,21.577-15.456
		C1062.702-7.3,1062.827-1.68,1062.827-1.68z"/>
	<path fill="#C97136" d="M1038.741-4.235c0,0-9.91,20.565-22.831,20.565c0,0,11.039-1.916,21.075-21.714
		C1038.616-14.07,1038.741-4.235,1038.741-4.235z"/>
	<path fill="#C97136" d="M159.395,33.15c0,0-2.258-11.496,3.011-10.474c5.269,1.022,18.315,29.379-26.344,29.89
		C91.403,53.076,89.145,1.216,54.772-3.637C20.399-8.491,51.51,2.238,51.51,2.238s18.566,3.577,27.348,19.16
		c8.781,15.584,29.104,37.554,57.706,37.298c45.161-1.277,41.899-41.641,26.595-40.108C147.854,20.121,159.395,33.15,159.395,33.15z
		"/>
	<path fill="#C97136" d="M111.474,60.229c0,0-17.061-3.066-21.828,2.81s-21.075,3.321-21.075,3.321S93.159,46.945,111.474,60.229z"
		/>
	<path fill="#C97136" d="M84.378,48.989c0,0-29.606,2.81-39.391-3.065c0,0,11.039-1.788,16.308-5.365
		C66.564,36.982,84.378,48.989,84.378,48.989z"/>
	<path fill="#C97136" d="M73.338,25.997c0,0-10.036-2.043-14.552,4.088c-4.516,6.131-20.825-1.788-20.825-1.788
		S58.536,11.18,73.338,25.997z"/>
	<path fill="#C97136" d="M101.188,3.26c0,0-2.007,25.547,5.018,32.444C106.206,35.704,92.406,26.763,101.188,3.26z"/>
	<path fill="#C97136" d="M25.417,5.304c0,0,5.771,8.685,15.806,5.875c10.036-2.81,19.319,0.255,19.319,0.255
		S55.274,4.538,25.417,5.304z"/>
	<path fill="#C97136" d="M79.709-16.515c0,0,5.95,8.005,2.227,14.565c-3.723,6.56,10.121,17.641,10.121,17.641
		S99.199-9.657,79.709-16.515z"/>
</g>
<g id="Floor">
	<g>
		<path fill="#DA7E65" d="M-23.005,707.839c0,0,875.121-116.493,1649.884-49.05l-2.007,259.555L-14.977,906.081L-23.005,707.839z"/>
		<path fill="#B65746" d="M342.976,880.122c0,0-146.708-7.319-163.967-11.502c-17.26-4.182-21.575-8.364-9.708-8.364
			c0,0-38.835,1.567,8.629,12.024C225.394,882.738,342.976,880.122,342.976,880.122z"/>
		<path fill="#B65746" d="M190.875,860.778c0,0,160.191,4.707,162.35,8.366c2.157,3.659-4.855,6.797-4.855,6.797
			s8.63-1.046,8.63-7.32C357,862.347,219.461,859.734,190.875,860.778z"/>
		<path fill="#B65746" d="M330.571,838.297c0,0,58.791,8.365,121.896,7.843C452.467,846.14,378.574,853.983,330.571,838.297z"/>
		<path fill="#B65746" d="M841.35,868.621c0,0,207.117,11.502,260.515,9.934C1101.864,878.554,945.448,882.214,841.35,868.621z"/>
		<path fill="#B65746" d="M851.599,888.489c0,0,25.35-19.345,26.968-20.391C878.566,868.098,864.543,884.829,851.599,888.489z"/>
		<path fill="#B65746" d="M875.87,908.355c0,0,19.417,2.614,44.767-15.161C920.637,893.194,899.062,915.675,875.87,908.355z"/>
		<path fill="#B65746" d="M786.875,807.973c0,0-81.983,43.918-92.773,48.623C694.102,856.596,757.21,831.5,786.875,807.973z"/>
		<path fill="#B65746" d="M605.109,854.504c0,0,141.852-44.44,147.246-46.008C752.354,808.496,637.469,848.753,605.109,854.504z"/>
		<path fill="#B65746" d="M746.422,784.447c0,0-21.575,21.436-33.44,23.526C712.981,807.973,725.926,811.633,746.422,784.447z"/>
		<path fill="#B65746" d="M733.477,778.696l-58.25,26.664C675.227,805.36,714.599,796.995,733.477,778.696z"/>
		<path fill="#B65746" d="M407.161,805.36c0,0,135.38,23.875,617.933,22.481C1025.094,827.841,570.949,841.435,407.161,805.36z"/>
		<path fill="#B65746" d="M209.753,750.463c0,0-21.575,35.552,238.399,43.917C448.152,794.38,218.382,782.878,209.753,750.463z"/>
		<path fill="#B65746" d="M66.282,833.592c1.704,0.061-48.004-3.659-59.331-24.573C6.951,809.019,8.569,831.5,66.282,833.592z"/>
		<path fill="#B65746" d="M319.244,776.605c-1.731-0.859,27.508,7.842,93.311,8.888
			C412.554,785.493,342.436,788.107,319.244,776.605z"/>
		<path fill="#B65746" d="M333.268,755.692c0,0,21.575,16.207,107.334,17.775C440.601,773.467,357.539,777.127,333.268,755.692z"/>
		<path fill="#B65746" d="M331.11,745.235c0,0,32.362,14.64,64.184,14.64C395.294,759.874,361.314,763.534,331.11,745.235z"/>
		<path fill="#B65746" d="M489.145,724.845c0,0-51.239,3.66-51.239,13.07c0,9.411,114.884,31.893,587.908,21.437
			c0,0-584.673,18.82-592.224-22.482C430.893,724.323,489.145,724.845,489.145,724.845z"/>
		<path fill="#B65746" d="M464.873,731.641c0,0,42.071,8.889,72.275,13.594C537.148,745.235,481.593,742.621,464.873,731.641z"/>
		<path fill="#B65746" d="M631.536,748.371c0,0,329.015,2.614,367.31,4.184c38.295,1.567,39.373,6.273,39.373,6.273
			s-4.315-7.843-40.452-8.365C961.628,749.94,640.706,747.327,631.536,748.371z"/>
		<path fill="#B65746" d="M1216.75,890.579c0,0,357.06,11.502,391.58-49.144C1608.33,841.435,1598.62,908.355,1216.75,890.579z"/>
		<path fill="#B65746" d="M1294.776,866.878c0,0,212.87,4.881,275.438-29.277C1570.214,837.601,1536.414,874.546,1294.776,866.878z"
			/>
		<path fill="#B65746" d="M1204.883,831.327c0,0,269.683-13.94,274.717,0c5.035,13.942-107.153,9.76-107.153,9.76
			s114.344,13.941,110.748-11.851C1478.879,811.808,1204.883,831.327,1204.883,831.327z"/>
		<path fill="#B65746" d="M1298.372,818.082c0,0,146.708-2.789,171.878,0C1470.25,818.082,1406.966,811.111,1298.372,818.082z"/>
		<path fill="#B65746" d="M1114.271,779.044c0,0,320.022,4.879,356.7,22.308C1470.971,801.352,1462.342,781.136,1114.271,779.044z"
			/>
		<path fill="#B65746" d="M1106.358,771.376c0,0,148.146-0.697,174.037,4.183C1280.396,775.559,1204.883,763.707,1106.358,771.376z"
			/>
		<path fill="#B65746" d="M1104.2,758.132c0,0,204.96-2.092,269.684,18.124C1373.884,776.256,1333.61,753.253,1104.2,758.132z"/>
		<path fill="#B65746" d="M437.544,707.941c0,0,138.796-23.7,323.619-22.307C761.163,685.634,605.827,678.663,437.544,707.941z"/>
		<path fill="#B65746" d="M454.804,684.24c0,0,148.146-23.003,291.977-15.335C746.781,668.905,642.503,650.081,454.804,684.24z"/>
		<path fill="#B65746" d="M276.454,698.182c0,0,43.15-18.821,131.606-21.609C408.06,676.573,303.782,673.086,276.454,698.182z"/>
		<path fill="#B65746" d="M1029.408,718.399c0,0,258.178,4.88,329.373,21.61C1358.781,740.009,1237.245,716.307,1029.408,718.399z"
			/>
		<path fill="#B65746" d="M1145.553,747.85c0,0,8.091,13.069,10.249,17.775C1155.802,765.625,1153.643,754.122,1145.553,747.85z"/>
		<path fill="#B65746" d="M1072.198,712.298c0,0,23.734,13.069,32.902,21.435C1105.101,733.733,1090.537,717.526,1072.198,712.298z"
			/>
		<path fill="#B65746" d="M1098.628,716.48c0,0,5.394,2.613,17.8,13.594C1116.428,730.074,1107.797,717.526,1098.628,716.48z"/>
		<path fill="#B65746" d="M1450.834,755.343c0,0,151.741,38.341,164.686,55.071C1615.52,810.414,1588.194,781.136,1450.834,755.343z
			"/>
		<path fill="#B65746" d="M-55.478,771.456c0,0,163.382-50.484,231.478-62.755C176,708.701,81.409,720.579-55.478,771.456z"/>
		<path fill="#B65746" d="M-37.282,857.117c0,0,54.55,53.594,133.897,63.337C96.615,920.454,17.977,920.454-37.282,857.117z"/>
		<path fill="#B65746" d="M831.643,673.784c0,0,257.456-6.274,389.063,2.091C1220.706,675.875,1058.895,660.539,831.643,673.784z"/>
		<path fill="#B65746" d="M1236.527,676.572c0,0,299.168,36.249,374.681,83.65C1611.208,760.222,1561.584,710.729,1236.527,676.572z
			"/>
		<path fill="#B65746" d="M1143.037,659.144c0,0,129.448,4.879,189.138,18.123C1332.175,677.267,1299.814,663.326,1143.037,659.144z
			"/>
		<path fill="#B65746" d="M1190.5,650.778c0,0,38.835,23.004,48.185,38.342C1238.685,689.12,1225.738,667.508,1190.5,650.778z"/>
		<path fill="#B65746" d="M1609.05,687.725c0,0-133.765-23.004-137.359-19.52c-3.596,3.485,23.014,16.033,23.014,16.033
			s-28.047-9.76-27.329-16.73C1468.095,660.538,1606.893,688.422,1609.05,687.725z"/>
	</g>
</g>
<g id="Horse_Head_table_Thing">
	<g>
		<path fill="#875240" d="M994.369,621.001c0,0,18.733,43.94-16.392,56.202c-35.125,12.263-109.057,23.843-87.646,29.293
			c21.41,5.451,38.806,5.11,66.571-3.746c27.765-8.856,70.92-13.284,84.301-9.878c13.381,3.405,21.074,6.131-2.343,14.306
			c-23.416,8.175-57.537,10.561-33.786,11.923c23.75,1.361,27.097,0,39.14-3.066c12.043-3.065,52.186-8.175,42.484-3.065
			c-9.702,5.109-38.806,16.349-17.73,17.03c21.075,0.682,54.527-11.921,69.247-15.668c14.72-3.747,35.461-8.856,66.905-2.726
			c31.445,6.132,67.908,3.065,56.535,0c-11.374-3.065-42.149-16.349-46.499-22.14c0,0,45.495-6.812,78.613,0
			c33.118,6.811,48.841,8.175,65.232,7.493c16.392-0.682,27.766-2.044,13.381-2.725c-14.384-0.681-42.484-8.516-42.484-8.516
			s15.722-1.703,25.424-3.065c9.701-1.362,16.059,0.34-1.672-3.066c-17.73-3.406-65.568-16.01-65.568-16.01
			s15.724-3.746,22.748-4.428c7.025-0.682,9.033-1.704-7.359-1.704c-16.392,0-47.502-3.065-46.164-38.831
			c0.242-6.467,2.526-11.86,6.094-16.365l-127.777,11.938l-148.634-2.784L994.369,621.001z"/>
		<path opacity="0.7" fill="#684436" d="M1044.214,716.035c12.043-3.065,52.186-8.175,42.484-3.065
			c-8.125,4.279-29.852,12.856-24.321,15.932c8.996-4.209,36.56-17.922,32.35-26.065c-4.383-8.479-58.723,11.302-73.241,16.784
			C1031.542,719.511,1035.718,718.198,1044.214,716.035z"/>
		<path opacity="0.7" fill="#684436" d="M956.902,702.75c27.765-8.856,70.92-13.284,84.301-9.878
			c6.379,1.623,11.456,3.095,12.494,5.072c-0.619-8.649-10.718-14.205-20.188-15.802c-39.572-6.756-74.895,23.853-123.505,27.707
			C923.855,710.867,937.968,708.79,956.902,702.75z"/>
		<path fill="#75483B" d="M1247.02,659.917c0,0,53.942,25.802,74.266,22.226C1321.285,682.143,1290.425,687.763,1247.02,659.917z"/>
		<path fill="#75483B" d="M1244.511,646.632c0,0-52.688,13.796-78.53,11.496C1165.98,658.128,1206.375,663.238,1244.511,646.632z"/>
		<path fill="#75483B" d="M1192.826,634.115c0,0-0.25,35.255,18.817,49.306C1211.643,683.42,1191.07,674.99,1192.826,634.115z"/>
		<path fill="#75483B" d="M1133.113,640.246c0,0,12.294,32.956,32.366,43.685C1165.479,683.931,1140.39,671.413,1133.113,640.246z"
			/>
		<path fill="#75483B" d="M1121.321,634.115c0,0-2.258,27.335,19.068,48.283C1140.39,682.398,1119.063,669.88,1121.321,634.115z"/>
		<path fill="#75483B" d="M1089.207,639.991c0,0-6.272,37.043-18.064,48.283C1071.143,688.274,1087.952,672.69,1089.207,639.991z"/>
		<path fill="#75483B" d="M1060.605,639.224c0,0-6.775,32.7-22.079,38.32C1038.526,677.544,1056.591,673.967,1060.605,639.224z"/>
		<path fill="#75483B" d="M1011.932,634.371c0,0,4.516,40.619-18.817,50.327C993.114,684.698,1020.211,678.055,1011.932,634.371z"/>
		<g>
			<path fill="#75483B" d="M998.383,659.662c0,0,11.04,7.408,32.115,7.408C1030.498,667.07,1011.681,671.413,998.383,659.662z"/>
		</g>
		<path opacity="0.7" fill="#684436" d="M994.369,621.001c0,0,2.836,6.655,4.232,15.509
			c56.114,22.996,176.913,14.466,176.913,14.466c14.943,31,55.186,54.209,74.78,64.048c11.075-0.429,16.906-1.923,11.36-3.418
			c-11.374-3.065-42.149-16.349-46.499-22.14c0,0,45.495-6.812,78.613,0c33.118,6.811,48.841,8.175,65.232,7.493
			c16.392-0.682,27.766-2.044,13.381-2.725c-14.384-0.681-42.484-8.516-42.484-8.516s15.722-1.703,25.424-3.065
			c9.701-1.362,16.059,0.34-1.672-3.066c-17.73-3.406-65.568-16.01-65.568-16.01s15.724-3.746,22.748-4.428
			c7.025-0.682,9.033-1.704-7.359-1.704c-16.392,0-47.502-3.065-46.164-38.831c0.292-7.811,3.554-14.063,8.472-19.063
			c-10.248-0.646-19.762-1.203-19.762-1.203l-123.19,15.328h-134.09L994.369,621.001z"/>
		<path fill="#9B653F" d="M1347.629,558.241l11.373,1.873c0,0-1.17,31.083-17.646,38.491s-50.263,26.824-223.297,30.4
			c-161.325,0.256-185.577-6.982-190.429-8.175c-4.852-1.192-34.289-6.643-38.091-43.217c32.571-15.796,65.438-6.089,65.438-6.089
			l300.572-6.131L1347.629,558.241z"/>
		<path fill="#895936" d="M1026.483,603.714c0,0,44.408-1.022,61.72,3.832c17.312,4.854,61.219,12.773,96.093,8.942
			c0,0-61.469,0.255-89.067-8.687C1067.63,598.86,1026.483,603.714,1026.483,603.714z"/>
		<path fill="#895936" d="M903.043,596.05c0,0,77.024,11.496,118.172,26.313C1021.215,622.364,947.953,596.817,903.043,596.05z"/>
		<path fill="#895936" d="M1332.826,581.233c0,0-26.846,27.08-136.738,22.992C1196.088,604.225,1303.973,613.167,1332.826,581.233z"
			/>
		<path fill="#DA9157" d="M1125.361,598.329c129.643-4.915,234.254-22.157,233.655-38.511
			c-0.598-16.354-106.178-25.629-235.82-20.714c-129.643,4.914-234.254,22.156-233.656,38.509
			C890.138,593.968,995.72,603.244,1125.361,598.329z"/>
		<path fill="#E2BC95" d="M889.54,577.614c0.04,1.109,0.581,2.187,1.564,3.228c6.014-22.387,125.439-30.01,126.85-30.01l1.004,0.256
			v-4.946C941.858,553.918,889.114,565.99,889.54,577.614z"/>
		<path fill="#B77753" d="M1080.426,544.956c0,0-5.018,34.488-47.921,35.51c-42.903,1.022-79.032-0.766-60.968-22.991
			c18.064-22.227,59.212-24.525,60.968-24.781C1034.261,532.439,1070.139,539.081,1080.426,544.956z"/>
		<path fill="#B77753" d="M1172.253,538.315c0,0,12.545,38.831,43.405,39.342c30.859,0.511,108.136-15.839,96.595-31.934
			c-11.542-16.095-39.893-18.394-41.398-18.649c-1.505-0.255-56.451-4.598-58.458-5.364c-2.007-0.767-15.556-3.065-18.316-3.321
			C1191.321,518.132,1172.253,538.315,1172.253,538.315z"/>
		<path fill="#875240" d="M1098.239,443.026c0,0-18.064-0.767-48.161,3.27c0.764,57.685-27.107,69.538-27.107,69.538l-18.644,22.818
			c7.504-3.804,24.096-5.356,60.794,6.815c66.236,21.971,119.175-5.62,119.175-5.62l4.551-0.997
			c-3.542-7.663-46.45-94.803-46.45-94.803l-13.297-4.088c0,0-15.655-2.175-36.889-6.303L1098.239,443.026z"/>
		<path fill="#664436" d="M1167.118,546.5c10.913-3.389,17.178-6.653,17.178-6.653l23.333-5.109c0,0,56.953-2.81,26.847-18.138
			c-30.107-15.328-47.676-77.637-47.676-77.637l-11.034-1.047l-9.127-4.528c-4.557,1.203-11.111,2.824-12.951,3.762
			c-2.51,1.276-20.072,9.196-20.072,9.196S1140.52,519.899,1167.118,546.5z"/>
		<path fill="#754633" d="M1074.655,460.397c0,0-5.269,28.102-11.792,32.444C1062.863,492.841,1074.153,484.156,1074.655,460.397z"
			/>
		<path fill="#754633" d="M1121.823,513.535c0,0-2.007-15.84,4.768-15.84c6.773,0,5.519,37.043-1.506,37.043
			c-5.077,0.157-12.235-14.57-13.298-34.488c-0.67-12.565,0.693-28.586,7.778-39.853c0,0-11.792,4.853-10.538,37.81
			c1.255,32.955,11.793,39.852,16.309,39.852c10.287-0.511,10.788-43.94,0.502-43.684
			C1116.806,494.374,1121.823,513.535,1121.823,513.535z"/>
		<path fill="#613427" d="M1176.77,463.207c0,0,10.035-2.3,10.035,15.328c0,17.627-4.265,24.78-12.544,11.24
			c-8.28-13.54-10.287-28.357-9.534-33.722c0,0-5.52,19.671,6.523,34.999s19.318,10.219,18.565-11.752
			C1189.063,457.331,1176.77,463.207,1176.77,463.207z"/>
		<path fill="#B77A51" d="M1186.8,438.963c0.354,6.858-29.965,14.056-67.719,16.081c-37.754,2.023-68.649-1.895-69.003-8.749
			c-0.354-6.857,29.964-14.059,67.718-16.083C1155.55,428.189,1186.445,432.107,1186.8,438.963z"/>
		<path fill="#573734" d="M1200.271,306.606c-0.336-5.961,1.17-7.494,2.341-11.581s7.191-35.425-1.171-50.754
			c0,0-11.541,11.411-14.05,20.438c0,0-0.168-40.534,14.886-63.015c0,0-85.47-16.009-127.62,54.159
			c-32.114,58.587-10.204,187.683-10.204,187.683s15.716,3.729,36.858,5.219c-0.375-5.502-0.561-12.132-0.06-20.035
			c2.007-31.678,1.004-32.189,2.007-51.604c1.004-19.415,2.008-34.744,3.513-41.896c1.506-7.153,17.061-17.372,34.122-17.372
			c17.06,0,38.638,2.044,46.164,0.511c4.57-0.93,8.954-4.503,13.267-8.877C1200.32,308.2,1200.305,307.208,1200.271,306.606z"/>
		<path fill="#694540" d="M1148.434,203.639c-0.979,9.758-2.469,26.627-2.355,37.908c0.167,16.691,2.509,21.799,4.516,26.058
			c2.008,4.258,5.019,12.943,5.019,16.35c0,3.406-1.172,11.921-1.172,11.921l1.004,0.681c0,0,1.004-6.812,1.338-11.922
			c0.334-5.109-2.509-11.24-5.185-17.372c-2.676-6.131-3.848-15.158-4.015-25.717c-0.116-7.395,1.651-27.135,2.723-38.312
			C1149.684,203.365,1149.06,203.499,1148.434,203.639z"/>
		<path fill="#694540" d="M1114.298,241.036c-0.168,11.752-7.36,13.795-5.855,23.844c1.506,10.048,7.193,28.953,12.713,33.722
			c5.52,4.769,0.669-0.34,0.669-0.34s-9.7-12.944-12.043-33.722c-0.502-3.407,0.837-7.324,5.018-14.988
			c3.632-6.655-0.681-23.568-3.961-30.809c-0.39,0.244-0.782,0.48-1.172,0.73C1111.479,224.105,1114.414,232.888,1114.298,241.036z"
			/>
		<path fill="#694540" d="M1123.664,268.456c0,0,8.53,14.477,1.505-0.681c-5.23-11.285-6.381-39.652-6.628-53.414
			c-0.484,0.25-0.967,0.502-1.45,0.762C1118.004,255.812,1123.664,268.456,1123.664,268.456z"/>
		<path fill="#694540" d="M1114.966,299.622c0-0.511,10.036,15.499,1.506,0c-7.201-13.082-15.112-58.539-17.405-72.402
			c-0.507,0.419-1.012,0.845-1.514,1.278C1103.884,268.152,1114.966,300.116,1114.966,299.622z"/>
		<path fill="#694540" d="M1159.625,244.442c0.167,6.812,2.677,54.329,2.677,54.329s-0.167-28.612-0.502-54.84
			c-0.243-19.014,2.15-35.414,3.486-43.007c-0.624,0.064-1.251,0.131-1.883,0.203
			C1161.791,212.561,1159.483,238.609,1159.625,244.442z"/>
		<path fill="#694540" d="M1182.271,200.13c-5.184,30.546,2.076,39.626,6.804,42.321c0.04-0.296,0.081-0.592,0.123-0.891
			c-8.878-8.003-7.522-32.436-6.686-41.429C1182.432,200.131,1182.352,200.13,1182.271,200.13z"/>
		<path fill="#694540" d="M1170.407,200.487c-0.473,0.033-0.948,0.067-1.427,0.104c-0.977,11.365-3.698,43.376-3.836,48.961
			c-0.167,6.812,0.336,7.493,5.019,14.135c4.683,6.643,4.182,16.35,4.35,20.097c0.167,3.747-0.67,20.267-0.67,20.267l1.171,0.17
			c0,0,0.502-11.752,0.669-20.267c0.166-8.516-1.004-17.032-5.019-22.141c-4.014-5.109-4.181-7.323-4.014-11.921
			C1166.791,246.017,1169.544,211.315,1170.407,200.487z"/>
		<path fill="#694540" d="M1082.852,405.557c4.35,2.214,1.505-1.193,1.505-1.193s-15.22-15.157-19.903-23.843
			c-2.303-4.269-4.764-5.61-6.771-4.703c0.044,0.999,0.09,1.995,0.139,2.983c0.922-0.837,2.28-0.501,4.291,2.571
			C1067.798,390.058,1078.502,403.343,1082.852,405.557z"/>
		<path fill="#694540" d="M1058.398,320.919c-0.096,1.147-0.183,2.296-0.266,3.446l20.203,34.696L1058.398,320.919z"/>
		<path fill="#694540" d="M1079.674,383.586c0,0-16.468-22.939-22.507-33.454c-0.01,1.624-0.011,3.242-0.004,4.856
			C1062.281,363.196,1074.232,381.608,1079.674,383.586z"/>
		<path fill="#694540" d="M1078.837,431.615c-2.844-6.983-2.843-24.866-2.843-24.866s-1.338,15.498,1.505,25.206
			c1.512,5.16,1.979,10.497,2.09,14.38c0.319,0.048,0.641,0.097,0.968,0.146C1080.646,441.634,1080.392,435.431,1078.837,431.615z"
			/>
		<path fill="#694540" d="M1094.226,325.34c0,0,12.211,8.856,1.172-1.874c-9.17-8.912-21.448-45.649-25.346-57.846
			c-0.509,1.249-1,2.52-1.473,3.812C1076.13,297.077,1094.226,325.34,1094.226,325.34z"/>
		<path fill="#694540" d="M1067.464,422.588c-1.004-4.258-1.172-6.643-1.004-12.092c0.132-4.311-1.948-7.972-7.126-9.486
			c0.053,0.606,0.104,1.216,0.156,1.812c2.574,1.158,5.448,3.148,5.632,6.311c0.334,5.79-2.008,6.813,1.17,14.817
			c3.179,8.004,6.858,11.412,7.36,16.18c0.198,1.883,0.263,3.724,0.273,5.28c0.532,0.092,1.09,0.188,1.66,0.283
			c0.045-1.662-0.03-3.574-0.427-5.395C1074.154,435.702,1068.467,426.846,1067.464,422.588z"/>
		<path fill="#694540" d="M1103.76,308.479c0,0,23.584,36.787,1.338-2.214c-15.248-26.731-19.335-51.614-20.398-64.63
			c-0.5,0.605-1,1.212-1.492,1.835C1087.247,278.822,1103.76,308.479,1103.76,308.479z"/>
		<path fill="#694540" d="M1088.873,346.458c0,0-8.067-23.533-26.935-52.292c-0.137,0.723-0.27,1.449-0.399,2.178
			c5.663,8.95,20.409,33.143,26.165,51.136C1094.895,369.961,1088.873,346.458,1088.873,346.458z"/>
		<path fill="#886D35" d="M1172.504,439.789c0,0-6.857-19.586-6.523-22.652l26.93-4.258c0,0,4.349-36.276,5.352-47.006
			c1.004-10.729,2.344-53.308,2.009-59.268c-0.336-5.961,1.17-7.494,2.341-11.581s7.191-35.425-1.171-50.754
			c0,0-11.196,11.075-13.927,20.035c-0.854,14.669,0.295,38.212,0.295,38.212h-25.842c-8.781-16.094-23.334-12.518-23.334-12.518
			c3.513-14.306-8.279-38.576-8.279-38.576c0.251,3.832-12.294,14.051-15.305,24.78s5.771,17.883,5.771,17.883
			c-55.449,23.045-40.875,131.72-37.487,152.789C1105.756,449.971,1143.738,452.407,1172.504,439.789z"/>
		<path fill="#7B6027" d="M1110.407,342.626c0.502,3.066,5.27,23.759,4.517,32.572c-0.753,8.813-0.502,28.229-0.125,35.382
			c0.321,6.113,2.382,31.515,2.975,38.777c0.53,0,1.06,0.001,1.593-0.002c-0.626-6.673-2.58-27.773-3.313-39.286
			c-0.878-13.795-1.129-27.462,0-34.232c1.129-6.77-2.133-24.014-4.266-33.466c-2.132-9.452-0.752-41.258-0.752-41.258
			C1108.777,308.394,1109.906,339.561,1110.407,342.626z"/>
		<path fill="#7B6027" d="M1130.73,409.176c1.129-27.335,0.878-36.915,0.878-36.915l-0.753-1.022c0,0-0.376,16.989-1.129,38.065
			c-0.591,16.544,0.672,33.226,1.243,39.642c0.562-0.037,1.125-0.073,1.688-0.115
			C1131.679,443.133,1129.892,429.472,1130.73,409.176z"/>
		<path fill="#7B6027" d="M1189.566,377.625c-5.294,0-6.06,28.261-6.17,36.447h-2.671c0.468-6.036,1.134-16.774,0.31-20.608
			c-1.171-5.449-4.183-15.838-2.844-22.821c1.339-6.983-4.015-27.25-8.363-32.53c0,0,8.866,21.29,7.193,32.019
			s1.504,12.262,2.676,23.332c0.76,7.189,0.392,15.595,0.041,20.608h-0.208v0.923l5.376-0.85l-0.19-0.073h-0.16
			c0.065-8.158,0.603-34.509,4.843-35.085c2.545-0.345,4.788,4.568,6.382,9.494c0.109-0.943,0.217-1.887,0.324-2.826
			C1194.49,381.413,1192.287,377.625,1189.566,377.625z"/>
		<path fill="#7B6027" d="M1145.658,410.581c-3.371,0.321-5.501,28.542-6.099,37.59c0.553-0.064,1.105-0.136,1.658-0.205
			c0.888-9.656,3.39-35.438,4.817-35.853c1.665-0.484,15.272,17.855,20.316,30.102c0.549-0.193,1.094-0.395,1.637-0.598
			C1164.439,434.953,1150.974,410.36,1145.658,410.581z"/>
		<path fill="#7B6027" d="M1088.329,368.173c4.642,10.346,9.032,17.5,6.899,32.061c-1.178,8.047-1.207,19.987-0.998,29.068
			c0.124-8.383,0.861-18.997,2.378-29.195c2.509-16.861-1.882-20.949-7.526-33.339c-5.646-12.39,8.53-48.155,8.53-48.155
			C1089.332,333.685,1083.688,357.827,1088.329,368.173z"/>
		<path fill="#7B6027" d="M1147.416,388.696c0.335,4.429,1.17,1.022,1.17,1.022c3.178-34.913-12.043-40.193-12.545-53.818
			c-0.502-13.624,7.234-39.001,7.234-39.001c-3.64,6.642-7.401,22.141-8.739,38.491
			C1133.197,351.739,1148.419,351.568,1147.416,388.696z"/>
		<path fill="#7B6027" d="M1184.548,349.694c-6.857-10.9-4.182-37.639-4.182-37.639
			C1175.349,340.839,1184.548,349.694,1184.548,349.694z"/>
		<path fill="#523C1A" d="M1163.221,398.446c0,0,4.015,9.197,5.896,8.941c1.882-0.255,2.509-7.153,2.509-7.153
			s1.38,9.58-2.635,9.453C1164.978,409.559,1163.221,398.446,1163.221,398.446z"/>
		<path fill="#523C1A" d="M1161.089,415.754c0,0-6.775-21.97-14.553-28.995c-7.777-7.025-25.967-21.459-23.96-57.736
			c0,0-8.279,34.424,18.44,55.373c15.932,16.861,17.813,33.658,17.813,33.658l7.148-0.856c0.002-0.018,0-0.043,0.002-0.06
			l26.93-4.258c0,0,0.056-0.468,0.152-1.277C1189.665,412.16,1164.596,416.23,1161.089,415.754z"/>
		<path opacity="0.8" fill="#715C2B" d="M1100.852,309.035c-31.466,37.836-20.413,119.824-17.519,137.842
			c7.159,0.987,15.901,1.908,25.427,2.293C1100.279,435.979,1072.408,384.157,1100.852,309.035z"/>
		<path opacity="0.8" fill="#715C2B" d="M1170.188,416.473c-3.761-1.054-9.057,0.155-9.057,0.155s-0.669,2.044-2.008-2.895
			c-1.339-4.94-7.359-18.054-8.696-20.438c-1.338-2.384-6.357-6.642-9.534-10.048c-3.178-3.407-10.203-11.411-10.203-11.411
			s-5.018-9.197-6.356-14.136c-1.338-4.939-2.342-9.197-2.007-27.59c-5.018,17.202-1.171,55.521,17.061,71.19
			c14.651,12.591,17.635,35.178,18.242,43.569c5.135-1.327,10.131-2.999,14.875-5.079c0,0-6.857-19.586-6.523-22.652
			L1170.188,416.473z"/>
		<path opacity="0.8" fill="#715C2B" d="M1186.22,369.11c-7.36-0.34-10.202-5.961-11.541-15.328
			c-1.339-9.367-12.879-29.123-12.879-29.123s-5.52,15.498-2.174,29.634c3.346,14.136,19.234,30.996,28.267,30.996
			c4.251,0,6.857-0.793,8.441-1.631c0.83-7.28,1.58-14.067,1.928-17.785c1.004-10.729,2.344-53.308,2.009-59.268
			c-0.336-5.961,1.17-7.494,2.341-11.581c0.946-3.301,5.05-24.368,2.192-40.428c-1.642,19.873-12.061,50.647-12.061,50.647
			C1200.605,360.765,1193.58,369.451,1186.22,369.11z"/>
		<g>
			<path fill="#523C1A" d="M1165.346,336.427c1.271,12.3-1.375,22.665-5.912,23.15c-4.534,0.486-9.241-9.092-10.511-21.392
				c-1.271-12.3,1.376-22.665,5.911-23.151C1159.37,314.549,1164.075,324.126,1165.346,336.427z"/>
		</g>
		<g>
			<path fill="#9C7D39" d="M1163.938,336.624c1.119,10.839-0.905,19.94-4.523,20.328c-3.617,0.387-7.457-8.085-8.576-18.925
				c-1.119-10.84,0.905-19.94,4.523-20.328C1158.979,317.312,1162.818,325.785,1163.938,336.624z"/>
		</g>
		<path fill="#B19341" d="M1156.697,324.361c-0.752-1.789-1.003-7.664,1.882-2.683c2.886,4.981,5.144,18.649,4.14,23.503
			c-1.003,4.854-2.007,3.96-1.881-0.511C1160.963,340.2,1157.45,326.149,1156.697,324.361z"/>
	</g>
</g>
<g id="Book_1_">
	<g>
		<path fill="#5A311E" d="M1079.799,520.687l6.523,1.15l-34.248,55.053c0,0-21.827-16.861-49.677-4.471c0,0,5.268,6.643-7.025,6.643
			c-12.294,0-7.15-6.771-7.15-6.771s-16.308-12.646-38.136-9.963c0,0,5.52-9.197,9.785-12.263
			c4.265-3.065,30.609-0.639,30.609-0.639l22.455,4.343c0,0,23.96-4.981,24.838-5.492
			C1038.651,547.767,1079.799,520.687,1079.799,520.687z"/>
		<path fill="#C19F81" d="M1071.645,516.855l4.767-1.788l6.021,7.792c0,0-26.72,42.918-30.859,50.838c0,0-8.782-10.219-27.097-9.069
			c-18.315,1.149-25.215,8.175-28.728,8.175s-11.416-9.324-19.57-11.24c-8.153-1.916-24.838-1.533-24.838-1.533
			s2.383-4.215,4.516-5.747c2.133-1.533,21.953-6.643,21.953-6.643l51.434,2.938l16.81,1.533L1071.645,516.855z"/>
		<path fill="#A4836B" d="M1075.659,525.414c0,0-16.184,20.948-19.946,35.893C1055.713,561.306,1058.975,540.996,1075.659,525.414z"
			/>
		<path fill="#E1E0B1" d="M995.623,569.482c0,0,31.864-17.5,55.071-1.023c0,0,8.405-34.615,25.717-53.392
			c0,0-20.824-17.499-57.705-2.555c0,0-13.549-18.904-32.24-14.944c0,0-33.118,57.48-33.244,59.395
			C953.222,556.963,984.709,554.282,995.623,569.482z"/>
		<path fill="#D8C8A1" d="M995.623,569.482c0,0,0.048-0.026,0.124-0.066c1.481-5.896,10.812-41.593,22.998-56.918
			c-0.013,0.005-0.025,0.01-0.039,0.015c0,0-2.255-3.144-6.189-6.598c-5.201,6.457-21.753,28.541-28.134,55.194
			C988.874,562.996,992.893,565.678,995.623,569.482z"/>
	</g>
</g>
<g id="Book">
	<g>
		<g>
			<path fill="#6D747E" d="M1314.636,544.446l3.22,4.173l3.179,0.554l0.251,3.32c0,0-17.563-1.022-28.728,3.066
				c-11.165,4.087-16.811,6.131-17.062,8.175c-0.251,2.043-4.014,7.025-10.537,5.236c-6.524-1.788-4.517-2.043-10.036-2.427
				c-5.519-0.383-43.153,1.022-52.436,2.938l-42.276-52.627l13.549,0.256l63.1,16.477c0,0,34.122,5.109,36.004,4.854
				c1.882-0.255,23.458-2.171,26.344-1.788C1302.092,537.038,1314.636,544.446,1314.636,544.446z"/>
		</g>
		<g>
			<path fill="#626866" d="M1205.371,563.861l-0.251,1.789c0,0,37.007-7.536,52.562-2.939c13.172,4.216,12.79,0.633,16.309-3.065
				c4.063-4.271,11.938-7.69,18.517-9.167c12.311-2.765,25.348-1.86,25.348-1.86l-24.922-14.648l-19.318,0.767l-21.076,10.729
				l-29.229-0.255c0,0-7.401-2.3-9.283,1.66C1212.146,550.832,1205.371,563.861,1205.371,563.861z"/>
		</g>
		<path fill="#CAB38B" d="M1206.751,557.602l-1.631,8.048c0,0,22.079-10.559,61.721-4.258c14.05-9.538,27.514-17.797,51.015-12.773
			c-21.785-15.158-26.428-15.413-26.804-15.541c-0.376-0.128-18.817,0.893-20.071,1.405c-1.255,0.511-13.423,2.427-16.936,2.427
			s-16.434-0.384-21.2-0.511c-4.768-0.128-11.04-1.022-13.173,0.766C1217.54,538.954,1206.751,557.602,1206.751,557.602z"/>
		<path fill="#C3A282" d="M1170.246,516.6l-1.756-0.681l-0.879,3.235l37.509,46.495c0,0,4.517-2.939,4.266-8.048
			c-0.251-5.109-2.635-13.539-3.011-14.178C1205.999,542.786,1170.246,516.6,1170.246,516.6z"/>
		<g>
			<path fill="#B5A077" d="M1211.242,560.496c0,0,26.991-13.32,48.283-1.167C1259.525,559.329,1242.1,544.418,1211.242,560.496z"/>
		</g>
		<g>
			<path fill="#E3E0B0" d="M1266.841,561.392c16.057-28.952,51.015-12.773,51.015-12.773c-6.523-18.733-35.125-51.774-52.855-52.285
				c-17.73-0.512-35.961,23.333-35.961,23.333c-41.147-25.205-60.549-3.747-60.549-3.747l40.645,44.791
				C1234.726,534.312,1266.841,561.392,1266.841,561.392z"/>
		</g>
		<path fill="#D8C8A3" d="M1266.168,560.856c0.438,0.339,0.673,0.536,0.673,0.536c2.932-5.286,6.495-9.062,10.36-11.713
			c-10.533-16.613-32.48-33.662-39.839-39.117c-5.076,4.864-8.323,9.105-8.323,9.105
			C1244.855,529.27,1261.922,554.371,1266.168,560.856z"/>
		<g>
			<path fill="#B5A077" d="M1270.868,555.558c0,0,17.337-11.53,33.611-9.564C1304.479,545.995,1290.592,541.961,1270.868,555.558z"
				/>
		</g>
	</g>
</g>
<g id="Left_Stand">
	<g>
		<path fill="#A44637" d="M207.065,676.672c-1.505,18.648-4.015,32.444-52.939,45.218c-10.538,3.065-13.297,7.664,3.262,9.708
			c16.559,2.043,33.62-1.277,37.132-2.555c0,0-20.322,17.116-26.344,20.436c-6.021,3.321-7.276,3.832,3.763,2.3
			c11.04-1.533,25.089-5.109,35.376-10.219c10.287-5.109,22.832-9.452,42.903-8.686c20.071,0.767,33.62,4.599,51.684,5.876
			c18.065,1.277,36.38,1.023,22.581-5.109c-13.799-6.131-20.071-10.984-21.326-11.496c-1.254-0.511,22.33-12.262,54.193-8.941
			c31.864,3.321,28.351,1.022,18.315-5.109c-10.036-6.131-41.146-21.459-50.681-26.058c-9.534-4.598-22.581-1.788-25.34-23.503
			c-2.76-21.715-0.753-32.444,4.767-37.808c0.941-0.915,2.239-1.793,3.735-2.62l-89.123,0.319l-22.246,2.556
			c0,0-0.768,1.846-2.001,4.745C198.598,635.397,208.277,661.658,207.065,676.672z"/>
		<path fill="#7B3A30" d="M282.418,694.895c2.007,23.332,20.74,27.25,20.74,27.25c-1.254-0.511,22.33-12.262,54.193-8.941
			c4.973,0.519,9.083,0.899,12.442,1.151c-7.385-2.88-19.074-5.657-33.517-9.241c-19.904-4.938-36.797-16.69-43.321-29.464
			C286.432,662.876,280.41,671.563,282.418,694.895z"/>
		<path fill="#7B3A30" d="M193.266,622.002c0,0,15.305,36.021,13.799,54.67c-1.352,16.744-3.52,29.575-39.359,41.267
			c-1.099,2.704-6.957,9.611-10.404,13.647c0.029,0.003,0.056,0.007,0.086,0.012c16.559,2.043,33.62-1.277,37.132-2.555
			c0,0-13.911,11.715-22.124,17.64c69.181-20.905,56.33-108.16,56.33-108.16c12.46-3.245,58.167-4.574,70.179-4.872
			c0.687-5.051,2.084-8.698,4.102-11.337l-113.587-5.081c0,0-0.193,0.915-0.496,2.355
			C191.492,621.005,193.266,622.002,193.266,622.002z"/>
		<path fill="#62382C" d="M207.042,676.953c-1.509,18.507-4.238,32.227-52.916,44.938c-10.538,3.065-13.297,7.664,3.262,9.708
			c14.527,1.793,29.439-0.543,35.251-2.006c17.308-9.931,14.509-51.388,14.509-51.388
			C207.127,677.757,207.089,677.344,207.042,676.953z"/>
		<path fill="#713A2B" d="M234.915,649.592c0,0,0,77.492-26.26,63.186c0,0,2.341,4.77,9.868,4.77
			C226.049,717.547,236.922,700.515,234.915,649.592z"/>
		<g>
			<path fill="#713A2B" d="M206.244,684.268c-0.042,0.268-0.085,0.535-0.13,0.801c6.814-2.552,23.344-12.759,18.932-51.146
				C225.046,633.923,227.189,671.22,206.244,684.268z"/>
		</g>
		<path fill="#713A2B" d="M253.146,651.807c0,0,2.342,52.967,8.53,76.981C261.677,728.788,250.303,691.319,253.146,651.807z"/>
		<path fill="#713A2B" d="M282.418,692.511c0,0-1.505-14.647,2.007-14.477c3.512,0.17,6.857,25.548,3.178,26.739
			c-3.68,1.191-11.207-10.901-12.712-29.976s0.502-44.621,0.502-44.621s-3.848,30.826-2.677,45.984
			c1.171,15.157,6.022,33.21,15.221,33.21c9.199,0,1.84-33.551-3.847-33.21C278.403,676.501,282.418,692.511,282.418,692.511z"/>
		<path fill="#713A2B" d="M283.421,629.496c0,0,2.174,33.892,22.413,54.841C305.834,684.336,282.418,664.92,283.421,629.496z"/>
		<polygon fill="#A65839" points="215.512,596.795 217.185,622.002 203.804,635.626 140.578,579.424 144.592,559.668 
			171.689,571.248 		"/>
		<path fill="#C06D32" d="M209.156,604.63l-5.353,6.472v24.524c0,0,92.329-12.603,120.429-9.537l9.702-23.843l-27.431-5.451
			c0,0-52.521-4.087-58.207-4.087C242.609,592.708,209.156,604.63,209.156,604.63z"/>
		<polygon fill="#DA9157" points="144.592,559.668 203.804,611.102 333.935,602.246 276.73,558.306 		"/>
	</g>
</g>
</svg>
