<svg xmlns="http://www.w3.org/2000/svg" width="664.983" height="727.97" viewBox="0 0 203.651 403.11324"><path d="M120.73 343.805l-3.182 6.54 2.475 6.188 8.662 5.48 12.55 5.657 11.138 7.6 9.546 9.017 10.783 13.08 4.95 2.829 9.192-.884 12.198-3.536 10.607-6.718 6.01-7.425 2.298-7.071-.884-6.718-6.187-9.016-10.96-7.955-13.258-8.84-20.683-9.898-45.255 11.67z" fill="#cccfe2"/><path d="M57.444 274.332l-9.192-4.42-10.783-1.06-10.076 3.889-8.485 9.192-4.243 11.314-1.768 11.667s2.12 13.08 3.005 14.319c.884 1.238 5.834 10.96 5.834 10.96l3.712 4.596-22.274 6.894-19.27 9.369-10.252 8.839-3.182 7.425 1.59 8.308 4.42 6.54 9.016 6.895 12.905 4.95 10.96 2.12 8.132-4.595 13.08-10.43 14.143-9.016 19.445-7.601 11.49-3.712 3.182-2.121 2.652-3.182-2.497-10.098 27.422-1.57 13.612 1.946 34.648-6.718 10.96-6.541 10.96-9.723.177-18.208-3.36-13.612-6.54-10.607-9.016-6.01-11.137-4.066-9.9.53-4.242 2.652-74.246-2.298-.882 3.183zM163.333 203.09l5.657-13.257 8.839-13.435 11.844-11.314 9.546-3.536 9.369.177 13.612 4.95 6.364 7.248 14.849.53 13.435 2.12 10.783 5.48 2.828 6.365-2.475 3.889-8.308 3.182-17.501 2.298-10.96-.354-7.425 6.187 30.229 12.02 16.97 9.193 7.778 6.187 3.005 5.48.177 4.066-2.828 2.475-6.894 1.237-6.718.177-25.633-3.89-20.683-5.126-18.385-1.414 16.264 15.026 11.667 12.198 7.425 12.905.354 6.894-3.005 3.359-6.894-1.061-12.551-6.01-17.147-11.844-18.385-14.142-5.48 2.652-11.844-46.846 2.12-4.065z" fill="#cccfe2"/><path d="M68.404 174.453l-.53 14.319-7.248-.53-8.485 4.773-12.198 10.96-23.865-10.783-14.672-5.657-8.662-1.414-8.132-3.712-10.783-.707-12.021 2.652-7.955 6.364-13.435 4.066-12.021 7.07-3.182 6.365v4.243l5.303 2.298 15.38-.354 1.414 4.95 9.016 3.712-.707 2.12-21.567 16.795-9.192 10.076-3.183 3.18 1.59 4.95 7.602 1.769 12.728-2.298 23.688-7.601 20.86-9.37 7.248 5.128-7.955 12.55-7.425 16.088-2.475 11.667 3.889 4.065 6.01-1.768 10.783-7.248 13.965-12.728 6.54-8.31 10.254 2.299 8.132-1.237 3.182 4.066 8.485-.884 10.607-7.601-1.237 15.556 73.362.177-3.712-27.754 8.662 5.48 10.253 3.359 4.596 5.834 11.137 7.248 8.132 2.298 6.364-1.591 1.414-7.425-2.298-8.132-13.258-50.912-6.894 5.303-17.147-14.496-26.34-28.284-44.017 9.016z" fill="#cccfe2"/><path d="M-22.23 180.656c-14.298 0-22.737 5.954-27.375 13.188-4.638 7.234-5.594 15.613-5.594 20.812 0 1.672.195 2.99.656 4.094a5.63 5.63 0 0 0 2.125 2.53c1.775 1.172 3.933 1.517 6.562 2.439 14.78 5.179 27.279 15.53 39.406 24.688 12.127 9.157 23.928 17.188 37.438 17.188 8.675 0 15.574-5.384 22.375-14.531 4.499-6.051 9.006-13.445 14.212-22.964 2.816-5.15 6.368-11.013 6.319-16.38-9.03 15.989-15.957 28.96-22.562 37.844s-12.694 13.53-20.344 13.53c-12.51 0-23.876-7.58-35.938-16.687-12.062-9.108-24.751-19.656-40.094-25.031-2.805-.983-4.895-1.428-6-2.156-.552-.364-.908-.77-1.188-1.438-.28-.67-.47-1.655-.47-3.125 0-4.886.978-12.852 5.22-19.47 4.242-6.616 11.629-12.03 25.25-12.03 13.685 0 27.404 11.983 37.562 24.188 10.158 12.204 16.75 24.438 16.75 24.438 1.292-6.24-14.407-25.507-14.844-26.031C6.9 193.32-7.12 180.656-22.23 180.656z" fill="#929ab8"/><path d="M63.895 187.093c-4.661-.063-9.24 2.309-13.5 5.625-4.261 3.316-8.25 7.688-11.688 12.03-6.875 8.688-11.594 17.345-11.594 17.345l2.188 1.219s4.656-8.512 11.375-17c3.359-4.244 7.234-8.47 11.25-11.594 4.016-3.125 8.152-5.125 11.969-5.125 10.45 0 13.906 8.03 13.906 8.03.859-7.863-9.942-10.476-13.906-10.53z" fill="#929ab8"/><path d="M15.9 36.214l-7.598-8.152-5.75-3.375-6.188 7.312-5.312 16.438-.688 9.812 1.188 19.812 7.312 14.812 4.625 9 12.562 10.25 2.438 14.438 8.814 19.519 10.96 14.142 16.352 10.43 18.12 4.419 22.45-.354 12.906-4.42 11.932-6.363 11.844-12.198 6.806-12.374 5.568-15.114 1.679-16.794-1.061-13.347-1.503-9.281-20.18-16.89L15.902 36.215z" fill="#cccfe2"/><path d="M68.12 174.755c.376 4.06.367 9.258-1.023 13.886M40.814 204.507C25.79 197.723 9.789 188.496-7.08 186.182M-45.31 190.103s-29.965 7.455-29.965 20.026c0 7.016 21.049 4.239 21.049 4.239M-42.533 223.576s-35.227 26.31-35.227 32.889c0 17.102 66.216-13.448 66.216-13.448M-4.82 248.279s-17.248 25.434-17.248 38.297c0 20.903 41.367-23.68 41.367-23.68" fill="none" stroke="#929ab8" stroke-width="2.5"/><path d="M59.739 236.78s-.7 10.538-1.781 21.032c-.854 8.285-1.016 18.668-1.016 26.98 0 5.71.235 10.17 2.766 14.458 0 0-.922-24.97.75-41.188 1.088-10.553 1.78-21.094 1.78-21.094l-2.5-.187z" fill="#929ab8"/><path d="M40.802 267.843c-14.316 0-28.625 13.37-28.625 36.719 0 23.708 19.308 39.308 26.938 37.812 0 0-24.438-10.022-24.438-37.812 0-22.337 13.36-34.22 26.125-34.22 6.566 0 10.645 1.602 13.062 3.126 2.417 1.524 3.125 2.875 3.125 2.875l2.188-1.22s-1.172-1.997-4-3.78c-2.828-1.783-7.402-3.5-14.375-3.5z" fill="#929ab8"/><path d="M59.367 257.066c-4.291 5.515-15.646 16.384-23.411 6.253" fill="none" stroke="#929ab8" stroke-width="2.5"/><path d="M141.236 133.44l.795 10.784-1.768 15.29-2.563 14.055.884 19.003 5.834 21.655-11.49-7.601-7.955-9.192.972 19.18 3.712 14.496-10.43-14.938-6.541-14.407-3.005-16.971 2.475-16.087 11.932-7.601 10.695-12.993 6.54-15.114.178 1.06-.265-.618z" fill="#feffa5"/><path d="M124.958 223.125l-2.438.469c4.786 25.793 7.399 48.219 9.437 74.03 1.712-4.242 1.709-9.193 1.335-13.8-1.658-20.42-4.391-39.447-8.334-60.7z" fill="#929ab8"/><path d="M176.238 309.864l15.026-2.121 16.617.354 15.38 3.359 13.612 5.303 17.678 10.783 5.126 4.596-10.607-1.768 11.137 9.016 10.076 9.723 6.269 12.703 1.5 12.875-2.625 15.5-4.5 9.875-3.375-13.5-8.25-13.25-2.75-2.25 1.5 13.375-6.75-5.875-9.75-8.125-13.5-5.625-16.25-3.75-9.375-8.875-20.75-12.25-16.25-8 6.875-6.625 4.125-11.625-.19-3.823z" fill="#feffa5"/><path stroke-miterlimit="6.2" d="M212.143 360.89c16.186 3.155 32.084 7.492 45.539 24.557.566-5.85.024-9.625-2.071-15.655 6.889 7.419 13.195 15.726 15.203 30.582 0 0 7.07-10.96 7.07-29.522 0-19.193-21.36-35.691-29.804-40.534 4.352.344 7.819 1.044 13.028 2.813-11.333-10.227-36.052-25.212-61.358-25.212-14.496 0-22.981 2.475-22.981 2.475" fill="none" stroke="#f0e268" stroke-width="2.5"/><path d="M144.489 269.406c-5.505 0-9.022 1.209-11.188 2.5-1.083.645-1.836 1.323-2.312 1.844-.476.52-.75.969-.75.969l2.219 1.188s.054-.118.375-.47c.32-.35.882-.857 1.75-1.374 1.736-1.035 4.765-2.156 9.906-2.156 4.862 0 12.805 2.836 19.344 8.625 6.539 5.789 11.75 14.415 11.75 26.188 0 15.424-8.04 23.802-16.187 28.53-8.15 4.73-16.313 5.626-16.313 5.626 7.634 1.204 16.989-3.136 17.563-3.47 8.662-5.017 17.437-14.38 17.437-30.687 0-12.517-5.618-21.887-12.594-28.062-6.976-6.175-15.216-9.251-21-9.251zM99.614 342.999c-8.842.013-21.996.952-26.22 4.03 17.704-2.432 34.966-2.305 51.907-.155-6.157-3.076-17.028-3.887-25.687-3.875z" fill="#929ab8"/><path d="M25.327 334.409s-54.704 14.29-54.704 34.17c0 18.418 30.988 27.042 36.982 27.042 12.132 0 14.518-18.798 67.239-34.643 11.316-3.401 3.654-15.494 3.654-15.494" fill="none" stroke="#929ab8" stroke-width="2.5"/><path d="M166.052 331.625l-.906 2.312s12.956 5.145 25.906 12.719c6.475 3.787 12.942 8.169 17.719 12.78 4.776 4.613 7.78 9.39 7.78 13.813 0 6.874-5.207 13.287-12.437 17.969-7.23 4.682-16.371 7.53-23.438 7.53-3.604 0-5.81-1.092-8.062-3.155-2.253-2.063-4.461-5.157-7.531-8.906-6.141-7.498-15.807-17.432-37.187-26.75-3.986-1.737-6.288-3.528-7.531-5.125-1.243-1.597-1.506-3-1.375-4.25.26-2.502 2.312-4.438 2.312-4.438l-2.461-1.004s-1.94 1.544-2.32 5.192c-.191 1.824.245 3.978 1.844 6.03 1.599 2.054 4.294 4.03 8.53 5.876 21.04 9.17 30.235 18.686 36.25 26.03 3.009 3.674 5.218 6.84 7.782 9.189 2.564 2.348 5.597 3.812 9.75 3.812 7.729 0 17.144-2.992 24.78-7.938 7.638-4.946 13.595-11.947 13.595-20.062 0-5.517-3.52-10.754-8.531-15.594-5.012-4.84-11.61-9.31-18.188-13.156-13.154-7.692-26.281-12.874-26.281-12.874zM202.677 160.249c-11.565 0-21.811 9.45-29.812 21.625-3.61 5.49-6.973 11.492-9.39 17.704-2.074 5.329-6.66 15.208-4.423 22.14 2.378-11.731 8.122-26.624 15.906-38.47 7.785-11.843 17.539-20.5 27.719-20.5 12.709 0 20.298 5.72 24.906 12.22 4.608 6.499 6.094 13.96 6.094 16.719 0 1.493-.178 2.453-.406 3.062-.23.609-.461.887-.875 1.188-.83.6-2.576 1.08-4.688 2.53-14.038 9.638-23.885 23.959-33.375 35.75-4.745 5.897-9.396 11.168-14.344 14.907-4.948 3.739-10.147 5.969-16.188 5.969-2.621 0-6.304-1.811-10.156-4.72-3.852-2.907-7.902-6.84-11.563-10.78-7.32-7.882-13.094-15.781-13.094-15.781l-2 1.469s5.84 7.988 13.28 16c3.72 4.006 7.832 8.04 11.876 11.094 4.044 3.052 7.983 5.219 11.656 5.219 6.662 0 12.444-2.506 17.688-6.47 5.244-3.962 9.993-9.392 14.78-15.343 9.578-11.901 19.345-25.961 32.876-35.25 1.75-1.202 3.264-1.508 4.719-2.562a4.96 4.96 0 0 0 1.75-2.312c.386-1.03.562-2.302.562-3.97 0-3.56-1.56-11.174-6.531-18.187-4.972-7.013-13.5-13.251-26.967-13.251z" fill="#929ab8"/><path d="M139.598 193.61c6.732 6.588 13.495 13.017 20.61 17.688" fill="none" stroke="#929ab8" stroke-width="2.5"/><path stroke-miterlimit="6.2" d="M112.802 167.937c-7.757 23.353 2.624 45.627 17.5 64.625-3.987-11.39-4.99-23.03-5-34.75 6.162 7.36 13.21 12.773 19 16.25 0 0-9.796-29.79-5-51 4.638-20.51 2.408-31.71 2.408-31.71" fill="none" stroke="#f0e268" stroke-width="2.5"/><path d="M155.969 207.936c1.925-1.608 4.218-3.216 7.309-4.824M228.909 173.732s40.928.146 40.928 14.47c0 10.379-37.712 9.356-37.712 9.356M222.77 203.697s59.113 19.583 59.113 34.129c0 15.13-50.49-.656-66.13-2.556-7.986-.97-14.763-1.242-14.763-1.242" fill="none" stroke="#929ab8" stroke-width="2.5"/><path d="M198.505 232.054s38.005 29.38 38.005 47.067c0 20.756-58.03-27.627-58.03-27.627M127.265 246.468c8.348 5.364 16.338 12.199 28.412 7.22" fill="none" stroke="#929ab8" stroke-width="2.5"/><path d="M174.97 253.249s8.77 17.54-3.8 17.54c-12.571 0-25.726-15.201-25.726-15.201" fill="none" stroke="#929ab8" stroke-width="2.5"/><path d="M201.802 173.375c-2.962 4.312-.262 10.118 2.812 13.562 3.352 3.755 10.336 6.213 14.344 4.719-5.55-1.276-9.708-3.437-12.531-6.438-2.824-3.001-4.378-6.864-4.625-11.843zM-23.761 192.999c.504 5.142-.233 9.433-2.375 12.875s-5.712 6.117-11.22 7.875c7 .85 10.687-2.353 13.345-6.531 2.545-4 3.877-10.816.25-14.22z" fill="#929ab8"/><path d="M109.677 8.812c0-1.125 3.625-5.625 3.625-5.625l4.125-1.25 8.375 5.25 10.625 11.5 7.625 13.75 4.375 11.875 1.25 12.25-1.75 12.5-44-51.75 5.75-8.5z" fill="#cccfe2"/><path d="M25.093 63.084l7.6 8.662 11.138 9.369 10.43 7.248 13.965 4.419 13.258.53-10.96-8.31-9.546-9.545-5.834-7.955 26.34-1.945 19.445 2.475 18.915 5.303 17.147 7.955 14.496 7.6-1.945-15.91-6.364-17.146-9.546-16.617-10.253-11.667-13.79-10.253 13.613 1.414-7.601-6.894-11.49-5.48L85.196 2.8l-16.263.53-20.86 6.54L30.042 21.54l-14.85 15.733 6.01 10.43 3.89 15.382z" fill="#feffa5"/><path d="M109.719 9.376s3.456-10.971 10.165-6.11c37.93 27.495 28.429 66.365 28.429 66.365" fill="none" stroke="#929ab8" stroke-width="2.5"/><path d="M11.02 86.999C3.424 73.782.059 63.487 1.958 46.31c-5.274 8.944-3.3 31.568 9.062 40.688zM123.083 19.468c5.156 7.067 9.326 14.46 10.219 21.625l2.5-.312c-1.598-4.862-2.841-14.314-12.72-21.313z" fill="#929ab8"/><path d="M51.802 86.437c-6.873 10.252-17.187 16.788-29.281 21.625 7.372.104 10.513-2.067 13.11-3.578 7.24-4.245 13.527-9.605 18.265-16.672l-2.094-1.375z"/><path d="M79.677 1.906c-40.804 0-64.906 34.219-64.906 34.219l2.062 1.469S40.273 4.406 79.677 4.406c15.804 0 26.966 4.09 34.188 8.156 3.145 1.77 5.407 3.464 7.094 4.875-3.327-.742-6.907-1.255-11.781-1.5l-5.344-.281 4.688 2.594c20.784 11.597 40.029 39.42 40.937 68.5-23.233-12.897-48.628-27.571-94.156-20.125l-1.812.312.938 1.562c5.417 9.118 14.06 17.424 23.438 23.344-10.43.296-19.307-2.55-27.22-7.406-8.918-5.475-17.674-14.374-25.253-22.28l-.84 2.812c7.6 7.928 15.513 15.905 24.78 21.594 9.269 5.689 19.927 9.037 32.75 7.656l3.939-.406-3.47-1.906C72.826 86.54 63.618 78.025 57.71 68.876c44.772-6.744 69.052 8.18 92.53 21.156l1.876 1.03v-2.125c.032-28.972-17.677-56.46-38.156-70.062 4.178.41 7.679 1.004 10.875 2.125l4.188 1.438-2.781-3.406s-3.598-4.37-11.156-8.625c-7.558-4.255-19.172-8.501-35.41-8.501z" fill="#f0e268"/><path d="M2.708 24.187c-1.127.076-2.133.617-2.97 1.406-.835.789-1.554 1.833-2.28 3.094-10.478 18.202-10.19 37.363-5.22 52.875 4.849 15.127 14.01 26.795 22.532 31.094.159 1.749 1.68 16.34 10 31.469 8.848 16.09 25.524 32.334 55.906 32.469 26.695.118 44.049-11.467 54.156-27.125 10.1-15.65 13.08-35.262 11.594-51.47v-.03c-.423-5.084-1.356-9.796-2.625-13.97l-2.406.72a64.769 64.769 0 0 1 2.562 13.469c1.448 15.724-1.508 34.863-11.22 49.906-9.71 15.043-26.056 26.115-52.03 26-29.504-.131-45.193-15.626-53.75-31.188-8.557-15.562-9.781-31.094-9.781-31.094l-.062-.75-.656-.281c-7.578-3.5-17.046-15-21.844-29.97-4.798-14.97-5.09-33.345 5-50.874.662-1.151 1.298-1.985 1.844-2.5.546-.515.963-.718 1.438-.75.95-.064 2.666.776 5.312 3.25 6.449 6.028 10.746 15.579 13.344 23.625 2.598 8.046 3.53 14.53 3.53 14.53 1.384-5.167-.598-13.558-1.155-15.311-2.664-8.253-7.001-18.145-14-24.688-2.81-2.625-4.965-4.057-7.22-3.906z" fill="#929ab8"/><path d="M104.927 148.812c-.613 7.023-4.357 13.769-10.312 15.25-6.16 1.532-12.624-3.543-16.812-8.938 2.08 8.358 11.803 12.36 17.344 10.875 6.746-1.808 12.324-10.412 9.78-17.187zM77.489 138.249c4.288-4.287 10.576-5.398 17.78-5.312-2.774-2.411-16.35-1.85-17.78 5.312zM82.864 150.937c-1.816-.255-2.83-1.386-2.125-3.562-2.723.765-1.55 5.732 2.125 3.562zM98.77 144.156c.998 1.857.296 3.273-1.406 3.625 2.853 1.956 4.909-3.213 1.406-3.625z" fill="#929ab8"/><path d="M139.52 81.435l-1.22 2.033 11.032 6.03.878-2.01-10.69-6.053z" fill="#f0e268"/><path d="M91.083 81.406c.054.57.128 1.058.219 1.5.09.442.08.799.562 1.344 3.712 4.19 11.818 6.124 20.312 7.125 4.102.483 20.106.412 21.53-5.344-4.44 2.584-13.118 3.564-21.311 2.844-8.193-.72-16.021-3.151-18.656-6.281-.414-3.501-.746-6.725-.406-10.312-2.173 2.313-2.477 6.716-2.25 9.124zM139.302 118.749l-.445 2.139c3.173.976 10.468 1.698 14.664-1.826-4.366.81-8.722 1.143-14.22-.313zM137.02 127.625l-1.25 1.719c1.798 1.642 5.717 5.066 13.272 3.938-3.32-.814-9.815-2.698-12.022-5.657zM29.989 142.843c-1.72 2.488-7.575 4.704-13.906 6.219 5.98.642 12.54-1.336 15.745-4.344l-1.84-1.875zM36.864 151.999c-1.773 3.429-4.786 6.31-9.625 9.344 6.865-.88 10.203-5.017 11.75-7.97L36.864 152z"/><path d="M60.614 110.593s4.812 14.119 4.812 28.594c0 7.194-1.55 11.935-3.72 14.875-2.168 2.94-4.951 4.163-7.75 4.375-7.513.569-14.787-5.815-20.124-12.625-5.337-6.81-8.656-13.781-8.656-13.781l-.625-1.344c-3.051 2.482-5.972 4.954-10.625 6.53 5.529.149 8.097-1.815 9.688-2.811.825 1.655 3.547 6.929 8.28 12.969 5.539 7.065 13.265 14.243 22.25 13.562 3.435-.26 6.978-1.902 9.563-5.406 2.585-3.504 4.219-8.81 4.219-16.344 0-4.872-1.252-22.675-7.312-28.594zM98.645 104.156c-1.99 5.615 1.53 18.855 2.03 20.312 1.729 5.037 4.069 10.104 7.282 14 3.213 3.896 7.409 6.656 12.594 6.656 4.68 0 8.418-2.521 11.188-6.062 2.77-3.541 4.697-8.137 6.094-12.688 2.477-8.07 3.108-15.13 3.25-16.844 4.469.028 8.047.294 10.969-2.25-4.391.71-8.598.255-13.188-.688l-.125 1.469s-.594 8.84-3.281 17.594c-1.343 4.377-3.22 8.72-5.687 11.875-2.467 3.154-5.414 5.094-9.22 5.094-4.316 0-7.745-2.221-10.655-5.75-2.91-3.53-5.197-8.353-6.875-13.22-3.356-9.73-4.376-19.498-4.376-19.498z"/></svg>