<svg xmlns:osb="http://www.openswatchbook.org/uri/2009/osb" xmlns="http://www.w3.org/2000/svg" xmlns:xlink="http://www.w3.org/1999/xlink" width="1920" height="1080"><defs><linearGradient id="j" osb:paint="solid"><stop offset="0" stop-color="#ab2726"/></linearGradient><linearGradient osb:paint="solid" id="i"><stop offset="0" stop-color="#ce5e47"/></linearGradient><linearGradient osb:paint="solid" id="D"><stop offset="0" stop-color="#662915"/></linearGradient><linearGradient id="h"><stop offset="0" stop-color="#fdbc9a"/><stop offset="1" stop-color="#f59071"/></linearGradient><linearGradient id="g"><stop offset="0" stop-color="#febd9c"/><stop offset="1" stop-color="#f9a181"/></linearGradient><linearGradient gradientTransform="translate(14472 8904)" id="w" osb:paint="solid"><stop offset="0" stop-color="#0b1b26"/></linearGradient><linearGradient id="s" osb:paint="solid"><stop offset="0" stop-color="#cf7360"/></linearGradient><linearGradient id="u" osb:paint="solid"><stop offset="0" stop-color="#d3735a"/></linearGradient><linearGradient id="p" osb:paint="solid"><stop offset="0" stop-color="#7d4317"/></linearGradient><linearGradient id="n" osb:paint="solid"><stop offset="0" stop-color="#627a86"/></linearGradient><linearGradient id="f"><stop offset="0" stop-color="#f69779"/><stop offset=".599" stop-color="#f48667"/><stop offset="1" stop-color="#ffc5a3"/></linearGradient><linearGradient id="e"><stop offset="0" stop-color="#f69779"/><stop offset="1" stop-color="#ffbba2" stop-opacity="0"/></linearGradient><linearGradient id="c"><stop offset="0" stop-color="#220d11"/><stop offset="1" stop-color="#71342a"/></linearGradient><linearGradient osb:paint="solid" id="b"><stop offset="0" stop-color="#dc896b"/></linearGradient><linearGradient id="a"><stop offset="0" stop-color="#ffc4a2"/><stop offset="1" stop-color="#ffc5a3"/></linearGradient><linearGradient gradientUnits="userSpaceOnUse" y2="697.657" x2="736.901" y1="-175.115" x1="538.107" id="E" xlink:href="#a"/><linearGradient gradientUnits="userSpaceOnUse" y2="354.554" x2="427.464" y1="354.554" x1="419.143" id="F" xlink:href="#b"/><linearGradient gradientUnits="userSpaceOnUse" y2="613.407" x2="808.557" y1="281.48" x1="800.525" id="G" xlink:href="#c"/><clipPath id="H"><path d="M681.429 585.934l-12.858.714-.357-7.5s-14.182-18.312-16.071-29.286c-3.151-18.304 6.606-36.572 8.928-55 1.495-11.859 1.356-24.577 4.982-35.967 5.892-18.502 27.518-50.104 27.518-50.104s-21.092-80.964 17.143-128.572c22.868-28.472 61.578-32.078 98.75-35.357 6.915-.61 19.401-1.463 25.536 1.786 5.227 2.768 7.081 9.562 11.429 13.571 17.192 15.856 38.324 21.04 56.428 43.929 27.207 34.396 36.837 112.576 36.837 112.576l-5.555.252s1.351 17.95 0 26.77c-7.248 47.293-24.493 62.724-23.865 68.69.356 3.388 5.316 3.732 4.672 9.091-.453 3.761-6.819 9.091-6.819 9.091z" fill="url(#d)"/></clipPath><linearGradient gradientTransform="translate(0 -27.638)" y2="613.407" x2="808.557" y1="281.48" x1="800.525" gradientUnits="userSpaceOnUse" id="d" xlink:href="#c"/><clipPath id="B"><path d="M-2903.38 1110.406c1.415-1.742 49.066-13.114 97.887-13.999 52.871-.958 107.246 8.743 109.295 11.524 1.455 1.975 9.167 61.324-3.89 73.185-9.516 8.646-195.61 15-203.292.354-11.006-20.982-3.629-66.601 0-71.064z" fill="#d66b43"/></clipPath><linearGradient xlink:href="#e" id="y" x1="-1170.5" y1="226" x2="2674.5" y2="202" gradientUnits="userSpaceOnUse"/><linearGradient xlink:href="#f" id="x" x1="-1170.5" y1="226" x2="2674.5" y2="202" gradientUnits="userSpaceOnUse"/><clipPath id="m"><path d="M-4.5-745.25s-.07-4.028 1.25-5.25c9.644-8.924 24.305-23.504 22.5-42.25-.669-6.945-17.245-10.08-24.25-13-4.77-1.988-8.641-7.155-9.5-12.25-1.214-7.203 4.138-16.893 5.25-25.5.396-3.062.5-9.25.5-9.25s-10.994-.785-16.5-1c-4.747-.185-14.25-.25-14.25-.25s8.65 10.389 10 16.75c1.01 4.762.19 10.035-1.75 14.5-6.023 13.86-19.963 11.451-29.5 16.5-6.991 3.7-9.673 15.4-6.75 22.75 3.543 8.908 9.536 20.243 14 30.5 1.223 2.81 3.5 8.5 3.5 8.5z" fill="#213131"/></clipPath><clipPath id="q"><path d="M-50.205-613.52s-5.579-23.889-8.838-35.71c-3.766-13.657-12.375-40.658-12.375-40.658s54.102 13.733 83.439 16.263c22.199 1.915 37.83-9.9 37.83-9.9s-4.83 32.226-6.364 48.437c-.956 10.108-1.768 30.406-1.768 30.406s-11.884 3.76-18.03 3.89c-24.99.522-73.894-12.729-73.894-12.729z" fill="#a6662f"/></clipPath><clipPath id="o"><path d="M-50.205-613.52s-5.579-23.889-8.838-35.71c-3.766-13.657-12.375-40.658-12.375-40.658s54.102 13.733 83.439 16.263c22.199 1.915 37.83-9.9 37.83-9.9s-4.83 32.226-6.364 48.437c-.956 10.108-1.768 30.406-1.768 30.406s-11.884 3.76-18.03 3.89c-24.99.522-73.894-12.729-73.894-12.729z" fill="#a6662f"/></clipPath><clipPath id="r"><path d="M-50.205-613.52s-5.579-23.889-8.838-35.71c-3.766-13.657-12.375-40.658-12.375-40.658s54.102 13.733 83.439 16.263c22.199 1.915 37.83-9.9 37.83-9.9s-4.83 32.226-6.364 48.437c-.956 10.108-1.768 30.406-1.768 30.406s-11.884 3.76-18.03 3.89c-24.99.522-73.894-12.729-73.894-12.729z" fill="#a6662f"/></clipPath><clipPath id="t"><path d="M-2466.742-849.34l129.047-3.89s.971 42.188 1.06 63.286c.062 14.26-.707 45.609-.707 45.609s-50.425 2.193-74.953 2.828c-13.784.357-39.951-.707-39.951-.707z" fill="#802a21"/></clipPath><clipPath id="I"><path d="M1900.35 389.864s31.62-22.38 49.143-83.085c5.064-17.543 2.844-38.478-6.01-54.447-8.3-14.97-27.388-22.038-39.805-33.82-8.42-7.99-17.894-16.245-21.481-28.663-7.758-26.863-.903-59.797 13.556-87.778 5.992-11.595 25.103-30.052 25.103-30.052l-107.127 2.475s24.362 24.844 32.527 39.952c14.5 26.831 15.44 58.165 2.828 83.085-6.494 12.83-18.215 22.278-27.93 32.88-9.29 10.138-23.812 16.608-28.992 29.345-6.437 15.83-4.18 34.79.354 51.265 15.287 55.546 47.376 80.61 47.376 80.61z" fill="#242153"/></clipPath><clipPath id="K"><path d="M1900.35 389.864s31.62-22.38 49.143-83.085c5.064-17.543 2.844-38.478-6.01-54.447-8.3-14.97-27.388-22.038-39.805-33.82-8.42-7.99-17.894-16.245-21.481-28.663-7.758-26.863-.903-59.797 13.556-87.778 5.992-11.595 25.103-30.052 25.103-30.052l-107.127 2.475s24.362 24.844 32.527 39.952c14.5 26.831 15.44 58.165 2.828 83.085-6.494 12.83-18.215 22.278-27.93 32.88-9.29 10.138-23.812 16.608-28.992 29.345-6.437 15.83-4.18 34.79.354 51.265 15.287 55.546 47.376 80.61 47.376 80.61z" fill="#242153"/></clipPath><clipPath id="J"><path d="M1900.35 389.864s31.62-22.38 49.143-83.085c5.064-17.543 2.844-38.478-6.01-54.447-8.3-14.97-27.388-22.038-39.805-33.82-8.42-7.99-17.894-16.245-21.481-28.663-7.758-26.863-.903-59.797 13.556-87.778 5.992-11.595 25.103-30.052 25.103-30.052l-107.127 2.475s24.362 24.844 32.527 39.952c14.5 26.831 15.44 58.165 2.828 83.085-6.494 12.83-18.215 22.278-27.93 32.88-9.29 10.138-23.812 16.608-28.992 29.345-6.437 15.83-4.18 34.79.354 51.265 15.287 55.546 47.376 80.61 47.376 80.61z" fill="#242153"/></clipPath><filter id="k"><feColorMatrix values="0.15 0 0 0 0 0 0.29 0 0 0 0 0 0.54 0 0 0 0 0 1 0"/></filter><filter id="v"><feColorMatrix values="1.85 0 0 0 0 0 1.71 0 0 0 0 0 1.46 0 0 0 0 0 1 0"/></filter><linearGradient gradientUnits="userSpaceOnUse" y2="-240.206" x2="2950.765" y1="787.576" x1="1751" id="L" xlink:href="#g"/><radialGradient gradientUnits="userSpaceOnUse" gradientTransform="matrix(.95254 .01967 -.00914 .44275 49.934 492.094)" r="2368" fy="914" fx="876" cy="914" cx="876" id="l" xlink:href="#h"/><clipPath id="C"><path d="M1612.011 181.388l121.625 4.998-35.418 505.219L1591.778 742l-16.954-43.838 2.631-321.617-10.73-152.008z" fill="#8e432f"/></clipPath><linearGradient gradientUnits="userSpaceOnUse" y2="-29.571" x2="472.737" y1="-29.571" x1="373.604" id="z" xlink:href="#i"/><linearGradient xlink:href="#j" id="A" x1="403.232" y1="792.879" x2="1208.063" y2="792.879" gradientUnits="userSpaceOnUse"/></defs><path d="M2010.305 15.097s-79.626-17.987-116.673-145.664c-21.817-75.187-7.071-234.76-7.071-234.76l-268.7 9.9 8.485 394.566 364.867 31.113 28.284-12.728z" fill="#b04e43" stroke="#000" filter="url(#k)"/><path d="M-1460 780L620 616l1268-28 1340 308 16 344-4736-28z" fill="url(#l)" filter="url(#k)"/><path d="M272 724c-132.435 5.674-239.71 9.55-355 14l-73-222 54-627 347 49 121 262 18 298-45 224z" fill="#953639" filter="url(#k)"/><g transform="matrix(1.72434 0 0 1.72434 4136.086 2001.053)" filter="url(#k)"><path d="M-2306.557-852.964l30.277 70.886-13.187 33.419-92.004 6.366-10.119-49.921-.5-58.25L-2370-853z" fill="#b94437"/><path d="M-2288.905-876.918s1.748-19.046 3.175-36.95c3.193-40.068 5.135-103.118-15.196-137.705-40.986-69.729-126.218-91.57-126.218-91.57h-13.789l-44.194 119.854 3.182 159.099 184.555-6.364z" fill="#b84437"/><path d="M-2314.56-1050.87c-17.35 9.326-39.248 2.316-48.908-15.657-9.66-17.973-3.425-40.103 13.927-49.43 17.352-9.325 39.249-2.315 48.909 15.658 9.66 17.973 3.424 40.103-13.927 49.429z" fill="#cfcea2"/><path d="M-2325.674-852.523s-1.634 39.865-2.475 59.75c-.678 16.023 1.347 39.393 5.833 43.841 27.647 1.624 60.089 1.368 86.798.177 4.017-8.074 6.315-32.406 7.071-52.503.672-17.871.617-36.107.353-54.447l-65.053-5.303zM-2466.742-849.34l129.047-3.89s.971 42.188 1.06 63.286c.062 14.26-.707 45.609-.707 45.609s-50.425 2.193-74.953 2.828c-13.784.357-39.951-.707-39.951-.707z" fill="#802a21"/><path d="M-2462-847.5c78.52-.763 156.072-.943 244.25-7.5.404-2.978.573-5.604-1.204-7.753-2.497-3.018-5.008-7.466-6.546-8.747-3.542-1.386-44.323-7.045-66.75-7.75-27.335-.86-54.727-2.025-82-2.75-19.493-.518-38.52-.397-58 .5-13.153.606-31.75 4.5-31.75 4.5z" fill="#f89379"/><path d="M-2405.57-946.942s.83-1.969 1.68-2.756c6.21-5.747 15.651-16.886 14.49-28.958-.432-4.473-11.107-6.492-15.618-8.372-3.071-1.28-5.565-4.608-6.118-7.89-.782-4.638 2.665-10.878 3.381-16.421.255-1.972.322-5.957.322-5.957s-7.08-.505-10.626-.644c-3.057-.12-9.176-.16-9.176-.16s5.57 6.69 6.44 10.786c.65 3.067.122 6.462-1.128 9.338-3.878 8.925-12.855 7.374-18.997 10.626-4.503 2.383-6.23 9.917-4.347 14.65 2.281 5.738 6.14 13.037 9.015 19.642.788 1.81 2.254 5.474 2.254 5.474z" fill="#213131"/><path d="M-2308.5-988.795c6.432 18.593-3.743 38.989-22.726 45.555-18.982 6.566-39.584-3.185-46.016-21.778-6.43-18.593 3.744-38.99 22.727-45.555 18.982-6.566 39.584 3.185 46.016 21.778z" fill="#cfcea2"/><path d="M-2245.532-965.855c-1.707 18.109-18.331 31.352-37.13 29.58-18.8-1.772-32.657-17.89-30.95-35.998 1.707-18.109 18.332-31.352 37.131-29.58 18.8 1.773 32.656 17.89 30.95 35.998z" fill="#fefcfe"/><path d="M-2338.854-957.291c-9.04 1.988-18.025-3.933-20.07-13.226-2.043-9.293 3.628-18.439 12.668-20.427 9.04-1.989 18.025 3.933 20.07 13.226 2.043 9.293-3.628 18.438-12.668 20.427z" fill="#a8a676"/><path d="M-2337.135-943.835s3.55-6.818 4.326-8.766c1.113-2.793.114-16.393.114-16.393l-9.45.228s.786 6.703-.113 10.815c-1.024 4.681-5.123 13.433-5.123 13.433z" fill="#2e3f35"/><path d="M-2267.777-957.041c-6.269 6.628-16.77 6.876-23.455.554-6.685-6.322-7.023-16.82-.755-23.449 6.268-6.628 16.77-6.876 23.454-.554 6.686 6.322 7.024 16.82.756 23.449z" fill="#b8b893"/><path d="M-2297.745-941.444s5.898-4.592 7.058-8.766c.724-2.606.977-7.055.455-8.994-.337-1.25-2.05-3.301-2.05-3.301l8.88.455s.34 11.086-.227 12.978c-.565 1.884-5.55 7.998-5.55 7.998zM-2281.854-940.258s6.374-5.93 8.13-10.304c.91-2.266 0-7.326 0-7.326l8.452.564s1.159 6.74-.402 9.499c-2.053 3.629-7.486 8.372-7.486 8.372z" fill="#2e3f35"/><path d="M-2236.932-918.637l1.767-18.739c-78.912-8.624-153.813-9.227-230.163-12.728l-.707 24.042c76.368.136 152.735 1.666 229.103 7.425z" fill="#f89379"/><path d="M-2377.023-1089.08c4.596 17.819-6.178 36.004-24.066 40.618-17.888 4.615-36.115-6.09-40.711-23.908-4.597-17.818 6.178-36.003 24.066-40.618 17.888-4.614 36.115 6.09 40.711 23.908z" fill="#cfcea2"/><path d="M-2330.25-1038.75s4.228-4.447 5.25-7.25c1.467-4.024 3-10.5 3-10.5l-8.75-.5s.037 4.778-.75 7.75c-1.189 4.493-4.75 8-4.75 8zM-2346.18-1058.468l5.303.354s-2.274 8.083-4.11 11.667c-.872 1.702-3.005 4.552-3.005 4.552l-4.552-.133s3.07-3.892 3.889-6.187c1.118-3.132 2.475-10.253 2.475-10.253z" fill="#2e3f35"/><path d="M-2451.54-1025.764s132.408 7.955 198.698 9.546c3.417.082 7.687.234 10.076-.972 2.735-1.38 3.359-12.11 3.359-12.11-71.4-12.609-139.937-15.192-209.657-21.92l-9.546 25.456z" fill="#f89379"/><path d="M-2315.19-1082.351c2.033 9.407-4.423 18.786-14.422 20.947-9.998 2.161-19.751-3.713-21.785-13.12-2.033-9.408 4.423-18.786 14.421-20.947 9.998-2.161 19.752 3.713 21.785 13.12zM-2408.057-1058.638c-8.85 1.006-16.89-5.8-17.958-15.2-1.069-9.402 5.239-17.838 14.088-18.844 8.849-1.006 16.889 5.8 17.958 15.2 1.068 9.402-5.24 17.839-14.088 18.844z" fill="#a8a676"/><path d="M-2437.7-911.923s-5.79-8.555-12.72-7.728c-7.091.848-12.703 7.906-11.43 17.71 2.374 18.283 22.54 15.054 22.54 15.054l-1.69-6.682s-5.714.362-11.512-.805c-3.642-.733-5.836-4.111-5.796-9.499.037-5.03 4.184-10.34 10.223-10.867 3.273-.286 5.796 3.38 5.796 3.38zM-2374.59-909.266s9.231-8.802 15.135-10.465c8.296-2.337 15.069 3.822 13.845 10.143-1.137 5.876-4.477 10.354-11.43 13.846-5.238 2.63-16.422 6.279-16.422 6.279l.805-9.177s7.468-3.375 10.545-5.555c4.068-2.881 9.083-6.774 7.165-9.901-1.785-2.91-6.655 1.623-9.821 2.898-2.917 1.175-8.05 4.99-8.05 4.99z" fill="#a6662f"/><path d="M-2447.79-912.414c24.579-.082 47.073-2.242 78.096 4.098-24.599 21.858-51.417 7.752-78.096-4.098z" fill="#673410"/><path transform="matrix(.644 0 0 .644 -2401.798 -468.132)" clip-path="url(#m)" d="M20.563-800.406s-31.924 4.347-46.5 4.656c-14.691.312-47-2.719-47-2.719l-1.626 16.938s31.646 3.15 49 2.781c17.241-.366 48.5-4.844 48.5-4.844l-2.375-16.812z" style="text-indent:0;text-align:start;line-height:normal;text-transform:none;block-progression:tb;marker:none;-inkscape-font-specification:Sans" font-weight="400" color="#000" fill="url(#n)" overflow="visible" enable-background="accumulate" font-family="Sans"/><path d="M-2434.13-863.234s-3.592-15.384-5.691-22.996c-2.426-8.795-7.97-26.184-7.97-26.184s34.842 8.844 53.735 10.473c14.295 1.233 24.362-6.375 24.362-6.375s-3.11 20.753-4.098 31.193c-.617 6.509-1.139 19.581-1.139 19.581s-7.653 2.422-11.612 2.505c-16.092.336-47.586-8.197-47.586-8.197z" fill="#a6662f"/><path transform="matrix(.644 0 0 .644 -2401.798 -468.132)" clip-path="url(#o)" d="M-13.435-603.268s-2.77-7.439-3.359-15.556c-.857-11.82-2.298-35.179-2.298-35.179" fill="none" stroke="url(#p)" stroke-width="3"/><path transform="matrix(.644 0 0 .644 -2401.798 -468.132)" clip-path="url(#q)" d="M14.496-655.77s.109 21.87-.177 33.587c-.186 7.622-1.768 22.804-1.768 22.804" fill="none" stroke="url(#p)" stroke-width="3"/><path transform="matrix(.644 0 0 .644 -2401.798 -468.132)" clip-path="url(#r)" d="M-64.17-662.311s26.053 11.808 53.589 11.301c37.274-.687 59.371-12.892 59.371-12.892L51.265-686l-42.78 7.07-81.494-13.61z" fill="#d2964b"/><path d="M-2398.506-810.804c2.072-2.424 6.018-2.96 9.192-2.651 3.275.32 7.33 2.197 7.778 5.303.957 6.633-4.487 11.863-9.546 11.667-3.874-.15-6.953-2.271-8.485-5.833-1.126-2.619-.791-6.319 1.06-8.486zM-2281.303-814.34c2.436-4.247 12.434-3.647 14.672.708 1.988 3.867-.25 10.486-7.07 10.96-6.75.469-9.912-7.64-7.602-11.667z" fill="#d3735c"/><path d="M-2346.298-838.682c-.498 2.97-.762 5.783-.891 8.699-.453 10.239-.875 20.115-1.712 29.45-.934 10.41-2.815 20.312-4.037 29.752-.574 3.776-2.78 13.183 1.5.187.988-7.635 2.416-15.307 3.216-23.568 1.04-10.738 1.328-22.185 1.883-34.137.156-3.372.578-6.785.745-10.232-.313-5.264-.49-1.633-.704-.151zM-2426.125-834.344s-.694 5.91-1.079 13.63c-.445 8.943-.597 20.316-.702 27.745-.056 3.996.268 8.22.507 12.123.25 4.09.423 7.857.743 12.002.176 2.286.718 5.006 1.008 8.077.572 6.054.93 12.455.93 12.455.62 1.256 1.73 7.76 1.5-.157 0 0-.11-5.65-.671-11.554-.304-3.204-1.084-6.576-1.267-8.946-.4-5.172-.357-10.072-.598-15.134-.137-2.88-.694-5.904-.652-8.835.104-7.355.075-18.752.52-27.684.387-7.774 1.261-13.66 1.261-13.66-.29-10.619-.86-7.083-1.5-.062zM-2432.406-834.469c-.127 1.615-.334 2.962-.438 4.574-.168 2.59-.047 5.32-.095 8-.032 1.836-.261 3.626-.249 5.426.032 4.622.25 9.149.782 13.688.279 2.383.766 5.75 1.793 7.01-.188-2.003-.248-4.845-.293-7.135-.025-1.26-.492-3.008-.58-4.27-.227-3.276-.18-6.067-.202-9.293-.013-1.806.085-3.614.117-5.425.045-2.585.047-5.178.182-7.785.08-1.541.487-3.126.483-4.665-.01-2.676-.296-7.365-1.04-8.303.056 1.349-.253 5.54-.46 8.178zM-2445.75-839.313c-.085 1.48-.469 17.091-.178 25.364.296 8.405 1.707 15.69 2.313 23.965.394 5.387.456 16.02.521 16.515 1.27 9.674 1.38 4.745 1.5-.062.013-.5-.388-11.148-.786-16.59-.613-8.37-1.756-15.53-2.048-23.802-.285-8.103-.397-16.91-.176-25.119.036-1.341.05-4.19.05-4.19-.551 1.468-1.095 2.155-1.196 3.92zM-2451.219-835.094c-.873 6.647-1.255 13.288-.812 20.094.28 4.317 1.47 8.896 1.86 12.937.615 6.379-.624 12.601.734 19.25.137.675.46 1.437.75 2.094.29.657.53 1.188.53 1.188 5.234 7.845 3.515 3.96 1.345-.688 0 0-.227-.476-.5-1.093-.273-.618-.307-2.195-.392-2.608-1.272-6.23-.056-12.126-.702-18.83-.414-4.291-1.244-8.309-1.506-12.344-.423-6.493-.044-13.228.193-19.843.1-2.784.93-7.39-.212-8.121-1.035.69-.95 5.39-1.288 7.964z" style="text-indent:0;text-align:start;line-height:normal;text-transform:none;block-progression:tb;marker:none;-inkscape-font-specification:Sans" font-weight="400" color="#000" fill="url(#s)" overflow="visible" enable-background="accumulate" font-family="Sans"/><path clip-path="url(#t)" d="M-2413.125-762.063c-.39 8.287-.22 16.031.094 23.594l1.5-.062c-.313-7.543-.48-15.215-.094-23.438-.045-7.763-.763-4.095-1.5-.093z" style="text-indent:0;text-align:start;line-height:normal;text-transform:none;block-progression:tb;marker:none;-inkscape-font-specification:Sans" font-weight="400" color="#000" fill="url(#s)" overflow="visible" enable-background="accumulate" font-family="Sans"/><path d="M-2246.438-838.5c-.167-.82-1.411-2.08-1.411-2.08s.306 5.84.973 12.122c.43 4.064 1.27 8.415 1.407 11.146.36 7.14-1.139 24.339-1.139 24.339s2.166-1.203 2.296-2.59c.555-5.963.979-14.384.608-21.724-.36-7.151-1.32-14.304-2.733-21.213zM-2253.75-843.688c-.785-3.716-1.157-4.027-1 .032 0 0 .749 27.342.875 41 .088 9.525-.344 28.625-.344 28.625.083 3.16.014 8.24 1 0 0 0 .432-19.088.344-28.657-.127-13.682-.875-41-.875-41zM-2304.594-840.375s-1.833 16.943-1.594 25.531c.17 6.081 1.949 17.818 1.949 17.818 1.126 4.053.992.852 1.145-.068 0 0-1.973-11.615-2.138-17.516-.135-4.858.245-8.458.815-14.14.416-4.154.792-11.531.792-11.531.34-3.346-.411-1.236-.969-.094z" style="text-indent:0;text-align:start;line-height:normal;text-transform:none;block-progression:tb;marker:none;-inkscape-font-specification:Sans" font-weight="400" color="#000" fill="url(#s)" overflow="visible" enable-background="accumulate" font-family="Sans"/><path d="M-2311.156-834.281s-3.488 15.062-3.375 22.968c.06 4.293 2.156 12.188 2.156 12.188.652 1.881 1.205 3.257.814-.198 0 0-1.497-8.176-1.564-12.02-.15-8.653 3.344-22.626 3.344-22.626 2.631-9.919-.368-1.95-1.375-.312z" style="text-indent:0;text-align:start;line-height:normal;text-transform:none;block-progression:tb;marker:none;-inkscape-font-specification:Sans" font-weight="400" color="#000" fill="url(#u)" overflow="visible" enable-background="accumulate" font-family="Sans"/></g><g transform="translate(-4.328 -503.579) scale(1.63889)" filter="url(#k)"><path d="M17.383 726.583c2.42 22.77 5.117 48.1 7.071 74.6 18.121 9.96 80.347 11.914 92.454-7.425 0 0 2.679-31.437 2.829-47.022.062-6.414 3.535-18.916 3.535-18.916z" fill="#1d3f73" filter="url(#v)"/><path d="M110.859 735.15c-.016 20.545-.947 41.244-3.32 58.962M95.165 737.366s.072 21.099-.177 31.643c-.234 9.906-1.238 29.699-1.238 29.699M80.825 738.54s-.133 19.45-.333 30.47c-.184 10.147-2.022 32.778-2.022 32.778M64.465 737.483s1.005 24.225.648 36.653c-.236 8.2-.767 27.808-.767 27.808M46.551 737.013s-.89 20.976-.707 31.466c.18 10.269.905 32.485.905 32.485M31.21 735.524s-.35 20.888.138 30.127c.503 9.515 2.436 32.128 2.436 32.128" fill="none" stroke="url(#w)" stroke-width="3" stroke-linecap="round" filter="url(#v)"/><path transform="rotate(1.285 -67316.38 107552.7)" d="M-2282.102-762.934c0 7.063-27.685 12.789-61.835 12.789-34.15 0-61.834-5.726-61.834-12.789s27.684-12.789 61.834-12.789c34.15 0 61.835 5.726 61.835 12.79z" fill="#2a3237" filter="url(#v)"/><path d="M-2282.102-762.934c0 6.251-27.685 11.318-61.835 11.318-34.15 0-61.834-5.067-61.834-11.318 0-6.25 27.684-11.318 61.834-11.318 34.15 0 61.835 5.067 61.835 11.318z" transform="matrix(.76439 .01074 -.01714 .47889 1847.662 1111.94)" fill="#1c232c" filter="url(#v)"/></g><path d="M-1236 826l-22-1248 496 8s180.333 40.838 258 88c35.598 21.616 82.669 57.078 142 59.5 13.971.57 43.176 114.718 122 125.5 44.354 6.067 61.903-15.573 113.715-46.388C23.05-276.208 193-292 193-292L33-197s19.55 34.964 37 40c66.15 19.088 199.85 37.605 301 46 71.428 5.928 215 3 215 3l381-32s115.957-21.997 172-40c88.642-28.474 258-107 258-107l274 4s-11.749 98.357 63 199c70.19 94.506 224.31 105.303 339 99 205.85-11.313 601-146 601-146l-9 80-305 303-299 337-176 79-336 42s-108.015-1.285-162 0c-56.048 1.334-168 8-168 8l-563-1-341 9s31.278-152.626 32-230c1.135-121.618-8.951-240.124-53-361C261.168 44.905 172.187-51.3 78-55-37.115-59.522-87.56 262.2-111 436c-13.476 99.926 30 301 30 301l-14 11s-321.281 29.915-482 44c-126.96 11.126-381 32-381 32z" fill="url(#x)" stroke="url(#y)" filter="url(#k)"/><path d="M206.219-106.281c-.27-3.163-1.17-9.935-2.152-9.278-.98.658-1.015 6.323-.848 9.496.998 18.986 2.77 37.725 3.156 56.5.317 15.448.035 29.999.063 45.532.006 3.514-.841 11.357.693 7.29 1.533-4.066 1.808-3.625 2.306-7.197 2.154-15.435.26-30.025-.062-45.687-.39-18.989-1.546-37.806-3.156-56.656zM251.5-65.906l1.927 20.736c3.282 35.565.696 65.03-2.177 93.295 1.238-.23 2.476-.638 2.47-1.518-.027-3.929 3.487-41.201 3.561-70.076 1.601 9.207 2.571 19.345 3.219 26.5.76 8.387.698 19.957 1.256 30.806.804 15.644.417 28.767.494 29.476 1.177 10.854 2.354 6.31 3.53-1.01.157-.977-.106-25.852-.544-46.237-.103-4.824-.717-10.147-.764-13.981-.054-4.475-.74-9.873-1.658-14.87-1.242-6.767-3.302-13.96-4.556-19.6-1.518-6.82-1.979-12.11-2.008-12.24l-1.445-5.402z" style="text-indent:0;text-align:start;line-height:normal;text-transform:none;block-progression:tb;marker:none;-inkscape-font-specification:Sans" font-weight="400" color="#000" fill="#ce5e47" overflow="visible" enable-background="accumulate" font-family="Sans" filter="url(#k)"/><path d="M253.125-91.688s-9.106-11.434-13.895-11.333c-4.788.1 9.145 15.708 9.145 15.708s35.536 43.21 54.281 62.813c18.682 19.537 40.093 37.709 55.938 59.156 15.14 20.495 31.507 40.57 36.812 65.094 2.432 11.242 6.479 27.027 7.156 40.531.34 6.752-.174 12.93-2.062 17.594-1.888 4.663-5.004 7.827-10.25 9.031-7.474 1.716-14.15-2.303-20.25-9.719-6.1-7.415-11.397-18.132-15.688-29.093-8.58-21.923-9.029-29.813-13.218-44.813-.622-2.224-1.767-6.7-1.767-6.7s-.392 4.609-.452 6.919c-1.967 75.658.085 151.357 3 227.031 2.316 60.111 7.297 122.847 11.5 182.813 2.911 41.532 6.716 81.743 9.5 121.75.252 3.62 2.372 10.625 2.372 10.625s.21-7.224-.122-10.813c-3.82-41.33-6.59-82.995-9.5-124.5-4.205-59.985-8.687-118.643-11-178.687-2.745-71.249-3.45-202.905-3.469-218.5 2.015 8.458 5.273 20.893 11.063 35.687 4.337 11.081 9.664 21.948 16.031 29.688 6.367 7.74 13.483 13.705 22 11.75 5.924-1.36 10.255-6.465 12.344-11.625 2.089-5.161 2.566-11.631 2.219-18.563-.696-13.863-3.555-28.996-5.97-40.156-5.456-25.223-23.835-47.214-38.937-67.656-16.099-21.792-36.463-38.73-54.062-58.844-18.126-20.716-52.719-65.188-52.719-65.188z" style="text-indent:0;text-align:start;line-height:normal;text-transform:none;block-progression:tb;marker:none;-inkscape-font-specification:Sans" font-weight="400" color="#000" fill="#ce5e47" overflow="visible" enable-background="accumulate" font-family="Sans" filter="url(#k)"/><path d="M379.969-102.594c-2.188-1.276-12.587-9.87-.938 1.188 0 0 10.115 8.083 22.031 18.812 11.917 10.73 25.628 24.129 32.813 34.531 15.605 22.595 23.741 49.734 32.906 75.813 1.225 3.484 3 10.906 3 10.906 1.24 3.462 5.053 18.983 1.438-.312 0 0-1.705-7.407-3-11.094-9.15-26.033-17.308-53.332-33.094-76.188-7.35-10.641-21.112-23.99-33.063-34.75-11.95-10.76-22.093-18.906-22.093-18.906z" style="text-indent:0;text-align:start;line-height:normal;text-transform:none;block-progression:tb;marker:none;-inkscape-font-specification:Sans" font-weight="400" color="#000" fill="url(#z)" overflow="visible" enable-background="accumulate" font-family="Sans" filter="url(#k)"/><path d="M508.938-80.531c-7.852-9.04-7.685-7.89-1.375 1.062 0 0 28.47 34.587 38.406 55.344 8.275 17.287 12.712 38.855 17.687 57.813.5 1.904 1.848 5.61 1.848 5.61s.284-4.04-.16-5.986c-4.238-18.567-6.31-36.177-14.813-53.937-10.163-21.23-41.593-59.906-41.593-59.906zM1057.813-53.313c-4.555 5.91-45.78 48.532-45.22 53.844 0 0 28.231-32.185 46.47-51.218 10.221-10.668 38.968-38.22 38.968-38.22-3.378.379-35.74 30.966-40.219 35.594zM1176.25-42.969c-10.88 16.452-20.314 34.598-29.031 52.75-12.85 26.758-24.39 54.303-33.969 82.094-.589 1.709-1.734 6.18-.914 5.345.82-.836 1.814-3.1 2.508-4.751 11.417-27.163 21.137-55.38 33.906-81.969 8.636-17.983 18.984-35.247 28.969-52.594 1.077-1.871 3.337-5.552 3.337-5.552s-3.573 2.813-4.806 4.677z" style="text-indent:0;text-align:start;line-height:normal;text-transform:none;block-progression:tb;marker:none;-inkscape-font-specification:Sans" font-weight="400" color="#000" fill="url(#i)" overflow="visible" enable-background="accumulate" font-family="Sans" filter="url(#k)"/><path d="M1132.431 288.04c6.075 2.1 11.663 48.297 10.254 72.832-1.244 21.653-5.203 57.832-8.145 76.012-1.057 6.536-3.523 11.67-3.523 11.67s5.766-58.464 6.718-86.62c.853-25.234-5.303-73.894-5.303-73.894zM1769.535 103.84s7.844-42.013 8.485-63.287c.584-19.37-1.445-59.065-4.243-57.983-2.798 1.083-1.416 40.305-2.121 60.458-.71 20.27-2.121 60.811-2.121 60.811z" fill="url(#i)" filter="url(#k)"/><path d="M142.836 819.078c35.554-9.281 76.66-11.158 117.733-13.082-15.106 5.456-76.37 11.4-117.733 13.082z" fill="#ab2726" filter="url(#k)"/><path style="text-indent:0;text-align:start;line-height:normal;text-transform:none;block-progression:tb;marker:none;-inkscape-font-specification:Sans" d="M865.16 774.104c-91.752.422-184.066 8.524-274.572 15.96-36.475 2.997-123.778 3.504-187.356 9.935 0 0 127.26 1.242 190.237-3.874 103.533-8.411 208.662-19.744 312.968-16.969 100.789 2.681 301.625 32.5 301.625 32.5-83.3-21.127-287.265-36.171-302.914-36.44-13.097-.223-26.88-1.173-39.988-1.112z" font-weight="400" color="#000" fill="url(#A)" overflow="visible" enable-background="accumulate" font-family="Sans" filter="url(#k)"/><path style="text-indent:0;text-align:start;line-height:normal;text-transform:none;block-progression:tb;marker:none;-inkscape-font-specification:Sans" d="M1263.531 818s100.348 17.21 158.205 19.312c70.186 2.55 139.248 12.349 210.718 14.5 35.51 1.068 67.079 3.773 102.799 6.013 59.78 3.75 115.494 4.456 154.466 10.394 41.95 6.392 83.914 25.033 122.833 37.21 29.356 9.185 88.983 16.736 88.983 16.736.109-5.497-37.857-4.312-87.66-20.634-38.266-12.54-77.27-30.29-120.224-36.836-39.691-6.047-96.933-6.897-156.495-10.633-35.51-2.227-70.132-5.996-105.96-7.074-71.11-2.14-141.06-13.002-211.602-15.207-19.38-.605-153.967-18.237-156.063-13.781zM701.094 842.219c-83.835-.57-168.531 1.602-254.25 1.281-24.672-.092-53.325 1.399-77.531 3.281-21.143 1.644-120.25 6.498-147.553 14.056 0 0 98.773-5.825 148.084-9.306 24.081-1.7 53.133-3.123 77.719-3.031 85.81.321 168.018-3.6 251.75-3.031 86.943.591 174.72 5.124 260.875 7.593 39.369 1.129 139.873 11.721 209.25 16.094 31.332 1.975 64.492 5.312 95.718 8.532 23.918 2.465 46.776 5.088 70.844 8.25 61.966 8.14 123.291 15.142 184.844 25.437 54.418 9.102 108.982 17.17 162.094 31.438 25.308 6.798 61.206 13.525 91.124 22.906 14.96 4.69 28.416 10.042 38.188 16.281 9.772 6.239 15.696 13.216 16.469 21.125.385 3.943-2.533 8.79-7.75 13.719-5.218 4.928-12.493 9.815-19.875 14.093-14.764 8.558-29.844 14.688-29.844 14.688l-5.469 2.219 5.688 1.562s4.92 1.37 9.187 4.469c2.134 1.549 4.037 3.498 5.156 5.813 1.12 2.314 1.53 4.974.532 8.437-4.045 14.02-22.983 26.431-49.719 36.375-26.736 9.944-61.106 16.648-94.594 23.281-45.344 8.982-121.307 15.04-136.5 18.032-15.193 2.99 70.352.171 137.188-14.063 33.525-7.14 68.128-13.401 95.281-23.5 27.152-10.098 47.426-22.495 52.187-39 1.245-4.314.76-8.192-.75-11.312-1.509-3.121-3.944-5.503-6.437-7.313-2.004-1.455-4.006-2.478-5.781-3.281 4.828-2.069 14.34-4.752 25.875-11.438 7.534-4.367 15.02-10.863 20.625-16.156 5.604-5.293 10.307-8.51 9.718-14.531-.94-9.636-8.737-19.99-19.03-26.563-10.295-6.572-23.773-10.755-38.907-15.5-30.267-9.49-66.501-17.495-91.531-24.218-53.41-14.348-108.101-22.407-162.469-31.5-61.687-10.318-123.828-18.085-185.75-26.22-24.052-3.159-47.927-5.805-71.938-8.28-31.282-3.226-60.991-6.054-92.374-8.032-69.215-4.363-172.738-13.95-212.626-15.093-86.092-2.468-170.654-7.002-257.718-7.594z" font-weight="400" color="#000" fill="url(#j)" overflow="visible" enable-background="accumulate" font-family="Sans" filter="url(#k)"/><path style="text-indent:0;text-align:start;line-height:normal;text-transform:none;block-progression:tb;marker:none;-inkscape-font-specification:Sans" d="M837.969 884.156a1005.12 1005.12 0 0 0-23.75.094c-30.76.511-60.925.277-91.573.555-55.029.5-157.873 14.26-236.7 32.965-45.447 10.784-93.587 14.65-137.427 31.355-9.284 3.538-24.19 8.223-35.394 13.687-5.602 2.733-10.575 5.63-14.188 8.844-3.612 3.214-5.735 6.912-4.699 10.98 3.763 14.766 53.602 31.271 60.27 29.872 0 0-14.724-5.92-28.758-11.945-7.017-3.013-14.084-6.406-19.406-9.75-2.662-1.673-4.9-3.322-6.438-4.844-1.537-1.523-2.306-2.914-2.437-3.782-.342-2.268.995-4.747 4.125-7.53 3.13-2.785 7.883-5.603 13.312-8.25 10.858-5.296 24.408-9.948 33.813-13.532 43.158-16.445 90.762-21.95 136.573-32.821 78.403-18.605 182.882-28.986 237.416-29.48 30.773-.28 60.918-1.814 91.573-2.324 31.589-.525 63.708 1.76 95.426 1.634 33.21-.132 64.528 2.974 98.074 2.616 18.773-.2 35.32-1.21 53.875-.25 5.469.283 20.063 2.219 20.063 2.219-5.329-5.352-14.342-5.855-20.582-6.219-18.823-.974-33.881-.303-52.534-.104-33.2.355-66.771-2.749-100.31-2.616-23.692.094-46.608-1.208-70.324-1.374z" font-weight="400" color="#000" fill="url(#j)" overflow="visible" enable-background="accumulate" font-family="Sans" filter="url(#k)"/><path style="text-indent:0;text-align:start;line-height:normal;text-transform:none;block-progression:tb;marker:none;-inkscape-font-specification:Sans" d="M883.06 929.728c-8.6-.073-13.51.356-22.1.76-50.354 2.362-107.874 6.421-158.76 9.552-38.712 2.382-92.472 20.272-92.472 20.272s-4.002 1.94-5.608 5.341c-1.76 3.726 21.447-6.985 36.249-11.142 18.49-5.193 42.489-9.571 63.35-10.855 50.958-3.135 103.159-6.665 153.394-9.022 33.93-1.592 67.753-.333 101.73-.538 46.682-.282 93.715.303 140.354.55 30.152.159 60.305 3.937 90.47 4.588 25.69.554 50.678-1.544 76.323-.173 37.351 1.995 92.181 13.191 109.167 11.301 0 0-62.167-14.127-107.596-15.801-25.703-.948-52.279-2.632-77.978-3.186-30.169-.65-60.544-1.247-90.74-1.406-46.698-.247-92.667-.655-139.323-.373-25.256.152-50.658.35-76.46.132zM1300.728 994.123s16.645-.988 30.71-.154c14.064.833 30.858 2.448 41.562 5.437 15.148 4.23 37.096 9.713 54.844 16.5 8.874 3.394 15.656 7.122 21.002 11.125 2.673 2.002 4.697 4.063 5.968 6.156 1.271 2.094 1.791 4.18 1.438 6.376-.726 4.505-2.755 9.027-7.72 13.437-4.967 4.41-11.784 8.693-19.813 12.781-16.06 8.177-36.97 15.561-57.688 21.75-41.436 12.378-82.125 20.031-82.125 20.031 27.852-3.908 58.734-11.568 82.563-18.593 20.766-6.203 41.735-13.594 57.937-21.844 8.102-4.125 15.012-8.458 20.125-13 5.114-4.542 8.444-9.308 9.25-14.313.415-2.572-.18-5.078-1.593-7.406-1.414-2.328-3.632-4.485-6.407-6.562-5.548-4.155-13.434-7.925-22.375-11.344-17.881-6.838-39.89-12.312-55-16.531-10.96-3.061-27.768-4.664-41.875-5.5-4.286.657-30.803-2.464-30.803 1.654zM867.415 987.426c-8.372-.022-19.385-.818-27.777-.603-13.24.34-31.783.341-48.638.615-8.427.136-15.99.388-21.469.875-2.739.243-4.933.531-6.625.968-.846.219-1.574.43-2.343.938-.385.254-.811.588-1.157 1.218-.345.631-.47 1.596-.25 2.313.436 1.423 1.3 2.214 2.282 3.031.98.818 2.193 1.605 3.593 2.407 2.8 1.603 6.394 3.267 10.407 4.875 8.024 3.215 17.629 5.874 24.906 7.5 12.991 2.9 77.604 8.315 82.812.187 0 0-53.302.12-81.906-5.094-6.792-1.238-16.204-4.15-23.937-7.25-3.867-1.55-7.337-3.145-9.813-4.562-.642-.368-.975-.669-1.469-1 1.151-.198 2.524-1.29 4.291-1.447 5.219-.463 13.246 0 21.624-.136 16.756-.272 36.173.083 49.585-.261 33.352-.855 66.619.43 100.063 1.75 27.403 1.082 54.779 2.467 82.094 4.594 16.227 1.264 38.303 4.793 56.937 9.562 9.317 2.385 17.78 5.082 24.188 7.907 6.407 2.824 10.615 6.044 11.593 8.03.567 1.152.443 1.741-.25 2.876-.692 1.134-2.198 2.517-4.156 3.844-3.916 2.652-9.423 5.04-13.281 7.093-23.892 12.713-53.324 12.968-81.32 14.572-90.228 5.166-179.475 2.714-269.742.697-22.407-.5-42.504-1.698-64.764-3.363-30.69-2.296-62.233-4.855-92.926-7.751-17.366-1.64-35.848-3.932-52.447-6-17.046-2.125-52.112-2.52-52.112-2.52-16.61 3.513-16.235 4.904 1.092 4.646 0 0 33.549-.265 49.719 1.75 16.592 2.068 34.741 4.382 52.219 6.032 30.67 2.894 61.536 6.01 92.312 8.312 22.438 1.68 44.908 2.156 67.313 2.657 90.237 2.016 180.51 4.84 271.03-.344 27.716-1.587 56.1-1.634 81.47-15.134 3.505-1.865 9.185-4.304 13.72-7.375 2.266-1.536 4.83-2.353 6.155-4.522 1.324-2.17.829-4.745-.447-7.334-2.145-4.356-7.247-7.372-14.062-10.375-6.816-3.004-14.598-6.113-24.085-8.541-18.975-4.857-41.156-8.396-57.75-9.688-27.406-2.134-58.232-2.657-85.672-3.741-25.083-.99-45.89-2.141-71.007-2.208zM.063 1024.375c4.363 9.498 13.314 16.122 21.78 21.156 37.963 22.57 84.809 29.605 127.414 38.616 18.879 3.993 46.752 4.188 70.2 6.94 28.778 3.378 56.364 8.598 85.012 12.35 30.351 3.976 60.516 10.47 91.281 13.438 46.022 4.44 138.063 6.375 138.063 6.375 44.174-2.551 10.97-3.26.093-4.5 0 0-91.26-1.24-136.835-5.637-30.418-2.934-61.413-10.137-92.009-14.144-28.75-3.766-57.597-6.505-86.312-9.875-23.708-2.783-47.56-3.53-70.5-8.469-42.694-9.191-87.118-16.966-124.125-38.969-8.154-4.848-15.376-11.26-19.085-19.333-1.753-3.816-3.921-10.988-3.84-17.235.08-6.246.687-11.905.687-11.905-7.474 3.436-3.83 26.607-1.824 31.192zM335.969 886.531c-6.07.092-11.87.328-16.531.813-39.07 4.063-132.716 19.839-197.994 41.437-10.518 3.48-74.27 26.182-86.069 38.25 0 0 56.112-26.052 84.656-34.906 65.278-20.248 161.097-37.293 199.75-41.313 17.926-1.864 36.624-.816 54.906.032 3.218.149 9.621.889 9.621.889s-6.026-3.87-9.464-4.39c-13.511-2.04-20.665-1.086-38.875-.812z" font-weight="400" color="#000" fill="url(#j)" overflow="visible" enable-background="accumulate" font-family="Sans" filter="url(#k)"/><path style="text-indent:0;text-align:start;line-height:normal;text-transform:none;block-progression:tb;marker:none;-inkscape-font-specification:Sans" d="M194.474 874.598c-1.777-.46-5.505-.035-5.505-.035s11.479 6.803 17.52 10.21c7.13 4.02 13.966 7.709 20.948 11.196 9.937 4.962 19.691 10.414 29.688 15.531 7.25 3.71 14.48 7.58 22 11 10.583 4.813 28.291 12.841 31.584 11.004 2.981-1.664-24.942-12.722-29.803-14.91-7.352-3.344-13.311-6.289-20.606-10.023-9.9-5.066-20.896-11.454-30.956-16.477-7.26-3.626-14.733-6.39-21.469-10.188-5.52-3.112-8.475-6.035-13.401-7.308zM468.581 859.637c-.069 2.48 14.627 6.623 25.138 9.426 8.757 2.335 21.855 4.847 30.5 6.75 11.537 2.539 22.958 5.317 34.375 7.906 9.873 2.238 28.068 10.231 31.443 4.198 0 0-23.335-5.604-32.824-8.146-11.474-3.074-20.415-4.763-31.911-7.293-8.76-1.928-22.193-4.77-30.49-7.572-5.93-2.003-26.124-9.138-26.23-5.27zM1426.038 956.708s-90.552 1.386-137.84 5.648c-16.942 1.527-48.079 9.377-45.373 10.385 7.439 2.771 32.564-4.651 47.276-5.794 47.251-3.669 134.408-7.77 134.408-7.77 20.793.531 12.04-.698 1.53-2.469zM1778.688 871.656s-53.324 1.54-83.594 10.75c-18.917 5.756-42.076 4.52-61.219 18.688-2.271 1.68-6.59 5.33-6.59 5.33s45.832-19.22 68.894-22.6c13.419-1.967 32.699-5.921 47.36-6.315 19.522-.524 34.358-2.81 34.358-2.81 6.334-.941 5.505-2.505.79-3.043zM1844.125 878.25c-1.32-.182-76.092.2-118.969 12.563-30.748 8.865-91.672 25.504-92.656 26.406-1.843 1.688-11.856 4.878 1.125 3.843 1.33-.106 61.777-18.414 92.531-27.28 41.652-12.01 116.638-11.445 117.969-11.532 20.486-1.333 9.652-2.667 0-4zM-43.125 791.031s12.01 3.275 25.781 9.25c13.77 5.976 29.74 15.096 36.53 25.541 3.772 5.802 3.819 11.901.751 18.366-3.067 6.464-8.674 12.958-19.98 18.218-26.218 12.197-56.667 19.049-85.092 25.452-42.098 9.484-84.464 16.463-127.459 19.298-20.843 5.018-181.138 4.106-221.686 5.515 0 0 147.131 2.507 222.67-2.474 43.2-2.848 85.25-11.01 127.423-20.51 28.397-6.397 57.468-12.471 84.062-24.843 11.697-5.442 18.715-11.736 22.146-18.97 3.432-7.234 3.132-15.389-1.083-21.874-7.826-12.55-49.37-31.953-64.063-32.969z" font-weight="400" color="#000" fill="url(#j)" overflow="visible" enable-background="accumulate" font-family="Sans" filter="url(#k)"/><g><path d="M1206.095 536.723l-10.96-142.05 342.69-1.686 23.183 19.39 1.265 127.718-225.93 15.596z" fill="#6d3223" filter="url(#k)"/><path d="M1452.57 453.741c-2.602 1.381-7.724 12.558-7.939 19.62-.257 8.49 3.988 22.15 8.536 24.092 4.547 1.942 58.418 1.294 58.418 1.294l43.814-5.96-1.64-44.709s-28.784 3.323-43.068 4.62c-19.492 1.77-55.518-.338-58.12 1.043z" fill="#7c495f" filter="url(#k)"/><path d="M1212.417 736.099l96.79-9.34s8.825-21.689 34.512-52.412c20.229-24.196 38.147-33.089 38.147-33.089l26.555-21.918-189.26 10.538-16.017 78.4zM1708.538 53.248s-43.393 39.828-44.051 66.374c-1.27 51.233 29.835 65.149 29.835 65.149l2.355 19.797-110.28 14.008s-122.5-109.088-122.799-110.28c-.298-1.192 55.737-110.578 55.737-110.578l92.397 27.123 64.161 19.188z" fill="#6d3223" filter="url(#k)"/><path d="M1408-29.368s71.715-7.005 114.65 2.95c85.474 19.82 185.888 79.666 185.888 79.666l-170.713-29.506L1469.12.56zM1612.011 181.388l121.625 4.998-35.418 505.219L1591.778 742l-16.954-43.838 2.631-321.617-10.73-152.008z" fill="#8e432f" filter="url(#k)"/><path d="M1260.048 415.75l82.242 19.512 41.132 120.712-91.205-7.75-37.257-121.606z" fill="#0c1a1f" filter="url(#k)"/><path d="M1338.028 457.479c18.863 6.229 41.566 7.337 63.649 9.273 7.198 27.203 12.653 58.814 26.555 80.93l-55.64 5.059-43.837-80.93z" fill="#7a2525" filter="url(#k)"/><path d="M1270.165 539.674c-13.137-31.267-25.499-67.956-37.515-107.064 7.062-6.656 15.846-12.45 27.398-16.86 0 0 17.168 70.739 32.878 103.27 4.712 9.755 18.125 26.976 18.125 26.976l-40.465.844z" fill="#215062" filter="url(#k)"/><path d="M1342.665 544.732a11966.76 11966.76 0 0 0-39.2-71.657c13.14-8.436 23.54-11.395 34.563-15.596 14.705 29.696 29.342 59.967 43.837 91.468z" fill="#e25c65" filter="url(#k)"/><path d="M1443.33 543.456s-7.564-6.739-9.835-10.73c-5.126-8.789-6.198-28.917 1.341-32.787 5.099-2.325 10.984-2.436 15.946-2.682 31.751-1.576 99.273-11.537 99.273-11.537l.873 46.111-74.513 16.095-31.296-.596z" fill="#d43e36" filter="url(#k)"/><path d="M1408-29.368s21.962 12.98 21.075 30.349c-1.878 36.755-26.63 57.904-75.03 70.814-31.576 8.422-70.648-11.703-86.831-45.524-5.524-11.544 5.901-37.936 5.901-37.936s-7.104-1.89-37.725 7.166c-27.085 8.01-31.403 18.125-31.403 18.125s57.527 26.217 27.82 104.535c-21.138 55.727-87.042 67.653-87.042 67.653s31.642 266.246 39.833 423.83c2.188 42.1-1.687 126.455-1.687 126.455h29.506s23.822-90.917 158.068-93.155c164.155-2.735 185.887 98.213 185.887 98.213l35.407.843s-4.4-164.82 4.215-316.978c8.962-158.3 16.017-243.634 16.017-243.634s-39.105 12.627-82.616-60.698c-31.563-53.19 8.43-96.948 8.43-96.948s-8.24-14.113-58.8-33.3c-51.97-19.72-71.026-19.81-71.026-19.81zm-84.883 428.994c97.821-.524 221.835 9.42 223.876 13.752 2.512 5.332 4.364 46.05 3.056 68.074-.893 15.036-5.545 42.05-6.586 44.733-1.04 2.684-122.909 19.15-184.78 17.862-44.728-.932-112.456-4.116-132.935-18.494-10.558-7.412-17.153-35.083-19.126-54.428-2.012-19.718-3.762-57.825.79-60.381 4.552-2.557 38.79-7.693 53.953-8.905 17.962-1.435 39.178-2.092 61.752-2.213z" fill="#bc5237" filter="url(#k)"/><path d="M1269.322 126.17c10.544-12.698 59.744-18.213 90.625-19.811 27.946-1.447 75.303 2.641 79.244 7.165 4.406 5.058 3.136 23.88 2.634 35.853-.536 12.784-2.208 31.852-7.481 37.912-7.594 8.726-53.206 13.42-81.141 14.332-22.456.732-60.8-2.791-67.02-7.166-8.12-5.71-12.674-20.82-16.44-36.46-2.47-10.26-4.637-26.749-.421-31.825z" fill="#d66b43" filter="url(#k)"/><path d="M1314.273 125.285l24.44-1.49s-1.074 17.693-1.788 26.527c-1.169 14.475.41 28.35 22.056 30.103 13.112 1.062 24.034-13.629 25.931-24.44 1.999-11.396-1.782-34.663-1.782-34.663l18.336 1.054-.21 11.381-7.377-1.686s1.186 15.687 0 23.394c-2.147 13.948-17.843 34.046-34.986 32.456-26.07-2.417-32.42-21.353-31.192-38.357.309-4.274 0-12.856 0-12.856l-13.277 1.896z" fill="#ee9f3e" filter="url(#k)"/><path d="M1202.503 243.613c2.387-2.936 82.728-22.11 165.044-23.602 89.143-1.616 180.82 14.74 184.276 19.429 2.453 3.33 15.456 103.396-6.558 123.395-16.046 14.577-329.81 25.289-342.762.596-18.557-35.376-6.118-112.293 0-119.818z" fill="#d66b43" filter="url(#k)"/><path transform="translate(6097.75 -1628.587) scale(1.68605)" d="M-2879.438 1100.656c-9.259.07-18.238 2.029-24.468 7.969-5.814 5.543-4.692 15.66-4.438 23.688.16 5.042 1.682 10.071 3.719 14.687 4.71 10.674 15.219 9.375 15.219 9.375s-6.944 6.564-8.656 13.594c-1.118 4.586-2.4 10.153-.72 14.437 2.223 5.664 7.17 10.714 13.095 12.094 7.06 1.644 14.224-3.376 20.656-6.719 5.207-2.706 8.27-5.44 10.969-10.437 2.51-4.65-1.938-15.719-1.938-15.719s9.537 1.089 14.313 1.594c21.302 2.252 38.183 20.047 51.812 24.375 8.02 2.546 16.681 2.822 25.094 2.656 6.132-.12 12.6-.128 18.187-2.656 7.122-3.223 14.287-8.243 17.875-15.188 3.368-6.516 1.938-21.937 1.938-21.937s6.024 7.851 15.375 6.906c9.95-1.006 14.942-5.689 19.719-11.594 3.869-4.782 5.628-10.88 5.562-17.031-.068-6.317-1.677-13.283-5.844-18.031-2.538-2.893-5.892-4.69-9.437-6.188-4.981-2.104-10.802-3.962-16.188-4.437-12.112-1.069-24.283 2.859-35.875 6.531-22.343 7.078-41.6 22.053-63.812 29.531-12.236 4.12-24.747 7.753-37.656 7.594-6.917-.085-14.381-1.06-20.47-4.344-9.236-4.982-7.655-13.844-7.655-13.844s15.805 20.848 30.593 4.407c6.767-7.524 7.204-26.548-7.781-29.344-5.416-1.01-11.4-1.857-17.344-1.969-.619-.01-1.226 0-1.844 0zm10.376 9.594c1.625-.038 3.44.099 4.187.75 1.634 1.425.746 4.574-.25 6.5-2.075 4.01-11.75 4.375-11.75 4.375s4.947-3.255 5.75-5.875c.546-1.782-1-5.5-1-5.5s1.437-.212 3.063-.25zm149.937 1.125c9.45-.127 18.516 1.268 22.375 7.625 6.587 10.85 1.474 25.783-10 31.25-6.569 3.13-14.81-2.43-16.5-10-.88-3.945 3.547-10.923 7.375-9.625 2.387.81 0 7.563 0 7.563s11.949-10.391-1.438-14.376c-9.441-2.81-15.25 14.126-15.25 14.126s-17.992-11.903-32.937-2.688c-8.853 5.459-18.883 14.35-19 24.75-.189 16.705 15.1 15.418 23.5 12 6.83-2.78 13.787-10.99 12.5-18.25-.956-5.396-9.5-6.5-9.5-6.5s3.13 3.99 2.25 8.875c-.62 3.435-2.133 6.225-5.75 8.75-6.3 4.398-12.473 5.852-12.75-4.75-.212-8.122 6.704-17.689 14.625-19.5 23.972-5.481 26.978 25.967 16.625 35.125-11.109 9.826-18.981 9.373-35.375 6.625-16.247-2.724-28.84-16.385-44.5-21.5-9.221-3.012-28.625-5.25-28.625-5.25s14.921-6.693 25.25-9.875c17.133-5.278 32.406-12.611 49.25-18.75 13.547-4.937 26.9-13.256 41.5-14.5 4.894-.417 10.706-1.049 16.375-1.125zm-155.344 55.094c2.42-.012 4.757.506 5.844 2.406 1.79 3.13 1.785 7.025-.375 9.875-1.349 1.78-5.2 3.097-8.375 3.625-3.003.5-6.614 1.346-9.125-.375-1.724-1.182-2.5-5.75-2.5-5.75s4.494 4.292 6.5 3c1.833-1.18 2.875-4.625 2.875-4.625s-4.558.194-4.375-3.5c.148-3 4.142-4.155 7.125-4.5.782-.09 1.6-.152 2.406-.156z" clip-path="url(#B)" fill="#f5950f" filter="url(#k)"/><path d="M1216.632 566.65c2.236-3.173 44.05-4.906 66.178-5.479 22.765-.59 64.712.799 66.915 2.74 2.204 1.94 1.619 17.104 1.265 24.764-.322 6.967-.345 14.883-5.796 18.44-7.014 4.579-43.55 10.154-65.756 10.96-19.742.717-47.292 6.752-59.012-5.48-4.826-5.036-6.498-12.84-6.744-19.81-.312-8.822.715-22.96 2.95-26.134zM1407.156 610.066c-5.189-1.655-4.916-20.669-4.636-29.927.244-8.074.323-20.753 5.48-23.605 6.705-3.708 50.069 1.436 75.029 3.372 21.703 1.684 63 4.837 64.913 7.166 1.913 2.33 3.628 36.643-3.794 44.259-8.55 8.774-30.799 9.996-46.788 10.96-16.65 1.002-33.292-2.7-49.738-5.48-13.645-2.307-35.277-5.09-40.466-6.745z" fill="#d66b43" filter="url(#k)"/><path d="M-2854.97 1314.63a8.582 5.982 0 1 1-17.164 0 8.582 5.982 0 1 1 17.164 0z" transform="rotate(-15.089 -7927.608 -21618.401) scale(1.68605)" fill="#f0a146" filter="url(#k)"/><path transform="rotate(1.875 48195.496 187747.944) scale(1.68605)" d="M-2730.265 1316.2a9.142 5.726 0 1 1-18.283 0 9.142 5.726 0 1 1 18.283 0z" fill="#f0a146" filter="url(#k)"/><path clip-path="url(#C)" d="M1691.531 182.781s-10.138 68.02-11.781 103.906c-1.48 32.34 1.75 99.407 1.75 99.407 4.206 29.507 4.787 25.582 3-.188 0 0-.91-21.98-1.603-45.638-.505-17.224-2.013-33.249-1.397-46.705.812-17.745 3.804-44.956 6.593-67.73 2.79-22.775 5.376-41.114 5.376-41.114.275-3.453 1.382-7.961-1.938-1.938z" style="text-indent:0;text-align:start;line-height:normal;text-transform:none;block-progression:tb;marker:none;-inkscape-font-specification:Sans" font-weight="400" color="#000" fill="url(#D)" overflow="visible" enable-background="accumulate" font-family="Sans" filter="url(#k)"/><path d="M1662 207.781s-9.664 70.288-10 104.219c-.374 37.716 1.641 70.144 5.935 107.7 1.938 16.954 3.943 35.832 7.096 52.581 4.44 23.58 12.438 48.908 20.563 68.219.71 1.69 4.687 2.875 4.687 2.875s-17.992-48.705-22.312-71.656c-3.068-16.295-4.769-33.22-6.68-49.724-2.69-23.24-5.092-45.448-6.07-68.712-.614-14.565-.364-30.152-.219-44.783.331-33.396 10-100.281 10-100.281 2.374-21.002-.54-6.301-3-.438z" style="text-indent:0;text-align:start;line-height:normal;text-transform:none;block-progression:tb;marker:none;-inkscape-font-specification:Sans" font-weight="400" color="#000" fill="url(#D)" overflow="visible" enable-background="accumulate" font-family="Sans" filter="url(#k)"/><path d="M1520.469 148.344s.7 6.557 1.031 9.844c1.585 15.772 3.965 26.9 4.375 42.593.202 7.724-.463 22.352-.938 31.656 1.047.19 2.069.375 3.063.563.432-7.645.947-18.847.75-26.406-.42-16.104-.947-32.941-4.25-48.781-.701-3.363-4.031-9.47-4.031-9.47zM1481.688 41.094c-1.223-.86-6.54-17.055-3.626-.188 0 0 4.29 19.654 8.5 39.657 4.212 20.002 7.565 41.006 7.188 57.03-.176 7.476-2.65 14.454-5.094 23.845a2073.497 2073.497 0 0 0-5.094 20.093c-8.237 18.474-1.676 7.72 2.876.938 0 0 1.409-5.303 3.874-14.781 2.466-9.48 5.999-23.107 6.188-31.157.293-12.482-2.736-29.467-5.683-45.543-.973-5.304-1.268-10.285-2.317-15.27-4.23-20.09-6.813-34.624-6.813-34.624zM1461.625 26.688c-4.333-24.492-4.266-3.002-5.625-.125 0 0 .971 31.691 2.5 47.687 1.173 12.27 3.846 24.148 5 36 1.42 14.583 3.75 44.594 3.75 44.594 2.958 18.217 3.404 9.425 3.75-.438 0 0-2.29-29.916-3.75-44.906-1.194-12.265-3.367-24.4-4.5-36.25-1.488-15.57-1.125-46.563-1.125-46.563zM1255.031 69.25c-5.477 21.838-7.164 44.466-7.031 67.25.17 29.188 9.434 85.456 10.031 86.25 1.313 1.745 3.892 10.75 2.938-.5-.084-.99-9.803-57.22-9.969-85.75-.129-22.125 3.883-44.593 6.969-66.75.433-3.11 1.618-9.278 1.618-9.278s-3.754 5.58-4.556 8.778zM1162.75 194.938c-2.324-14.778-1.741-5.941-1.5.125.02.5 2.966 39.34 5 59 1.559 15.07 4.28 29.987 5.5 45 1.658 20.388 2.5 61.437 2.5 61.437.5 24.505 1 15.608 1.5 0 0 0-.833-41.053-2.5-61.563-1.229-15.111-3.949-30.007-5.5-45-2.028-19.604-4.922-58.504-5-59z" style="text-indent:0;text-align:start;line-height:normal;text-transform:none;block-progression:tb;marker:none;-inkscape-font-specification:Sans" font-weight="400" color="#000" fill="#8d3a31" overflow="visible" enable-background="accumulate" font-family="Sans" filter="url(#k)"/></g><g><path d="M200.515 742.61s162.602-47.313 198.495-53.539c27.736-37.826 81.923-67.93 84.348-115.663 2.472-48.663-89.392-132.95-96.975-240.92 0 0 78.508 26.916 111.117 9.09 52.14-28.501 14.142-118.492 25.759-143.441 0 0 29.336 9.546 31.82 2.02 35.998-109.093 55.07-255.429 14.647-322.239-88.422-146.14-449.39-88.084-510.127-48.487C-56.261-95.034-106.358-7.24-94.954 368.853c3.739 123.316-17.299 139.405 32.325 368.705 5.576 25.767 49.625 18.955 71.72 33.335 6 3.905 16.163 14.142 16.163 14.142l-173.746-5.05s21.14-19.285 25.253-32.325c13.59-43.09-5.962-90.193-7.07-135.36-5.349-217.792-72.023-453.628 12.121-654.58 90.424-215.948 272.629-259.485 414.163-266.68 90.55-4.603 186.455 53.38 264.66 47.477 93.035-7.022 73.74-88.893 73.74-88.893l72.732 1.01s-12.73 61.05-7.071 90.914c4.878 25.745 3.12 71.934 34.345 70.71 28.747-1.125 28.75-52.084 30.304-80.812 1.54-28.46-21.213-82.832-21.213-82.832l288.904 1.01s-64.137 149.293-60.61 269.71c3.536 120.656 60.815 276.998 90.915 350.524 19.337 47.238 12.546 117.752 11.111 176.776-1.251 51.485-38.29 139.094-11.112 182.838 51.998 83.69 253.549 123.239 253.549 123.239l-135.36 3.03-148.493-39.396-201.02-7.071-367.696 24.244-102.025 19.193z" fill="url(#E)" filter="url(#k)"/><path d="M992.98 681.495l80.812-1.01s7.306 15.334 17.173 26.264c26.522 29.38 102.006 49.818 108.086 55.558l-77.277-10.101-56.063-6.693-67.14-39.084z" fill="#a07343" filter="url(#k)"/><path d="M357.857 754.286s66.834-29.684 89.286-42.857c19.036-11.17 46.786-49.286 46.786-49.286 2.943 18.208 30.97 27.23 101.428 20.714l-26.428 73.929-49.643 20.714s5.626-7.407-19.286-10.714c-46.97-6.236-142.143-12.5-142.143-12.5zM868.731 685.03l41.922 62.125 30.304.505 180.817 4.546c-51.932-7.375-92.348-32.53-122.733-72.226z" fill="#58371e" filter="url(#k)"/><path d="M523.571 778.214c-1.318.6-4.285-.714-4.285-.714s3.938-4.635 5.893-6.964c6.377-7.6 12.314-15.584 19.04-22.876 7.589-8.226 16.946-14.791 23.992-23.486 10.674-13.173 27.274-42.932 27.274-42.932l180.817-6.818 82.328 8.586 20.708 3.283s9.35 28.385 28.79 39.649c29.083 16.85 67.643 38.524 68.184 43.941 0 0-113.609-9.68-170.968-14.395-26.03-2.14-55.731-3.703-83.085-4.798-70.628-2.826-176.279 17.332-198.688 27.524z" fill="#a07343" filter="url(#k)"/><path d="M501.036 671.646s-16.552 22.505-21.087 37.123c-3.47 11.182-6.857 34.942-4.925 35.103 3.494-2.819 2.543-23.817 5.745-35.04 4.162-14.58 20.267-37.186 20.267-37.186zM515.555 681.6c4.139 1.182 2.246 19.114-3.913 27.421-8.43 11.372-13.856 29.94-19.193 37.881-3.193-4.915 5.703-31.203 14.648-43.689 5.588-7.8 10.347-21.614 8.458-21.614zM544.643 684.643c2.297.656 1.326 18.229-2.143 26.428-7.357 17.392-17.457 26.971-16.964 25-3.176 3.44 3.32-14.138 7.143-26.071 3.357-10.481 10.918-27.97 11.964-25.357z" fill="#372210" filter="url(#k)"/><path d="M576.923 726.078s1.734 6.018 11.884 3.64c27.497-6.441 68.295-41.133 74.51-44.107l-6.423-2.141c.07 4.509-28.762 23.931-45.391 32.117-9.218 4.537-19.558 10.363-34.58 10.491zM672.525 681.222s8.819 1.215 13.05 2.529c29.747 9.235 63.83 17.906 96.443 16.805 21.134-.714 13.718-2.573 20.59-3.785 19.312-3.406 64.194-3.785 64.194-3.785-11.048-4.454-34.45-.964-51.628-2.271-3.961-.301-8.918 3.847-15.291 4.693-9.535 1.267-10.96 2.377-28.766 2.271-48.83-.288-94.43-23.035-98.592-16.457z" transform="translate(0 27.638)" fill="#58371e" filter="url(#k)"/><path d="M544.286 589.286c-8.067-28.435-8.65-69.021-9.286-99.286-1.895-90.289 38.877-119.759 63.571-181.429l108.572-109.285s139.286 21.428 143.571 21.428c4.286 0 132.143 75 132.143 75l25 52.143c3.353 16.905 4.945 33.81 6.429 50.714L990.714 631.43l-70 46.428-177.857-14.286L634.286 670z" fill="#ecd9b8" filter="url(#k)"/><path d="M704.286 646.429c-7.233.652-14.687-1.53-21.786 0-15.835 3.41-28.337 17.173-44.286 20-36.789 6.52-73.059-.464-110.018-5.942-11.071-1.64-34.566-.616-34.267 1.656 1.085 8.263 10.205 15.908 18.214 18.214 24.736 7.123 53.792 6.114 80.817 6.694 59.295 1.271 129.871-4.403 178.039-5.304 39.26-.733 93.315 9.253 116.925 10.354 27.377 1.277 54.423-8.723 81.822-8.08 31.343.734 98.55.906 104.046-3.536-10.957-1.566-11.372-7.288-24.749-9.092-21.527-2.903-40.576-20.575-62.257-19.25-16.254.993-28.285 19.718-44.566 20.008-6.325.112-11.357-6.002-17.577-7.151-11.182-2.066-24.542 6.864-34.107.714-15.049-9.675-5.481-40.835-21.25-49.285-49.273-26.405-109.324 24.98-165 30z" fill="#c89434" filter="url(#k)"/><path d="M419.558 341.613c3.243 10.09 5.587 18.359 7.406 28.923-.129-10.655-1.864-17.706-4.847-28.36z" fill="url(#F)" filter="url(#k)"/><path d="M446.786 353.214s14.775 40.67 13.338 54.53c-2.73 26.344-16.667 80.56-16.667 80.56s8.323-54.506 12.88-80.055c1.478-8.29-8.036-39.423-9.551-55.035zM483.358 351.933s17.999 38.88 19.445 68.437c1.601 32.715 6.314 90.157 6.314 90.157-.926-30.22-.777-59.318-2.778-90.662-1.562-24.477-9.482-56.41-22.981-67.932zM566.19-172.084c6.328.259 32.121 23.15 39.902 40.406 24.415 54.15 23.635 119.514 12.121 177.787-18.597 94.127-41.416 108.591-41.416 108.591s26.062-39.433 37.628-112.127C623.39-13.76 624.528-75.5 602.556-128.142c-10.847-25.988-42.48-44.192-36.365-43.942z" fill="url(#b)" filter="url(#k)"/><path d="M641.447-125.617c3.089-1.827 21.114 43.857 19.193 85.863-1.465 32.033-8.46 64.31-20.708 93.944-11.164 27.01-30.416 82.878-32.83 81.822-2.415-1.055 16.089-56.16 27.274-83.337 12.098-29.397 21.9-60.68 23.486-92.43 2.302-46.09-19.504-84.035-16.415-85.862zM693.217-82.686c3.856.629-1.852 39.228-2.778 58.842 0 0-1.077-59.47 2.778-58.842zM718.218-43.29c1.442 11.21 1.18 18.969-7.07 46.467-6.677 22.253-15.922 43.665-24.75 65.155-8.849 21.545-30.809 64.145-30.809 64.145s26.49-40.139 36.618-62.377c10.075-22.12 18.491-44.687 25.506-67.933 4.72-15.64 7.68-39.517.505-45.457zM807.112-353.912c1.035 131.127 1.222 331.181 10.606 385.879-21.569-32.305-11.645-261.064-10.606-385.879zM986.786-363.214s-42.406 78.966-65.715 148.928c-13.48 40.46-23.012 82.542-31.785 123.929-8.41 39.67-5.727 111.012-3.215 117.857-.383-25.933.863-77.234 9.643-115 9.924-42.688 14.503-83.504 28.929-124.286 21.285-60.172 62.143-151.428 62.143-151.428z" fill="url(#b)" filter="url(#k)"/><path d="M1005.102-369.064l-37.376 110.612s-32.794 80.904-43.941 122.986c-31.292 118.13-14.143 157.079-14.143 157.079s-8.685-41.533 18.215-156.256c8.348-35.601 35.323-103.859 35.323-103.859S936.243-134.54 939.286-81.786c4.704 81.551 31.785 135 31.785 135s-22-61.094-27.857-135.357c-4.127-52.333 23.572-155.714 23.572-155.714s22.68-64.979 33.928-97.5c3.95-11.421 11.786-34.286 11.786-34.286z" fill="url(#b)" filter="url(#k)"/><path d="M566.607 670.445c-15.145-1.01-35.402-67.744-27.396-94.624 3.419-11.477 30.007-17.208 46.503-19.392 9.571-1.268 21.328-4.524 28.929 1.428 16.635 13.027 17.67 46.789 23.757 67.022 4.156 13.813 15.97 35.194 7.954 39.156-12.068 5.965-64.599 7.422-79.747 6.41z" fill="#c1b4a4" filter="url(#k)"/><path d="M589.93 590.581c-3.91-.335-4.664 15.537-1.516 18.688 6.473 6.478 36.197 3.685 35.355-2.778-.358-2.748-23.985 2.633-27.779-3.03-2.64-3.942-2.89-12.608-6.06-12.88z" fill="#e5ddcc" filter="url(#k)"/><path d="M538.916 442.089c10.998-10.887 36.197-9.131 54.549-8.082 14.963.856 38.921-2.674 43.436 11.617 10.27 32.504 6.523 68.334-15.152 89.399-19.995 19.431-56.742 24.355-82.833 11.616-31.316-15.29-24.766-80.032 0-104.55z" fill="#c1b4a4" filter="url(#k)"/><path d="M555.079 489.945c-2.752 1.548-5.657 7.803-3.41 10.859 1.173 1.594 10.21 1.17 11.617-.126 1.82-1.679.086-6.756-2.02-8.492-1.746-1.44-4.215-3.35-6.187-2.241zM591.823 466.459c-1.85.7-2.451 9.208-.884 11.616 1.517 2.331 7.064.686 8.334-.378 1.588-1.332-3.541-2.014-5.43-3.03-2.48-1.337.615-9.205-2.02-8.208z" fill="#e5ddcc" filter="url(#k)"/><path d="M534.876 424.411c21.827 26.788 87.143 10.234 110.106 9.091 11.664-.58-2.122-34.88.505-52.022 7.052-46.009 28.323-57.83 20.204-67.68-10.597-12.856-31.926-10.319-48.488-12.123-17.915-1.95-39.734-9.44-54.043 1.516-14.977 11.467-21.947 38.013-26.769 59.094-4.619 20.192-3.54 59.639-1.515 62.124z" fill="#988567" filter="url(#k)"/><path d="M588.75 361.696c.261-.765-2.379-3.438-3.304-3.392-.924.045-6.992 7.96-7.142 13.75-.29 11.08 7.988 20.484 8.75 17.232.761-3.253-5.031-7.357-5-17.322.018-6.138 6.435-9.502 6.696-10.268z" fill="#e5ddcc" filter="url(#k)"/><path d="M996.413 637.287c.91 3.497 2.3 7.519 5.377 9.411 7.519 4.622 17.625.96 26.442 1.345 6.123.267 17.065 3.262 17.815.112 2.54-10.675-.523-30.239-5.715-44.48-3.924-10.765-15.098-18.506-24.873-18.375-6.67.09-14.824 1.893-18.598 7.395-8.408 12.258-4.191 30.206-.448 44.592z" transform="translate(0 27.638)" fill="#c1b4a4" filter="url(#k)"/><path d="M938.936 647.259s7.46-.82 11.204-.785c6.299.06 12.524 1.598 18.823 1.68 11.521.152 20.093-2.438 27.786-8.29 10.44-7.943 11.284-23.614 15.797-40.67 2.754-10.408 7.892-24.465 7.171-31.596-.821-8.132-12.186-16.633-21.736-18.375-11.503-2.099-24.204 2.105-32.772 11.764-.807.91.536 2.06.28 3.25-.616 2.868-4.316 3.592-10.083 19.494-4.689 12.928-7.102 26.57-10.532 39.887-2.027 7.868-5.938 23.64-5.938 23.64z" transform="translate(0 27.638)" fill="#7b6c5a" filter="url(#k)"/><path d="M986.225 580.831c.27 1.214.127 1.972.083 3.134 0 0-1.887-.356-2.52.57-1.55 2.27-3.576 7.843-1.39 9.495 2.207 1.667 6.413-1.575 6.85-4.353.94-5.992-3.023-8.846-3.023-8.846zm-.028 4.77c.572-.059 1.204.086 1.442.443 1.529 2.29-2.984 6.356-4.547 5.796-1.133-.406.154-5.21 1.085-6.144.182-.182 1.678-.06 2.02-.095z" transform="translate(0 27.638)" fill="#e5ddcc" filter="url(#k)"/><path d="M961.388 548.58c-.867-7.783-.393-77.536 9.19-99.19 6.695-15.127 23.533-15.74 37.711-12.36 12.48 2.977 28.031 2.007 36.76 11.409 5.843 6.294 1.588 34.782-1.9 51.655-4.19 20.257-15.994 53.722-22.5 57.834-1.307.825-22.382.967-33.433-.476-10.157-1.325-25.407-5.101-25.828-8.873z" transform="translate(0 27.638)" fill="#988567" filter="url(#k)"/><path d="M987.612 478.235c-.978-.112-5.681 6.347-5.463 10.205.275 4.86 1.61 9.196 4.825 8.568 2.87-.561 6.554-5.69 6.433-9.511-.093-2.928-4.818-9.149-5.795-9.262zm-.23 2.694c1.264-.11 4.36 4.23 4.361 6.655 0 3.387-2.353 6.987-4.935 7.213-2.018.177-2.719-3.049-2.67-6.262.038-2.565 1.646-7.466 3.244-7.606zM1026.273 472.286s1.78 1.072 2.219 4.595c.184 1.48-.624 3.134-1.743 4.12-1.03.905-2.593 1.19-3.962 1.109-1.966-.116-4.154-1.643-3.644-3.17.749-2.243 4.198-5.423 5.15-3.565 1.381 2.698-3.388 1.976-2.852 3.328.45 1.136 2.595 1.023 3.644.396 2.318-1.386 1.188-6.813 1.188-6.813z" transform="translate(0 27.638)" fill="#e5ddcc" filter="url(#k)"/><path d="M966.22 344.259c5.528-8.603 22.988-17.276 36.682-20.361 12.176-2.743 27.7-5.96 37.394 1.901 9.762 7.917 8.92 30.954 9.37 54.186.467 24.218 1.027 43.71-4.933 52.292-5.298 7.628-16.583 9.682-25.669 9.824-3.53.055-5.827-1.906-9.111-2.297-6.758-.806-18.837 3.805-32.72-5.942-5.852-4.109-5.299-14.829-6.972-22.5-2.45-11.24-3.695-22.745-4.436-34.225-.715-11.069-3.076-27.475.396-32.878z" transform="translate(0 27.638)" fill="#c1b4a4" filter="url(#k)"/><path d="M1018.585 384.402c-6.823.007-4.398 17.518-1.442 17.164 3.095-.372 8.976-17.173 1.442-17.164zm-.777 3.133c1.283-.422.812 11.507-.222 8.762-.744-1.977-1.096-8.328.222-8.762z" transform="translate(0 27.638)" fill="#e5ddcc" filter="url(#k)"/><path d="M925.603 269.794c2.059-20.987 24.819-50.356 31.82-54.676 11.228-6.93 29.296 4.514 38.934 11.652 4.844 3.588 19.944 29.813 27.618 47.281 5.228 11.902 13.06 27.355 10.98 37.422-1.83 8.854-18.454 16.48-29.803 20.615-14.239 5.19-34.454 11.207-45.265 4.258-5.941-3.82-7.228-14.57-13.669-25.321-7.896-13.182-21.55-31.7-20.615-41.231z" transform="translate(0 27.638)" fill="#7b6c5a" filter="url(#k)"/><path d="M979.382 258.702c-.78 1.814-1.157 10.956-.56 12.1.54 1.033 4.943 3.01 7.395 4.145 1.688.782 4.861.438 5.49-1.008.61-1.403.743-8.827-.784-9.523-1.873-.854-4.018 6.227-6.947 5.938-2.266-.224-.33-5.745-1.456-8.291-.579-1.308-2.572-4.675-3.138-3.361z" transform="translate(0 27.638)" fill="#e5ddcc" filter="url(#k)"/><path d="M737.823 207.723c14.553 17.386 34.787 18.796 53.78 18.823 19.315.027 43.673-5.578 60.501-13.893 30.777-15.208 47.571-62.688 38.094-95.683-5.22-18.173-25.777-36.121-44.816-49.074-13.402-9.117-31.779-8.585-47.954-9.635-12.083-.785-24.523-1.47-36.3 1.344-22.56 5.39-49.32 12.618-63.192 29.13-7.258 8.64-4.202 22.33-4.033 33.613.3 20.09-1.408 42.398 8.963 59.606 7.473 12.398 25.665 14.669 34.957 25.769z" transform="translate(0 27.638)" fill="#c1b4a4" filter="url(#k)"/><path d="M594.643 207.143c-10.46 17.57-26.133 64.968-12.5 80.714 13.632 15.747 65.247 23.715 78.928 23.214 13.682-.5 73.866-59.712 77.5-73.214 3.635-13.501-52.947-102.789-63.571-104.286-10.624-1.496-42.503 21.036-53.929 36.072-11.425 15.035-15.968 19.93-26.428 37.5z" fill="#7b6c5a" filter="url(#k)"/><path d="M658.778 156.195c-1.396.23-5.124 4.969-6.967 7.925-.854 1.372-.732 3.783.512 4.815 3.559 2.952 7.875.126 8.777-.852.26-.282 1.049-6.755.682-9.65-.149-1.175-2.012-1.96-2.749-2.238a.523.523 0 0 0-.255 0zm-.107 2.855c.037-.01.072-.004.107 0 1.709.192-3.12 9.345-3.452 7.563-.13-.702 2.202-7.265 3.345-7.563z" fill="#e5ddcc" filter="url(#k)"/><path d="M965.49 202.121c.118 5.054-2.005 10.22-4.93 14.341-12.63 17.794-42.913 53.785-46.61 50.194-8.723-8.472-18.398-16.24-29.13-21.96-7.255-3.865-16.01-4.275-23.304-8.066-5.887-3.06-17.71-8.731-15.014-12.773 2.827-4.237 18.874-61.784 26.666-82.686 2.38-6.384 9.37-11.724 16.134-12.549 13.144-1.603 25.325 8.727 36.3 16.134 10.685 7.21 20.617 16.18 27.787 26.89 6.08 9.083 11.844 19.548 12.1 30.475z" transform="translate(0 27.638)" fill="#988567" filter="url(#k)"/><path d="M898.489 219.935c-.786-2.482-.722-11.503.112-12.1.79-.566 13.678 20.023 12.213 20.503-.798.262-11.321-5.233-12.325-8.403z" transform="translate(0 27.638)" fill="#e5ddcc" filter="url(#k)"/><path d="M837.164 84.64l-.95-5.23c-3.996 2.315-30.028 10.756-29.472 11.567.555.811 12.412 23.094 12.834 47.376.358 20.587-14.802 30.9-25.51 31.136-4.264.094-12.2-1.426-12.2-1.426l14.893 9.11 29.472-15.052 1.743-34.542-2.535-22.5 14.894-.475z" transform="translate(0 27.638)" fill="#595754" filter="url(#k)"/><path d="M781.707 90.977s-25.256-9.786-26.303-9.507c-.876.234-10.36 18.747-9.665 20.915.386 1.208 20.281.793 20.281.793s-8.562 21.69-10.299 35.492c-3.407 27.066 4.555 51.078 29.788 55.14 18.932 3.049 24.877-5.228 24.877-5.228l-27.095-13.944-16.637-21.549 7.289-44.524z" transform="translate(0 27.638)" fill="#595754" filter="url(#k)"/><path d="M760.455 84.478l24.873 8.18s-10.488 27.775-12.336 42.368c-2.662 21.018 9.675 38.353 22.975 37.553 22.944-1.382 30.04-21.68 29.789-35.81-.277-15.539-12.201-45-12.201-45l25.827-9.507 3.645 21.074-16.955-.792s11.488 23.31 12.993 35.968c4.201 35.33-23.752 54.75-45.316 54.507-23.642-.266-40.066-24.787-30.74-60.845 2.715-10.494 9.428-30.898 9.428-30.898l-20.836-.158z" transform="translate(0 27.638)" fill="#8eaa9d" filter="url(#k)"/><path transform="matrix(.88732 0 0 .88732 -552.596 924.489)" d="M1500-902.59a3.84 3.84 0 1 1-7.679 0 3.84 3.84 0 1 1 7.68 0z" fill="#4d665c" filter="url(#k)"/><path transform="matrix(.92859 0 0 .92859 -613.96 960.413)" d="M1490.714-855.09a3.84 3.84 0 1 1-7.678 0 3.84 3.84 0 1 1 7.678 0z" fill="#4d665c" filter="url(#k)"/><path d="M1490.714-855.09a3.84 3.84 0 1 1-7.678 0 3.84 3.84 0 1 1 7.678 0z" transform="matrix(.92859 0 0 .92859 -612.059 980.853)" fill="#4d665c" filter="url(#k)"/><path transform="matrix(.9905 0 0 .9905 -684.061 1057.476)" d="M1490.714-855.09a3.84 3.84 0 1 1-7.678 0 3.84 3.84 0 1 1 7.678 0z" fill="#4d665c" filter="url(#k)"/><path d="M1490.714-855.09a3.84 3.84 0 1 1-7.678 0 3.84 3.84 0 1 1 7.678 0z" transform="matrix(.9905 0 0 .9905 -653.163 1048.92)" fill="#4d665c" filter="url(#k)"/><path transform="matrix(.92859 0 0 .92859 -549.63 974.831)" d="M1490.714-855.09a3.84 3.84 0 1 1-7.678 0 3.84 3.84 0 1 1 7.678 0z" fill="#4d665c" filter="url(#k)"/><path d="M1490.714-855.09a3.84 3.84 0 1 1-7.678 0 3.84 3.84 0 1 1 7.678 0z" transform="matrix(.84605 0 0 .84605 -434.348 847.051)" fill="#4d665c" filter="url(#k)"/><path d="M681.429 613.571l-12.858.715-.357-7.5s-14.182-18.312-16.071-29.286c-3.151-18.304 6.606-36.572 8.928-55 1.495-11.86 1.356-24.577 4.982-35.967 5.892-18.502 27.518-50.104 27.518-50.104s-21.092-80.964 17.143-128.572c22.868-28.473 61.578-32.078 98.75-35.357 6.915-.61 19.401-1.463 25.536 1.786 5.227 2.767 7.081 9.562 11.429 13.571 17.192 15.856 38.324 21.04 56.428 43.929 27.207 34.396 36.837 112.576 36.837 112.576l-5.555.252s1.351 17.95 0 26.77c-7.248 47.293-24.493 62.724-23.865 68.69.356 3.388 5.316 3.732 4.672 9.09-.453 3.762-6.819 9.092-6.819 9.092z" fill="url(#G)" filter="url(#k)"/><path d="M682.224 587.983c-5.008-.082-13.658.3-14.964-4.534-4.549-16.837-1.708-34.447 4.08-51.24 5.385-15.617 19.763-41.715 26.754-41.717 5.164-.002 8.37 9.148 62.122 23.58 27.299 7.329 45.615 13.425 82.074 21.311 6.7 1.45 16.978-1.188 19.951 4.988 5.839 12.128-5.67 29.128-16.777 36.73-45.23 30.952-108.44 11.778-163.24 10.882z" transform="translate(0 27.638)" fill="#5b3d21" filter="url(#k)"/><path d="M680.863 596.145s9.365 23.05 26.754 25.393c15.027 2.024 40.029-5.865 60.761-7.935 4.29-.429 8.622-.178 12.923-.454 15.452-.99 30.781-3.671 46.252-4.308 7.098-.292 14.215.548 21.312.227 11.23-.508 22.324-2.893 33.555-3.4 5.008-.227 10.175 1.37 15.04.16 3.365-.837 9.139-4.97 9.139-4.97l-15.564-7.434-6.121-19.271-16.324-13.377-70.738 8.616-102.705 14.737-12.243 8.388z" transform="translate(0 27.638)" fill="#5b3d20" filter="url(#k)"/><path d="M680.863 596.145s-4.29-6.482-1.587-24.94c.974-6.644 6.575-19.044 6.575-19.044l95.904 1.814c-2.587-3.2-7.348-3.789-7.255-10.203l13.603-4.761c.644 2.696 3.655 2.38 6.575 2.494 4.838.188 5.628-.909 8.162-.907 4.766.003 9.466-.577 16.324-1.587 29.41-4.332 43.806-11.05 51.013-12.243 10.368-1.715 30.154-4.535 30.154-4.535l2.947 35.142-21.312 19.272s-13.012.008-19.951.453c-15.231.978-30.831 3.319-46.025 4.761-14.99 1.424-30.08 1.48-45.118 2.268-8.314.435-16.634.777-24.94 1.36-9.685.68-18.9 2.948-28.566 3.854-22.604 2.12-36.503 6.802-36.503 6.802z" transform="translate(0 27.638)" fill="#946231" filter="url(#k)"/><path d="M900.33 522.233c-15.827 4.558-21.14 36.295-21.146 54.417 0 2.851 4.2 21.09 6.843 23.581 2.261 2.13 17.389 2.21 20.572.627 7.523-3.743 9.406-13.705 10.901-21.643 2.6-13.804.974-34.094-3.206-44.568-2.309-5.784-5.397-14.88-13.963-12.414z" transform="translate(0 27.638)" fill="#c19c5d" filter="url(#k)"/><path d="M747.885 605.667s3.645 10.467 4.81 15.871c1.567 7.277.967 13.294-8.978 15.711-5.54 1.347-10.806-2.655-11.223-7.053-.628-6.634-.801-24.048-.801-24.048z" transform="translate(0 27.638)" fill="#1d1b1b" filter="url(#k)"/><path d="M884.475 607.59s7.237 14.242 7.515 19.606c.187 3.591-.756 9.59-1.904 12.619-1.008 2.66-4.852 3.76-7.695 3.687-3.466-.089-7.207-2.09-9.138-4.97-1.647-2.456-.346-5.926-.962-8.817-1.018-4.777-4.49-13.948-4.49-13.948l3.849-13.627z" transform="translate(0 27.638)" fill="#1a1c1b" filter="url(#k)"/><path d="M695.374 646.93s1.537-16.45 3.627-22.671c5.915-17.604 12.623-25.312 13.15-29.701.79-6.58-5.656-9.487-6.282-14.007-1.83-13.21-1.2-37.006-1.2-37.006h19.952s-3.296 24.934.907 36.276c4.368 11.79 5.86 17.774 18.59 18.138 16.441.47 32.914 1.542 49.692 1.51 17.987-.036 54.601-1.737 54.601-1.737s-3.933-14.537-4.76-21.992c-1.028-9.24-.228-27.887-.228-27.887l27.434.454s-6.007 17.702-5.215 26.753c.735 8.389 3.909 19.838 9.069 23.579 5.904 4.28 27.298 5.147 27.298 5.147s-10.845 4.999-16.642 5.055c-3.612.036-10.43-2.947-10.43-2.947s-8.09 13.664-9.522 21.312c-3.901 20.856 4.308 23.58 4.308 23.58s-7.758 2.613-11.79 2.72c-5.676.15-16.777-2.948-16.777-2.948s-1.538-15.079-.227-22.445c1.233-6.923 7.482-19.725 7.482-19.725-39.24.058-78.424.173-120.163-2.267 0 0-3.507 11.661-3.854 17.684-.436 7.583 2.267 22.672 2.267 22.672s-14.19 1.726-21.312 1.587c-3.346-.064-9.975-1.133-9.975-1.133z" transform="translate(0 27.638)" fill="#3e3d3a" filter="url(#k)"/><path d="M857.786 421.864c-3.47-.026-6.49 2.417-8.416 5.302-2.316 3.47-2.16 7.922-2.33 12.092-.137 3.403-.105 8.09.87 10.409 1.506 3.578 4.196 7.316 8.922 7.07 6.422-.335 8.414-5.312 9.595-10.353.613-2.617.969-5.406.982-8.332.015-3.37.305-6.92 0-9.287-.508-3.947-5.643-6.872-9.623-6.901zm-2.413 7.294c1.06-.122 6.187 4.318 6.173 5.218-.044 2.778 1.098 6.373-.225 9.118-1.045 2.17-1.551 4.372-5.555 4.658-2.227.158-3.747-1.72-4.068-4.012-.308-2.202-.509-3.907-.477-6.65.036-3.106 2.554-8.148 4.152-8.332z" transform="translate(0 27.638)" fill="#070200" filter="url(#k)"/><path clip-path="url(#H)" d="M862.511 265.474l-4.488 159.997" transform="translate(0 27.638)" fill="none" stroke="#000" stroke-width="1.796" filter="url(#k)"/><path d="M547.487 125.053l27.644 86.346-41.978-5.46v-77.814z" fill="#294243" filter="url(#k)"/><path d="M443.874 216.801c-2.711-1.411.376-29.176 4.437-43.002 2.91-9.91 9.556-32.081 9.556-32.081s-2.842 3.827-3.3.603c-.551-3.864 3.982-10.5 3.982-10.5s-1.038-20.366-.34-31.57c.443-7.132 2.657-19.476 5.119-20.818 2.461-1.342 9.79-.966 14.825-.37 3.538.418 10.6 2.588 10.6 2.588s7.041-17.285 14.846-18.43c6.963-1.02 17.406 11.946 17.406 11.946s44.285-19.842 47.78-18.43c3.496 1.413-.983 16.892-3.413 24.914-3.774 12.466-17.064 35.153-17.064 35.153s6.039 1.608 2.39 9.727c-4.287 9.533-11.775 5.972-11.775 5.972s4.18 23.618 3.583 35.494c-.614 12.233-2.25 31.772-8.785 36.971-6.536 5.2-23.637-9.839-23.637-9.839s-2.928 9.573-8.191 10.068c-9.096.856-9.727-6.655-9.727-6.655s-4.659 9.776-11.092 10.068c-9.36.426-12.457-7.85-12.457-7.85s-7.219 8.692-11.945 11.604c-3.843 2.37-10.086 5.848-12.798 4.437z" fill="#6c2b0e" filter="url(#k)"/><path d="M504.272 63.166l-10.743-.945.184 3.525 9.707 1.133zM463.602 77.71l11.165 1.022.364 3.303-10.559-1.75zM558.154 55.713l10.518.99-3.737 4.018-7.892 1.834zM530.637 206.05l-10.97-.96-.533-.26 2.49-1.931 7.092 1.29zM489.726 204.294l10.196.959-1.068-3.111-7.423-.384zM469.889 207.66l10.45.966-.555-4.095-9.812.128zM434.739 216.153l10.617.974-.724-6.41-8.746 2.431z" fill="#6c2b0e" filter="url(#k)"/><path d="M510.799 178.124l-51.193 8.702 9.385-82.25L532.3 84.611l-4.266 25.084-15.188 67.405z" fill="#4c3b51" filter="url(#k)"/><path d="M557.973 55.691c-5.775-.12-47.332 18.515-47.332 18.515S500.193 61.24 493.23 62.26c-7.805 1.144-14.842 18.425-14.842 18.425s-7.062-2.18-10.601-2.598c-5.035-.595-12.38-.954-14.842.388-2.462 1.342-4.662 13.682-5.106 20.814-.697 11.204 3.912 33.447 3.912 33.447s-8.106 4.766-7.556 8.63c.46 3.224 7.735 3.822 7.735 3.822s-11.095 17.744-14.006 27.653c-4.06 13.826-7.13 41.591-4.42 43.002 2.712 1.412 8.938-2.08 12.782-4.45 4.726-2.912 11.945-11.586 11.945-11.586s3.092 8.25 12.453 7.824c6.432-.292 11.109-10.064 11.109-10.064s.638 7.516 9.735 6.66c5.263-.496 8.182-10.064 8.182-10.064s17.086 15.024 23.622 9.825c6.535-5.2 8.194-24.737 8.809-36.97.597-11.877-3.584-35.477-3.584-35.477s7.48 3.561 11.766-5.972c3.65-8.119-2.389-9.736-2.389-9.736s13.277-22.682 17.052-35.148c2.43-8.022 6.93-23.493 3.434-24.905a1.267 1.267 0 0 0-.448-.09zm-25.831 22.785c-8.808 35.366-15.247 67.77-22.367 101.026-18.417-.511-38.087 4.407-57.844 9.705l13.14-90.424z" fill="#c75c08" filter="url(#k)"/><path d="M507.898 164.472s-5.543-.194-8.575.299c-9.944 1.617-29.479 8.916-29.479 8.916s-1.726-3.751-1.194-7.508c2.521-17.802 13.992-26.45 13.992-26.45-2.029-.258-3.963.03-6.313-2.048 0 0 2.403-1.514 2.986-2.73.382-.797.17-2.645.17-2.645s-1.119 1.585-2.218 2.474c-.736.595-1.533 1.296-2.474 1.195-1.6-.172-3.253-1.465-3.328-3.072-.085-1.834.075-5.388 1.366-5.546 1.444-.177 3.99-.17 4.351-.427.36-.256.276-6.397.512-9.3-1.65.44-3.3.985-4.949 1.536.264-2.463 2.607-4.665 4.608-6.91-2.594 1.656-4.71 3.695-6.74 5.801 0 0 2.825-5.983 5.118-8.276 4.895-4.894 10.74-11 17.662-10.921 7.795.087 11.007 7.423 11.007 7.423s2.283-4.483 4.436-4.778c1.62-.223 3.402 1.123 4.181 2.56 1.52 2.8.203 6.402-.256 9.555-.88 6.054-4.682 8.054-4.223 12.457.188 1.805.887 3.81 2.517 4.608 1.822.892 6.058-.598 6.058-.598s-2.026 6.507-4.778 7.85c-1.544.753-4.821-.213-4.821-.213s.457 2.268 1.493 3.029c1.281.94 4.693.853 4.693.853s-1.04 7.455-10.154 7.935c-6.449.34-9.64-6.826-9.64-6.826s-1.803 3.031-1.707 4.693c.084 1.46.974 2.846 1.962 3.925 2.052 2.24 5.543 2.704 7.764 4.778 2.504 2.337 5.973 8.361 5.973 8.361z" fill="#967ba5" filter="url(#k)"/><path d="M611.647 323.9c-7.639 2.328-17.18-1.831-22.728-7.575-3.566-3.692-28.429-14.942-42.932-23.234-13.198-7.546-17.677-31.315-17.677-31.315s-11.57.679-17.173-.505c-4.802-1.014-8.82-4.612-13.637-5.555-9.913-1.942-20.405 2.008-30.304 0-4.659-.945-8.553-4.284-13.132-5.556-10.323-2.87-31.82-4.546-31.82-4.546l4.545-13.637 67.176-12.122 76.771-1.515 98.49 26.264s-7.504 10.79-13.384 14.647c-5.103 3.348-15.179 2.266-18.94 7.071-6.23 7.956-1.617 20.495-5.557 29.8-4.426 10.453-5.626 23.492-19.698 27.779z" fill="#835927" filter="url(#k)"/><path d="M422.244 245.614c-7.936 1.258-16.327-1.287-23.673-4.543-9.327-4.133-24.464-18.392-24.464-18.392 18.957 1.106 37.456.384 55.46-2.319 0 0 6.495-7.102 10.79-8.931 7.717-3.287 16.75-1.348 25-2.858 9.06-1.657 17.675-5.433 26.786-6.785 17.683-2.625 36.044-6.014 53.571-2.5 7.362 1.476 13.032 7.995 20.357 9.643 18.7 4.205 39.569-.892 57.5 0 17.478.869 35.918 6.287 50.715 13.571 4.73 2.329 7.72 7.268 5 11.786-3.021 5.018-7.04 6.339-10.06 10.318-3.11 4.098-13.209-3.315-19.94-4.247-28.953-4.007-58.35-3.571-87.5-5.714-24.778-1.822-49.446-6.54-74.286-6.072-27.754.524-47.072 14.16-65.256 17.043z" fill="#c89535" filter="url(#k)"/><path d="M944.486 58.346a23.173 23.173 0 0 0 .7 12.513l-22.865 7.891-9.448-6.269c1.772-2.105 1.025-8.721-.482-12.546z" fill="#9b9a9b" filter="url(#k)"/><path d="M937.317 149.224c-8.787-.088-18.277-.121-26.011-4.293-7.76-4.187-14.224-14.147-17.574-22.303-5.567-13.557-11.73-33.432-1.515-43.942 7.305-7.516 25.325-7.452 38.386-8.08 15.144-.73 38.295-.384 45.204 5.05 4.645 3.653.984 38.993-4.798 51.518-2.844 6.16-8.646 15.586-12.731 19.02-5.405 4.541-13.902 3.1-20.961 3.03z" fill="#35768d" filter="url(#k)"/><path transform="rotate(-2.834 928.439 59.14)" d="M944.506 59.14a16.067 9.731 0 1 1-32.134 0 16.067 9.731 0 1 1 32.134 0z" fill="#5a5d68" filter="url(#k)"/><path d="M1064.063 10.594c-1.409.032-2.765.122-3.876.125-4.385.009-12.303-1.097-12.5 4.094-.16 4.242 3.589 1.944 4.626 4.28 1.036 2.337.582 5.79.093 9.032-.585 3.883-3.468 12.219-3.468 12.219s-5.687-6.22-13.219-12.063c-7.09-5.5-17.639-6.283-22.156-1.843-11.875 11.67 17.5 46.78 17.5 46.78s-9.815 18.245-12.125 28.22c-3.308 14.282-4.91 34.836-2.156 43.906 3.316 10.924 22.177 5.958 33.562 6.812 8.38.63 17.05.842 25.188-1.25 5.13-1.319 11.637-2.378 14.28-6.969 6.582-11.43 1.997-27.2-2.843-39.468-3.79-9.608-19.469-24.125-19.469-24.125s41.355-35.257 27.688-53.563c-10.242-13.717-38.053 16.39-38.053 16.39.043-5.399 1.559-11.84 3.63-16.777 1.38-3.18 4.235-6.038 6.208-8.175 1.973-2.137 5.75 1.1 5.871-3.407.107-3.997-4.557-4.314-8.781-4.218zm-35.876 22.218c8.565.281 17.952 12.883 17.688 14.313-.325 1.76-10.005 19.009-11.469 19.188-1.463.178-20.792-23.654-11.875-31.438 1.76-1.536 3.68-2.127 5.656-2.063zm52.188 1.532c1.145.026 2.126.37 2.875 1.156 10.692 11.213-18.582 35.46-20.563 34.594-1.98-.867-6.495-18.03-5.8-19.702.607-1.462 15.475-16.235 23.488-16.048z" fill="#81323a" filter="url(#k)"/><path d="M857.114 162.276s-7.623-7.21-6.517-11.678c1.86-7.51 11.417-7.353 19.144-7.767 23.764-1.274 47.736-.315 71.099 1.275 12.826.873 7.808 5.309 11.734 4.407 3.118-.716 8.229-9.483 21.718-10.733 24.647-2.283 49.516.21 74.246 1.263 18.546.79 35.65 1.183 53.594 5.93 8.5 2.25 23.015 4.784 25.725 9.313 2.183 3.646 3.83 10.398 3.514 12.031l-32.8 10.826-52.5-2.143-78.571 14.643-40.714-13.572-28.929-6.785-15.714-3.572z" fill="#c89535" filter="url(#k)"/><path d="M857.114 162.276s18.244 12.395 28.79 13.637c9.72 1.146 27.779 3.03 27.779 3.03s.548 7.648 2.02 11.113c6.651 15.653 17.981 29.186 29.8 41.416 22.695 23.486 46.972 24.749 46.972 24.749 2.858-12.644 5.19-31.763 41.164-55.306 25.016-16.372 46.968-15.204 72.478-18.436 15.353-1.945 25.225-14.47 25.254-16.162 0 0-19.884.104-29.8-.505-19.095-1.173-37.947-5.636-57.073-6.061-44.563-.99-62.398 10.635-84.348 12.122-17.164 1.162-33.38-8.994-50.508-10.607-17.435-1.641-52.528 1.01-52.528 1.01z" fill="#835927" filter="url(#k)"/></g><g><path d="M1900.35 389.864s31.62-22.38 49.143-83.085c5.064-17.543 2.844-38.478-6.01-54.447-8.3-14.97-27.388-22.038-39.805-33.82-8.42-7.99-17.894-16.245-21.481-28.663-7.758-26.863-.903-59.797 13.556-87.778 5.992-11.595 25.103-30.052 25.103-30.052l-107.127 2.475s24.362 24.844 32.527 39.952c14.5 26.831 15.44 58.165 2.828 83.085-6.494 12.83-18.215 22.278-27.93 32.88-9.29 10.138-23.812 16.608-28.992 29.345-6.437 15.83-4.18 34.79.354 51.265 15.287 55.546 47.376 80.61 47.376 80.61z" fill="#d35f93" filter="url(#k)"/><path clip-path="url(#I)" d="M1893.102 391.985l1.414-79.55s1.789-13.4 6.364-17.677c5.64-5.273 16.994-11.998 22.274-6.364 2.366 2.525-.53 18.385-.53 18.385s-2.543-8.448-7.956-8.309c-12.603.324-21.81 34.103-6.54 38.891 20.025 6.28 31.99-40.077 22.097-54.977-5.607-8.444-36.207-5.36-54.448-5.48-19.637-.13-52.183-.132-57.806 7.954-5.365 7.716-6.091 47.93 12.552 44.725 14.717-2.53 25.693-21.192 11.137-33.41-8.597-7.217-12.375 4.772-12.375 4.772s-4.225-6.552-2.121-9.546c3.196-4.548 10.616-4.172 15.91-2.475 5.453 1.748 9.852 6.408 13.081 11.137 2.848 4.17 4.102 9.34 4.95 14.32 4.333 25.442.354 77.427.354 77.427z" fill="#89314c" filter="url(#k)"/><path clip-path="url(#J)" d="M1825 225.5s33.336-.943 50.879-3.036C1884.139 221.48 1897 211 1897 211l31-144.5-129.5-3 .5 150z" fill="#89314c" filter="url(#k)"/><path clip-path="url(#K)" d="M1788.5 263.5s16.967-12.426 45.5-13.5c39.662-1.493 112.5 2.5 112.5 2.5l6.5 18.75s-3.637 1.006-5.5 1c-4.55-.015-9-9-9-9s-4.354 8.21-12.75 8.75c-9.038.582-15.75-9-15.75-9s-.927 9.764-14.25 10.25c-9.494.346-11-11.25-11-11.25s-5.43 9.72-17 10c-12.627.305-20-9.5-20-9.5s-6.219 9.6-11.25 10.25c-6.063.783-16.25-8.5-16.25-8.5s-2.08 9.782-9 9.5c-5.517-.225-8.75-9.25-8.75-9.25s-3.744 10.267-11 10.25c-3.684-.009-8.75-6.75-8.75-6.75z" fill="#89314c" filter="url(#k)"/><path d="M1888.678 372.29l1.829 4.996s12.12-18.978 17.868-19.536c3.213-.312 4.842 7.976 2.188 9.813-1.17.808-3.289-.214-3.938-2.563-2.227 2.876-.974 10.754 2.625 10.5 9.194-.648 10.53-22.368 2.875-27.5-6.132-4.11-13.96 6.689-19.625 10.875-1.455 1.075-4.125 3-4.125 3zM1865.082 355.304s-7.949-13.68-16.97-14.054c-9.238-.382-13.783 8.14-14.76 15.115-.82 5.835 1.357 14.842 8.396 15.556 11.53 1.17 12.438-8.593 5.392-14.673 0 0 1.714 5.18.353 7.072-1.202 1.67-3.472 1.736-5.303.795-2.344-1.204-4.13-4.504-3.536-7.071.92-3.973 5.656-7.72 9.723-7.425 7.232.525 15.203 15.557 15.203 15.557z" fill="#89314c" filter="url(#k)"/></g><g><path d="M1565.5 824.5l7.5-88.5 217-72 61-78 178-119 112-127 117.5-99 118.5-50-25-24 35-61.5c35.32-19.829 71.116-39.816 112-61.5 2.286-25.904 5.437-47.48 6-82 55.082-7.674 108.794-26.317 162-49 3.402-29.697 7.368-58.264 9-91.5 20.603-23.62 39.155-47.24 66.867-70.86l313.248-4.243s-33.458-.254-42.426 11.313c-94.462 121.843-152.948 337.897-179.605 519.017-26.734 181.644-63.635 431.404 65.76 538.108 53.208 43.876 99.823-7.296 176.778-107.48 27.89-36.31 32.511-62.679 62.932-116.673 14.57-25.858-75.647-63.087-57.983-102.53 8.637-19.285 52.85-59.85 82.732-55.862 36.987 4.937 45.962 93.338 45.962 93.338l-5.657 439.82s-174.419 3.659-261.63 2.83c-31.596-.302-61.043 2.52-94.752-2.83-23.428-3.717-26.312-27.387-43.84-31.112-73.18-15.553-152.275-29.923-227.689-48.083-45.582-10.977-133.872-29.505-135.764-36.77-1.893-7.264 38.229-31.404 41.012-35.355 2.783-3.951-172.491-7.72-258.801-8.485-62.702-.557-125.389 2.357-188.09 2.828-74.01.556-148.06-2.393-222.032 0-82.637 2.673-247.522 16.029-247.522 16.029z" fill="url(#L)" filter="url(#k)"/><path d="M2101 364c47.763-3.03 97.59-17.413 148-35 4.117-27.433 6.645-58.043 9.5-88-47.975 20.098-95.746 41.016-145 56 .661 26.356-5.244 47.241-12.5 67z" fill="#953639" filter="url(#k)"/><path d="M1815 576c-23.62-57.419-37.013-118.928-34-187 108.167-5.435 198.197-.892 286 2l-16.238 93.133L1998 531l-109.018 48.394z" fill="#ffc5a3" filter="url(#k)"/><path d="M1918.5 453c59.566-4.98 120.679-25.53 197-51.5 30.45-27.68 76.4-51.483 133.5-72.5-49.333 11.204-98.667 21.336-148 35-77.216 39.496-123.026 60.15-182.5 89z" fill="#b84437" filter="url(#k)"/><path d="M1917.674 522.446L1918.5 453c63.383-17.167 129.636-34.333 197-51.5l2 75c-68.704 18.964-135.12 33.638-199.826 45.946z" fill="#953639" filter="url(#k)"/><path d="M1906.656 400.906c-5.109.595-9.672 3.481-13.406 7.781-4.98 5.734-8.673 14.001-10.969 23.25-2.684 10.816-.842 18.96 1.688 26.782 2.53 7.82 5.671 15.351 6.031 25.594.506 14.39-3.276 28.85-4.594 43.656-.433 4.872-1.062 14.531-1.062 14.531l3 .188s.637-9.66 1.062-14.438c1.287-14.466 5.12-29.053 4.594-44.031-.38-10.807-3.71-18.782-6.188-26.438-2.476-7.656-4.15-14.95-1.625-25.125 2.214-8.918 5.792-16.794 10.313-22 4.52-5.206 9.766-7.751 15.875-6.594 4.792.909 7.822 3.65 9.656 7.407 1.835 3.756 2.37 8.567 1.781 13.25-.587 4.682-2.304 9.205-4.718 12.375-2.415 3.17-5.37 4.935-8.782 4.656-3.452-.282-5.392-1.246-6.5-2.375-4.812-5.465-.851-7.386-2.75-11.656 0 0-1.926 3.61-1.812 7.687.057 2.04.703 4.294 2.437 6.063 1.735 1.768 4.446 2.96 8.375 3.281 4.604.376 8.58-2.133 11.407-5.844 2.826-3.71 4.666-8.662 5.312-13.812.647-5.15.108-10.494-2.062-14.938-2.17-4.444-6.098-7.954-11.782-9.031-1.81-.343-3.578-.417-5.28-.219zM1827.844 404.875c-4.947-.307-10.22.451-15.656 2.313-6.556 2.243-10.624 6.94-12.532 12.53-1.908 5.592-1.785 12.035-.375 18.188 1.41 6.153 4.123 12.024 7.594 16.469 3.47 4.445 7.761 7.568 12.469 7.688 6.972.177 12.605-2.268 16-6.563 3.394-4.295 4.465-10.292 2.812-16.844-.486-1.928-1.806-3.786-3-5.344a40.46 40.46 0 0 0-2.312-2.75c1.277 5.64 6.36 14.05.156 23.063-2.746 3.474-7.323 5.596-13.563 5.438-3.388-.087-7.043-2.506-10.187-6.532-3.143-4.025-5.716-9.543-7.031-15.281-1.315-5.738-1.383-11.685.281-16.563 1.664-4.877 4.934-8.697 10.656-10.656 13.636-4.667 25.56-1.969 33.375 6.906 7.816 8.876 11.55 24.215 7.781 45.125-5.036 27.94-22.864 52.835-27.562 82.063-1.742 10.833.719 23.844.719 23.844l2.937-.532s-2.296-12.833-.687-22.843c4.55-28.302 22.364-53.164 27.562-82 3.876-21.504.129-37.826-8.5-47.625-5.393-6.125-12.693-9.582-20.937-10.094z" style="text-indent:0;text-align:start;line-height:normal;text-transform:none;block-progression:tb;marker:none;-inkscape-font-specification:Sans" font-weight="400" color="#000" fill="#dc896b" overflow="visible" enable-background="accumulate" font-family="Sans" filter="url(#k)"/><path d="M1672.876 618.527c81.599-30.367 163.198-54.81 244.798-96.08 65.361-21.428 131.84-35.582 198.826-46.447-81.485 50.125-186.373 86.32-266.709 134.481-78.707 54.982-122.98 18.71-176.915 8.046z" fill="#b84437" filter="url(#k)"/><path d="M1670 683c-.22-21.725 1.157-38.48 2.876-64.473 61.75 3.504 117.051 1.65 176.915-8.046-3.777 20.866-5.87 38.364-7.791 55.519-86.612 18.202-103.889 60.646-172 17z" fill="#953639" filter="url(#k)"/><path d="M1408.91 729.629C1498.114 715.172 1597.765 705.94 1670 683c56.278 5.939 113.842-2.263 172-17-80.322 34.24-160.058 63.794-238.5 83-77.355 14.883-160.739 40.066-194.59-19.371z" fill="#b84437" filter="url(#k)"/><path d="M1379.919 796.45l28.991-66.821c68.835 9.861 135.047 17.474 194.59 19.371l-38 75.5c-57.597-16.811-117.403-29.755-185.581-28.05zM2281 232c9.901-26.967 16.56-52.853 22.5-78.5 32.219-14.246 57.77-31.158 83.5-48-4.01 28.5-7.323 57-10 85.5-33.876 15.543-64.662 27.995-96 41z" fill="#953639" filter="url(#k)"/><path d="M454.219-92.375c-1.36-.67-4.438-1-4.438-1 4.162 1.314 13.046 10.085 20.563 18.281 8.776 9.57 19.776 17.843 25.469 26.25 5.215 7.703 11.846 24.284 16.125 35.407 4.278 11.122 3.958 12.82 6.968 18.78.977 1.935 3.563 5.438 3.563 5.438s-4.353-15.345-8.657-26.531c-4.303-11.186-9.916-24.343-15.375-32.406-5.936-8.768-16.209-19.999-25.78-28.875-9.572-8.877-11.266-11.81-18.438-15.344zM1712.563 727.813c-.21 2.22-1.422 32.044-1.407 48.125.01 11.364.904 22.986 1.063 33.968.016 1.142.778 3.338.778 3.338s.741-2.242.722-3.4c-.184-11.076-1.053-22.633-1.063-33.907-.015-15.989 1.201-31.908 1.406-48.03.03-2.27-.872-6.754-.872-6.754l-.628 6.66z" style="text-indent:0;text-align:start;line-height:normal;text-transform:none;block-progression:tb;marker:none;-inkscape-font-specification:Sans" font-weight="400" color="#000" fill="url(#i)" overflow="visible" enable-background="accumulate" font-family="Sans" filter="url(#k)"/><path d="M1769.5 697s-1.094 29.864-1 86.75c.01 3.682 2 13.25 2 13.25s-5.453-6.824-5.5-11c-1.031-91.737 4.5-89 4.5-89z" fill="url(#i)" filter="url(#k)"/><path d="M1793.308 704.375s-2.444 19.353-3.558 30.087c-1.042 10.044-2.384 22.09-2.5 32.288-.066 5.735.025 11.305 1 16.844.418 2.375 2.064 6.935 2.064 6.935s-.867-5.103-.948-7.476c-.191-5.56-.355-12.001-.292-17.452.114-10.036 1.63-18.924 2.676-29.007 1.106-10.65 4.089-31.704 4.089-31.704s.69-6.481-.412-5.904c-2.017 1.056-2.118 5.389-2.118 5.389z" style="text-indent:0;text-align:start;line-height:normal;text-transform:none;block-progression:tb;marker:none;-inkscape-font-specification:Sans" font-weight="400" color="#000" fill="url(#i)" overflow="visible" enable-background="accumulate" font-family="Sans" filter="url(#k)"/><path d="M1894 768.938s7.93-96.844 16-143.938c2.95-17.213 5.253-40.352 9.75-45.438 4.497-5.086-2.127 33.142-4.75 52.438-6.154 45.264-21 136.938-21 136.938z" fill="url(#i)" filter="url(#k)"/><path transform="rotate(-24.952 1343.133 -59.176)" d="M1300.5-75l57.5-27 37 26-17 41-56.5 18z" fill="#ffe886" filter="url(#k)"/><path d="M1341.75-112.75s27.792-2.9 30.25-22.25c1.448-11.399-14.048-20.01-14-31.5.025-6.041 7.5-16.5 7.5-16.5s-20.21 8.905-24.25 23.25c-1.893 6.723 5.925 13.023 6.25 20 .428 9.192-5.75 27-5.75 27zM1378.5-102s16.247 9.869 23.5 6.25c18.188-9.074 9.471-24.751 14-32 2.988-4.783 14-4.75 14-4.75s-17.228-9.542-25.25-6.25c-8.859 3.635-9.235 16.855-15 24.5-3.338 4.426-11.25 12.25-11.25 12.25zM1400.071-74.175s5.473 20.225 21.92 20.152c8.904-.039 10.15-18.767 17.325-20.329 4.228-.92 11.314 6.364 11.314 6.364s5.701-20.44-14.673-20.152c-6.847.096-10.613 9.266-17.147 11.313-4.309 1.35-18.739 2.652-18.739 2.652zM1384.338-34.224s-4.914 18.322.707 27.931c3.067 5.243 14.535-1.438 15.733 9.193 2.602 23.071-16.086 29.875-16.086 29.875s7.43-9.37 7.07-16.97c-.613-12.965-17.404-4.452-18.56-11.668-4.205-26.233 11.136-38.36 11.136-38.36zM1321.406-13.894s.636 9.212 3.535 12.374c5.565 6.07 12.085 13.111 10.43 21.037-3.97 19.01-27.577 30.759-27.577 30.759s12.297-17.078 13.435-24.395c1.23-7.907-14.224-11.267-14.319-19.27-.099-8.37 14.496-20.505 14.496-20.505zM1291.707-33.516s-2.253-18.713-9.546-20.153c-11.335-2.238-14.56 20.031-25.632 23.335-8.021 2.392-9.016-6.01-9.016-6.01s-13.437 7.995-3.889 16.44c4.302 3.804 15.632 2.714 21.92-.708 9.116-4.96 5.69-11.914 11.137-14.849 6.598-3.554 15.026 1.945 15.026 1.945zM1299.662-79.302s.88-11.219-3.182-13.258c-9.225-4.63-18.14 12.25-28.46 12.198-10.397-.054-5.834-15.557-5.834-15.557s-9.14-.073-10.253 7.071c-1.228 7.881 2.56 17.327 12.374 19.623 12.396 2.9 16.895-12.761 26.87-13.259 3.017-.15 8.485 3.182 8.485 3.182zM1304.082-159.558s-3.317 22.74-.53 27.047c3.846 5.947 16.045-3.087 19.091 1.767 13.654 21.761-15.556 27.4-15.556 27.4s4.482-11.348 1.414-15.556c-4.118-5.648-23.62-1.135-24.572-12.02-.876-10.031 20.153-28.638 20.153-28.638z" fill="#ffc54f" filter="url(#k)"/></g></svg>