<svg xmlns="http://www.w3.org/2000/svg" width="1600" height="900" viewBox="0 0 1600 900"><path fill="#95D5D8" d="M389.089 574.483l25.643 25.171s47.829 3.934 60.583 3.459c12.753-.474 43.421.018 46.082-19.673 2.662-19.692 9.857-77.104 6.708-115.356-3.149-38.253-34.487-146.478-41.536-152.747-7.048-6.269-57.674-16.631-72.732-9.54-15.057 7.09-25.493 23.807-27.797 30.423-2.303 6.615 3.049 238.263 3.049 238.263z"/><path fill="#527895" d="M533.054 480.487l-19.989-50.237 11.521 43.001-25.865 20.82.79-8.458-28.139-25.255 41.212-31.318-2.816-7.078-8.374 6.417.906-4.096-35.256-26.649 36.469-31.358-3.709-8.025-39.734 34.11-46.293-34.992-3.965 4.942 44.54 34.96-27.229 23.375-24.559-22.042-1.529 10.261 19.486 17.447-32.046 27.511 4.641 7.379 33.857-29.111 32.083 28.728-43.746 33.518-22.88-17.497-1.965 7.115 19.109 14.776-18.65 14.289 1.553 7.289 22.697-17.248 36.914 28.544-49.792 40.076 7.646 5.225 50.045-39.195 32.216 24.911 4.452-6.085-30.716-23.488 67.115-52.562zm-99.493-54.063l27.646-23.771 36.438 28.597-31.669 24.266-32.415-29.092zm-12.594 72.237l43.465-33.03 32.957 29.513-39.473 31.772-36.949-28.255z"/><path fill="#894437" d="M478.013 570.089s40.437-180.287-42.129-235.994c-82.566-55.705 49.21-49.588 49.21-49.588s42.125 67.007 43.816 77.965c1.692 10.958 12.025 81.597 12.626 97.494.601 15.896.343 42.846-3.066 53.993-3.41 11.148-9.093 29.729-11.505 33.49-2.412 3.764-27.317 20.608-27.317 20.608l-21.635 2.032z"/><linearGradient id="a" gradientUnits="userSpaceOnUse" x1="648.632" y1="454.837" x2="652.191" y2="-93.279" gradientTransform="rotate(-2.144 646.03 393.78)"><stop offset="0" stop-color="#cd7666"/><stop offset="1" stop-color="#7f342a"/></linearGradient><path fill="url(#a)" d="M842.557 112.02S747.93 75.131 729.892 70.903c-18.041-4.227-164.521 6.121-180.915 11.629-16.395 5.507-97.027 68.51-97.027 68.51S339.732 256.854 335 266.827c-4.731 9.972-7.185 181.499-6.954 187.612.121 3.191-5.379 65.074 5.833 119.439 10.268 49.788 37.334 92.584 37.334 92.584l478.352 2.462s125.336-79.165 124.55-99.953c-.192-5.079 2.654-183.046-1.204-208.906-11.934-79.958-130.354-248.045-130.354-248.045zm-346.92 451.291l-81.299 11.597s-18.957-96.034-7.286-158.92c11.671-62.885 38.619-93.276 59.024-94.035 20.405-.76 73.558 155.228 29.561 241.358z"/><path fill="#723137" d="M411.566 595.215s36.085-17.262 59.631-16.301c23.548.96 40.492 2.168 45.559.142 5.066-2.024 4.264-3.832 3.228-11.753-1.034-7.921-2.779-15.204-7.915-15.013-5.135.191-46.038 6.61-64.311 9.129-18.273 2.516-43.08 7.112-43.08 7.112l6.888 26.684z"/><path fill="#884936" d="M414.273 576.137c-3.586-10.686-10.611-8.588-12.766-7.283-2.155 1.305-3.888 7.287-1.363 15.766 2.526 8.479 3.467 13.953 11.422 10.596 7.376-3.115 5.72-10.62 2.707-19.079z"/><path fill="#954838" d="M618.233 315.475c-1.515 4.954-10.868 5.301-19.622 43.997-8.754 38.695-15.742 34.056-15.451 64.25 0 0 4.143 19.438.662 39.979-3.482 20.538-13.703 42.961-14.878 56.882-1.177 13.922-2.278 52.332-2.278 52.332s5.463-58.165 12.623-71.493c7.158-13.328 11.939-44.529 11.322-60.832-.616-16.305 3.702-59.731 7.644-68.042s12.74-23.333 15.833-31.61c3.092-8.281 4.145-25.463 4.145-25.463zM632.413 391.017s41.759-48.914 58.397-52.064c0 0-27.796-3.789-58.397 52.064zM708.014 348.054s75.899 25.749 77.937 192.211c-.001 0 8.952-168.505-77.937-192.211z"/><path fill="#7E3C2D" d="M781.435 398.387s-.18-49.791-18.324-79.323c-18.144-29.529-25.778-51.287-23.938-70.131 1.842-18.846 20.152-75.039 21.42-86.516 1.268-11.476 1.799-42.519 1.799-42.519s3.784 32.515-1.244 57.193c-5.027 24.677-20.767 58.733-19.085 80.711 1.683 21.979 27.571 53.67 34.417 77.092 6.846 23.42 4.955 63.493 4.955 63.493zM816.845 186.448s-25.821 37.696-25.036 80.934c0 0-11.08-45.303 25.036-80.934z"/><path fill="#954838" d="M512.81 274.497s-6.393 78.607 4.716 124.727c0 0-21.558-52.26-4.716-124.727z"/><path fill="#7E3C2D" d="M455.678 249.683s-6.172 39.415-2.573 67.037c-.001 0-9.225-41.291 2.573-67.037zM436.043 270.822s-13.129 35.592-10.737 76.321c0 0-19.426-40.912 10.737-76.321z"/><path fill="#954838" d="M566.018 578.245s-4.655 12.01-.12 30.619c4.535 18.605-12.59 49.855-35.392 54.786-22.802 4.932-5.782 4.705-5.782 4.705s50.266-10.44 43.678-60.809c-1.675-10.551-2.724-15.818-2.384-29.301zM785.851 548.84s-5.155 9.987 4.086 29.237c9.241 19.248 19.146 56.024 27.363 59.393 0 0-6.449 9.627-29.003-57.699-4.875-5.125-7.651-22.166-2.446-30.931z"/><path fill="#954838" d="M799.004 581.413s3.53 14.564 12.433 24.847c-.001-.001-9.539-4.546-12.433-24.847z"/><path fill="#7E3C2D" d="M601.027 141.822s17.643 27.508 13.466 52.154c0 .001 12.965-28.646-13.466-52.154z"/><path fill="#954838" d="M754.221 654.17s5.588-9.559 7.041-21.065c1.458-11.506 2.575-10.611 4.678-19.339 2.101-8.726 4.072-13.708 4.243-23.53.171-9.821-.073-23.368 2.945-29.324 3.019-5.957 3.259-37.225 3.135-40.492-.123-3.266.584-10.171-.938-29.048-1.525-18.872-4.263-43.527-7.592-52.984-3.332-9.459-5.13-12.88-9.295-23.009-4.168-10.128-11.953-17.729-17.849-23.586-5.899-5.857-21.156-15.848-27.198-18.428-6.044-2.58-11.603-5.193-16.146-3.857-4.543 1.338-12.709 3.213-20.195 5.362-7.484 2.148-18.42 9.864-23.136 13.781-4.716 3.913-12.824 14.678-16.068 21.811-3.246 7.134-9.46 24.948-10.581 31.066-1.12 6.119-4.458 14.846-6.759 25.449-1.586 7.306-4.171 32.206-4.727 35.28-1.791 9.883-4.369 41.764-4.322 50.176.051 8.412 1.322 27.767 3.418 40.309 2.098 12.544 10.176 47.534 12.141 56.574 1.964 9.045 5.743 16.15 6.04 16.84.298.691 121.165-11.986 121.165-11.986z"/><path fill="#722E37" d="M634.995 660.241s-11.298-30.782-12.047-39.868c-.751-9.088-7.503-37.585-8.571-55.074-1.067-17.49 5.644-75.936 7.177-88.966 1.534-13.028 12.165-64.26 30.516-82.823 9.384-9.114 25.314-16.718 32.966-18.054 7.65-1.337 12.69-7.484 19.325-3.524 0 0 1.148-1.795 11.6 6.581 10.453 8.376 25.736 15.87 29.604 21.687 3.869 5.815 17.695 28.438 18.315 34.026.616 5.587 5.638 20.475 7.248 52.318 1.608 31.843-.219 58.555-2.545 82.832-2.324 24.276-14.247 73.452-16.658 84.761-2.412 11.309-116.474 7.489-116.93 6.104z"/><path fill="#551D23" d="M736.677 411.749s-.992 102.407-.834 106.61c0 0 4.548-65.614.834-106.61zM649.952 419.649l.226 106.102s4.964-68.899-.226-106.102zM696.004 379.605s-2.586 17.392-1.276 23.42c-.001 0 4.381-12.785 1.276-23.42zM625.734 493.941l1.012 41.099c0-.001 4.27-30.08-1.012-41.099zM655.556 553.599l2.745 86.842s2.785-69.285-2.745-86.842zM693.771 577.888l-4.881 56.741s7.225-37.664 4.881-56.741zM735.256 559.983l-7.883 77.422s10.527-50.409 7.883-77.422z"/><path fill="#D2B17F" d="M648.618 572.401c.071-3.251-1.405-16.793-13.578-16.649-12.169.144-12.459 18.081-12.459 18.081s.361 5.279 3.437 9.031c2.133 1.431 6.244 3.545 11.316 2.936a99.713 99.713 0 0 1 2.723-.292c7.574-2.785 8.503-10.43 8.561-13.107z"/><path fill="#B19160" d="M634.271 586.531c10.298-.257 13.244-6.994 14.054-11.374-11.784 11.921-21.693 2.8-25.705-2.153-.037.523-.04.829-.04.829s.877 12.947 11.691 12.698z"/><path fill="#491A22" d="M686.104 94.982l1.417 93.828 5.149 1.034-2.332-95.428z"/><path fill="#E8C45E" d="M733.875 255.046c-1.52-40.182-19.122-72.147-39.312-71.396-20.193.751-35.33 33.935-33.811 74.118 1.52 40.184 19.12 72.149 39.312 71.397 20.192-.751 35.33-33.934 33.811-74.119z"/><path fill="#C78D35" d="M717.264 254.849c-1.256-33.204-12.075-59.757-24.167-59.308-12.093.45-20.877 27.733-19.622 60.937 1.256 33.204 12.076 59.757 24.169 59.308 12.091-.45 20.875-27.733 19.62-60.937z"/><path fill="#491A22" d="M733.917 256.789c-.015-.581-.021-1.158-.042-1.743-.065-1.71-.171-3.401-.291-5.08-5.875.26-22.611 1.088-40.24 2.799.685-22.012 14.724-45.947 22.263-57.278a43.333 43.333 0 0 0-4.076-4.453c-8.432 9.851-22.202 30.664-23.021 62.22l-2.01.217c-1.776-28.264-9.976-42.607-16.056-49.485a76.627 76.627 0 0 0-3.258 7.66c5.357 8.048 12.648 22.38 14.211 42.416-7.381.895-14.51 1.961-20.657 3.217.007.163.007.324.013.487.068 1.805.182 3.585.312 5.354a396.72 396.72 0 0 1 20.634-3.242c.651 21.896-3.446 41.61-6.262 52.358a54.838 54.838 0 0 0 4.278 5.923c3.172-8.293 8.205-26.785 7.064-58.912a345.66 345.66 0 0 1 1.725-.2c.013.523.009 1.033.028 1.562 1.831 40.592 16.57 56.537 25.346 62.477a35.485 35.485 0 0 0 3.524-3.655c-7.398-7.548-20.686-25.528-23.785-59.419-.058-.496-.085-.999-.126-1.498 12.225-1.224 26.12-2.025 40.426-1.725z"/><path fill="#054044" d="M601.251 255.387c-.059-1.813-.734-3.482-2.271-4.887-7.436-6.795-14.605-15.622-14.758-19.658-.153-4.036-2.213-4.296-2.213-4.296s-1.642 10.838 15.303 25.026c7.03 5.127-6.091 19.76-11.792 22.666-5.701 2.906-9.122 20.883-.131 32.672 8.634 11.321 9.354 13.628-2.229 26.45-8.788-14.022-25.694-5.54-25.694-5.54 5.065 12.845 17.312 10.5 23.249 8.46-8.256 11.561-4.947 21.035-2.103 26.452 0 0-5.021-15.305 6.493-27.184 11.515-11.88 11.184-20.623 2.282-30.059s-7.375-23.3-.423-29.284c4.241-3.651 10.542-9.886 13.127-15.735 1.222 3.7 4.603 8.286 13.662 10.023-.002.001 3.004-12.969-12.502-15.106z"/><path fill="#035680" d="M569.714 263.038s-6.949 15.078 13.406 20.045c0 0 8.479-19.848-13.406-20.045zM592.635 317.755s.355 9.416 14.453 11.587c0 0 .593-11.473-14.453-11.587zM577.157 360.429s-2.487 15.584 11.067 21.478c0 .001 4.888-15.335-11.067-21.478z"/><path fill="#692841" d="M502.165 212.339s58.259 3.895 70.131 1.433c0 0 5.281 40.216-39.425 42.216-44.704 2.001-30.706-43.649-30.706-43.649z"/><path fill="#A04062" d="M563.525 171.664s-2.253-14.398 5.61-14.354c7.864.043 7.488 17.233 7.488 17.233s6.726-2.945 9.04 4.042c2.315 6.986-5.941 5.609-5.941 5.609s7.107 7.145 1.773 10.711c-5.335 3.566-7.574-1.402-7.574-1.402s1.913 14.41-3.89 14.626c-5.803.216-5.87-10.558-5.87-10.558s-7.608 6.682-10.594.058c-2.985-6.625 2.287-11.873 2.287-11.873s-12.04-11.003-4.353-15.666c7.687-4.663 12.024 1.574 12.024 1.574z"/><path fill="#C97AAE" d="M587.18 227.701s-1.224 12.843 12.973 8.61c14.197-4.233-.875-14.112-.875-14.112s11.695 1.922 10.315-7.456c-1.38-9.379-12.177-5.61-12.177-5.61s7.558-17.12-4.454-18.357c-12.011-1.237-9.908 18.218-9.908 18.218s-6.525-9.86-14.161-3.851c-7.635 6.009 7.348 13.534 7.348 13.534s-14.791 6.613-4.839 16.683 15.778-7.659 15.778-7.659z"/><path fill="#D092B4" d="M534.737 233.018s-5.017 11.975-12.072 6.175c-7.056-5.799 1.882-13.542 1.882-13.542s-9.585-.317-6.767-7.157c2.818-6.841 8.736-4.03 8.736-4.03s-8.459-6.758-2.48-11.358c5.979-4.6 9.408 4.702 9.408 4.702s5.787-9.645 12.4-6.522c6.614 3.121-3.284 12.582-3.284 12.582s9.355-5.736 12.872 5.921c3.517 11.656-9.961 7.779-9.961 7.779s8.169 8.116-1.957 11.523c-10.127 3.408-8.777-6.073-8.777-6.073z"/><ellipse transform="rotate(-2.144 536.446 221.145)" fill="#904465" cx="537.2" cy="221.309" rx="3.929" ry="4.543"/><ellipse transform="rotate(-2.144 587.49 217.964)" fill="#CA8AB4" cx="588.182" cy="218.065" rx="4.44" ry="4.207"/><path fill="#BE7297" d="M574.932 184.038c.155 4.086-2.165 7.49-5.182 7.602-3.016.112-5.586-3.11-5.741-7.197-.155-4.086 2.166-7.489 5.181-7.601 3.016-.112 5.587 3.109 5.742 7.196z"/><path fill="#2D7C8F" d="M872.501 482.427s7.633 25.173-15.497 33.182c0 0-5.089-25.401 15.497-33.182z"/><path fill="#2D7C8F" d="M863.942 451.077s15.267-4.576 19.198 5.722c3.933 10.297-8.558 18.993-7.633 25.858.925 6.865 5.552 10.984 3.933 18.307 0 0 9.483-1.602 7.17-12.357-2.313-10.755-5.551-13.959-5.551-13.959s9.483-11.899 3.007-21.053c-6.477-9.153-18.042-6.865-22.437-1.831-1.618 2.517 2.313-.687 2.313-.687zM813.975 411.347c-6.701 1.629.568 8.888-.919 12.041-1.243 2.635-3.17 2.715-5.671 4.47 6.345-6.262-.343-11.564-.343-11.564-3.258 6.016-.399 11.224-.038 11.838a14.386 14.386 0 0 0-2.044 1.892c-3.7 4.119-1.388 11.899-3.932 20.596-.14.472-.249.919-.349 1.355-.562-2.014-2.032-4.494-5.896-3.645-6.246 1.373-13.416-2.975-13.416-2.975 2.022 14.005 15.534 10.344 18.901 9.202-.473 5.603 2.379 7.503 2.379 7.503l1.388-.228s-3.007-5.95-1.388-11.442c1.619-5.491.925-10.755 2.081-17.62 1.157-6.865 12.78-4.462 9.021-12.414-2.96-5.265-1.582-7.691 1.053-8.729 4.261 1.334 20.263 4.717 23.465-18.446.001.001-7.054 14.875-24.292 18.166z"/><path fill="#823E55" d="M792.007 458.858l76.331-5.95s-9.946 31.351-35.621 33.639c-25.675 2.288-40.71-27.689-40.71-27.689z"/><path fill="#B54E76" d="M821.846 435.288s-3.701-17.392 1.388-17.621c5.089-.229 6.938 10.298 6.938 10.298s4.627-10.069 8.559-6.636c3.933 3.432-1.851 10.068-1.851 10.755 0 .686 16.191.915 17.116 7.552.926 6.637-9.714 7.552-9.714 7.552s6.014 8.695 2.081 12.814c-3.932 4.119-12.722-9.84-12.722-9.84s-3.238 17.85-10.871 13.73c-7.633-4.119 1.156-16.705 1.156-16.705s-17.116 4.576-16.422-5.034c.694-9.611 14.342-6.865 14.342-6.865zM851.452 380.824s-13.646 6.865-6.245 12.357c7.401 5.492 12.259-6.636 12.259-6.636s1.388 10.297 10.409 6.865c9.021-3.432-2.314-10.526-2.314-10.526s13.416 2.517 13.648-6.178c.231-8.696-13.648-4.577-13.648-4.577s9.022-11.67 3.238-14.417c-5.782-2.746-12.259 11.899-12.259 11.899s-4.626-13.959-11.334-8.924c-6.708 5.034 2.775 13.043 2.775 13.043s-12.49-2.517-9.946 3.662c2.546 6.178 13.417 3.432 13.417 3.432z"/><path fill="#CE88BB" d="M861.861 430.71s2.775 12.357 13.878 8.696c11.103-3.662-2.313-14.874-2.313-14.874s11.102 1.831 10.871-5.721c-.23-7.551-15.266-5.263-15.266-5.263s6.94-16.934-3.47-17.163c-10.408-.229-7.864 16.019-7.864 16.019s-11.565-8.925-16.191-1.373c-4.626 7.552 13.647 11.899 13.647 11.899s-17.117 9.611-8.559 15.104c8.559 5.492 15.267-7.324 15.267-7.324zM821.614 380.824s10.177-1.831 10.177 8.696c0 10.526-14.803 2.975-14.803 2.975s3.7 12.586-2.776 13.959c-6.477 1.373-7.17-10.984-7.17-10.984s-4.626 10.527-11.565 5.492c-6.939-5.034 3.238-13.272 3.238-13.272s-8.559-8.696-1.619-15.561c6.94-6.865 11.797 4.577 11.797 4.577s4.857-12.815 15.034-9.154c10.177 3.661-2.313 13.272-2.313 13.272z"/><ellipse fill="#DD98C6" cx="863.364" cy="421.443" rx="5.204" ry="3.318"/><ellipse fill="#DD98C6" cx="809.933" cy="384.714" rx="4.279" ry="4.119"/><ellipse fill="#D17BB2" cx="858.623" cy="378.307" rx="5.088" ry="3.89"/><ellipse fill="#D17BB2" cx="830.057" cy="440.55" rx="6.592" ry="6.637"/><path fill="#551D23" d="M697.015 418.892l-6.118 126.092c-.001 0 9.704-100.113 6.118-126.092z"/><g><linearGradient id="b" gradientUnits="userSpaceOnUse" x1="112.426" y1="226.021" x2="241.143" y2="132.871"><stop offset="0" stop-color="#81322c"/><stop offset="1" stop-color="#4f201b"/></linearGradient><path fill="url(#b)" d="M6.879 155.877s-6 46.667 1.334 71.334c7.333 24.666 142.667 63.333 142.667 63.333l116.667 29.333s13.333-42.667 12-64-38.667-99.333-45.333-110.666c-6.667-11.334-63.333-62.667-75.333-68.667s-64-12.667-86.667-11.333C49.547 66.544 16.88 84.544 12.88 95.877c-4.001 11.334-6.001 60-6.001 60z"/><linearGradient id="c" gradientUnits="userSpaceOnUse" x1="110.543" y1="358.293" x2="239.913" y2="264.67"><stop offset="0" stop-color="#81322c"/><stop offset="1" stop-color="#4f201b"/></linearGradient><path fill="url(#c)" d="M281.379 343.877s-62-21.5-85.5-31.5-64.5-40.5-92.5-45-65.5-11.5-78.5-11.5-37 17-37 17-8 26-8 29.5 1 26 5 29 53.5 23.5 59.5 25.5 60 22.5 60 22.5 56 20.5 64 21.5 89 18 89 18 15.5-.5 19-7.5 8-27 8.5-35.5-3.5-32-3.5-32z"/><linearGradient id="d" gradientUnits="userSpaceOnUse" x1="101.047" y1="449.727" x2="241.797" y2="347.869"><stop offset="0" stop-color="#81322c"/><stop offset="1" stop-color="#4f201b"/></linearGradient><path fill="url(#d)" d="M-17.621 352.377l71 17s80.5 16 85 17.5 62.5 20.5 69.5 23 43 6.5 51.5 9 25 5 28 18-1.5 58.5-5.5 64.5-22 11.5-33.5 11-43.5-3.5-51-5.5-73.5-17-76-18-96-25.5-100-26.5-37-14-37-14-2-13.5-2-21v-75z"/><linearGradient id="e" gradientUnits="userSpaceOnUse" x1="97.079" y1="552.736" x2="228.44" y2="457.672"><stop offset="0" stop-color="#81322c"/><stop offset="1" stop-color="#4f201b"/></linearGradient><path fill="url(#e)" d="M-8.621 555.877l81 19.5 90.5 14 69.5 13 44.5 1.5s8.5-24 4-36.5-14-41-25.5-47-81-23-88.5-25.5-92.5-20.5-94.5-21-65-11-74-13-20-3.5-20-3.5-3 23-3 29 16 69.5 16 69.5z"/><linearGradient id="f" gradientUnits="userSpaceOnUse" x1="83.609" y1="622.829" x2="209.574" y2="531.671"><stop offset="0" stop-color="#81322c"/><stop offset="1" stop-color="#4f201b"/></linearGradient><path fill="url(#f)" d="M-12.621 560.377s-9 52-5.5 64 36.5 22 41.5 23 72.5 19.5 72.5 19.5l88-2.5 43.5-13.5s16-35 16-37-4.5-23-8.5-25.5-91-2.5-118-5.5-69-15-69-15L0 560.377h-12.621z"/><linearGradient id="g" gradientUnits="userSpaceOnUse" x1="1096.182" y1="152.273" x2="1265.809" y2="29.517"><stop offset="0" stop-color="#81322c"/><stop offset="1" stop-color="#4f201b"/></linearGradient><path fill="url(#g)" d="M1298.879 122.877s-128.5 50.5-141.5 53.5-111.5 55-133 56.5-27.5-39.5-25-58.5 41-97.5 47.5-103.5 51.5-34.5 80.5-34.5 94 4 122 11.5 49.5 75 49.5 75z"/><linearGradient id="h" gradientUnits="userSpaceOnUse" x1="1471.863" y1="47.981" x2="1608.554" y2="-50.939"><stop offset="0" stop-color="#81322c"/><stop offset="1" stop-color="#4f201b"/></linearGradient><path fill="url(#h)" d="M1617.879 25.877s-112.5 75-138 81.5-63.5 1-74.5-4-23-17.5-18.5-36 17-47.5 26-55 21.5-25 35-28 66.5-3.5 70-4.5 95.5-1 95.5-1l4.5 47z"/><linearGradient id="i" gradientUnits="userSpaceOnUse" x1="1463.079" y1="170.227" x2="1644.954" y2="38.607"><stop offset="0" stop-color="#81322c"/><stop offset="1" stop-color="#4f201b"/></linearGradient><path fill="url(#i)" d="M1618.879 33.377s-44 17-65.5 32.5-45 31.5-74.5 34.5-82 0-89.5 21-12 137-12 137 59.5 6 65 2.5 66-28.5 66-28.5 55-36.5 62.5-41 43.5-25 43.5-25l10-8.5-5.5-124.5z"/><linearGradient id="j" gradientUnits="userSpaceOnUse" x1="1495.781" y1="295.658" x2="1638.833" y2="192.134"><stop offset="0" stop-color="#81322c"/><stop offset="1" stop-color="#4f201b"/></linearGradient><path fill="url(#j)" d="M1613.879 181.877s-28.5 4.5-45 19.5-34.5 20.5-66 28.5-89.5 38.5-98 40-6.5 44-3.5 56.5 36 24.5 46 22 94.5-25.5 103-28.5 64.5-18.5 64.5-18.5l-1-119.5z"/><linearGradient id="k" gradientUnits="userSpaceOnUse" x1="1130.097" y1="247.982" x2="1300.211" y2="124.874"><stop offset="0" stop-color="#81322c"/><stop offset="1" stop-color="#4f201b"/></linearGradient><path fill="url(#k)" d="M1229.879 153.877s59-18 69-2-17 69.5-21 73-77 24.5-81 26.5-83.5 25-83.5 25l-87 21.5s-8.5-44.5-7.5-51 29.5-20 29.5-20 101-48.5 119.5-51 62-22 62-22z"/><linearGradient id="l" gradientUnits="userSpaceOnUse" x1="1202.143" y1="305.135" x2="1330.182" y2="212.476"><stop offset="0" stop-color="#81322c"/><stop offset="1" stop-color="#4f201b"/></linearGradient><path fill="url(#l)" d="M1322.379 223.377s-88.5 20.5-96.5 20.5-89.5 18-101 31.5-15.5 47-15.5 47 19 23 24 23 42 1.5 51 0 124-31 124-31 17-22 17-33-3-58-3-58z"/><linearGradient id="m" gradientUnits="userSpaceOnUse" x1="1196.441" y1="414.88" x2="1350.909" y2="303.094"><stop offset="0" stop-color="#81322c"/><stop offset="1" stop-color="#4f201b"/></linearGradient><path fill="url(#m)" d="M1332.879 314.877s-67.5 11-70.5 11.5-104.5 18.5-108.5 22-62 24.5-64 33.5-1 63 2.5 64.5 63.5 4.5 69 4.5 95-15.5 103.5-19.5 86-16.5 86-16.5 12-15 10-34.5-7-50-13-55-15-10.5-15-10.5z"/><linearGradient id="n" gradientUnits="userSpaceOnUse" x1="1213.775" y1="523.898" x2="1366.531" y2="413.351"><stop offset="0" stop-color="#81322c"/><stop offset="1" stop-color="#4f201b"/></linearGradient><path fill="url(#n)" d="M1129.879 468.877l99.5-29.5s91.5-18.5 93.5-18.5 52.5 27 53 31.5 1.5 65.5-9.5 76.5-79 40.5-79 40.5l-77.5 20-75-1s-24-33-22.5-53 17.5-66.5 17.5-66.5z"/><linearGradient id="o" gradientUnits="userSpaceOnUse" x1="1549.335" y1="565.155" x2="1649.352" y2="492.775"><stop offset="0" stop-color="#81322c"/><stop offset="1" stop-color="#4f201b"/></linearGradient><path fill="url(#o)" d="M1627.379 591.377s-74-14-92-17-78-12.5-77-22.5 59-41 69-43 104-24 104-24l-4 106.5z"/><linearGradient id="p" gradientUnits="userSpaceOnUse" x1="1531.863" y1="424.746" x2="1654.83" y2="335.757"><stop offset="0" stop-color="#81322c"/><stop offset="1" stop-color="#4f201b"/></linearGradient><path fill="url(#p)" d="M1617.879 483.377l-3-182s-39 10-42 11-55 20-58.5 21-61.5 30.5-67 32-13 17-13 36.5 20.5 53 24.5 61.5 46 32 46 32 27.5 6 34.5 6 35.5-4.5 37-5 41.5-13 41.5-13z"/><linearGradient id="q" gradientUnits="userSpaceOnUse" x1="345.465" y1="128.185" x2="449.397" y2="52.971"><stop offset="0" stop-color="#81322c"/><stop offset="1" stop-color="#4f201b"/></linearGradient><path fill="url(#q)" d="M465.379 94.377c-7-14.5-38.5-53-54.5-56.5s-70-13-95.5-1-39 26-40.5 40-15.5 65 5 76 44 17 86.5 21.5 80-1.5 90-10.5 24-22 26-35-17-34.5-17-34.5z"/></g><g><path fill="#915B7E" d="M138.833 623.932s.341-.19.951-.495c3.609-1.806 16.627-7.629 23.987-1.816 0 0 17.421 35.214 17.857 37.128.435 1.913-30.913 2.208-30.913 2.208l-11.882-37.025z"/><path fill="#E17F7F" d="M175.141 658.209l-20.606-51.64s9.767-8.168 24.429-3.944l16.9 56.04-18.511-.464-2.212.008z"/><path fill="#485971" d="M119.68 617.608s6.225-7.918 18.23-3.208l19.739 46.615-22.862-.729-15.107-42.678z"/><path fill="#130502" d="M105.241 616.803l-35.522 8.942 15.553 36.961 59.015 12.722-39.046-58.625"/><path fill="#883126" d="M116.763 609.636l34.243 64.004-22.594-7.073-26.69-49.168c-.001 0-1.115-12.687 15.041-7.763z"/><path fill="#87447A" d="M27.667 605.264s.063 12.316-5.121 15.541l78.983 20.628s7.36-11.354 2.56-20.325l-76.422-15.844z"/><path fill="#75672F" d="M15.697 615.898s3.904 12.319-1.408 19.609c0 0 74.119 24.452 78.599 25.651 0 0 7.745-12.788 4.993-22.238l-82.184-23.022z"/><path fill="#190503" d="M202.72 549.579l8.567-24.697 7.879 16.785 15.284 4.706s24.546 34.496 25.734 43.871c1.188 9.376 2.786 30.808-.723 31.876-3.51 1.069-23.501.449-37.399-6.047-13.898-6.499-31.136-15.5-31.136-15.5l11.794-50.994z"/><path fill="#4C222D" d="M172.587 530.5l7.922-2.806 16.811 11.094-9.938 53.091-24.302-.76s-8.004-.116-8.696-4.771c-.692-4.657 1.233-18.558 2.317-24.582 1.085-6.023 5.155-28.336 6.868-30.444 1.713-2.108 9.018-.822 9.018-.822z"/><path fill="#E79BA4" d="M170.56 565.862s2.566 1.48.898 5.597c-1.668 4.114-2.365 15.653-.875 17.336 1.49 1.682-49.627-8.59-49.627-8.59s-5.961-13.638 2.237-24.044c8.2-10.41 47.367 9.701 47.367 9.701z"/><path fill="#87447A" d="M115.513 553.908c1.595-5.946 7.858-10.46 14.965-9.023 7.108 1.437 42.949 4.303 42.949 4.303s-1.92 8.082-1.828 12.101c.091 4.017 2.155 6.512-1.254 5.997-3.411-.516-15.31-4.861-22.92-5.283-7.609-.421-16.53-1.404-23.009-2.384-6.48-.979-10.499.236-8.903-5.711"/><path fill="#D8454A" d="M180.51 527.694s-6.066 14.188-3.08 25.011c-4.142-1.442-5.348-1.534-12.457-2.973-7.107-1.438-24.874-1.573-30.564-3.162-5.69-1.587-7.665-.064-7.306-4.742.357-4.68.984-11.135 1.575-15.048.591-3.914 5.455-6.092 11.252-5.216 5.798.876 39.987 3.13 40.58 6.13z"/><path fill="#41827E" d="M216.941 593.614s14.852-35.972 16.339-41.206c1.488-5.234 3.801-13.621.894-15.15-2.907-1.531-14.861-5.52-14.861-5.52s-10.146 48.693-14.704 53.461c0 0 3.047-15.553 4.983-21.446 1.938-5.896 6.329-30.344 5.322-35.229-1.006-4.884-6.388-3.876-12.223-2.21-5.832 1.666-11.845 2.217-11.845 2.217l-8.491 63.136c.001-.002 29.275 4.784 34.586 1.947z"/><path fill="#7D71B1" d="M-4.419 559.192l34.752-32.534s2.402-13.98-5.245-15.135l-42.145 37.363 12.638 10.306z"/><path fill="#CE7371" d="M118.3 582.394l-23.037-3.48-14.082-57.636s12.913-8.776 20.91-2.904l16.209 64.02"/><path fill="#8B3326" d="M83.419 578.058c-1.44-5.815-21.708-53.19-21.708-53.19s4.813-11.401 20.467-7.639l17.823 61-16.582-.171z"/><path fill="#9C4051" d="M51.726 518.196l2.063-5.985s4.895-5.558 10.195 1.539l-12.85 58.23-10.454-3.677 11.046-50.107z"/><path fill="#75672F" d="M23.729 565.743l7.031-54.213s4.486-10.516 21.939.516l-10.894 52.93-18.076.767"/><path fill="#7D71B1" d="M1120.521 272.068s-6.414-12.728-5.669-15.211l-39.873 14.689s-2.62 5.423 3.634 13.404c6.254 7.983 41.908-12.882 41.908-12.882zM1276.248 216.135l-41.241-18.861s-4.929-11.464 2.675-14.515l49.646 21.062-11.08 12.314z"/><path fill="#0E252B" d="M1141.932 267.848c-1.435-2.485-33.142-34.789-33.142-34.789s-9.02-.753-9.895 12.276l34.634 29.818 8.403-7.305z"/><path fill="#CF8B95" d="M1157.244 260.39l-19.032-45.257s-8.356-6.704-20.728 7.005l21.438 44.732 18.322-6.48z"/><path fill="#2E6B73" d="M1179.967 201.873s-14.738-4.14-21.864 3.088l-5.207 59.797 22.9-9.19 4.171-53.695z"/><path fill="#8B3326" d="M1187.738 251.652c.439-5.422 12.74-51.89 12.74-51.89s-6.933-8.585-22.247-1.127l-7.393 57.613 16.9-4.596z"/><path fill="#9C4051" d="M1209.52 192.419l-3.165-4.63s-5.983-3.502-10.138 4.067l23.434 46.99 10.02-5.988-20.151-40.439z"/><path fill="#75672F" d="M1247.252 231.049l-16.777-45.071s-6.443-7.908-22.307 6.327l20.493 42.925 18.591-4.181z"/><path fill="#130502" d="M1580.075 539.75l-26.842 10.021 15.786 26.726 47.311 4.344z"/><path fill="#883126" d="M1603.067 575.532l-25.682-35.012s2.501-7.31 10.975-7.27l33.038 45.621-18.331-3.339z"/><path fill="#87447A" d="M1518.395 537.986s1.265 9.37-2.463 12.294l63.677 8.554s4.624-9.309-.008-15.703l-61.206-5.145z"/><path fill="#485971" d="M1237.11 108.538s-2.782-7.655-13.336-2.812l-26.567 49.467 14.499 6.474c0 .001 25.705-46.248 25.404-53.129"/><path fill="#2C364A" d="M1231.898 151.308l23.031-46.116s-1.937-9.134-12.457-7.773l-29.905 61.028 19.331-7.139z"/><path fill="#431F23" d="M1103.343 131.272l-4.664-3.788-34.966 22.609 40.707 49.956s28.514-12.994 29.533-13.644c1.021-.648 5.258-9.794 3.761-16.854-1.499-7.061-34.371-38.279-34.371-38.279z"/><path fill="#7B3D6F" d="M1098.679 127.484s-2.124 10.001 4.633 16.38l52.458-11.127s-7.27-10.611-1.045-15.839l-56.046 10.586z"/><path fill="#153F4A" d="M1090.608 142.217s-1.281 8.518 4.737 15.053l40.392-2.492 34.903-6.533s-12.004-16.549-9.119-19.332l-70.913 13.304z"/><path fill="#97481C" d="M1115.912 155.947s-.015 10.852 3.436 16.197c3.449 5.345 65.949-14.855 65.949-14.855s-8.289-9.96-6.126-14.325l-63.259 12.983z"/><path fill="#48130D" d="M1114 172.412s.32 14.253 6.637 18.553c6.317 4.305 75.695-21.696 75.695-21.696s-8.801-14.191-8.22-16.918L1114 172.412z"/><path fill="#75672F" d="M1040.146 175.489s-.518-22.458 17.691-18.509c18.21 3.95 51.191 42.958 51.191 42.958l-22.955 10.077-45.927-34.526z"/><path fill="#8B3326" d="M1096.977 197.722l-55.026-46.485s-3.42-17.938 10.603-19.175l68.807 60.488-24.384 5.172z"/><path fill="#D58A97" d="M1022.258 185.793s1.488-20.278 13.715-17.231l53.652 36.358-24.483 15.609-42.884-34.736z"/><path fill="#75672F" d="M1510.103 547.164s4.262 9.023.836 15.055c0 0 60.258 11.904 63.872 12.412 0 0 4.782-10.435 1.702-17.38l-66.41-10.087z"/><path fill="#1C0600" d="M1495.181 147.224l6.615-6.85 31.73 21.656-5.05 40.953-27.983 13.236z"/><path fill="#0D262A" d="M1460.893 199.502l10.169-12.857 18.132 12.373 1.981 23.318-36.154 20.254z"/><path fill="#4B1C25" d="M1560.349 123.342l5.847-4.21-32.143 77.113.366-65.002 2.844-2.863 7.423 10.455z"/><path fill="#444C26" d="M1453.771 186.968s9.373-5.61 17.292-.323l-7.599 51.457-17.816 10.099 8.123-61.233z"/><path fill="#9C4051" d="M1523.696 202.474c-.683-1.462-1.325-70.959-1.325-70.959s.634-8.765 14.892-3.135l2.674 49.33 3.723-58.202s15.494-7.29 22.537-.375l-6.511 61.57-35.99 21.771z"/><path fill="#8E2D23" d="M1502.299 213.468l-.503-73.094s-8.74-3.153-18.416 4.537l1.511 77.588.988 7.878 16.42-16.909z"/><path fill="#2C364A" d="M1439.767 213.026s-5.757-9.612-16.333-5.406l-29.374 58.911 18.379 9.79c-.001 0 22.886-36.219 27.328-63.295z"/><path fill="#485971" d="M1447.615 246.966l9.082-66.962s-8.493-5.737-17.377 4.425l-9.571 62.411-1.703 8.705 19.569-8.579z"/><path fill="#75672F" d="M42.463 344.011l10.152-39.207s-8.97-8.941-16.624-3.957l-10.862 40.049 17.334 3.115z"/><path fill="#D08A98" d="M61.864 357.528c.487-1.455 15.754-50.813 15.754-50.813s-5.63-9.978-19.491-8.151L44.945 348.08l16.919 9.448z"/><path fill="#7E3D71" d="M1542.215 49.195s10.523 7.888 7.687 15.281c-2.839 7.394 60.214-37.642 60.214-37.642s1.026-13.808-10.6-13.567c-11.625.241-57.301 35.928-57.301 35.928"/><path fill="#77662B" d="M1535.588 78.893l-19.037-3.789 14.323-43.953s9.453-9.455 21.394-.654l-16.68 48.396z"/><path fill="#61333F" d="M1458.582 59.405l-21.066-10.136-29.968 12.389 4.861 34.032s12.985 10.086 16.004 10.044c3.018-.047.096.5 10.125.187 10.031-.313 44.227-3.586 44.918-5.28.692-1.695 5.755-1.601-1.068-16.488-6.826-14.892-23.806-24.748-23.806-24.748z"/><path fill="#7A3D69" d="M1441.523 62.599s2.767-6.776-4.008-13.331c0 0 61.582-7.882 63.044-8.156 1.462-.273 7.355 6.967 5.864 12.463-1.492 5.493-64.9 9.024-64.9 9.024z"/><path fill="#C75876" d="M1442.122 76.567s1.306-6.502-6.241-14.476l73.201-13.188s4.434 7.515 3.411 15.53l-70.371 12.134"/><path fill="#CE7371" d="M1438.13 76.793s10.281 22.585 5.094 27.207c-5.188 4.624 83.436-15.099 83.436-15.099s-.064-21.896-10.346-28.312l-78.184 16.204z"/><path fill="#417474" d="M78.602 373.252l-5.197-15.091 39.776-46.94s12.866-.136 14.163 16.075l-44.741 49.32-4.001-3.364z"/><path fill="#471E27" d="M105.986 385.265l20.527-70.789s13.986-8.256 22.164 12.286l-21.624 63.544-21.067-5.041z"/><path fill="#CF7274" d="M175.446 327.733s-9.841-14.626-27.041-8.256l-22.378 70.573 22.753 4.795 26.666-67.112z"/><path fill="#1D4653" d="M161.464 401.435l34.191-66.611s-3.778-9.761-20.181-9.596l-33.881 72.379 19.871 3.828z"/><path fill="#8D3025" d="M204.331 409.336l23.141-64.249s-4.477-9.592-18.652-7.467l-23.585 66.527 19.096 5.189z"/><path fill="#3F7576" d="M231.072 414.66l21.003-54.044s-6.118-19.04-21.023-14.732l-24.528 67.424 24.548 1.352z"/><path fill="#431F23" d="M1250.529 259.978l-5.226-6.959-30.797 19.936-5.928 29.264 12.914 22.869 16.65-2.037 6.887-.65s.454 1.114 4.576-5.331c4.124-6.447 14.256-24.441 13.687-30.702-.569-6.261-12.763-26.39-12.763-26.39z"/><path fill="#2E6B73" d="M1038.409 330.15s-22.023 2.5-27.127 16.274c-5.102 13.773 28.484 54.178 28.484 54.178l45.554-16.875-46.911-53.577z"/><path fill="#8D2F22" d="M1058.463 322.828s14.108-17.021 31.369-9.782c17.26 7.239 26.852 49.215 26.852 49.215l-26.179 17.621-32.042-57.054z"/><path fill="#9C4051" d="M1079.643 383.448l-49.373-58.632s1.47-14.887 20.921-15.903l44.646 63.595-16.194 10.94z"/><path fill="#75672F" d="M1110.592 363.883l-25.721-56.17s10.402-12.475 24.672-5.745l23.827 57.374-22.778 4.541z"/><path fill="#444C26" d="M1149.524 345.386l-45.772-44.949s-2.388-10.715 12.746-16.464l26.159 22.222 39.523 34.515-32.656 4.676z"/><path fill="#7B3D6F" d="M1171.416 298.78l-3.857 8.069 32.52 30.013 38.065-13.811s-41.869-30.528-43.875-30.574c-2.005-.047-22.853 6.303-22.853 6.303"/><path fill="#441D26" d="M1173.589 338.156l-37.138-35.487s1.655-15.398 17.021-18.641l43.463 48.057-22.929 8.065-.417-1.994z"/><path fill="#48130D" d="M1246.163 315.444l-67.187-33.174s-10.747 4.82-8.734 16.555l59.652 25.429c.001.001 10.066-.648 16.269-8.81z"/><path fill="#C46B67" d="M1294.264 321.346l11.028-50.832s-3.978-8.767-18.962-2.647l-15.832 53.66 23.766-.181z"/><path fill="#8D2F22" d="M1264.188 257.428s17.14-5.701 26.68 2.092l-13.935 64.14s-22.479 1.387-23.273.413c-.797-.974 10.528-66.645 10.528-66.645z"/><path fill="#CF8B95" d="M1260.433 322.174l7.613-68.919s-7.988-8.858-22.742-.236l-3.413 72.396 18.542-3.241z"/><path fill="#193D4A" d="M366.587 138.468L332.018 89.59s11.668-9.088 24.04-4.573l33.546 54.866-23.017-1.415z"/><path fill="#417474" d="M312.978 123.727l26.829-34.302s.874-10.529-10.274-13.01l-33.771 35.194s-1.389 10.575 17.216 12.118z"/><path fill="#8F3025" d="M394.979 141.811c-.167-1.86-27.698-65.039-27.698-65.039s14.273-9.054 29.673-2.668c0 0 22.538 65.502 23.526 67.825.99 2.324-25.501-.118-25.501-.118z"/><path fill="#D07273" d="M415.579 142.37l-7.814-57.983s9.369-8.613 24.75.455l2.627 55.234-19.563 2.294z"/><path fill="#230504" d="M1156.925 408.991s-2.062-5.916 2.052-7.448 20.649-7.39 23.437-7.631c2.786-.244 11.65-.232 16.122 2.287 4.474 2.518 8.798 3.595 14.745 6.264 5.947 2.669 11.434 6.665 11.844 8.027.409 1.362-.689 4.365-5.147 5.704-4.458 1.339-7.049 5.087-20.453 6.142-13.404 1.056-34.263-3.671-36.146-5.184-1.884-1.514-5.864-7.15-5.864-7.15"/><path fill="#441A1E" d="M1168.618 387.956l4.475-6.988 48.728 10.911 6.106 17.473-14.698.552-37.555-8.92z"/><path fill="#833547" d="M1173.093 380.968s8.237 15.05 5.793 20.24l-17.306 5.197-29.744 5.665s1.218-9.276-4.252-18.92l45.509-12.182z"/><path fill="#541D12" d="M1160.876 444.042s3.013 6.223 4.226 6.453c1.213.23 40.265-5.854 41.05-6.09.788-.236 11.835-10.088 10.935-13.085-.899-2.997-4.651-6.92-7.468-9.638-2.817-2.719-23.379-9.316-25.378-9.309-2 .006-10.636 1.708-18.305 2.823-7.669 1.115-15.306.438-15.158 1.879.148 1.441 2.977 12.769 3.959 16.039.981 3.268 6.139 10.928 6.139 10.928z"/><path fill="#4B1B1F" d="M1158.222 404.74l44.518 8.314 6.172 13.889-52.141-.382-8.174-4.376 9.625-17.445"/><path fill="#9B5410" d="M1155.066 424.697l7.882 1.494s9.627 19.683-2.975 24.359c-12.603 4.675-71.053 2.327-71.053 2.327s6.526-9.682 1.074-20.223c0 0 17.125-4.846 20.879-5.676 3.752-.829 44.193-2.281 44.193-2.281z"/><path fill="#8E4D55" d="M1105.913 413.32s5.207 9.724 1.288 14.762l49.569-1.52s10.214-11.681 1.451-21.821l-52.308 8.579z"/><path fill="#1F1830" d="M1202.685 430.001l-10.997 2.412s-1.348 6.938 3.518 11.715c4.864 4.777 55.536-9.252 55.536-9.252l-8.038-16.298-3.473-4.897-36.546 16.32"/><path fill="#303B74" d="M1222.047 403.098l-26.435 10.018s1.601 11.995 7.072 16.885l36.332-9.426-16.969-17.477z"/><path fill="#4C1B25" d="M1228.247 387.573s.184-9.857 15.262-12.008l49.45 46.633-23.059 6.033-41.653-40.658z"/><path fill="#9C5D6B" d="M1247.187 434.458c-1.424-2.839-34.463-34.798-34.463-34.798s.089-13.987 15.755-15.127l44.963 40.259-26.255 9.666z"/><path fill="#61190A" d="M1243.234 362.28l.608-4.639 23.484-5.566s60.001 54.158 60.328 55.248-32.271 15.335-32.271 15.335l-52.149-60.378z"/><path fill="#8C2E22" d="M1285.21 418.287l-54.562-47.474s3.02-12.788 13.195-13.171l57.836 58.373-16.469 2.272z"/><path fill="#130600" d="M208.665 451.799l-5.633-1.883-10.288 5.11-70.594-13.301-33.272-34.093-27.421 3.761 3.143-8.469s-7.786 12.309-19.851 9.572c-12.065-2.734-35.072 18.466-35.072 18.466L-.694 383.94l-37.433 30.642 4.764 38.828s-11.629-3.44 9.605 3.047c5.058 1.548 26.188 7.243 39.946 10.513 18.06 4.294 2.601.504 36.127 7.009 33.526 6.503 85.813 13.233 98.767 15.479 12.953 2.248 21.888 10.297 21.888 10.297s46.599 10.227 47.755 10.45c1.156.225 18.276 4.729 18.571 3.208.295-1.523-5.729-32.305-5.729-32.305l-24.902-29.309z"/><path fill="#431E26" d="M161.456 449.353c-.208-2.015-5.337-21.962-5.337-21.962l-18.072-1.139-16.671-8.366-12.582-.072s-13.533 57.39-13.687 59.729c-.153 2.339 53.505 19.461 53.505 19.461l12.844-47.651z"/><path fill="#19404C" d="M248.918 457.632s7.577-14.323 16.524-9.43c0 0 12.475 45.458 13.12 46.769.646 1.309-20.127 6.36-20.127 6.36l-9.517-43.699z"/><path fill="#773C68" d="M223.257 455.419s8.389-18.51 21.887-12.339l17.712 55.555-20.989 4.614-18.61-47.83z"/><path fill="#8D3025" d="M227.915 502.517l-24.883-52.601s5.326-11.996 15.362-8.076l27.023 60.125-17.502.552z"/><path fill="#471E27" d="M172.116 496.431l18.564 4.785 10.845-54.356c-3.301-6.168-14.444-4.382-14.444-4.382"/><path fill="#D08A98" d="M159.614 494.402l13.188-61.8s11.432-1.732 16.246 5.916l-13.41 62.941-16.024-7.057z"/><path fill="#7C3C6F" d="M109.393 485.842l11.983-67.956s9.212-7.295 22.617 3.992l-14.813 70.171s15.177 2.154 15.399 1.014c.222-1.143 11.539-65.672 11.539-65.672s14.827-.678 17.846 3.857l-11.977 66.375-52.594-11.781z"/><path fill="#8D3025" d="M-9.038 464.05l8.344-80.109s13.622-6.835 21.676 4.204L9.527 468.837l49.859 8.882-14.926-65.278s12.268-12.23 20.14-9.516l9.021 77.161 2.534-.692 12.723-71.761s18.583.053 21.885 6.22l-13.805 71.155L-9.038 464.05z"/><path fill="#BB747E" d="M1607.433 421.501s.917-17.496 18.778-14.586l44.894 46.329-14.044 19.071-49.628-50.814z"/><path fill="#2A2766" d="M1536.806 404.052l8.221 40.317s-17.437 3.031-19.15 3.684c-1.712.649-9.86-28.713-9.86-28.713l20.789-15.288"/><path fill="#142829" d="M1540.098 393.22l-6.862-2.7-22.392 11.32 4.477 25.757 25.999-9.825 1.632 21.653-7.335-1.911-21.096 8.265 20.723 56.189s35.175-4.341 35.408-6.506c.234-2.162-30.554-102.242-30.554-102.242z"/><path fill="#30295F" d="M1507.859 421.464c-.475-.98-16.047-15.255-16.047-15.255l-2.813 15.348-23.811 11.92-25.803 23.233s34.438 52.746 35.441 53.279c1.007.533 32.401-1.031 35.356-1.545l18.915-3.286-21.238-83.694z"/><path fill="#193C40" d="M1542.679 455.392s12.815 26.43 9.348 39.771l37.853-4.285 25.152-11.614s3.398-20.757-7.032-35.221l-65.321 11.349z"/><path fill="#3A786A" d="M1612.348 427.014s2.918 13.29 1.037 19.986l-71.232 10.607s-2.748-17.565-6.536-20.092c-.001 0 75.369-11.327 76.731-10.501z"/><path fill="#73662E" d="M1585.297 408.895s7.002 14.88 3.877 21.438l-50.543 7.012s.175-18.682-2.867-19.138l49.533-9.312z"/><path fill="#3D7572" d="M1533.235 390.52s5.175 19.27 4.597 28.212l62.6-11.23s1.036-18.576-5.775-26.236l-61.422 9.254z"/><path fill="#7D71B1" d="M1497.769 508.833l-32.58-75.357s5.173-19.295 25.282-15.714c0 0 17.494 70.9 25.438 83.319l3.194.86-27.29-95.734s10.558-16.34 26.841-1.481l19.366 93.929c0 .002-40.076 9.44-40.251 10.178z"/><path fill="#1B2830" d="M1254.234 482.651l-2.719-.088-11.502 14.997-.336 50.603s67.816 1.094 68.726 1.125c.905.029 7.556-17.374 7.398-18.501-.16-1.127-15.485-37.428-17.104-39.949-1.62-2.522-23.797-9.42-23.797-9.42l-20.666 1.233z"/><path fill="#183E49" d="M1285.893 505.567s12.817 19.834 12.66 33.408l50.386-22.032s-4.383-18.885-13.537-27.489l-10.4 3.027-39.109 13.086z"/><path fill="#3F7576" d="M1260.084 493.39s8.886 13.086 7.123 19.76l64.908-20.773s-4.223-17.757-9.531-22.757l-13.588 4.719-48.912 19.051z"/><path fill="#C18B97" d="M1251.516 482.563s7.522 10.458 6.348 14.909l58.992-24.336s-1.454-10.935-8.894-18.246l-56.446 27.673z"/><path fill="#7A3D69" d="M1234.424 540.361l-5.312-58.645s3.312-11.675 18.148 1.382l3.499 58.582-16.335-1.319"/><path fill="#431D28" d="M1205.07 477.565l-9.193 19.227-16.537-4.019-11.909 19.14-20.564 5.162-7.105 29.509 29.437 26.997 57.776-21.455-15.139-68.168-6.766-6.393"/><path fill="#160402" d="M1077.31 538.147l-6.18-8.619-17.293 16.157 9.792 37.354z"/><path fill="#CE7371" d="M1195.42 557.379l-48.553-40.305s.703-17.37 16.857-17.966l42.098 45.705 4.39 9.348-13.982 4.48-.81-1.262zM1222.511 544.797l-17.44-67.232s6.921-7.18 18.817 2.299l10.8 65.555-12.177-.622z"/><path fill="#C75876" d="M1203.92 551.147l-24.58-58.374s.925-13.886 19.047-3.754l22.566 55.614-17.033 6.514z"/><path fill="#B02D48" d="M1154.601 574.338l-48.383-34.014s-6.583-14.019 6.493-18.529l64.16 43.508-22.27 9.035z"/><path fill="#C35970" d="M1101.571 594.266l-22.513-73.12s6.585-10.223 19.045-3.755l22.44 75.139-18.972 1.736z"/><path fill="#8B2F20" d="M1083.008 591.867l.224-59.7s-4.007-4.732-12.101-2.639l-5.388 45.498 17.265 16.841z"/><path fill="#D07273" d="M1595.518 296.255l-18.557-57.339s8.273-7.948 19.18-1.089l15.405 51.659-16.028 6.769z"/><path fill="#7E3D71" d="M1585.977 304.248l5.591-14.157-38.19-43.038s-12.779.102-14.523 15.232l43.055 45.168 4.067-3.205z"/><path fill="#D28995" d="M1558.433 315.928l-18.393-65.603s-13.661-7.445-22.366 11.843L1537.363 321l21.07-5.072z"/><path fill="#CF7274" d="M1492.914 267.707s10.188-13.804 27.096-8.175l20.238 65.368-22.738 4.874-24.596-62.067z"/><path fill="#8D2F23" d="M1502.864 331.983l-32.089-61.468s4.03-9.164 20.32-9.302l31.616 66.85-19.847 3.92z"/><path fill="#77662B" d="M1460.056 340.106l-21.177-59.462s4.718-9.017 18.738-7.289l21.554 61.577-19.115 5.174z"/><path fill="#434E23" d="M1433.339 345.542l-19.341-49.99s6.614-17.852 21.301-14.103l22.465 62.396-24.425 1.697z"/><path fill="#9C4051" d="M215.331 226.985s-6.232 2.952-4.727 10.583l48.035 37.995s5.366-3.597 6.492-10.781l-49.8-37.797z"/><path fill="#75672F" d="M219.589 233.215s3.364-17.413 9.262-16.322c0 0 43.672 36.257 44.626 36.556.954.298-4.371 15.967-6.367 15.719-1.995-.247-47.521-35.953-47.521-35.953z"/><path fill="#7B3D6F" d="M208.083 248.348s1.831-9.98-5.305-12.963l-69.826 25.278-9.073 15.881 8.391-3.661 14.16-3.108 61.653-21.427z"/><path fill="#48130D" d="M221.987 259.851s4.443-12.177-6.65-17.148l-91.29 32.175s21.001 10.291 19.798 13.307c-1.87 4.689 78.142-28.334 78.142-28.334z"/><path fill="#CF8B95" d="M239.67 274.045s.062-16.56-7.392-19.644L141.6 284.844l26.018 13.784 72.052-24.583"/><path fill="#794426" d="M181.934 213.327l-86.432-1.013s-2.812 32.726-3.012 33.482c-.122.463-2.104 6.934 22.212 8.693 15.428 1.116 62.91.443 62.91.443l4.322-41.605z"/><path fill="#B37133" d="M167.02 229.823c-3.23 12.183.463 24.126 8.245 26.678 7.781 2.551 16.707-5.252 19.936-17.435 3.229-12.183-.464-24.126-8.245-26.681-7.783-2.552-16.708 5.256-19.936 17.438z"/><path fill="#9F5A34" d="M172.289 230.729c-2.343 8.839.75 17.644 6.909 19.663 6.159 2.019 13.05-3.513 15.393-12.351 2.342-8.841-.752-17.643-6.91-19.663-6.158-2.02-13.05 3.51-15.392 12.351z"/><path fill="#794426" d="M205.179 242.832l-.803 6.516-21.05-10.807s-2.045-2.003-1.435-4.55c.613-2.551 5.764-3.942 5.764-3.942l17.712-.792-.188 13.575z"/><path fill="#B56C2F" d="M197.628 242.579c1.468 5.365 5.696 8.328 9.443 6.62 3.748-1.712 5.599-7.451 4.13-12.815-1.467-5.364-5.695-8.329-9.443-6.621-3.747 1.712-5.597 7.449-4.13 12.816z"/><path fill="#4C222D" d="M94.889 186.095l-7.53-7.727-24.343 3.875-14.887 68.632 27.692 12.562s9.055 4.299 12.118-.851c3.063-5.151 7.722-22.75 9.46-30.512 1.736-7.764 8.116-36.55 7.225-40.005-.892-3.454-9.735-5.974-9.735-5.974z"/><path fill="#190503" d="M52.345 158.14l-11.886 3.861-10.242-.029-9.724 1.848-11.226 4.308S-.241 223.301.005 225.82c.246 2.521 1.801 10.335 10.155 13.921 8.352 3.588 16.608 11.054 24.699 8.697 8.089-2.358 12.038-16.269 12.038-16.269s5.219-27.682 5.676-29.495c.458-1.812 3.556-22.832 4.06-26.582.505-3.749-4.288-17.952-4.288-17.952"/><path fill="#E79BA4" d="M79.811 229.266s-3.611.335-3.756 6.155c-.145 5.816-5.026 19.925-7.527 21.099-2.499 1.171 60.004 17.286 60.004 17.286s13.397-12.914 9.288-29.832c-4.108-16.92-58.009-14.708-58.009-14.708z"/><path fill="#87447A" d="M84.772 207.851s-1.81 10.672-3.884 15.4c-2.074 4.724-5.62 6.547-1.534 7.824 4.088 1.277 19.597 2.706 28.359 6.421 8.761 3.714 19.272 7.491 27.035 9.917 7.764 2.426 11.687 6.096 12.812-1.861 1.124-7.954-3.7-16.79-12.395-19.02-8.694-2.229-50.393-18.681-50.393-18.681z"/><path fill="#D8454A" d="M87.359 178.368s-.144 20.232-8.813 31.445c5.365.579 6.766 1.139 15.461 3.368 8.696 2.228 28.736 11.913 35.912 13.176 7.175 1.267 8.648 4.171 10.541-1.59 1.895-5.761 4.359-13.783 5.615-18.764 1.257-4.983-3.142-10.266-10.089-12.437-6.946-2.172-46.487-18.437-48.627-15.198z"/><path fill="#41827E" d="M14.048 236.559s.961-51.001 1.858-58.047c.896-7.048 2.413-18.302 6.432-18.509 4.021-.213 19.416 1.669 19.416 1.669s-12.495 63.519-9.713 71.717c0 0 4.208-20.183 4.925-28.265.716-8.083 7.781-39.587 11.31-44.835 3.528-5.249 9.085-1.068 14.825 4.145 5.738 5.214 12.227 9.198 12.227 9.198l-21.445 79.775c.001 0-35.257-10.531-39.835-16.848z"/><path fill="#444C26" d="M243.413 271.446l-76.448 24.34 24.992 9.695 21.836-7.142c4.201.885 9.616 1.871 9.92 1.871.5 0 20.5 2.166 22.667-7.167.605-2.608.421-4.358-.146-5.543.465-1.664 2.826-11.2-2.821-16.054z"/></g><g><path fill="#EEB798" d="M1617.422 86.841c-1.967 26.243-7.543 56.703-7.543 56.703s-51.001 24.667-75.667 40-22.666 29.666-56.333 42.333c-33.667 12.667-44.666 28-59.333 21s-15.668-4.666-15.334-27.666-2.333-28.667 1.667-53c4-24.334 12.001-36 18.667-37s22.333 34.333 22.333 34.333 24.667-25 42-39.333c17.333-14.334 107.999-74.001 123.666-74.667 2.37-.101 3.981 1.991 5.015 5.596l-2.139-78.649-1633.42 18-3 727.464 486.877-49.41 12-10s-130.667-9.333-134.667-126.667c-4-117.333 33.333-297.333 113.333-358.667s208-56.667 250-56 141.333 11.333 205.333 148 123.333 302.001-72 377.334 84.667 81.333 84.667 81.333 672.877-55.422 710.375-34.423l-16.497-606.614zM1467.546-7.456c33-12.333 143-3.333 143-3.333l.333 32s-57.999 44-102.333 60-87.334 28.333-94.667 9.333 20.667-85.666 53.667-98zm-1429.334 144c14.333-20.333 39.667-35 64.334-24.667 24.666 10.334 68 19.334 91.333 46.667s53.667 56 62 105.667c0 0 6.667 30.999-34.333 30.666s-89.667-19.333-110.667-30.333-96-41-97-58.333c-1.001-17.334 9.999-49.333 24.333-69.667zM219.878 609.21c-1.333 11-29.667 40.334-53.333 43.667s-46.667 18.333-99-2.667-71.333-20.001-78.333-29.667 1.333-50.333 1.333-50.333 4.333-10.334 38.333-1.667 99.667 21.666 123 26c23.334 4.334 69.334 3.667 68 14.667zm18.667-13.333c-30.667.667-81.667-12.667-99.333-16.667s-37.333-5.666-66.666-9.666-67.001-9.001-74.668-22.334-16-82-16-82c1 0 17.333 12.334 61.333 19.334s84.999 9 128.667 22 74 19.332 74.333 33.666 23.001 55-7.666 55.667zm26.667-128.666c-6.667 13-9.333 32.332-25.667 31.666-16.333-.666-53.333-2.999-86.333-12.666s-91.333-25.334-109.667-31.667-47.667-8.334-52-23.667-2.667-65.667-2.667-65.667 9.333 11.667 46 13.667 81.334 12 115.667 21 116.333 34 116.667 36c.333 2 4.666 18.334-2 31.334zm-6-57c-3.667 1-23-4.333-49.334-10s-71.667-23.667-125.333-43.667-98.667-42.333-99.667-42.333c0 0 11.667-29.667 20.667-39 9-9.333 47.333 2 82.333 9.333s137.333 51.333 150 58.333 29.667 21.667 33 31.333c3.333 9.668-8 35.001-11.666 36.001zm189.333-287c-9.667 6.666-47 13.666-79.667 8-32.666-5.667-46.333-6-68.666-18.667-22.334-12.666 36.333-54 79.666-55 43.334-1 56.334 20 66.334 38s12 21 2.333 27.667zm864 133.333c3 18.667 3.334 34-31.333 49.667-34.667 15.666-115 31.999-139 32.666s-7.333-63.333-7.333-63.333 119.999-34 147.666-37.333c27.667-3.334 27-.333 30 18.333zm-290.666-53c3.333-30.333 33.333-74.667 47.333-82.333 14-7.667 25.334-13.333 34.667-20.667 9.333-7.333 60.999-30 104.333-23s62 26.333 65 46.667c0 0-182.667 75.666-211 90-28.333 14.333-43.666 19.667-40.333-10.667zm11 46.667c-1.666-10.667.666-15 6.426-15.277 5.76-.277 84.907-28.723 99.907-38.723s32.667-10.667 46.667-10.334c14 .333 80.333-23 80.333-23 27.667 29.333 1 41.334-20.667 56.334s-65.666 33.666-116.666 46c-51 12.333-94.334-4.334-96-15zm220.666 293c-92.666 18.666-132.333 16-132.333 16s-18.666-53.333-17.333-58c1.333-4.667 45.333-23.334 45.333-23.334s45.333-12.666 70-20.333 36.001-17.334 55.667-21.667 41.334-11.333 53 9.667 18.332 79.001-74.334 97.667zm89.334-164c-3.667 19.667-12.667 21.333-59 37.333s-113.001 23.333-143.667 20c-30.666-3.333-44-5.667-44-5.667l-9.666-20.333s.332-37.667 1.666-42 60-8 60-8 62.333-9.333 92-16 63-10.333 69.667-12.333 12.001-7 14.667-2.333c2.666 4.666 22 29.666 18.333 49.333zm77-68.667c-3.333-27-11.333-33 2-37.333 13.333-4.334 49.333-11 69.333-15.334 20-4.333 58.334-18.999 70.334-36.666s46-29.667 46-29.667l3 91.667s-45.666 25-103 40-84.334 14.333-87.667-12.667zm47.666 141.333c-11-27-10.666-12.334-13.333-41-2.667-28.667-10-26 0-35s39.334-18.999 61.667-31.333c22.333-12.333 27.999-15 45.666-20.667 17.667-5.666 48.334-11.333 48.334-11.333l4 167s-59.334 20.333-95.667 11-39.667-11.667-50.667-38.667zm80.334 110.333c-21.667-11.333-36.333-10-46-11.333s-18.333 1.334 18-12.333 71.333-44.667 95.333-46.667 2.667 84.333 2.667 84.333-48.333-2.667-70-14z"/></g><g fill="#BA6D54"><path d="M241.281 172.568s104.585 76.412 52.018 360.397c0 0 65.89-260.923-52.018-360.397z"/><path d="M342.398 236.746s-22.633 74.606-24.824 139.586c.001 0-4.379-82.628 24.824-139.586z"/><path d="M439.499 155.722s-113.164 44.923-113.893 248.687c0 0-15.333-185.312 113.893-248.687zM311.735 465.379s10.951 159.642 21.902 179.696c0 .001-23.362-78.616-21.902-179.696zM296.403 554.426s-5.841 65.781-9.491 94.66c0 0 11.681-55.352 9.491-94.66zM284.721 288.089s4.381 92.254-6.571 191.73c0 0 17.522-121.938 6.571-191.73zM1419.95 106.872s-27.951 31.196-45.739 72.539c-17.787 41.343-16.248 124.916-16.248 124.916s-10.132-73.27 13.708-127.453c23.841-54.184 48.279-70.002 48.279-70.002zM1229.862 58.345s77.322 38.089 94.151 141.466c.001 0-8.39-102.185-94.151-141.466zM1303.47 418.737s54.942 2.152 86.009 51.701c31.067 49.55-23.781 93.295-66.455 119.968-42.674 26.674-75.936 37.799-75.936 37.799s34.007-6.129 78.737-35.737c44.73-29.61 96.51-67.159 66.758-124.641-32.165-55.251-89.113-49.09-89.113-49.09z"/><path d="M1387.552 194.523s7.134 108.244 15.016 143.797c7.881 35.554 34.781 120.387 36.233 124.137 1.453 3.748-20.348-50.135-39.029-124.058-.001 0-16.255-130.053-12.22-143.876zM1349.052 257.293s2.688 109.243 11.403 150.564c0 0-17.085-88.425-11.403-150.564zM1479.639 344.3s-40.13 9.837-52.208 31.498c0 0 5.515-25.393 52.208-31.498zM1455.426 469.903s-5.239 65.522 25.836 54c31.073-11.521 76.634-22.07 76.634-22.07s-60.024 18.176-77.277 25.598c-17.254 7.419-33.631-12.245-25.193-57.528zM983.379 422.877s19.5 170.5-77.5 207c0 0 103.5-20.5 77.5-207zM898.879 200.877s55 102.5 70.5 189c0 0-4.5-73-70.5-189zM1054.379 95.877s-45 60-45.5 110.5-.5 94.5-7.5 97.5-57.5-65-57.5-103 2-44.5 17.5-9.5c0 0-21.5-46-13 7.5s19 55 32.5 77 24.5 36 23.5 4-.5-52.5 1.5-79.5 17.5-75 48.5-104.5z"/><path d="M986.879 137.377s-10.5 66.5.5 102.5c0 0-17-39.5-.5-102.5zM1117.879 55.877s155.5-31.5 203.5 17c0 0-38.5-53.5-203.5-17zM1265.379 151.877s-47 17-80 18c0 0 44.5 2 80-18zM1419.879-21.123s-53 53.5-57 119c0 0-1.5-68 57-119zM1482.379 111.377s40.5-22 66-41.5 58-34 58-34-98 64-124 75.5zM1580.879 175.377s-36 14.5-53.5 39-64.5 32.5-64.5 32.5 43-1 67-31 51-40.5 51-40.5zM1643.879 609.877s-61.5-2.5-104-23-115-34-115-34 85.5 21 113 35.5 70.5 23.5 106 21.5zM1340.379 632.877s53.5-70 81.5-69.5 80.5 55.5 119 68 72 15 72 15-17.5 1.5-72-12.5c-40.5-9.5-90.5-68-118-68.5s-82.5 67.5-82.5 67.5z"/><path d="M1425.379 582.877s-25 15-25 36.5c0 0-6-22.5 25-36.5zM1172.379 340.877s111-15 130-23c0 0-52 17.5-130 23zM1123.879 452.377s76.5 2 100-4.5c0 0-52 13-100 4.5zM987.379 326.377s8 88.5 28.5 113.5c0 0-26.5-31-28.5-113.5zM708.379-18.623s-21 43.5-46.5 48.5c0 0 26.5 5 46.5-48.5zM213.879 50.377s69.5 84.5 146 95c0 0-62.5 5.5-146-95zM435.379 31.877s-105 18-136.5 32c0 0 65-26.5 136.5-32zM-9.621 194.377s54.5 56.5 86.5 68.5c0 0-45-16.5-86.5-68.5zM-14.121 351.377s16.5 14 78.5 20 112.5 28 112.5 28-60-27.5-113.5-30-77.5-18-77.5-18zM276.379 500.377s-3.5 10.5-43 6-80.5-13.5-80.5-13.5 52.5 12.5 80.5 16.5 43-1.5 43-9zM-25.121 632.877c-1.908-4.196 11 8.5 65 24s83 15 71 18.5c-52 13.5-115 18.5-124 18.5s141-16.5 118.5-20.5-51-8.5-70-14.5-58-20.5-60.5-26zM204.379 119.877s88.5 33 107.5 108c0 0-9.5-72.5-107.5-108zM-17.121 117.377s97-43 149.5-22c0 0-40.5-27.5-149.5 22z"/></g><g fill="#C97136"><path d="M646.637 58.118c-15.807.511-6.273 12.262-2.76 11.751 0 0-3.262-5.365 1.254-5.876 4.516-.511 16.558 8.175 4.266 17.117-12.295 8.941-32.618-5.11-29.607-24.525 2.283-14.718.812-23.412-5.167-27.206 3.246-14.677-30.125-21.759-30.125-21.759s22.078-3.407 21.409-10.9c-.669-7.494-74.599 1.363-74.599 1.363s-35.794 8.175-27.097 21.459c7.86 12.005 28.01 1.48 31.819-.659-3.907 2.292-24.438 14.997-17.769 25.184 2.427 3.707 6.275 3.513 10.341 1.601-2.87 9.985-11.532 29.505-20.962 32.631-10.788 3.576-22.581-10.475-17.813-16.095 4.767-5.62 13.046-.255 13.046 1.788.251 3.577-4.767 3.832-4.767 3.832s6.774 4.088 7.777-.766c1.004-4.854-6.774-16.095-15.806-9.963-9.032 6.131-2.258 16.095 7.778 23.758 17.228 12.204 32.358-22.413 38.925-40.758 5.166-4.416 9.246-9.313 9.246-9.313s-16.726 33.041 1.338 33.722c18.065.681 13.047-36.447 13.047-36.447s5.352 29.975 22.079 26.228c16.726-3.747-4.684-28.612-4.684-28.612s22.748 25.887 34.791 8.175c.272-.4.508-.793.728-1.184 2.808 2.72 5.476 8.889 3.705 22.899-3.262 25.802 17.813 38.064 33.118 32.7 15.305-5.365 18.315-29.89-3.511-30.145zm-87.061-41.301c-7.298 0-13.214-4.575-13.214-10.219 0-5.644 5.916-10.219 13.214-10.219 7.297 0 13.213 4.575 13.213 10.219 0 5.644-5.916 10.219-13.213 10.219z"/><path d="M601.475 43.556s2.258 12.518-3.011 18.138c-5.269 5.62-6.523 11.752-6.523 11.752s-8.279-13.796 9.534-29.89zM606.577 60.587s-16.225 11.41-8.363 27.931c0 0-.167-5.45 4.014-8.345 4.181-2.895 4.349-19.586 4.349-19.586zM611.762 74.212s-3.847 4.088-1.171 12.092c2.676 8.005 1.004 15.839 1.004 15.839s8.363-9.538.167-27.931zM623.303 85.623s-.167 6.472 4.516 10.559c0 0 .502-5.279-4.516-10.559zM630.83 47.132s1.672 7.664 17.897 8.686c0 0-4.516-9.707-17.897-8.686zM644.211 44.408s-9.032 2.384-15.89-4.599c0 0 6.691-6.982 9.367-1.703 2.675 5.28 6.523 6.302 6.523 6.302zM629.659 34.87s-7.359-5.45-10.537-4.428c0 0 6.021-7.494 10.537 4.428zM890.001 111.834s11.541-10.219 1.254-19.16c-15.304-13.029-40.143 15.839-25.089 36.276 18.566 24.014 89.82-15.839 49.426-67.443C875.198 9.902 797.17 74.536 784.123 84.499c-13.046 9.963-73.512 27.08-88.314-2.299s17.562-31.422 20.322-26.569c2.76 4.854-6.775 12.773-6.775 12.773s4.768-6.131 1.757-10.474-21.828 7.153-9.785 22.481c12.043 15.328 50.681 14.817 77.526-1.277C805.7 63.039 872.94 8.88 919.857 55.12c46.917 46.24-16.81 114.194-57.204 79.195-27.85-27.335 18.817-64.122 36.38-46.751 15.556 14.562-9.032 24.27-9.032 24.27z"/><path d="M801.769 33.065s-14.217 7.834-12.21 18.223c2.007 10.389-15.723 25.888-15.723 25.888s11.54-12.433 8.864-23.844c-2.675-11.411 13.549-22.822 19.069-20.267zM840.24 23.868s-12.377 4.428-14.05 11.922c-1.673 7.494-19.403 16.69-19.403 16.69s11.206-9.197 10.036-15.158c-1.171-5.96 15.891-16.69 23.417-13.454zM872.188 22.846s-5.689.681-9.367 6.131c-3.68 5.45-20.406 7.324-20.406 7.324s9.701-6.983 11.541-11.581c1.839-4.599 15.723-6.643 18.232-1.874zM883.394 33.065s13.214-2.384 20.573-.341c7.359 2.044 15.22 2.555 21.241-2.214 6.021-4.769 17.898-1.192 17.898-1.192s-5.185-9.877-27.767-9.026c-22.578.851-31.945 12.773-31.945 12.773zM918.017 40.388s6.524 1.703 8.364 6.812c1.839 5.109 24.588 2.896 24.588 2.896s-15.725-16.35-32.952-9.708zM908.316 61.336s-3.179 6.302-2.509 10.389c.669 4.087-.168 10.048-.168 10.048s12.044-11.41 2.677-20.437zM882.223 52.14s13.55 5.791 12.713 19.075c0 0-8.364-1.873-8.865-8.856-.503-6.984-3.848-10.219-3.848-10.219zM838.567 58.1s19.904-8.856 35.961 3.747c0 0-12.878 6.812-21.241 0-8.364-6.812-14.72-3.747-14.72-3.747zM813.812 72.236s19.569-13.965 39.641 6.472c0 0-20.74 4.598-25.089-.341-4.348-4.938-14.552-6.131-14.552-6.131zM794.076 92.503s19.736-11.581 45.327 2.214c0 0-18.231 3.066-25.926-1.703-7.694-4.768-19.401-.511-19.401-.511zM807.122 113.281s-11.709-4.087-21.242-11.411c-9.534-7.323-26.595-.17-26.595-.17s18.399-.341 23.249 6.471c4.851 6.814 24.588 5.11 24.588 5.11zM988.939 55.417s2.008 6.131-1.84 7.664c-3.848 1.533-15.556-16.18 11.875-30.486 27.431-14.306 49.844 6.643 80.119-3.747 30.275-10.389 39.307-35.424 39.307-35.424s-20.239 21.971-34.791 28.953c-35.627 12.943-44.992-6.643-80.954 2.384-32.616 8.516-30.443 48.368-14.218 40.534 8.865-4.939.502-9.878.502-9.878z"/><path d="M1028.957 29.231s6.272 3.704 5.52 12.007c-1.129 15.967 11.792 9.708 11.792 9.708s-9.534-1.277-9.534-10.091c-.001-8.813-7.778-11.624-7.778-11.624zM1047.899 35.618s5.896 1.277 8.028 8.047c2.133 6.769 15.305 2.299 15.305 2.299s-7.275-1.021-10.036-5.62c-2.759-4.598-12.168-5.237-13.297-4.726zM1070.856 34.469s4.265 1.149 8.279 5.748c4.015 4.599 8.781-2.554 8.781-2.554s-6.898-6.771-17.06-3.194zM1095.193 26.293s10.286-4.854 15.555-9.707c5.27-4.854 18.065-2.683 21.577-6.643 0 0-9.534 17.372-37.132 16.35zM1122.039-6.917s.125 13.156-5.52 16.733c0 0 14.677-5.109 16.559-17.883 1.882-12.773-11.039 1.15-11.039 1.15zM1096.698-2.702s-.502 10.602-4.14 14.689c0 0 8.781-8.175 9.91-15.2 1.13-7.025-5.77.511-5.77.511zM1088.544 8.028s-6.272 3.576-7.401 7.792-12.795 5.493-12.795 5.493 7.275-4.343 9.032-7.664c1.756-3.322 11.164-5.621 11.164-5.621zM1075.372 2.024s-5.896 18.01-23.96 18.138c0 0 6.021-2.427 9.534-9.324 3.512-6.898 14.426-8.814 14.426-8.814zM1062.827-1.68s-12.419 14.178-24.713 14.051c0 0 18.566-11.241 21.577-15.456 3.011-4.215 3.136 1.405 3.136 1.405zM1038.741-4.235s-9.91 20.565-22.831 20.565c0 0 11.039-1.916 21.075-21.714 1.631-8.686 1.756 1.149 1.756 1.149zM159.395 33.15s-2.258-11.496 3.011-10.474c5.269 1.022 18.315 29.379-26.344 29.89-44.659.51-46.917-51.35-81.29-56.203-34.373-4.854-3.262 5.875-3.262 5.875s18.566 3.577 27.348 19.16c8.781 15.584 29.104 37.554 57.706 37.298 45.161-1.277 41.899-41.641 26.595-40.108-15.305 1.533-3.764 14.562-3.764 14.562zM111.474 60.229s-17.061-3.066-21.828 2.81-21.075 3.321-21.075 3.321 24.588-19.415 42.903-6.131zM84.378 48.989s-29.606 2.81-39.391-3.065c0 0 11.039-1.788 16.308-5.365s23.083 8.43 23.083 8.43z"/><path d="M73.338 25.997s-10.036-2.043-14.552 4.088-20.825-1.788-20.825-1.788 20.575-17.117 35.377-2.3zM101.188 3.26s-2.007 25.547 5.018 32.444c0 0-13.8-8.941-5.018-32.444zM25.417 5.304s5.771 8.685 15.806 5.875c10.036-2.81 19.319.255 19.319.255s-5.268-6.896-35.125-6.13zM79.709-16.515s5.95 8.005 2.227 14.565c-3.723 6.56 10.121 17.641 10.121 17.641s7.142-25.348-12.348-32.206z"/></g><g><path fill="#DA7E65" d="M-23.005 707.839s875.121-116.493 1649.884-49.05l-2.007 259.555-1639.849-12.263-8.028-198.242z"/><path fill="#B65746" d="M342.976 880.122s-146.708-7.319-163.967-11.502c-17.26-4.182-21.575-8.364-9.708-8.364 0 0-38.835 1.567 8.629 12.024 47.464 10.458 165.046 7.842 165.046 7.842zM190.875 860.778s160.191 4.707 162.35 8.366c2.157 3.659-4.855 6.797-4.855 6.797s8.63-1.046 8.63-7.32-137.539-8.887-166.125-7.843zM330.571 838.297s58.791 8.365 121.896 7.843c0 0-73.893 7.843-121.896-7.843zM841.35 868.621s207.117 11.502 260.515 9.934c-.001-.001-156.417 3.659-260.515-9.934z"/><path fill="#B65746" d="M851.599 888.489s25.35-19.345 26.968-20.391c-.001 0-14.024 16.731-26.968 20.391zM875.87 908.355s19.417 2.614 44.767-15.161c0 0-21.575 22.481-44.767 15.161zM786.875 807.973s-81.983 43.918-92.773 48.623c0 0 63.108-25.096 92.773-48.623zM605.109 854.504s141.852-44.44 147.246-46.008c-.001 0-114.886 40.257-147.246 46.008zM746.422 784.447s-21.575 21.436-33.44 23.526c-.001 0 12.944 3.66 33.44-23.526zM733.477 778.696l-58.25 26.664s39.372-8.365 58.25-26.664z"/><path fill="#B65746" d="M407.161 805.36s135.38 23.875 617.933 22.481c0 0-454.145 13.594-617.933-22.481zM209.753 750.463s-21.575 35.552 238.399 43.917c0 0-229.77-11.502-238.399-43.917zM66.282 833.592c1.704.061-48.004-3.659-59.331-24.573 0 0 1.618 22.481 59.331 24.573z"/><path fill="#B65746" d="M319.244 776.605c-1.731-.859 27.508 7.842 93.311 8.888-.001 0-70.119 2.614-93.311-8.888zM333.268 755.692s21.575 16.207 107.334 17.775c-.001 0-83.063 3.66-107.334-17.775zM331.11 745.235s32.362 14.64 64.184 14.64c0-.001-33.98 3.659-64.184-14.64zM489.145 724.845s-51.239 3.66-51.239 13.07c0 9.411 114.884 31.893 587.908 21.437 0 0-584.673 18.82-592.224-22.482-2.697-12.547 55.555-12.025 55.555-12.025z"/><path fill="#B65746" d="M464.873 731.641s42.071 8.889 72.275 13.594c0 0-55.555-2.614-72.275-13.594zM631.536 748.371s329.015 2.614 367.31 4.184c38.295 1.567 39.373 6.273 39.373 6.273s-4.315-7.843-40.452-8.365c-36.139-.523-357.061-3.136-366.231-2.092zM1216.75 890.579s357.06 11.502 391.58-49.144c0 0-9.71 66.92-391.58 49.144z"/><path fill="#B65746" d="M1294.776 866.878s212.87 4.881 275.438-29.277c0 0-33.8 36.945-275.438 29.277zM1204.883 831.327s269.683-13.94 274.717 0c5.035 13.942-107.153 9.76-107.153 9.76s114.344 13.941 110.748-11.851c-4.316-17.428-278.312 2.091-278.312 2.091zM1298.372 818.082s146.708-2.789 171.878 0c0 0-63.284-6.971-171.878 0zM1114.271 779.044s320.022 4.879 356.7 22.308c0 0-8.629-20.216-356.7-22.308zM1106.358 771.376s148.146-.697 174.037 4.183c.001 0-75.512-11.852-174.037-4.183zM1104.2 758.132s204.96-2.092 269.684 18.124c0 0-40.274-23.003-269.684-18.124zM437.544 707.941s138.796-23.7 323.619-22.307c0 0-155.336-6.971-323.619 22.307zM454.804 684.24s148.146-23.003 291.977-15.335c0 0-104.278-18.824-291.977 15.335zM276.454 698.182s43.15-18.821 131.606-21.609c0 0-104.278-3.487-131.606 21.609zM1029.408 718.399s258.178 4.88 329.373 21.61c0 0-121.536-23.702-329.373-21.61z"/><path fill="#B65746" d="M1145.553 747.85s8.091 13.069 10.249 17.775c0 0-2.159-11.503-10.249-17.775zM1072.198 712.298s23.734 13.069 32.902 21.435c.001 0-14.563-16.207-32.902-21.435zM1098.628 716.48s5.394 2.613 17.8 13.594c0 0-8.631-12.548-17.8-13.594zM1450.834 755.343s151.741 38.341 164.686 55.071c0 0-27.326-29.278-164.686-55.071zM-55.478 771.456S107.904 720.972 176 708.701c0 0-94.591 11.878-231.478 62.755zM-37.282 857.117s54.55 53.594 133.897 63.337c0 0-78.638 0-133.897-63.337zM831.643 673.784s257.456-6.274 389.063 2.091c0 0-161.811-15.336-389.063-2.091zM1236.527 676.572s299.168 36.249 374.681 83.65c0 0-49.624-49.493-374.681-83.65zM1143.037 659.144s129.448 4.879 189.138 18.123c0 0-32.361-13.941-189.138-18.123z"/><path fill="#B65746" d="M1190.5 650.778s38.835 23.004 48.185 38.342c0 0-12.947-21.612-48.185-38.342zM1609.05 687.725s-133.765-23.004-137.359-19.52c-3.596 3.485 23.014 16.033 23.014 16.033s-28.047-9.76-27.329-16.73c.719-6.97 139.517 20.914 141.674 20.217z"/></g><g><path fill="#875240" d="M994.369 621.001s18.733 43.94-16.392 56.202c-35.125 12.263-109.057 23.843-87.646 29.293 21.41 5.451 38.806 5.11 66.571-3.746s70.92-13.284 84.301-9.878c13.381 3.405 21.074 6.131-2.343 14.306-23.416 8.175-57.537 10.561-33.786 11.923 23.75 1.361 27.097 0 39.14-3.066 12.043-3.065 52.186-8.175 42.484-3.065-9.702 5.109-38.806 16.349-17.73 17.03 21.075.682 54.527-11.921 69.247-15.668 14.72-3.747 35.461-8.856 66.905-2.726 31.445 6.132 67.908 3.065 56.535 0-11.374-3.065-42.149-16.349-46.499-22.14 0 0 45.495-6.812 78.613 0 33.118 6.811 48.841 8.175 65.232 7.493 16.392-.682 27.766-2.044 13.381-2.725-14.384-.681-42.484-8.516-42.484-8.516s15.722-1.703 25.424-3.065c9.701-1.362 16.059.34-1.672-3.066-17.73-3.406-65.568-16.01-65.568-16.01s15.724-3.746 22.748-4.428c7.025-.682 9.033-1.704-7.359-1.704s-47.502-3.065-46.164-38.831c.242-6.467 2.526-11.86 6.094-16.365l-127.777 11.938-148.634-2.784 7.379 9.598z"/><path opacity=".7" fill="#684436" d="M1044.214 716.035c12.043-3.065 52.186-8.175 42.484-3.065-8.125 4.279-29.852 12.856-24.321 15.932 8.996-4.209 36.56-17.922 32.35-26.065-4.383-8.479-58.723 11.302-73.241 16.784 10.056-.11 14.232-1.423 22.728-3.586zM956.902 702.75c27.765-8.856 70.92-13.284 84.301-9.878 6.379 1.623 11.456 3.095 12.494 5.072-.619-8.649-10.718-14.205-20.188-15.802-39.572-6.756-74.895 23.853-123.505 27.707 13.851 1.018 27.964-1.059 46.898-7.099z"/><path fill="#75483B" d="M1247.02 659.917s53.942 25.802 74.266 22.226c-.001 0-30.861 5.62-74.266-22.226zM1244.511 646.632s-52.688 13.796-78.53 11.496c-.001 0 40.394 5.11 78.53-11.496z"/><path fill="#75483B" d="M1192.826 634.115s-.25 35.255 18.817 49.306c0-.001-20.573-8.431-18.817-49.306zM1133.113 640.246s12.294 32.956 32.366 43.685c0 0-25.089-12.518-32.366-43.685zM1121.321 634.115s-2.258 27.335 19.068 48.283c.001 0-21.326-12.518-19.068-48.283zM1089.207 639.991s-6.272 37.043-18.064 48.283c0 0 16.809-15.584 18.064-48.283zM1060.605 639.224s-6.775 32.7-22.079 38.32c0 0 18.065-3.577 22.079-38.32zM1011.932 634.371s4.516 40.619-18.817 50.327c-.001 0 27.096-6.643 18.817-50.327z"/><path fill="#75483B" d="M998.383 659.662s11.04 7.408 32.115 7.408c0 0-18.817 4.343-32.115-7.408z"/><path opacity=".7" fill="#684436" d="M994.369 621.001s2.836 6.655 4.232 15.509c56.114 22.996 176.913 14.466 176.913 14.466 14.943 31 55.186 54.209 74.78 64.048 11.075-.429 16.906-1.923 11.36-3.418-11.374-3.065-42.149-16.349-46.499-22.14 0 0 45.495-6.812 78.613 0 33.118 6.811 48.841 8.175 65.232 7.493 16.392-.682 27.766-2.044 13.381-2.725-14.384-.681-42.484-8.516-42.484-8.516s15.722-1.703 25.424-3.065c9.701-1.362 16.059.34-1.672-3.066-17.73-3.406-65.568-16.01-65.568-16.01s15.724-3.746 22.748-4.428c7.025-.682 9.033-1.704-7.359-1.704s-47.502-3.065-46.164-38.831c.292-7.811 3.554-14.063 8.472-19.063-10.248-.646-19.762-1.203-19.762-1.203l-123.19 15.328h-134.09l5.633 7.325z"/><path fill="#9B653F" d="M1347.629 558.241l11.373 1.873s-1.17 31.083-17.646 38.491-50.263 26.824-223.297 30.4c-161.325.256-185.577-6.982-190.429-8.175-4.852-1.192-34.289-6.643-38.091-43.217 32.571-15.796 65.438-6.089 65.438-6.089l300.572-6.131 92.08-7.152z"/><path fill="#895936" d="M1026.483 603.714s44.408-1.022 61.72 3.832c17.312 4.854 61.219 12.773 96.093 8.942 0 0-61.469.255-89.067-8.687-27.599-8.941-68.746-4.087-68.746-4.087zM903.043 596.05s77.024 11.496 118.172 26.313c0 .001-73.262-25.546-118.172-26.313zM1332.826 581.233s-26.846 27.08-136.738 22.992c0 0 107.885 8.942 136.738-22.992z"/><path fill="#DA9157" d="M1125.361 598.329c129.643-4.915 234.254-22.157 233.655-38.511-.598-16.354-106.178-25.629-235.82-20.714-129.643 4.914-234.254 22.156-233.656 38.509.598 16.355 106.18 25.631 235.821 20.716z"/><path fill="#E2BC95" d="M889.54 577.614c.04 1.109.581 2.187 1.564 3.228 6.014-22.387 125.439-30.01 126.85-30.01l1.004.256v-4.946c-77.1 7.776-129.844 19.848-129.418 31.472z"/><path fill="#B77753" d="M1080.426 544.956s-5.018 34.488-47.921 35.51c-42.903 1.022-79.032-.766-60.968-22.991 18.064-22.227 59.212-24.525 60.968-24.781 1.756-.255 37.634 6.387 47.921 12.262zM1172.253 538.315s12.545 38.831 43.405 39.342c30.859.511 108.136-15.839 96.595-31.934-11.542-16.095-39.893-18.394-41.398-18.649-1.505-.255-56.451-4.598-58.458-5.364-2.007-.767-15.556-3.065-18.316-3.321-2.76-.257-21.828 19.926-21.828 19.926z"/><path fill="#875240" d="M1098.239 443.026s-18.064-.767-48.161 3.27c.764 57.685-27.107 69.538-27.107 69.538l-18.644 22.818c7.504-3.804 24.096-5.356 60.794 6.815 66.236 21.971 119.175-5.62 119.175-5.62l4.551-.997c-3.542-7.663-46.45-94.803-46.45-94.803l-13.297-4.088s-15.655-2.175-36.889-6.303l6.028 9.37z"/><path fill="#664436" d="M1167.118 546.5c10.913-3.389 17.178-6.653 17.178-6.653l23.333-5.109s56.953-2.81 26.847-18.138c-30.107-15.328-47.676-77.637-47.676-77.637l-11.034-1.047-9.127-4.528c-4.557 1.203-11.111 2.824-12.951 3.762-2.51 1.276-20.072 9.196-20.072 9.196s6.904 73.553 33.502 100.154z"/><path fill="#754633" d="M1074.655 460.397s-5.269 28.102-11.792 32.444c0 0 11.29-8.685 11.792-32.444zM1121.823 513.535s-2.007-15.84 4.768-15.84c6.773 0 5.519 37.043-1.506 37.043-5.077.157-12.235-14.57-13.298-34.488-.67-12.565.693-28.586 7.778-39.853 0 0-11.792 4.853-10.538 37.81 1.255 32.955 11.793 39.852 16.309 39.852 10.287-.511 10.788-43.94.502-43.684-9.032-.001-4.015 19.16-4.015 19.16z"/><path fill="#613427" d="M1176.77 463.207s10.035-2.3 10.035 15.328c0 17.627-4.265 24.78-12.544 11.24-8.28-13.54-10.287-28.357-9.534-33.722 0 0-5.52 19.671 6.523 34.999s19.318 10.219 18.565-11.752c-.752-21.969-13.045-16.093-13.045-16.093z"/><path fill="#B77A51" d="M1186.8 438.963c.354 6.858-29.965 14.056-67.719 16.081-37.754 2.023-68.649-1.895-69.003-8.749-.354-6.857 29.964-14.059 67.718-16.083 37.754-2.023 68.649 1.895 69.004 8.751z"/><path fill="#573734" d="M1200.271 306.606c-.336-5.961 1.17-7.494 2.341-11.581s7.191-35.425-1.171-50.754c0 0-11.541 11.411-14.05 20.438 0 0-.168-40.534 14.886-63.015 0 0-85.47-16.009-127.62 54.159-32.114 58.587-10.204 187.683-10.204 187.683s15.716 3.729 36.858 5.219a150.446 150.446 0 0 1-.06-20.035c2.007-31.678 1.004-32.189 2.007-51.604 1.004-19.415 2.008-34.744 3.513-41.896 1.506-7.153 17.061-17.372 34.122-17.372 17.06 0 38.638 2.044 46.164.511 4.57-.93 8.954-4.503 13.267-8.877-.004-1.282-.019-2.274-.053-2.876z"/><path fill="#694540" d="M1148.434 203.639c-.979 9.758-2.469 26.627-2.355 37.908.167 16.691 2.509 21.799 4.516 26.058 2.008 4.258 5.019 12.943 5.019 16.35 0 3.406-1.172 11.921-1.172 11.921l1.004.681s1.004-6.812 1.338-11.922c.334-5.109-2.509-11.24-5.185-17.372-2.676-6.131-3.848-15.158-4.015-25.717-.116-7.395 1.651-27.135 2.723-38.312-.623.131-1.247.265-1.873.405zM1114.298 241.036c-.168 11.752-7.36 13.795-5.855 23.844 1.506 10.048 7.193 28.953 12.713 33.722 5.52 4.769.669-.34.669-.34s-9.7-12.944-12.043-33.722c-.502-3.407.837-7.324 5.018-14.988 3.632-6.655-.681-23.568-3.961-30.809-.39.244-.782.48-1.172.73 1.812 4.632 4.747 13.415 4.631 21.563zM1123.664 268.456s8.53 14.477 1.505-.681c-5.23-11.285-6.381-39.652-6.628-53.414-.484.25-.967.502-1.45.762.913 40.689 6.573 53.333 6.573 53.333z"/><path fill="#694540" d="M1114.966 299.622c0-.511 10.036 15.499 1.506 0-7.201-13.082-15.112-58.539-17.405-72.402a93.98 93.98 0 0 0-1.514 1.278c6.331 39.654 17.413 71.618 17.413 71.124zM1159.625 244.442c.167 6.812 2.677 54.329 2.677 54.329s-.167-28.612-.502-54.84c-.243-19.014 2.15-35.414 3.486-43.007-.624.064-1.251.131-1.883.203-1.612 11.434-3.92 37.482-3.778 43.315zM1182.271 200.13c-5.184 30.546 2.076 39.626 6.804 42.321l.123-.891c-8.878-8.003-7.522-32.436-6.686-41.429l-.241-.001zM1170.407 200.487c-.473.033-.948.067-1.427.104-.977 11.365-3.698 43.376-3.836 48.961-.167 6.812.336 7.493 5.019 14.135 4.683 6.643 4.182 16.35 4.35 20.097.167 3.747-.67 20.267-.67 20.267l1.171.17s.502-11.752.669-20.267c.166-8.516-1.004-17.032-5.019-22.141-4.014-5.109-4.181-7.323-4.014-11.921.141-3.875 2.894-38.577 3.757-49.405zM1082.852 405.557c4.35 2.214 1.505-1.193 1.505-1.193s-15.22-15.157-19.903-23.843c-2.303-4.269-4.764-5.61-6.771-4.703.044.999.09 1.995.139 2.983.922-.837 2.28-.501 4.291 2.571 5.685 8.686 16.389 21.971 20.739 24.185zM1058.398 320.919a301.836 301.836 0 0 0-.266 3.446l20.203 34.696-19.937-38.142zM1079.674 383.586s-16.468-22.939-22.507-33.454c-.01 1.624-.011 3.242-.004 4.856 5.118 8.208 17.069 26.62 22.511 28.598zM1078.837 431.615c-2.844-6.983-2.843-24.866-2.843-24.866s-1.338 15.498 1.505 25.206c1.512 5.16 1.979 10.497 2.09 14.38l.968.146c.089-4.847-.165-11.05-1.72-14.866zM1094.226 325.34s12.211 8.856 1.172-1.874c-9.17-8.912-21.448-45.649-25.346-57.846-.509 1.249-1 2.52-1.473 3.812 7.551 27.645 25.647 55.908 25.647 55.908zM1067.464 422.588c-1.004-4.258-1.172-6.643-1.004-12.092.132-4.311-1.948-7.972-7.126-9.486l.156 1.812c2.574 1.158 5.448 3.148 5.632 6.311.334 5.79-2.008 6.813 1.17 14.817 3.179 8.004 6.858 11.412 7.36 16.18a54.44 54.44 0 0 1 .273 5.28c.532.092 1.09.188 1.66.283.045-1.662-.03-3.574-.427-5.395-1.004-4.596-6.691-13.452-7.694-17.71zM1103.76 308.479s23.584 36.787 1.338-2.214c-15.248-26.731-19.335-51.614-20.398-64.63-.5.605-1 1.212-1.492 1.835 4.039 35.352 20.552 65.009 20.552 65.009zM1088.873 346.458s-8.067-23.533-26.935-52.292a182.6 182.6 0 0 0-.399 2.178c5.663 8.95 20.409 33.143 26.165 51.136 7.191 22.481 1.169-1.022 1.169-1.022z"/><path fill="#886D35" d="M1172.504 439.789s-6.857-19.586-6.523-22.652l26.93-4.258s4.349-36.276 5.352-47.006c1.004-10.729 2.344-53.308 2.009-59.268-.336-5.961 1.17-7.494 2.341-11.581s7.191-35.425-1.171-50.754c0 0-11.196 11.075-13.927 20.035-.854 14.669.295 38.212.295 38.212h-25.842c-8.781-16.094-23.334-12.518-23.334-12.518 3.513-14.306-8.279-38.576-8.279-38.576.251 3.832-12.294 14.051-15.305 24.78s5.771 17.883 5.771 17.883c-55.449 23.045-40.875 131.72-37.487 152.789 22.422 3.096 60.404 5.532 89.17-7.086z"/><path fill="#7B6027" d="M1110.407 342.626c.502 3.066 5.27 23.759 4.517 32.572-.753 8.813-.502 28.229-.125 35.382.321 6.113 2.382 31.515 2.975 38.777.53 0 1.06.001 1.593-.002-.626-6.673-2.58-27.773-3.313-39.286-.878-13.795-1.129-27.462 0-34.232s-2.133-24.014-4.266-33.466c-2.132-9.452-.752-41.258-.752-41.258-2.259 7.281-1.13 38.448-.629 41.513zM1130.73 409.176c1.129-27.335.878-36.915.878-36.915l-.753-1.022s-.376 16.989-1.129 38.065c-.591 16.544.672 33.226 1.243 39.642.562-.037 1.125-.073 1.688-.115-.978-5.698-2.765-19.359-1.927-39.655zM1189.566 377.625c-5.294 0-6.06 28.261-6.17 36.447h-2.671c.468-6.036 1.134-16.774.31-20.608-1.171-5.449-4.183-15.838-2.844-22.821 1.339-6.983-4.015-27.25-8.363-32.53 0 0 8.866 21.29 7.193 32.019s1.504 12.262 2.676 23.332c.76 7.189.392 15.595.041 20.608h-.208v.923l5.376-.85-.19-.073h-.16c.065-8.158.603-34.509 4.843-35.085 2.545-.345 4.788 4.568 6.382 9.494l.324-2.826c-1.615-4.242-3.818-8.03-6.539-8.03zM1145.658 410.581c-3.371.321-5.501 28.542-6.099 37.59.553-.064 1.105-.136 1.658-.205.888-9.656 3.39-35.438 4.817-35.853 1.665-.484 15.272 17.855 20.316 30.102a88.414 88.414 0 0 0 1.637-.598c-3.548-6.664-17.013-31.257-22.329-31.036zM1088.329 368.173c4.642 10.346 9.032 17.5 6.899 32.061-1.178 8.047-1.207 19.987-.998 29.068.124-8.383.861-18.997 2.378-29.195 2.509-16.861-1.882-20.949-7.526-33.339-5.646-12.39 8.53-48.155 8.53-48.155-8.28 15.072-13.924 39.214-9.283 49.56zM1147.416 388.696c.335 4.429 1.17 1.022 1.17 1.022 3.178-34.913-12.043-40.193-12.545-53.818-.502-13.624 7.234-39.001 7.234-39.001-3.64 6.642-7.401 22.141-8.739 38.491-1.339 16.349 13.883 16.178 12.88 53.306zM1184.548 349.694c-6.857-10.9-4.182-37.639-4.182-37.639-5.017 28.784 4.182 37.639 4.182 37.639z"/><path fill="#523C1A" d="M1163.221 398.446s4.015 9.197 5.896 8.941c1.882-.255 2.509-7.153 2.509-7.153s1.38 9.58-2.635 9.453c-4.013-.128-5.77-11.241-5.77-11.241z"/><path fill="#523C1A" d="M1161.089 415.754s-6.775-21.97-14.553-28.995c-7.777-7.025-25.967-21.459-23.96-57.736 0 0-8.279 34.424 18.44 55.373 15.932 16.861 17.813 33.658 17.813 33.658l7.148-.856c.002-.018 0-.043.002-.06l26.93-4.258.152-1.277c-3.396.557-28.465 4.627-31.972 4.151z"/><path opacity=".8" fill="#715C2B" d="M1100.852 309.035c-31.466 37.836-20.413 119.824-17.519 137.842 7.159.987 15.901 1.908 25.427 2.293-8.481-13.191-36.352-65.013-7.908-140.135zM1170.188 416.473c-3.761-1.054-9.057.155-9.057.155s-.669 2.044-2.008-2.895c-1.339-4.94-7.359-18.054-8.696-20.438-1.338-2.384-6.357-6.642-9.534-10.048-3.178-3.407-10.203-11.411-10.203-11.411s-5.018-9.197-6.356-14.136-2.342-9.197-2.007-27.59c-5.018 17.202-1.171 55.521 17.061 71.19 14.651 12.591 17.635 35.178 18.242 43.569 5.135-1.327 10.131-2.999 14.875-5.079 0 0-6.857-19.586-6.523-22.652l4.206-.665zM1186.22 369.11c-7.36-.34-10.202-5.961-11.541-15.328-1.339-9.367-12.879-29.123-12.879-29.123s-5.52 15.498-2.174 29.634c3.346 14.136 19.234 30.996 28.267 30.996 4.251 0 6.857-.793 8.441-1.631.83-7.28 1.58-14.067 1.928-17.785 1.004-10.729 2.344-53.308 2.009-59.268-.336-5.961 1.17-7.494 2.341-11.581.946-3.301 5.05-24.368 2.192-40.428-1.642 19.873-12.061 50.647-12.061 50.647 7.862 55.522.837 64.208-6.523 63.867z"/><path fill="#523C1A" d="M1165.346 336.427c1.271 12.3-1.375 22.665-5.912 23.15-4.534.486-9.241-9.092-10.511-21.392-1.271-12.3 1.376-22.665 5.911-23.151 4.536-.485 9.241 9.092 10.512 21.393z"/><path fill="#9C7D39" d="M1163.938 336.624c1.119 10.839-.905 19.94-4.523 20.328-3.617.387-7.457-8.085-8.576-18.925-1.119-10.84.905-19.94 4.523-20.328 3.617-.387 7.456 8.086 8.576 18.925z"/><path fill="#B19341" d="M1156.697 324.361c-.752-1.789-1.003-7.664 1.882-2.683 2.886 4.981 5.144 18.649 4.14 23.503-1.003 4.854-2.007 3.96-1.881-.511.125-4.47-3.388-18.521-4.141-20.309z"/></g><g><path fill="#5A311E" d="M1079.799 520.687l6.523 1.15-34.248 55.053s-21.827-16.861-49.677-4.471c0 0 5.268 6.643-7.025 6.643-12.294 0-7.15-6.771-7.15-6.771s-16.308-12.646-38.136-9.963c0 0 5.52-9.197 9.785-12.263 4.265-3.065 30.609-.639 30.609-.639l22.455 4.343s23.96-4.981 24.838-5.492c.878-.51 42.026-27.59 42.026-27.59z"/><path fill="#C19F81" d="M1071.645 516.855l4.767-1.788 6.021 7.792s-26.72 42.918-30.859 50.838c0 0-8.782-10.219-27.097-9.069-18.315 1.149-25.215 8.175-28.728 8.175s-11.416-9.324-19.57-11.24c-8.153-1.916-24.838-1.533-24.838-1.533s2.383-4.215 4.516-5.747c2.133-1.533 21.953-6.643 21.953-6.643l51.434 2.938 16.81 1.533 25.591-35.256z"/><path fill="#A4836B" d="M1075.659 525.414s-16.184 20.948-19.946 35.893c0-.001 3.262-20.311 19.946-35.893z"/><path fill="#E1E0B1" d="M995.623 569.482s31.864-17.5 55.071-1.023c0 0 8.405-34.615 25.717-53.392 0 0-20.824-17.499-57.705-2.555 0 0-13.549-18.904-32.24-14.944 0 0-33.118 57.48-33.244 59.395 0 0 31.487-2.681 42.401 12.519z"/><path fill="#D8C8A1" d="M995.623 569.482l.124-.066c1.481-5.896 10.812-41.593 22.998-56.918l-.039.015s-2.255-3.144-6.189-6.598c-5.201 6.457-21.753 28.541-28.134 55.194 4.491 1.887 8.51 4.569 11.24 8.373z"/></g><g><path fill="#6D747E" d="M1314.636 544.446l3.22 4.173 3.179.554.251 3.32s-17.563-1.022-28.728 3.066c-11.165 4.087-16.811 6.131-17.062 8.175-.251 2.043-4.014 7.025-10.537 5.236-6.524-1.788-4.517-2.043-10.036-2.427-5.519-.383-43.153 1.022-52.436 2.938l-42.276-52.627 13.549.256 63.1 16.477s34.122 5.109 36.004 4.854c1.882-.255 23.458-2.171 26.344-1.788 2.884.385 15.428 7.793 15.428 7.793z"/><path fill="#626866" d="M1205.371 563.861l-.251 1.789s37.007-7.536 52.562-2.939c13.172 4.216 12.79.633 16.309-3.065 4.063-4.271 11.938-7.69 18.517-9.167 12.311-2.765 25.348-1.86 25.348-1.86l-24.922-14.648-19.318.767-21.076 10.729-29.229-.255s-7.401-2.3-9.283 1.66c-1.882 3.96-8.657 16.989-8.657 16.989z"/><path fill="#CAB38B" d="M1206.751 557.602l-1.631 8.048s22.079-10.559 61.721-4.258c14.05-9.538 27.514-17.797 51.015-12.773-21.785-15.158-26.428-15.413-26.804-15.541-.376-.128-18.817.893-20.071 1.405-1.255.511-13.423 2.427-16.936 2.427s-16.434-.384-21.2-.511c-4.768-.128-11.04-1.022-13.173.766-2.132 1.789-12.921 20.437-12.921 20.437z"/><path fill="#C3A282" d="M1170.246 516.6l-1.756-.681-.879 3.235 37.509 46.495s4.517-2.939 4.266-8.048c-.251-5.109-2.635-13.539-3.011-14.178-.376-.637-36.129-26.823-36.129-26.823z"/><path fill="#B5A077" d="M1211.242 560.496s26.991-13.32 48.283-1.167c0 0-17.425-14.911-48.283 1.167z"/><path fill="#E3E0B0" d="M1266.841 561.392c16.057-28.952 51.015-12.773 51.015-12.773-6.523-18.733-35.125-51.774-52.855-52.285-17.73-.512-35.961 23.333-35.961 23.333-41.147-25.205-60.549-3.747-60.549-3.747l40.645 44.791c25.59-26.399 57.705.681 57.705.681z"/><path fill="#D8C8A3" d="M1266.168 560.856c.438.339.673.536.673.536 2.932-5.286 6.495-9.062 10.36-11.713-10.533-16.613-32.48-33.662-39.839-39.117-5.076 4.864-8.323 9.105-8.323 9.105 15.816 9.603 32.883 34.704 37.129 41.189z"/><path fill="#B5A077" d="M1270.868 555.558s17.337-11.53 33.611-9.564c0 .001-13.887-4.033-33.611 9.564z"/></g><g><path fill="#A44637" d="M207.065 676.672c-1.505 18.648-4.015 32.444-52.939 45.218-10.538 3.065-13.297 7.664 3.262 9.708 16.559 2.043 33.62-1.277 37.132-2.555 0 0-20.322 17.116-26.344 20.436-6.021 3.321-7.276 3.832 3.763 2.3 11.04-1.533 25.089-5.109 35.376-10.219 10.287-5.109 22.832-9.452 42.903-8.686 20.071.767 33.62 4.599 51.684 5.876 18.065 1.277 36.38 1.023 22.581-5.109-13.799-6.131-20.071-10.984-21.326-11.496-1.254-.511 22.33-12.262 54.193-8.941 31.864 3.321 28.351 1.022 18.315-5.109-10.036-6.131-41.146-21.459-50.681-26.058-9.534-4.598-22.581-1.788-25.34-23.503-2.76-21.715-.753-32.444 4.767-37.808.941-.915 2.239-1.793 3.735-2.62l-89.123.319-22.246 2.556s-.768 1.846-2.001 4.745c3.822 9.671 13.501 35.932 12.289 50.946z"/><path fill="#7B3A30" d="M282.418 694.895c2.007 23.332 20.74 27.25 20.74 27.25-1.254-.511 22.33-12.262 54.193-8.941 4.973.519 9.083.899 12.442 1.151-7.385-2.88-19.074-5.657-33.517-9.241-19.904-4.938-36.797-16.69-43.321-29.464-6.523-12.774-12.545-4.087-10.537 19.245zM193.266 622.002s15.305 36.021 13.799 54.67c-1.352 16.744-3.52 29.575-39.359 41.267-1.099 2.704-6.957 9.611-10.404 13.647.029.003.056.007.086.012 16.559 2.043 33.62-1.277 37.132-2.555 0 0-13.911 11.715-22.124 17.64 69.181-20.905 56.33-108.16 56.33-108.16 12.46-3.245 58.167-4.574 70.179-4.872.687-5.051 2.084-8.698 4.102-11.337l-113.587-5.081-.496 2.355a706.03 706.03 0 0 1 4.342 2.414z"/><path fill="#62382C" d="M207.042 676.953c-1.509 18.507-4.238 32.227-52.916 44.938-10.538 3.065-13.297 7.664 3.262 9.708 14.527 1.793 29.439-.543 35.251-2.006 17.308-9.931 14.509-51.388 14.509-51.388a17.12 17.12 0 0 0-.106-1.252z"/><path fill="#713A2B" d="M234.915 649.592s0 77.492-26.26 63.186c0 0 2.341 4.77 9.868 4.77 7.526-.001 18.399-17.033 16.392-67.956zM206.244 684.268c-.042.268-.085.535-.13.801 6.814-2.552 23.344-12.759 18.932-51.146 0 0 2.143 37.297-18.802 50.345zM253.146 651.807s2.342 52.967 8.53 76.981c.001 0-11.373-37.469-8.53-76.981zM282.418 692.511s-1.505-14.647 2.007-14.477c3.512.17 6.857 25.548 3.178 26.739-3.68 1.191-11.207-10.901-12.712-29.976s.502-44.621.502-44.621-3.848 30.826-2.677 45.984c1.171 15.157 6.022 33.21 15.221 33.21s1.84-33.551-3.847-33.21c-5.687.341-1.672 16.351-1.672 16.351zM283.421 629.496s2.174 33.892 22.413 54.841c0-.001-23.416-19.417-22.413-54.841z"/><path fill="#A65839" d="M215.512 596.795l1.673 25.207-13.381 13.624-63.226-56.202 4.014-19.756 27.097 11.58z"/><path fill="#C06D32" d="M209.156 604.63l-5.353 6.472v24.524s92.329-12.603 120.429-9.537l9.702-23.843-27.431-5.451s-52.521-4.087-58.207-4.087c-5.687 0-39.14 11.922-39.14 11.922z"/><path fill="#DA9157" d="M144.592 559.668l59.212 51.434 130.131-8.856-57.205-43.94z"/></g></svg>